<svg xmlns:inkscape="http://www.inkscape.org/namespaces/inkscape" xmlns:sodipodi="http://sodipodi.sourceforge.net/DTD/sodipodi-0.dtd" xmlns="http://www.w3.org/2000/svg" xmlns:svg="http://www.w3.org/2000/svg" version="1.1" id="a" x="0px" y="0px" style="enable-background:new 0 0 1000 269.4;" xml:space="preserve" sodipodi:docname="nearsure.svg" inkscape:export-filename="nearsure.svg" inkscape:export-xdpi="96" inkscape:export-ydpi="96" inkscape:version="1.3.2 (091e20e, 2023-11-25)" viewBox="82.15 59.7 835.7 150.05"><defs id="defs10"/><sodipodi:namedview id="namedview10" pagecolor="#ffffff" bordercolor="#000000" borderopacity="0.25" inkscape:showpageshadow="2" inkscape:pageopacity="0.0" inkscape:pagecheckerboard="0" inkscape:deskcolor="#d1d1d1" inkscape:zoom="0.493" inkscape:cx="500" inkscape:cy="134.88844" inkscape:window-width="1920" inkscape:window-height="926" inkscape:window-x="0" inkscape:window-y="25" inkscape:window-maximized="1" inkscape:current-layer="a"/>
<style type="text/css" id="style1">
	.st0{fill:#000555;}
	.st1{fill:#00D0F5;}
</style>
<g id="g8" style="fill:#000000">
	<path class="st0" d="M371.2,83.4v100.5H356l-54.2-71.8l0.1,32v39.8h-16.8V83.4h15.2l54.2,71.8l-0.1-30V83.4   C354.4,83.4,371.2,83.4,371.2,83.4z" id="path1" style="fill:#000000"/>
	<path class="st0" d="M460.2,154.5h-56.7c1.3,10.3,9.9,16.9,22.4,16.9c8,0,16.1-2.9,20.4-7.3l9.8,9.5c-7,7.6-18.4,12.3-30.6,12.3   c-23.4,0-38.5-14.8-38.5-37.5s14.8-36.9,36.7-36.9C448.7,111.6,462.5,127.9,460.2,154.5L460.2,154.5z M403.7,142h41.2   c-1.1-10.1-8.9-16.5-20.7-16.5S405.7,131.5,403.7,142z" id="path2" style="fill:#000000"/>
	<path class="st0" d="M545.7,113v70.9h-14.3l-0.1-9.5c-5.5,6.9-14.9,11.1-25.8,11.1c-20.8,0-35.2-15.2-35.2-37s14.4-37,35.2-37   c11.1,0,20.4,4.2,25.8,11.1l0.1-9.5C531.4,113,545.7,113,545.7,113z M529.7,148.4c0-13.2-8.9-22.4-21.7-22.4s-21.7,9.2-21.7,22.4   s8.9,22.4,21.7,22.4C520.8,170.8,529.7,161.6,529.7,148.4z" id="path3" style="fill:#000000"/>
	<path class="st0" d="M619.2,117.7l-7.2,13.1c-4-2.7-7.6-3.9-11.9-3.9c-11.5,0-18.8,8.5-18.8,22.4v34.6h-16.1V113h14.3l0.1,10.9   c5.6-8.6,12.6-12.3,21.5-12.3C608.2,111.6,614.9,113.9,619.2,117.7L619.2,117.7z" id="path4" style="fill:#000000"/>
	<path class="st0" d="M623.5,175.1l7.5-11.6c6.3,5,15.6,7.9,25,7.9s14.2-2.9,14.2-8s-4.6-7.5-15.5-8.6c-18.5-1.7-29-9.5-29-21.8   s12.3-21.7,30.7-21.7c10.8,0,20.2,2.7,28.1,8.2l-7,11.5c-6.3-4-13.1-6-20.4-6c-10.2,0-15.6,2.9-15.6,8c0,4.6,4.2,7,14.5,8.2   c21,2.3,30.1,9,30.1,22.4s-12.2,22.1-30.6,22.1C643.6,185.6,633,182.2,623.5,175.1L623.5,175.1z" id="path5" style="fill:#000000"/>
	<path class="st0" d="M767.9,113v70.9h-14.3l-0.1-9.2c-6,7-14.3,10.6-24.1,10.6c-18.1,0-29.8-12.9-29.8-33.2V113h16.1v38.2   c0,12.5,6.3,19.7,16.7,19.7c11.8,0,19.7-8.6,19.7-20.5V113L767.9,113L767.9,113z" id="path6" style="fill:#000000"/>
	<path class="st0" d="M841.4,117.7l-7.2,13.1c-4-2.7-7.6-3.9-11.9-3.9c-11.5,0-18.8,8.5-18.8,22.4v34.6h-16.1V113h14.3l0.1,10.9   c5.6-8.6,12.6-12.3,21.5-12.3C830.3,111.6,837.1,113.9,841.4,117.7L841.4,117.7z" id="path7" style="fill:#000000"/>
	<path class="st0" d="M917.6,154.5h-56.7c1.3,10.3,9.9,16.9,22.4,16.9c8,0,16.1-2.9,20.4-7.3l9.8,9.5c-7,7.6-18.4,12.3-30.6,12.3   c-23.4,0-38.5-14.8-38.5-37.5s14.8-36.9,36.7-36.9C906.1,111.6,919.9,127.9,917.6,154.5L917.6,154.5z M861,142h41.2   c-1.2-10.1-8.9-16.5-20.7-16.5S863,131.5,861,142z" id="path8" style="fill:#000000"/>
</g>
<g id="g10" style="fill:#000000">
	<path class="st1" d="M164.1,127.8c-18.2-18.2-15.1-43.9-30.5-59.2c-11.8-11.8-30.8-11.8-42.6,0c-11.8,11.8-11.8,30.8,0,42.6   c15.4,15.4,41.1,12.3,59.2,30.5c18.2,18.2,15.1,43.9,30.5,59.2c11.8,11.8,30.9,11.8,42.6,0c11.8-11.8,11.8-30.9,0-42.6   C208,142.9,182.3,146,164.1,127.8L164.1,127.8z" id="path9" style="fill:#000000"/>
	<circle class="st1" cx="206.4" cy="85.4" r="25.7" id="circle9" style="fill:#000000"/>
	<circle class="st1" cx="107.9" cy="184" r="25.7" id="circle10" style="fill:#000000"/>
</g>
</svg>