<?xml version="1.0" encoding="UTF-8" standalone="no"?>
<svg
   width="230"
   height="40"
   fill="none"
   version="1.1"
   id="svg14"
   sodipodi:docname="alert-message.svg"
   inkscape:version="1.3.2 (091e20e, 2023-11-25)"
   inkscape:export-filename="alert-message-sale.svg"
   inkscape:export-xdpi="96"
   inkscape:export-ydpi="96"
   xmlns:inkscape="http://www.inkscape.org/namespaces/inkscape"
   xmlns:sodipodi="http://sodipodi.sourceforge.net/DTD/sodipodi-0.dtd"
   xmlns="http://www.w3.org/2000/svg"
   xmlns:svg="http://www.w3.org/2000/svg">
  <defs
     id="defs18" />
  <sodipodi:namedview
     id="namedview16"
     pagecolor="#ffffff"
     bordercolor="#666666"
     borderopacity="1.0"
     inkscape:showpageshadow="2"
     inkscape:pageopacity="0.0"
     inkscape:pagecheckerboard="0"
     inkscape:deskcolor="#d1d1d1"
     showgrid="false"
     inkscape:zoom="4.1533333"
     inkscape:cx="130.73836"
     inkscape:cy="53.330659"
     inkscape:window-width="1920"
     inkscape:window-height="926"
     inkscape:window-x="0"
     inkscape:window-y="25"
     inkscape:window-maximized="1"
     inkscape:current-layer="svg14" />
  <path
     d="m 36.608331,6.0807709 v 1.184 h -3.04 v 9.9680001 h -1.456 V 7.2647709 h -3.056 v -1.184 z m 2.544006,0.96 q -0.416,0 -0.704,-0.288 -0.288,-0.288 -0.288,-0.704 0,-0.416 0.288,-0.704 0.288,-0.288 0.704,-0.288 0.4,0 0.672,0.288 0.288,0.288 0.288,0.704 0,0.416 -0.288,0.704 -0.272,0.288 -0.672,0.288 z m 0.704,1.424 v 8.7680001 h -1.456 V 8.4647709 Z m 1.936005,4.3680001 q 0,-1.36 0.544,-2.368 0.544,-1.0240001 1.504,-1.5840001 0.976,-0.56 2.224,-0.56 1.616,0 2.656,0.784 1.056,0.784 1.392,2.1760001 h -1.568 q -0.224,-0.8 -0.88,-1.264 -0.64,-0.4640001 -1.6,-0.4640001 -1.248,0 -2.016,0.8640001 -0.768,0.848 -0.768,2.416 0,1.584 0.768,2.448 0.768,0.864 2.016,0.864 0.96,0 1.6,-0.448 0.64,-0.448 0.88,-1.28 h 1.568 q -0.352,1.344 -1.408,2.16 -1.056,0.8 -2.64,0.8 -1.248,0 -2.224,-0.56 -0.96,-0.56 -1.504,-1.584 -0.544,-1.024 -0.544,-2.4 z m 15.152005,4.4 -3.44,-3.872 v 3.872 h -1.456 V 5.3927709 h 1.456 v 6.9600001 l 3.376,-3.8880001 h 2.032 l -4.128,4.3680001 4.144,4.4 z m 11.34399,-4.72 q 0,0.416 -0.048,0.88 h -7.008 q 0.08,1.296 0.88,2.032 0.816,0.72 1.968,0.72 0.944,0 1.568,-0.432 0.64,-0.448 0.896,-1.184 h 1.568 q -0.352,1.264 -1.408,2.064 -1.056,0.784 -2.624,0.784 -1.248,0 -2.24,-0.56 -0.976,-0.56 -1.536,-1.584 -0.56,-1.04 -0.56,-2.4 0,-1.36 0.544,-2.384 0.544,-1.0240001 1.52,-1.5680001 0.992,-0.56 2.272,-0.56 1.248,0 2.208,0.544 0.96,0.544 1.472,1.5040001 0.528,0.944 0.528,2.144 z m -1.504,-0.304 q 0,-0.832 -0.368,-1.424 -0.368,-0.608 -1.008,-0.9120001 -0.624,-0.32 -1.392,-0.32 -1.104,0 -1.888,0.7040001 -0.768,0.704 -0.88,1.952 z m 5.200014,-2.5440001 v 5.1680001 q 0,0.64 0.272,0.912 0.272,0.256 0.944,0.256 h 1.072 v 1.232 h -1.312 q -1.216,0 -1.824,-0.56 -0.608,-0.56 -0.608,-1.84 V 9.6647709 h -1.136 v -1.2 h 1.136 v -2.208 h 1.456 v 2.208 h 2.288 v 1.2 z m 7.152005,7.7120001 q -1.008,0 -1.808,-0.336 -0.8,-0.352 -1.264,-0.96 -0.464,-0.624 -0.512,-1.424 h 1.504 q 0.064,0.656 0.608,1.072 0.56,0.416 1.456,0.416 0.832,0 1.312,-0.368 0.48,-0.368 0.48,-0.928 0,-0.576 -0.512,-0.848 -0.512,-0.288 -1.584,-0.56 -0.976,-0.256 -1.6,-0.512 -0.608,-0.272 -1.056,-0.784 -0.432,-0.528 -0.432,-1.376 0,-0.672 0.4,-1.2320001 0.4,-0.56 1.136,-0.88 0.736,-0.336 1.68,-0.336 1.456,0 2.352,0.736 0.896,0.736 0.96,2.0160001 h -1.456 q -0.048,-0.688 -0.56,-1.1040001 -0.496,-0.416 -1.344,-0.416 -0.784,0 -1.248,0.336 -0.464,0.3360001 -0.464,0.8800001 0,0.432 0.272,0.72 0.288,0.272 0.704,0.448 0.432,0.16 1.184,0.368 0.944,0.256 1.536,0.512 0.592,0.24 1.008,0.736 0.432,0.496 0.448,1.296 0,0.72 -0.4,1.296 -0.4,0.576 -1.136,0.912 -0.72,0.32 -1.664,0.32 z m 13.343993,0 q -1.232,0 -2.24,-0.56 -0.992,-0.56 -1.568,-1.584 -0.56,-1.04 -0.56,-2.4 0,-1.344 0.576,-2.368 0.592,-1.0400001 1.6,-1.5840001 1.008,-0.56 2.256,-0.56 1.248,0 2.256,0.56 1.008,0.544 1.584,1.5680001 0.592,1.024 0.592,2.384 0,1.36 -0.608,2.4 -0.592,1.024 -1.616,1.584 -1.024,0.56 -2.272,0.56 z m 0,-1.28 q 0.784,0 1.472,-0.368 0.688,-0.368 1.104,-1.104 0.432,-0.736 0.432,-1.792 0,-1.056 -0.416,-1.792 -0.416,-0.736 -1.088,-1.0880001 -0.672,-0.368 -1.456,-0.368 -0.8,0 -1.472,0.368 -0.656,0.3520001 -1.056,1.0880001 -0.4,0.736 -0.4,1.792 0,1.072 0.384,1.808 0.4,0.736 1.056,1.104 0.656,0.352 1.44,0.352 z M 103.16834,8.3047709 q 1.6,0 2.592,0.976 0.992,0.9600001 0.992,2.7840001 v 5.168 h -1.44 v -4.96 q 0,-1.312 -0.656,-2 -0.656,-0.7040001 -1.792,-0.7040001 -1.152,0 -1.84,0.7200001 -0.672,0.72 -0.672,2.096 v 4.848 H 98.896339 V 8.4647709 h 1.456001 v 1.248 q 0.432,-0.672 1.168,-1.04 0.752,-0.368 1.648,-0.368 z m 13.34399,9.0720001 q -1.008,0 -1.808,-0.336 -0.8,-0.352 -1.264,-0.96 -0.464,-0.624 -0.512,-1.424 h 1.504 q 0.064,0.656 0.608,1.072 0.56,0.416 1.456,0.416 0.832,0 1.312,-0.368 0.48,-0.368 0.48,-0.928 0,-0.576 -0.512,-0.848 -0.512,-0.288 -1.584,-0.56 -0.976,-0.256 -1.6,-0.512 -0.608,-0.272 -1.056,-0.784 -0.432,-0.528 -0.432,-1.376 0,-0.672 0.4,-1.2320001 0.4,-0.56 1.136,-0.88 0.736,-0.336 1.68,-0.336 1.456,0 2.352,0.736 0.896,0.736 0.96,2.0160001 h -1.456 q -0.048,-0.688 -0.56,-1.1040001 -0.496,-0.416 -1.344,-0.416 -0.784,0 -1.248,0.336 -0.464,0.3360001 -0.464,0.8800001 0,0.432 0.272,0.72 0.288,0.272 0.704,0.448 0.432,0.16 1.184,0.368 0.944,0.256 1.536,0.512 0.592,0.24 1.008,0.736 0.432,0.496 0.448,1.296 0,0.72 -0.4,1.296 -0.4,0.576 -1.136,0.912 -0.72,0.32 -1.664,0.32 z m 4.70399,-4.56 q 0,-1.344 0.544,-2.352 0.544,-1.0240001 1.488,-1.5840001 0.96,-0.56 2.128,-0.56 1.152,0 2,0.496 0.848,0.496 1.264,1.2480001 V 8.4647709 h 1.472 v 8.7680001 h -1.472 v -1.632 q -0.432,0.768 -1.296,1.28 -0.848,0.496 -1.984,0.496 -1.168,0 -2.112,-0.576 -0.944,-0.576 -1.488,-1.616 -0.544,-1.04 -0.544,-2.368 z m 7.424,0.016 q 0,-0.992 -0.4,-1.728 -0.4,-0.736 -1.088,-1.1200001 -0.672,-0.4 -1.488,-0.4 -0.816,0 -1.488,0.384 -0.672,0.3840001 -1.072,1.1200001 -0.4,0.736 -0.4,1.728 0,1.008 0.4,1.76 0.4,0.736 1.072,1.136 0.672,0.384 1.488,0.384 0.816,0 1.488,-0.384 0.688,-0.4 1.088,-1.136 0.4,-0.752 0.4,-1.744 z m 5.39201,-7.4400001 V 17.232771 h -1.456 V 5.3927709 Z m 10.48001,7.1200001 q 0,0.416 -0.048,0.88 h -7.008 q 0.08,1.296 0.88,2.032 0.816,0.72 1.968,0.72 0.944,0 1.568,-0.432 0.64,-0.448 0.896,-1.184 h 1.568 q -0.352,1.264 -1.408,2.064 -1.056,0.784 -2.624,0.784 -1.248,0 -2.24,-0.56 -0.976,-0.56 -1.536,-1.584 -0.56,-1.04 -0.56,-2.4 0,-1.36 0.544,-2.384 0.544,-1.0240001 1.52,-1.5680001 0.992,-0.56 2.272,-0.56 1.248,0 2.208,0.544 0.96,0.544 1.472,1.5040001 0.528,0.944 0.528,2.144 z m -1.504,-0.304 q 0,-0.832 -0.368,-1.424 -0.368,-0.608 -1.008,-0.9120001 -0.624,-0.32 -1.392,-0.32 -1.104,0 -1.888,0.7040001 -0.768,0.704 -0.88,1.952 z m 11.96801,-3.9040001 q 1.6,0 2.592,0.976 0.992,0.9600001 0.992,2.7840001 v 5.168 h -1.44 v -4.96 q 0,-1.312 -0.656,-2 -0.656,-0.7040001 -1.792,-0.7040001 -1.152,0 -1.84,0.7200001 -0.672,0.72 -0.672,2.096 v 4.848 h -1.456 V 8.4647709 h 1.456 v 1.248 q 0.432,-0.672 1.168,-1.04 0.752,-0.368 1.648,-0.368 z m 9.79199,9.0720001 q -1.232,0 -2.24,-0.56 -0.992,-0.56 -1.568,-1.584 -0.56,-1.04 -0.56,-2.4 0,-1.344 0.576,-2.368 0.592,-1.0400001 1.6,-1.5840001 1.008,-0.56 2.256,-0.56 1.248,0 2.256,0.56 1.008,0.544 1.584,1.5680001 0.592,1.024 0.592,2.384 0,1.36 -0.608,2.4 -0.592,1.024 -1.616,1.584 -1.024,0.56 -2.272,0.56 z m 0,-1.28 q 0.784,0 1.472,-0.368 0.688,-0.368 1.104,-1.104 0.432,-0.736 0.432,-1.792 0,-1.056 -0.416,-1.792 -0.416,-0.736 -1.088,-1.0880001 -0.672,-0.368 -1.456,-0.368 -0.8,0 -1.472,0.368 -0.656,0.3520001 -1.056,1.0880001 -0.4,0.736 -0.4,1.792 0,1.072 0.384,1.808 0.4,0.736 1.056,1.104 0.656,0.352 1.44,0.352 z m 18.09599,-7.6320001 -2.736,8.7680001 h -1.504 l -2.112,-6.96 -2.112,6.96 h -1.504 l -2.752,-8.7680001 h 1.488 l 2.016,7.3600001 2.176,-7.3600001 h 1.488 l 2.128,7.3760001 1.984,-7.3760001 z m 3.328,-2.384 -0.176,8.0000001 h -1.216 l -0.176,-8.0000001 z m -0.72,11.2480001 q -0.416,0 -0.704,-0.288 -0.288,-0.288 -0.288,-0.704 0,-0.416 0.288,-0.704 0.288,-0.288 0.704,-0.288 0.4,0 0.672,0.288 0.288,0.288 0.288,0.704 0,0.416 -0.288,0.704 -0.272,0.288 -0.672,0.288 z"
     id="text190"
     style="font-size:16px;line-height:1.25;font-family:Poppins;-inkscape-font-specification:Poppins;fill:#000000"
     inkscape:label="text190"
     aria-label="Tickets on sale now!" />
</svg>
