<svg width="350" height="459" viewBox="0 0 350 459" fill="none" xmlns="http://www.w3.org/2000/svg">
<g clip-path="url(#clip0_22_411)">
<path d="M177.844 446.679L177.766 446.681C176.964 446.695 176.321 445.727 176.365 444.904C176.431 443.12 178.166 400.865 180.479 394.498C181.194 388.453 144.497 296.077 119.653 235.531C119.346 234.773 119.702 233.885 120.46 233.578C121.198 233.271 122.064 233.608 122.371 234.367C137.216 270.55 185.509 389.101 183.254 395.389C181.463 400.317 179.812 432.974 179.321 445.027C179.296 445.811 178.666 446.665 177.883 446.678L177.844 446.679Z" fill="#0D0D0D"/>
<path d="M114.474 238.278C114.517 241.073 114.835 243.679 116.26 243.876C118.195 244.15 118.642 242.63 118.722 241.557C118.664 241.473 118.612 241.393 118.565 241.319C118.467 241.165 118.391 241.034 118.34 240.94C118.329 240.92 118.319 240.902 118.31 240.886C118.298 240.863 118.288 240.844 118.28 240.828L118.263 240.796L118.259 240.787L118.257 240.784L118.257 240.783L118.257 240.782C118.257 240.782 118.256 240.782 118.705 240.562L114.474 238.278ZM114.474 238.278C114.483 238.278 114.491 238.277 114.5 238.276L114.469 237.777L113.969 237.78C113.969 237.788 113.969 237.796 113.969 237.804C93.6608 238.694 71.3928 218.737 64.8949 199.194C57.5596 177.193 69.4432 153.402 91.4201 146.06C113.387 138.747 137.097 150.582 144.468 172.544L114.474 238.278ZM144.024 172.793L144.03 172.792C147.439 183.039 147.426 196.034 144.179 207.689C140.928 219.358 134.464 229.587 125.067 234.399L124.456 234.711L124.941 235.197C125.755 236.012 126.476 236.87 126.895 237.633C127.335 238.436 127.337 238.927 127.129 239.205L127.127 239.207C126.655 239.848 126.248 240.086 125.943 240.156C125.644 240.226 125.358 240.154 125.08 239.99C124.796 239.824 124.55 239.576 124.369 239.357C124.281 239.249 124.212 239.153 124.166 239.085C124.143 239.051 124.125 239.025 124.115 239.008L124.103 238.989L124.102 238.987L124.102 238.987C124.102 238.987 124.102 238.987 124.099 238.988L123.204 239.411C123.201 239.412 123.201 239.412 123.201 239.412L123.201 239.412L123.202 239.414L123.208 239.43C123.213 239.446 123.221 239.471 123.231 239.504C123.251 239.571 123.279 239.669 123.306 239.791C123.36 240.036 123.41 240.364 123.4 240.71C123.381 241.393 123.143 242.073 122.293 242.421C121.49 242.751 120.758 242.362 120.131 241.713C119.827 241.399 119.581 241.054 119.409 240.783C119.324 240.649 119.259 240.536 119.216 240.457C119.194 240.418 119.178 240.387 119.167 240.367L119.156 240.346L119.154 240.341L119.154 240.341C119.154 240.341 119.154 240.341 119.153 240.342L118.211 240.627C118.21 240.627 118.21 240.627 118.21 240.627L118.21 240.628L118.21 240.632L118.213 240.657C118.215 240.679 118.219 240.714 118.222 240.76C118.229 240.851 118.237 240.982 118.237 241.139C118.237 241.457 118.209 241.861 118.104 242.242C117.998 242.625 117.826 242.941 117.572 243.142C117.333 243.332 116.958 243.47 116.33 243.381L116.328 243.38C116.126 243.352 115.939 243.237 115.758 242.972C115.571 242.697 115.413 242.288 115.291 241.753C115.047 240.685 114.976 239.26 114.969 237.775L114.967 237.246L114.439 237.278C104.387 237.89 93.7508 233.245 84.7887 225.953C75.8306 218.664 68.6103 208.783 65.3694 199.036L65.3693 199.035C58.1212 177.297 69.8636 153.789 91.5784 146.534C113.313 139.299 136.776 151.035 144.024 172.793Z" fill="url(#paint0_linear_22_411)" stroke="black"/>
<path d="M181.862 396.354C181.333 396.363 180.8 396.079 180.537 395.574C176.468 387.871 120.776 178.657 118.408 169.749C118.198 168.969 118.673 168.158 119.452 167.948C120.23 167.738 121.041 168.214 121.25 168.993C141.289 244.293 180.016 388.259 183.134 394.196C183.519 394.914 183.241 395.8 182.524 396.185C182.31 396.287 182.096 396.35 181.862 396.354Z" fill="#0D0D0D"/>
<path d="M128.651 175.932C126.853 176.797 125.36 175.572 124.62 174.75C124.622 174.719 124.623 174.688 124.624 174.658C124.631 174.484 124.63 174.341 124.627 174.239C124.625 174.188 124.623 174.148 124.621 174.119L124.619 174.084L124.618 174.074L124.618 174.071L124.618 174.069L124.618 174.069C124.618 174.069 124.618 174.068 124.119 174.113C123.698 174.382 123.698 174.382 123.698 174.382L123.698 174.383L123.699 174.384L123.701 174.387L123.707 174.396L123.728 174.427C123.745 174.453 123.77 174.489 123.802 174.534C123.867 174.623 123.961 174.748 124.081 174.892C124.089 174.902 124.098 174.912 124.106 174.922L128.651 175.932ZM128.651 175.932C130.25 175.181 128.62 171.413 127.154 168.627L128.651 175.932ZM164.881 72.5599L164.893 72.558C170.258 88.7936 169.852 109.634 164.038 127.766C158.216 145.919 147.015 161.242 130.9 166.582L130.898 166.583C129.559 167.03 128.176 167.383 126.804 167.68L126.154 167.82L126.469 168.406C127.225 169.807 128.063 171.514 128.504 172.954C128.727 173.679 128.834 174.293 128.806 174.748C128.778 175.194 128.632 175.389 128.439 175.48L128.435 175.482C127.38 175.989 126.451 175.639 125.719 175.088C125.353 174.813 125.056 174.499 124.849 174.251C124.746 174.128 124.667 174.023 124.614 173.95C124.588 173.914 124.569 173.885 124.556 173.867L124.543 173.847L124.541 173.844L124.541 173.844C124.541 173.844 124.541 173.844 124.54 173.844L123.623 174.157C123.621 174.157 123.621 174.157 123.621 174.157L123.621 174.157L123.622 174.16L123.623 174.181C123.624 174.201 123.626 174.231 123.627 174.272C123.63 174.352 123.631 174.471 123.625 174.617C123.613 174.911 123.573 175.305 123.46 175.715C123.235 176.534 122.749 177.348 121.688 177.648C121.178 177.792 120.81 177.699 120.518 177.506C120.205 177.299 119.944 176.951 119.735 176.533C119.527 176.12 119.39 175.678 119.304 175.332C119.261 175.161 119.232 175.017 119.214 174.917C119.205 174.868 119.198 174.829 119.194 174.803L119.19 174.775L119.189 174.77L119.189 174.769L119.189 174.769C119.189 174.769 119.189 174.769 119.188 174.769L118.204 174.745C118.202 174.745 118.202 174.745 118.202 174.745L118.202 174.745L118.202 174.745L118.201 174.752L118.194 174.783C118.188 174.812 118.178 174.855 118.164 174.912C118.137 175.024 118.093 175.184 118.03 175.372C117.902 175.753 117.702 176.224 117.409 176.634C117.116 177.045 116.755 177.361 116.31 177.495C115.876 177.626 115.283 177.607 114.471 177.192L114.47 177.191C114.07 176.988 113.826 176.643 113.709 176.141C113.588 175.621 113.609 174.953 113.753 174.179C114.039 172.632 114.78 170.821 115.52 169.28L115.842 168.611L115.101 168.565C100.849 167.674 86.2225 160.256 74.0101 149.604C61.8002 138.954 52.0543 125.114 47.539 111.457L47.5389 111.457C36.7939 79.0083 54.3578 43.9993 86.7705 33.264C119.183 22.5286 154.156 40.1116 164.881 72.5599Z" fill="url(#paint1_linear_22_411)" stroke="black"/>
<path d="M186.752 395.17C186.752 395.17 186.673 395.172 186.634 395.172C185.831 395.128 185.213 394.434 185.257 393.63C190.762 295.864 170.788 121.66 170.601 119.901C170.508 119.099 171.082 118.365 171.882 118.272C172.722 118.179 173.417 118.754 173.509 119.555C173.717 121.314 193.714 295.772 188.194 393.774C188.149 394.538 187.514 395.137 186.751 395.151L186.752 395.17Z" fill="#0D0D0D"/>
<path d="M214.828 46.0514L214.853 46.2198L214.873 46.2386C216.742 59.2168 213.883 74.7706 207.415 87.9161C200.916 101.125 190.823 111.808 178.34 115.067L177.644 115.248L178.057 115.837C178.905 117.049 179.918 118.629 180.52 119.994C180.823 120.682 181.001 121.272 181.025 121.712C181.048 122.142 180.928 122.305 180.772 122.386L180.769 122.388C179.866 122.863 178.957 122.504 178.165 121.875C177.779 121.569 177.456 121.223 177.228 120.95C177.114 120.814 177.026 120.699 176.967 120.618C176.937 120.578 176.915 120.547 176.901 120.526L176.885 120.504L176.882 120.499L176.882 120.499L176.882 120.499C176.882 120.499 176.882 120.499 176.881 120.499L175.97 120.839C175.97 120.839 175.97 120.839 175.97 120.839L175.97 120.839L175.97 120.84L175.971 120.848L175.974 120.879C175.977 120.907 175.982 120.95 175.987 121.006C175.997 121.116 176.009 121.277 176.018 121.472C176.035 121.864 176.037 122.387 175.976 122.92C175.915 123.459 175.794 123.977 175.586 124.38C175.382 124.774 175.115 125.024 174.759 125.119C174.388 125.218 174.093 125.138 173.83 124.951C173.548 124.752 173.297 124.423 173.086 124.034C172.878 123.652 172.726 123.246 172.627 122.93C172.578 122.774 172.542 122.643 172.518 122.552C172.507 122.506 172.498 122.471 172.493 122.448L172.487 122.423L172.486 122.417L172.486 122.417L172.486 122.416L172.486 122.416L172.486 122.416L172.128 120.72L171.528 122.346L171.528 122.346L171.528 122.347L171.527 122.348L171.525 122.355L171.513 122.386C171.509 122.396 171.504 122.408 171.498 122.422C171.489 122.446 171.477 122.476 171.463 122.51C171.418 122.618 171.351 122.772 171.264 122.954C171.089 123.319 170.839 123.782 170.532 124.197C170.219 124.621 169.879 124.949 169.54 125.104C169.236 125.243 168.914 125.257 168.524 125.006L168.523 125.005C168.385 124.917 168.22 124.664 168.129 124.095C168.043 123.553 168.042 122.841 168.111 122.017C168.246 120.373 168.644 118.387 169.052 116.643L169.188 116.061L168.591 116.03C156.22 115.39 144.168 107.834 134.722 97.2405C125.28 86.652 118.506 73.0975 116.655 60.59C112.648 33.4375 131.376 8.19032 158.478 4.18085C185.601 0.170967 210.822 18.8994 214.828 46.0514Z" fill="url(#paint2_linear_22_411)" stroke="black"/>
<path opacity="0.4" d="M162.125 14.8618C166.278 20.6831 171.115 19.8336 169.889 14.7241C168.664 9.61466 159.798 11.5933 162.125 14.8618Z" fill="#9EE048"/>
<path d="M311.695 80.8057L311.645 82.1142L311.651 82.108C310.702 98.5614 303.616 116.887 292.756 131.614C281.599 146.743 266.523 157.992 250.126 159.589L249.384 159.662L249.733 160.321C250.798 162.334 251.933 164.854 252.494 167.041C252.776 168.137 252.903 169.114 252.826 169.885C252.749 170.652 252.482 171.145 252.041 171.412L252.04 171.413C250.913 172.1 250.091 172.238 249.502 172.143C248.919 172.048 248.476 171.71 248.13 171.256C247.781 170.796 247.553 170.242 247.413 169.787C247.343 169.563 247.297 169.369 247.268 169.232C247.254 169.164 247.244 169.111 247.238 169.076C247.235 169.058 247.233 169.045 247.231 169.037L247.23 169.028L247.23 169.028L247.23 169.027C247.23 169.027 247.23 169.027 247.227 169.028L246.238 169.08C246.235 169.08 246.235 169.08 246.235 169.08L246.235 169.08L246.235 169.08L246.235 169.087L246.233 169.119C246.232 169.132 246.231 169.147 246.23 169.166C246.228 169.19 246.225 169.219 246.222 169.252C246.211 169.37 246.191 169.54 246.156 169.745C246.085 170.159 245.953 170.702 245.715 171.239C245.243 172.304 244.388 173.287 242.748 173.291C241.147 173.295 240.215 172.115 239.66 170.737C239.388 170.06 239.226 169.377 239.133 168.859C239.086 168.601 239.057 168.387 239.04 168.239C239.032 168.164 239.026 168.107 239.022 168.069L239.019 168.026L239.018 168.017L239.018 168.015L239.018 168.015C239.018 168.015 239.018 168.015 239.017 168.015L238.037 167.924C238.035 167.924 238.035 167.924 238.035 167.924L238.035 167.924L238.035 167.925L238.032 167.935C238.03 167.944 238.026 167.958 238.02 167.977C238.009 168.015 237.993 168.072 237.969 168.145C237.923 168.291 237.852 168.498 237.754 168.741C237.556 169.229 237.258 169.842 236.849 170.375C236.437 170.91 235.943 171.328 235.362 171.498C234.798 171.662 234.074 171.615 233.14 171.067L233.139 171.066C232.699 170.81 232.429 170.331 232.347 169.559C232.265 168.78 232.386 167.779 232.664 166.621C233.217 164.31 234.349 161.536 235.431 158.985L235.654 158.459L235.102 158.308C219.859 154.133 206.671 141.628 197.441 126.073C188.212 110.524 182.985 92.0033 183.603 75.9068L183.603 75.9065C184.936 40.4947 214.71 12.8772 250.084 14.2319L250.103 13.7323L250.084 14.2319C285.477 15.5864 313.047 45.3933 311.695 80.8057Z" fill="url(#paint3_linear_22_411)" stroke="black"/>
<path d="M193.437 441.213C192.733 441.225 192.098 440.727 191.968 440.005C191.685 438.404 185.112 400.879 185.238 393.689C185.366 386.558 203.222 239.513 203.991 233.252C204.094 232.447 204.828 231.866 205.631 231.969C206.435 232.073 207.016 232.807 206.913 233.611C206.725 235.142 188.304 386.76 188.193 393.735C188.062 400.65 194.808 439.093 194.874 439.483C195.005 440.284 194.491 441.037 193.691 441.189C193.613 441.19 193.535 441.191 193.457 441.193L193.437 441.213Z" fill="#0D0D0D"/>
<path d="M209.144 236.262L209.141 236.259L209.141 236.259L209.141 236.258C209.141 236.258 209.141 236.258 209.14 236.259L208.23 236.601C208.23 236.601 208.23 236.601 208.23 236.601L208.23 236.601L208.23 236.601L208.23 236.607L208.233 236.634C208.236 236.658 208.24 236.694 208.244 236.742C208.253 236.836 208.264 236.974 208.272 237.141C208.287 237.477 208.289 237.923 208.238 238.378C208.186 238.838 208.084 239.275 207.91 239.61C207.742 239.938 207.525 240.135 207.243 240.209C206.945 240.288 206.711 240.224 206.499 240.073C206.267 239.909 206.057 239.636 205.877 239.306C205.701 238.981 205.572 238.636 205.487 238.367C205.445 238.234 205.415 238.122 205.395 238.045C205.385 238.006 205.378 237.976 205.373 237.957L205.369 237.936L205.368 237.931L205.368 237.931L205.367 237.931L205.367 237.931L205.009 236.23L204.409 237.862L204.409 237.862L204.409 237.862L204.409 237.863L204.407 237.868L204.397 237.895C204.387 237.919 204.373 237.954 204.354 238C204.316 238.093 204.259 238.224 204.185 238.379C204.036 238.692 203.823 239.087 203.562 239.44C203.296 239.802 203.012 240.074 202.736 240.2C202.495 240.31 202.243 240.324 201.927 240.12L201.922 240.117C201.83 240.059 201.689 239.864 201.612 239.362C201.539 238.889 201.542 238.263 201.606 237.535C201.732 236.085 202.09 234.334 202.453 232.817L202.565 232.347L202.1 232.218C191.613 229.317 183.08 220.266 177.548 209.104C172.018 197.949 169.534 184.777 171.072 173.769L171.072 173.769C174.25 150.928 195.083 134.886 217.846 137.53L217.837 137.54L218.809 137.675C241.971 140.903 258.11 162.315 254.886 185.484C253.409 196.093 247.795 207.617 239.903 216.691C232.008 225.769 221.893 232.328 211.453 233.13L210.637 233.192L211.065 233.89C211.655 234.851 212.179 235.836 212.429 236.632C212.555 237.033 212.597 237.341 212.573 237.553C212.551 237.741 212.487 237.818 212.397 237.866C211.66 238.251 210.908 237.962 210.233 237.426C209.905 237.166 209.63 236.872 209.435 236.64C209.338 236.525 209.263 236.427 209.213 236.359C209.187 236.325 209.169 236.298 209.157 236.281L209.144 236.262Z" fill="url(#paint4_linear_22_411)" stroke="black"/>
<path d="M199.324 441.108C198.659 441.12 198.045 440.68 197.876 439.998C197.497 438.438 188.354 401.703 187.305 396.61C186.705 393.643 199.432 361.162 230.12 284.59C242.597 253.464 254.381 224.054 255.071 221.046C255.065 220.693 255.176 220.339 255.425 220.041C255.962 219.424 256.881 219.368 257.497 219.906C258.344 220.635 250.125 242.565 232.839 285.697C214.891 330.473 190.292 391.817 190.193 396.186C191.219 401.064 200.616 438.931 200.72 439.301C200.91 440.081 200.436 440.893 199.656 441.083C199.539 441.104 199.442 441.126 199.325 441.128L199.324 441.108Z" fill="#0D0D0D"/>
<path d="M287.547 101.403L287.619 101.424L287.639 101.423C317.082 110.014 334.018 140.84 325.474 170.335L325.474 170.335C321.706 183.352 312.794 196.736 301.459 206.907C290.12 217.08 276.416 223.985 263.092 224.144L262.475 224.151L262.61 224.753C263.036 226.652 263.469 228.695 263.565 230.345C263.613 231.172 263.573 231.859 263.428 232.362C263.284 232.86 263.064 233.106 262.792 233.205C262.108 233.456 261.643 233.394 261.315 233.23C260.971 233.059 260.699 232.737 260.488 232.331C260.278 231.927 260.151 231.481 260.076 231.125C260.039 230.95 260.016 230.801 260.002 230.697C259.995 230.646 259.99 230.606 259.988 230.579L259.985 230.551L259.984 230.545L259.984 230.544C259.984 230.544 259.984 230.544 259.983 230.545L259.002 230.462C259.001 230.462 259.001 230.461 259.001 230.461L259.001 230.462L259.001 230.462L258.999 230.468L258.992 230.495C258.985 230.52 258.974 230.558 258.96 230.607C258.93 230.705 258.884 230.847 258.821 231.017C258.695 231.358 258.503 231.801 258.237 232.225C257.693 233.096 256.952 233.728 255.939 233.544C254.876 233.351 254.438 232.627 254.252 231.866C254.158 231.481 254.136 231.102 254.138 230.816C254.139 230.674 254.147 230.558 254.153 230.478C254.157 230.439 254.16 230.409 254.162 230.389L254.165 230.369L254.165 230.366L254.165 230.366C254.165 230.366 254.165 230.366 254.162 230.366L253.199 230.138C253.196 230.137 253.196 230.137 253.196 230.137L253.196 230.137L253.194 230.141L253.186 230.165C253.178 230.187 253.165 230.221 253.147 230.265C253.112 230.352 253.057 230.476 252.983 230.618C252.833 230.907 252.615 231.245 252.333 231.503C252.056 231.758 251.74 231.915 251.371 231.91C250.997 231.904 250.476 231.729 249.796 231.13C249.562 230.923 249.44 230.581 249.496 230.029C249.552 229.473 249.782 228.789 250.143 228.032C250.862 226.524 252.032 224.863 253.036 223.615L253.495 223.044L252.796 222.825C252.714 222.799 252.63 222.781 252.571 222.769L252.563 222.767C252.534 222.761 252.51 222.755 252.489 222.751C252.462 222.744 252.441 222.739 252.423 222.733L252.423 222.733L252.412 222.73C237.75 218.474 227.165 205.084 221.318 188.962C215.474 172.847 214.409 154.115 218.69 139.348L218.69 139.348C227.24 109.828 258.059 92.8419 287.547 101.403Z" fill="url(#paint5_linear_22_411)" stroke="black"/>
<path opacity="0.4" d="M317.187 156C312.063 153.897 306.282 166.593 314.161 169.587C322.039 172.561 321.778 157.877 317.187 156Z" fill="#FF667C"/>
<path d="M189.802 455.77C189.157 455.781 188.582 455.38 188.375 454.738C181.154 431.442 176.662 220.086 176.483 211.1C176.469 210.297 177.104 209.718 177.925 209.703C178.727 209.689 179.402 210.226 179.416 211.028C179.455 213.221 184.061 431.019 191.178 453.924C191.427 454.703 190.991 455.494 190.213 455.743C190.076 455.784 189.939 455.787 189.803 455.789L189.802 455.77Z" fill="#0D0D0D"/>
<path d="M181.238 217.712L181.238 217.711L181.238 217.711C181.238 217.711 181.238 217.711 181.236 217.711L180.253 217.771C180.252 217.77 180.252 217.77 180.252 217.77L180.252 217.771L180.252 217.772L180.251 217.781L180.247 217.819C180.242 217.854 180.235 217.907 180.225 217.975C180.205 218.11 180.173 218.305 180.124 218.537C180.024 219.003 179.859 219.605 179.597 220.175C179.333 220.749 178.989 221.25 178.552 221.561C178.136 221.858 177.604 222.007 176.878 221.831C175.384 221.468 174.674 220.358 174.329 219.257C174.157 218.707 174.084 218.176 174.054 217.781C174.039 217.584 174.035 217.423 174.035 217.313C174.034 217.258 174.035 217.216 174.036 217.188L174.037 217.159L174.037 217.153L174.037 217.152C174.037 217.152 174.037 217.152 174.036 217.152L173.108 216.872C173.107 216.872 173.107 216.872 173.107 216.872L173.107 216.872L173.107 216.872L173.103 216.879L173.085 216.907C173.069 216.933 173.044 216.973 173.01 217.023C172.943 217.125 172.841 217.271 172.709 217.442C172.442 217.786 172.056 218.226 171.573 218.617C170.608 219.402 169.332 219.947 167.836 219.298C167.509 219.156 167.295 218.855 167.22 218.293C167.144 217.717 167.231 216.948 167.453 216.042C167.896 214.239 168.83 212.073 169.733 210.212L169.985 209.693L169.435 209.517C155.644 205.125 143.733 193.462 135.391 179.155C127.052 164.852 122.322 147.975 122.838 133.25L122.838 133.249C123.973 100.33 151.426 74.5431 184.259 75.4424L184.259 75.4604L184.733 75.4768C217.755 76.6197 243.606 104.362 242.446 137.44L242.446 137.441C241.906 152.975 235.383 170.491 225.175 184.588C214.964 198.692 201.124 209.294 185.999 211.139L185.31 211.223L185.608 211.85C186.506 213.74 187.285 215.758 187.537 217.454C187.794 219.179 187.484 220.344 186.517 220.88L186.516 220.88C185.439 221.48 184.615 221.546 183.986 221.38C183.347 221.211 182.827 220.781 182.407 220.235C181.988 219.689 181.693 219.059 181.503 218.554C181.408 218.304 181.341 218.089 181.298 217.939C181.276 217.864 181.261 217.805 181.251 217.765C181.246 217.746 181.242 217.731 181.24 217.722L181.238 217.712Z" fill="url(#paint6_linear_22_411)" stroke="black"/>
<path d="M186.402 446.038C185.678 446.051 185.043 445.533 184.932 444.791L177.474 397.137C132.858 349.103 67.0571 207.479 66.4059 206.061C66.0602 205.323 66.3774 204.455 67.1147 204.109C67.852 203.763 68.7184 204.081 69.0641 204.819C69.7348 206.237 135.618 348.095 179.929 395.448C180.128 395.66 180.27 395.931 180.314 396.224L187.839 444.328C187.97 445.129 187.416 445.883 186.617 446.014C186.558 446.015 186.48 446.017 186.421 446.018L186.402 446.038Z" fill="#0D0D0D"/>
<path d="M112.506 128.717L112.442 128.282C107.991 98.1409 79.974 77.3083 49.8667 81.7627C19.7595 86.2171 -1.03154 114.282 3.41949 144.423L112.506 128.717ZM112.506 128.717L112.544 128.716M112.506 128.717L112.544 128.716M112.544 128.716C114.557 143.115 111.358 160.324 104.179 174.859C96.9236 189.547 85.654 201.411 71.7104 204.951L70.9084 205.155L71.4617 205.77C72.6456 207.086 73.8687 208.563 74.6241 209.805C75.0054 210.432 75.2404 210.956 75.3133 211.345C75.3491 211.536 75.3394 211.663 75.3154 211.741C75.2952 211.808 75.2607 211.857 75.1908 211.901C74.271 212.478 73.0158 212.166 71.8321 211.545C71.2642 211.248 70.7618 210.904 70.3998 210.633C70.2195 210.498 70.0756 210.382 69.9776 210.301C69.9453 210.274 69.9181 210.251 69.8962 210.233C69.8849 210.223 69.875 210.215 69.8665 210.207L69.8393 210.184L69.8332 210.178L69.8321 210.177L69.832 210.177L68.5514 209.028L69.0167 210.684L69.0168 210.684L69.0168 210.684L69.0169 210.685L69.0181 210.689L69.0242 210.713C69.0263 210.721 69.0288 210.731 69.0317 210.743C69.0363 210.762 69.0417 210.785 69.0478 210.812C69.0674 210.9 69.0931 211.028 69.1159 211.184C69.162 211.498 69.1938 211.907 69.1485 212.313C69.1029 212.722 68.9836 213.09 68.7613 213.363C68.5503 213.623 68.2097 213.844 67.6188 213.903L67.6157 213.904C66.3607 214.038 65.5429 213.572 65.0283 213.081C64.7661 212.831 64.5804 212.571 64.4609 212.374C64.4013 212.276 64.3591 212.195 64.3325 212.141C64.3193 212.114 64.31 212.094 64.3046 212.081L64.2995 212.07L64.2994 212.069L64.2992 212.069L64.299 212.068L64.2987 212.068L63.8719 211.003L63.3831 212.043L112.544 128.716ZM63.383 212.043L63.3829 212.043L63.3819 212.045L63.3773 212.055L63.3576 212.096C63.3398 212.132 63.3131 212.186 63.2781 212.254C63.2081 212.392 63.1052 212.587 62.9749 212.817C62.7131 213.279 62.3465 213.871 61.92 214.408C61.4864 214.954 61.0248 215.4 60.5833 215.622C60.3686 215.73 60.177 215.776 60.0057 215.77C59.8405 215.764 59.6626 215.709 59.4682 215.563C59.3192 215.449 59.1863 215.161 59.2554 214.506C59.3214 213.882 59.558 213.083 59.9114 212.187C60.6153 210.402 61.7315 208.357 62.6402 206.798L63.0676 206.065L62.2191 206.046C48.267 205.743 34.6166 197.434 23.9075 185.606C13.2027 173.782 5.50358 158.512 3.41951 144.423L63.383 212.043Z" fill="url(#paint7_linear_22_411)" stroke="black"/>
<path d="M170.529 407.072C167.4 407.127 164.881 406.291 163.051 404.58C160.922 402.581 159.79 399.448 159.716 395.258C159.604 388.973 163.421 387.966 165.709 387.925C172.105 387.812 182.325 394.896 185.536 397.229C189.1 394.13 202.152 383.264 209.545 383.133C212.772 383.075 214.82 384.919 215.35 388.337C216.079 393.064 215.286 396.838 213.005 399.542C210.476 402.544 206.2 404.128 200.314 404.232C194.055 404.343 187.806 402.77 185.84 402.217C183.825 403.33 176.768 406.961 170.529 407.072ZM165.781 390.881C164.197 390.909 162.602 391.447 162.669 395.225C162.729 398.573 163.535 401.007 165.067 402.449C166.32 403.621 168.15 404.196 170.477 404.154C175.719 404.062 181.906 401.014 184.095 399.839C180.17 396.932 170.847 390.811 165.782 390.901L165.781 390.881ZM187.338 399.566C189.716 400.171 195.059 401.368 200.261 401.276C205.463 401.184 208.807 399.969 210.761 397.623C212.466 395.595 213.039 392.628 212.443 388.761C212.067 386.339 210.849 386.028 209.597 386.05C203.808 386.153 192.212 395.269 187.338 399.547L187.338 399.566Z" fill="#0D0D0D"/>
</g>
<path d="M64.991 335.333C66.857 335.627 68.9689 335.837 71.3583 336C68.9652 336.164 66.8505 336.375 64.9824 336.67C60.5263 337.373 57.3865 338.562 55.1962 340.787C53.007 343.011 51.8394 346.197 51.1492 350.717C50.8645 352.582 50.6592 354.688 50.4997 357.066C50.3396 354.684 50.1336 352.575 49.848 350.709C49.1562 346.187 47.9867 343.002 45.7961 340.779C43.6044 338.555 40.4641 337.368 36.009 336.667C34.143 336.373 32.0311 336.163 29.6417 336C32.0348 335.836 34.1495 335.625 36.0176 335.33C40.4737 334.627 43.6135 333.438 45.8038 331.213C47.993 328.989 49.1606 325.803 49.8508 321.283C50.1355 319.418 50.3408 317.312 50.5003 314.934C50.6604 317.316 50.8664 319.425 51.152 321.291C51.8438 325.813 53.0134 328.998 55.2039 331.221C57.3956 333.445 60.5359 334.632 64.991 335.333Z" fill="url(#paint8_linear_22_411)" stroke="black"/>
<path d="M91.9561 422.649C92.8446 422.79 93.8097 422.905 94.8575 423C93.8072 423.096 92.8401 423.211 91.9499 423.353C88.7165 423.866 86.4106 424.737 84.796 426.387C83.183 428.035 82.333 430.386 81.8325 433.683C81.6999 434.556 81.5911 435.502 81.4996 436.525C81.4078 435.499 81.2986 434.552 81.1655 433.677C80.6638 430.379 79.8123 428.028 78.1984 426.381C76.5828 424.732 74.2765 423.862 71.0439 423.351C70.1554 423.21 69.1903 423.095 68.1425 423C69.1928 422.904 70.1599 422.789 71.0501 422.647C74.2835 422.134 76.5894 421.263 78.204 419.613C79.817 417.965 80.667 415.614 81.1675 412.317C81.3001 411.444 81.4089 410.498 81.5004 409.475C81.5922 410.501 81.7014 411.448 81.8345 412.323C82.3362 415.621 83.1877 417.972 84.8016 419.619C86.4172 421.268 88.7235 422.138 91.9561 422.649Z" fill="url(#paint9_linear_22_411)" stroke="black"/>
<path d="M84 373.5C84 375.985 81.7609 378 79 378C76.2391 378 74 375.985 74 373.5C74 371.015 76.2391 369 79 369C81.7609 369 84 371.015 84 373.5Z" fill="#130000"/>
<defs>
<linearGradient id="paint0_linear_22_411" x1="70.5402" y1="144.497" x2="109.759" y2="247.94" gradientUnits="userSpaceOnUse">
<stop stop-color="#FF7372"/>
<stop offset="0.484375" stop-color="#FF7372"/>
<stop offset="1" stop-color="#FF8C8B"/>
</linearGradient>
<linearGradient id="paint1_linear_22_411" x1="73.0732" y1="37.4673" x2="129.792" y2="178.02" gradientUnits="userSpaceOnUse">
<stop stop-color="#7383F7"/>
<stop offset="0.71875" stop-color="#9EAAFF"/>
</linearGradient>
<linearGradient id="paint2_linear_22_411" x1="111.881" y1="7.15576" x2="192.738" y2="130.92" gradientUnits="userSpaceOnUse">
<stop stop-color="#D3C3ED"/>
<stop offset="0.489583" stop-color="#D3C3ED"/>
<stop offset="1" stop-color="#EEE3FF"/>
</linearGradient>
<linearGradient id="paint3_linear_22_411" x1="200.971" y1="20.3119" x2="274.185" y2="169.116" gradientUnits="userSpaceOnUse">
<stop stop-color="#FFB2D8"/>
<stop offset="0.458333" stop-color="#FFB2D8"/>
<stop offset="1" stop-color="#FFD9EC"/>
</linearGradient>
<linearGradient id="paint4_linear_22_411" x1="190.086" y1="142.221" x2="230.207" y2="239.802" gradientUnits="userSpaceOnUse">
<stop stop-color="#7383F7"/>
<stop offset="0.71875" stop-color="#9EAAFF"/>
</linearGradient>
<linearGradient id="paint5_linear_22_411" x1="225.946" y1="99.4942" x2="279.144" y2="238.664" gradientUnits="userSpaceOnUse">
<stop stop-color="#FF7372"/>
<stop offset="0.484375" stop-color="#FF7372"/>
<stop offset="1" stop-color="#FF8C8B"/>
</linearGradient>
<linearGradient id="paint6_linear_22_411" x1="128.622" y1="85.6573" x2="217.106" y2="235.181" gradientUnits="userSpaceOnUse">
<stop stop-color="#E7B12D"/>
<stop offset="0.476697" stop-color="#F7C651"/>
<stop offset="0.904587" stop-color="#FFDE8C"/>
</linearGradient>
<linearGradient id="paint7_linear_22_411" x1="-1.82356" y1="85.1062" x2="87.4533" y2="222.232" gradientUnits="userSpaceOnUse">
<stop stop-color="#D3C3ED"/>
<stop offset="0.489583" stop-color="#D3C3ED"/>
<stop offset="1" stop-color="#EEE3FF"/>
</linearGradient>
<linearGradient id="paint8_linear_22_411" x1="16.1159" y1="304.65" x2="54.6385" y2="378.496" gradientUnits="userSpaceOnUse">
<stop stop-color="#D3C3ED"/>
<stop offset="0.489583" stop-color="#D3C3ED"/>
<stop offset="1" stop-color="#EEE3FF"/>
</linearGradient>
<linearGradient id="paint9_linear_22_411" x1="110.109" y1="447" x2="52.4076" y2="417.36" gradientUnits="userSpaceOnUse">
<stop stop-color="#8CB6F3"/>
<stop offset="0.419064" stop-color="#8CB6F3"/>
<stop offset="0.979167" stop-color="#CEE0FB"/>
</linearGradient>
<clipPath id="clip0_22_411">
<rect width="342" height="453" fill="white" transform="translate(0 6.06494) rotate(-1.01611)"/>
</clipPath>
</defs>
</svg>
