<svg width="1384" height="455" viewBox="0 0 1384 455" fill="none" xmlns="http://www.w3.org/2000/svg">
<path d="M986.682 147.65C987.589 147.79 988.573 147.905 989.643 148C988.571 148.096 987.584 148.211 986.675 148.352C983.376 148.865 981.024 149.735 979.377 151.383C977.73 153.031 976.862 155.383 976.35 158.682C976.21 159.589 976.095 160.573 976 161.643C975.904 160.571 975.789 159.584 975.648 158.675C975.135 155.376 974.265 153.024 972.617 151.377C970.969 149.73 968.617 148.862 965.318 148.35C964.411 148.21 963.427 148.095 962.357 148C963.429 147.904 964.416 147.789 965.325 147.648C968.624 147.135 970.976 146.265 972.623 144.617C974.27 142.969 975.138 140.617 975.65 137.318C975.79 136.411 975.905 135.427 976 134.357C976.096 135.429 976.211 136.416 976.352 137.325C976.865 140.624 977.735 142.976 979.383 144.623C981.031 146.27 983.383 147.138 986.682 147.65Z" fill="url(#paint0_linear_22_411)" stroke="black"/>
<path d="M67.9921 406.841C71.5806 407.397 75.8019 407.743 80.7677 408C75.7962 408.258 71.5709 408.606 67.9797 409.164C61.554 410.162 57.0711 411.844 53.953 414.964C50.835 418.084 49.1555 422.568 48.1595 428.992C47.6031 432.581 47.2565 436.802 46.9997 441.768C46.7422 436.796 46.3943 432.571 45.8364 428.98C44.8381 422.554 43.1559 418.071 40.0359 414.953C36.916 411.835 32.4322 410.155 26.008 409.159C22.4194 408.603 18.1981 408.257 13.2323 408C18.2038 407.742 22.4291 407.394 26.0203 406.836C32.446 405.838 36.9289 404.156 40.047 401.036C43.1651 397.916 44.8445 393.432 45.8405 387.008C46.3969 383.419 46.7435 379.198 47.0003 374.232C47.2578 379.204 47.6057 383.429 48.1636 387.02C49.1619 393.446 50.8441 397.929 53.9641 401.047C57.084 404.165 61.5678 405.845 67.9921 406.841Z" fill="url(#paint1_linear_22_411)" stroke="black"/>
<path d="M447 104.015L448 104.015C448.235 96.1927 448.459 90.3163 449.138 85.8684C449.817 81.4207 450.941 78.4884 452.909 76.4886C454.876 74.49 457.76 73.3484 462.138 72.6578C466.518 71.9669 472.306 71.7387 480.015 71.4998L480.015 70.5002C472.311 70.2613 466.525 70.0344 462.147 69.3451C457.769 68.656 454.884 67.5162 452.916 65.5188C450.947 63.5202 449.821 60.5886 449.14 56.1401C448.46 51.6912 448.235 45.8123 448 37.985L447 37.985C446.765 45.8073 446.541 51.6837 445.862 56.1316C445.183 60.5793 444.059 63.5116 442.091 65.5114C440.124 67.51 437.24 68.6516 432.862 69.3422C428.482 70.0331 422.694 70.2613 414.985 70.5002L414.985 71.4998C422.689 71.7387 428.475 71.9656 432.853 72.6549C437.231 73.3441 440.116 74.4838 442.084 76.4812C444.053 78.4798 445.179 81.4114 445.86 85.8599C446.54 90.3088 446.765 96.1877 447 104.015Z" fill="#FFF8EC" stroke="black"/>
<path d="M1003.99 70.3329C1005.86 70.6266 1007.97 70.8372 1010.36 71.0003C1007.97 71.164 1005.85 71.3753 1003.98 71.67C999.526 72.3729 996.387 73.5617 994.196 75.7871C992.007 78.0113 990.839 81.1967 990.149 85.7174C989.865 87.5816 989.659 89.6876 989.5 92.0664C989.34 89.6839 989.134 87.575 988.848 85.7087C988.156 81.187 986.987 78.0022 984.796 75.7793C982.604 73.5552 979.464 72.3685 975.009 71.6671C973.143 71.3734 971.031 71.1628 968.642 70.9997C971.035 70.836 973.149 70.6247 975.018 70.33C979.474 69.6271 982.613 68.4383 984.804 66.2129C986.993 63.9887 988.161 60.8033 988.851 56.2826C989.135 54.4184 989.341 52.3124 989.5 49.9336C989.66 52.3161 989.866 54.425 990.152 56.2913C990.844 60.813 992.013 63.9978 994.204 66.2207C996.396 68.4448 999.536 69.6315 1003.99 70.3329Z" fill="url(#paint2_linear_22_411)" stroke="black"/>
<path d="M485 99.5C485 101.985 482.761 104 480 104C477.239 104 475 101.985 475 99.5C475 97.0152 477.239 95 480 95C482.761 95 485 97.0152 485 99.5Z" fill="#130000"/>
<path d="M151.964 326.601L152.257 327.006L152.551 327.41C137.243 338.537 129.231 349.324 126.139 358.082C123.044 366.851 124.897 373.483 129.125 376.556C133.352 379.63 140.229 379.345 147.61 373.691C154.981 368.046 162.761 357.092 168.611 339.09L169.086 339.245L169.562 339.399C163.712 357.401 163.568 370.837 166.213 379.738C168.862 388.651 174.258 392.925 179.485 392.925C184.712 392.925 190.108 388.651 192.757 379.738C195.402 370.837 195.257 357.401 189.408 339.399L189.883 339.245L190.359 339.09C196.209 357.092 203.989 368.046 211.36 373.691C218.741 379.345 225.617 379.63 229.845 376.556C234.073 373.483 235.926 366.851 232.831 358.082C229.739 349.324 221.727 338.537 206.419 327.41L206.713 327.006L207.006 326.601C222.315 337.728 235.046 342.018 244.328 342.252C253.622 342.486 259.356 338.673 260.973 333.7C262.59 328.727 260.196 322.271 252.543 316.996C244.901 311.729 232.085 307.713 213.167 307.713V307.213V306.713C232.085 306.713 244.904 302.696 252.55 297.429C260.207 292.153 262.605 285.698 260.991 280.725C259.376 275.752 253.645 271.939 244.348 272.173C235.065 272.408 222.33 276.696 207.012 287.82C207.01 287.821 207.008 287.823 207.006 287.824C207.006 287.824 207.006 287.824 207.006 287.824L206.713 287.419L206.419 287.015C221.727 275.888 229.739 265.101 232.831 256.343C235.926 247.574 234.073 240.942 229.845 237.869C225.617 234.795 218.741 235.08 211.36 240.734C203.989 246.379 196.209 257.333 190.359 275.335L189.883 275.18L189.408 275.026C195.257 257.024 195.402 243.588 192.757 234.687C190.108 225.774 184.712 221.5 179.485 221.5C174.258 221.5 168.862 225.774 166.213 234.687C163.568 243.588 163.712 257.024 169.562 275.026L169.086 275.18L168.611 275.335C162.761 257.333 154.981 246.379 147.61 240.734C140.229 235.08 133.352 234.795 129.125 237.869C124.897 240.942 123.044 247.574 126.139 256.343C129.231 265.101 137.243 275.888 152.551 287.015L152.257 287.419L151.963 287.824C136.655 276.697 123.923 272.408 114.642 272.173C105.347 271.939 99.6143 275.752 97.997 280.725C96.3796 285.699 98.7736 292.154 106.427 297.429C114.069 302.696 126.885 306.713 145.803 306.713V307.213V307.713C126.885 307.713 114.066 311.729 106.42 316.996C98.7629 322.272 96.3646 328.727 97.9791 333.7C99.5935 338.673 105.325 342.486 114.622 342.252C123.905 342.018 136.642 337.729 151.962 326.603L151.964 326.601ZM151.964 326.601C151.964 326.601 151.963 326.601 151.963 326.601L151.964 326.601Z" fill="url(#paint3_linear_22_411)" stroke="black"/>
<path d="M211.233 307.214C211.233 324.761 197.009 338.985 179.462 338.985C161.915 338.985 147.69 324.761 147.69 307.214C147.69 289.667 161.915 275.442 179.462 275.442C197.009 275.442 211.233 289.667 211.233 307.214Z" fill="url(#paint4_linear_22_411)" stroke="black"/>
<path d="M1273.96 105.601L1274.26 106.006L1274.55 106.41C1259.24 117.537 1251.23 128.324 1248.14 137.082C1245.04 145.851 1246.9 152.483 1251.12 155.556C1255.35 158.63 1262.23 158.345 1269.61 152.691C1276.98 147.046 1284.76 136.092 1290.61 118.09L1291.09 118.245L1291.56 118.399C1285.71 136.401 1285.57 149.837 1288.21 158.738C1290.86 167.651 1296.26 171.925 1301.48 171.925C1306.71 171.925 1312.11 167.651 1314.76 158.738C1317.4 149.837 1317.26 136.401 1311.41 118.399L1311.88 118.245L1312.36 118.09C1318.21 136.092 1325.99 147.046 1333.36 152.691C1340.74 158.345 1347.62 158.63 1351.85 155.556C1356.07 152.483 1357.93 145.851 1354.83 137.082C1351.74 128.324 1343.73 117.537 1328.42 106.41L1328.71 106.006L1329.01 105.601C1344.32 116.728 1357.05 121.018 1366.33 121.252C1375.62 121.486 1381.36 117.673 1382.97 112.7C1384.59 107.727 1382.2 101.271 1374.54 95.9964C1366.9 90.7287 1354.09 86.7126 1335.17 86.7126V86.2126V85.7126C1354.09 85.7126 1366.9 81.6965 1374.55 76.4286C1382.21 71.1535 1384.61 64.6983 1382.99 59.7251C1381.38 54.752 1375.64 50.939 1366.35 51.1734C1357.07 51.4076 1344.33 55.6956 1329.01 66.82C1329.01 66.8212 1329.01 66.8225 1329.01 66.8238C1329.01 66.8238 1329.01 66.8239 1329.01 66.8239L1328.71 66.4193L1328.42 66.0149C1343.73 54.8877 1351.74 44.1007 1354.83 35.3433C1357.93 26.5737 1356.07 19.9424 1351.85 16.8688C1347.62 13.7953 1340.74 14.0802 1333.36 19.7336C1325.99 25.3792 1318.21 36.3333 1312.36 54.3346L1311.88 54.1801L1311.41 54.0256C1317.26 36.0243 1317.4 22.5884 1314.76 13.6875C1312.11 4.77408 1306.71 0.499999 1301.48 0.499999C1296.26 0.499999 1290.86 4.77408 1288.21 13.6875C1285.57 22.5884 1285.71 36.0243 1291.56 54.0256L1291.09 54.1801L1290.61 54.3346C1284.76 36.3333 1276.98 25.3792 1269.61 19.7336C1262.23 14.0802 1255.35 13.7953 1251.12 16.8688C1246.9 19.9424 1245.04 26.5737 1248.14 35.3433C1251.23 44.1007 1259.24 54.8877 1274.55 66.0149L1274.26 66.4193L1273.96 66.8238C1258.65 55.6966 1245.92 51.4076 1236.64 51.1734C1227.35 50.939 1221.61 54.752 1220 59.7253C1218.38 64.6986 1220.77 71.1537 1228.43 76.4287C1236.07 81.6964 1248.88 85.7126 1267.8 85.7126V86.2126V86.7126C1248.88 86.7126 1236.07 90.7287 1228.42 95.9965C1220.76 101.272 1218.36 107.727 1219.98 112.7C1221.59 117.673 1227.32 121.486 1236.62 121.252C1245.91 121.018 1258.64 116.729 1273.96 105.603L1273.96 105.601ZM1273.96 105.601C1273.96 105.601 1273.96 105.601 1273.96 105.601L1273.96 105.601Z" fill="url(#paint5_linear_22_411)" stroke="black"/>
<path d="M1333.23 86.2137C1333.23 103.761 1319.01 117.985 1301.46 117.985C1283.91 117.985 1269.69 103.761 1269.69 86.2137C1269.69 68.6668 1283.91 54.4423 1301.46 54.4423C1319.01 54.4423 1333.23 68.6668 1333.23 86.2137Z" fill="url(#paint6_linear_22_411)" stroke="black"/>
<defs>
<linearGradient id="paint0_linear_22_411" x1="956.87" y1="124" x2="972.45" y2="175.593" gradientUnits="userSpaceOnUse">
<stop stop-color="#FF7372"/>
<stop offset="0.484375" stop-color="#FF7372"/>
<stop offset="1" stop-color="#FF8C8B"/>
</linearGradient>
<linearGradient id="paint1_linear_22_411" x1="94" y1="365.025" x2="38.7003" y2="474.542" gradientUnits="userSpaceOnUse">
<stop stop-color="#FF48CA"/>
<stop offset="0.491167" stop-color="#E07CC3"/>
<stop offset="1" stop-color="#E07CC3"/>
</linearGradient>
<linearGradient id="paint2_linear_22_411" x1="960.886" y1="42.3835" x2="995.442" y2="115.543" gradientUnits="userSpaceOnUse">
<stop stop-color="#E7B12D"/>
<stop offset="0.458333" stop-color="#F7C651"/>
<stop offset="1" stop-color="#FFDE8C"/>
</linearGradient>
<linearGradient id="paint3_linear_22_411" x1="121.208" y1="227.261" x2="188.907" y2="397.878" gradientUnits="userSpaceOnUse">
<stop stop-color="#FFB2D8"/>
<stop offset="0.458333" stop-color="#FFB2D8"/>
<stop offset="1" stop-color="#FFD9EC"/>
</linearGradient>
<linearGradient id="paint4_linear_22_411" x1="211.733" y1="277.706" x2="173.763" y2="352.903" gradientUnits="userSpaceOnUse">
<stop stop-color="#FF48CA"/>
<stop offset="0.491167" stop-color="#E07CC3"/>
<stop offset="1" stop-color="#E07CC3"/>
</linearGradient>
<linearGradient id="paint5_linear_22_411" x1="1243.21" y1="6.26125" x2="1310.91" y2="176.878" gradientUnits="userSpaceOnUse">
<stop stop-color="#FFB2D8"/>
<stop offset="0.458333" stop-color="#FFB2D8"/>
<stop offset="1" stop-color="#FFD9EC"/>
</linearGradient>
<linearGradient id="paint6_linear_22_411" x1="1333.73" y1="56.7061" x2="1295.76" y2="131.903" gradientUnits="userSpaceOnUse">
<stop stop-color="#FF48CA"/>
<stop offset="0.491167" stop-color="#E07CC3"/>
<stop offset="1" stop-color="#E07CC3"/>
</linearGradient>
</defs>
</svg>
