<svg width="1728" height="544" viewBox="0 0 1728 544" fill="none" xmlns="http://www.w3.org/2000/svg">
<mask id="path-1-inside-1_22_411" fill="white">
<path d="M1301.46 32.2043C1302.4 31.9164 1303.41 32.4921 1303.7 33.4276C1305.58 39.9404 1311.03 45.5177 1318.22 48.2884C1325.4 51.059 1333.17 50.6273 1339.02 47.101C1344.83 43.5747 1348.81 36.8819 1349.64 29.2537C1350.47 21.5894 1347.98 14.249 1343.06 9.57132C1336.96 3.81415 1327.68 0.971527 1314.61 0.899567C1303.3 0.827576 1294.92 2.77072 1288.64 6.94467C1278.53 13.6734 1272.86 27.8144 1274.19 42.9629C1274.19 43.0709 1274.23 43.2148 1274.23 43.3228C1274.55 43.6466 1274.77 44.1144 1274.77 44.6541C1274.77 45.2658 1274.7 45.8056 1274.66 46.3813C1278.67 72.2886 1301.75 95.2093 1328.76 99.3113C1356.17 103.485 1385.9 89.2362 1401.03 64.6603C1405.22 57.8596 1407.96 50.7711 1409.19 43.8985C1409.19 43.7186 1409.23 43.5386 1409.3 43.3947C1410.06 39.0049 1410.17 34.723 1409.62 30.621C1409.48 29.6495 1410.2 28.714 1411.18 28.606C1412.15 28.4621 1413.09 29.1817 1413.2 30.1532C1413.81 34.795 1413.6 39.2928 1412.91 43.5387C1424.72 59.0471 1447.69 65.1641 1465.67 57.4279C1466 57.284 1466.36 57.2839 1466.69 57.3559C1468.42 47.2088 1474.2 38.3212 1482.36 34.0034C1485.72 32.2043 1489.62 31.3047 1493.59 31.3047C1496.55 31.3047 1499.51 31.8085 1502.33 32.816C1508.15 34.903 1512.55 38.8969 1514.68 44.0064C1517.17 50.0155 1515.66 57.4638 1510.85 63.0051C1506.56 67.9707 1500.67 70.0937 1495.11 68.6904C1494.13 68.4385 1493.56 67.4669 1493.81 66.4954C1494.06 65.5239 1495.04 64.9482 1496.01 65.2001C1500.2 66.2796 1504.72 64.5524 1508.15 60.6663C1512.08 56.1325 1513.35 50.1235 1511.4 45.4098C1509.66 41.2359 1506.02 37.9614 1501.18 36.2343C1495.51 34.1833 1489.11 34.5791 1484.13 37.2058C1475.14 41.9555 1469.36 53.1099 1469.79 64.9841C1470.15 74.8073 1474.13 85.0263 1481.93 96.1808C1488.75 105.932 1504.28 111.149 1514.57 114.604C1517.97 115.755 1520.68 116.655 1522.38 117.518C1522.88 117.77 1523.24 118.238 1523.35 118.814C1523.46 119.389 1523.28 119.965 1522.88 120.361C1513.71 130.076 1510.28 145.513 1514.18 159.69C1517.72 172.535 1526.75 184.338 1539.57 192.865C1560.37 206.683 1587.67 207.906 1605.98 195.888C1616.09 189.267 1623.32 177.717 1625.38 165.015C1627.18 153.861 1624.69 143.39 1618.44 135.546C1609.74 124.679 1594.14 118.562 1576.51 119.282C1569.18 119.569 1558.53 122.196 1552.57 128.673C1549.5 132.019 1548.05 135.977 1548.23 140.475C1548.49 145.585 1552.03 151.63 1557.73 156.595C1563.58 161.669 1570.48 164.583 1575.79 164.08C1580.09 163.684 1583.63 159.618 1584.57 155.876C1585 154.22 1585.29 151.126 1582.54 149.291C1581.71 148.751 1581.5 147.636 1582.04 146.808C1582.58 145.98 1583.7 145.764 1584.53 146.304C1587.85 148.535 1589.19 152.421 1588.07 156.775C1586.8 161.669 1582.18 167.138 1576.11 167.678C1569.76 168.217 1561.99 165.123 1555.35 159.33C1548.92 153.753 1544.91 146.772 1544.62 140.655C1544.37 135.15 1546.14 130.328 1549.89 126.262C1556.61 118.994 1567.95 116.043 1576.37 115.719C1595 115 1611.87 121.548 1621.26 133.315C1628.16 141.95 1630.86 153.393 1628.91 165.591C1626.71 179.264 1618.87 191.75 1607.97 198.91C1604.79 200.997 1601.32 202.689 1597.67 204.02C1598.11 204.272 1598.43 204.668 1598.54 205.171C1601.9 220.788 1617.07 233.382 1633.1 233.885C1640.65 225.214 1651.59 219.133 1663.22 217.873C1664.67 217.729 1666.08 217.657 1667.45 217.657C1679.51 217.657 1689.88 223.486 1696.23 234.065C1700.71 241.514 1702.34 249.574 1700.75 256.806C1698.91 265.262 1692.48 271.991 1684.75 273.574C1676.12 275.337 1667.02 269.796 1665.28 261.772C1665.07 260.8 1665.68 259.829 1666.65 259.649C1667.63 259.433 1668.6 260.044 1668.79 261.016C1670.12 267.097 1677.38 271.451 1683.99 270.048C1690.24 268.788 1695.65 263.031 1697.17 256.05C1698.54 249.718 1697.1 242.593 1693.09 235.936C1686.63 225.25 1676.15 220.104 1663.55 221.471C1647.87 223.163 1633 234.893 1628.16 249.286C1622.67 265.622 1627.22 285.7 1639.75 300.417C1654.74 318.048 1684.28 332.657 1707.75 326.612C1715.52 324.633 1722.96 319.271 1728.66 311.499C1728.99 311.067 1729.46 310.816 1729.96 310.78V136.697C1719.27 144.937 1704.72 148.427 1689.98 146.34C1676.98 144.469 1663.95 138.316 1652.35 128.565C1632.16 111.617 1622.45 87.3291 1627.61 66.6753C1629.31 59.8386 1632.6 53.7577 1636.97 48.9001C1638.41 31.0169 1618.33 15.5085 1598.69 11.3345C1591.97 9.93121 1569.58 6.80072 1563 26.3751C1559.21 37.7455 1561.67 53.2899 1568.57 61.7457C1575.61 70.3455 1585.79 69.374 1592.26 64.8042C1598.4 60.4864 1602.15 52.1025 1596.66 43.1429C1595.94 41.9915 1594.5 40.0125 1592.58 39.9045C1591.97 39.7966 1591.14 40.3003 1590.74 40.912C1590.56 41.1639 1590.42 41.5237 1590.56 41.8475C1590.99 42.747 1590.63 43.8266 1589.73 44.2584C1588.83 44.6901 1587.74 44.3303 1587.31 43.4307C1586.59 41.9914 1586.77 40.3362 1587.74 38.8969C1588.9 37.2057 1590.92 36.1983 1592.84 36.3063C1595.44 36.4862 1597.89 38.2492 1599.77 41.2718C1606.49 52.2104 1601.9 62.4294 1594.39 67.7548C1586.33 73.44 1573.91 73.9798 1565.79 64.0486C1558.02 54.5493 1555.38 37.8895 1559.57 25.2597C1563.58 13.2776 1574.24 6.62085 1588.43 6.62085C1591.9 6.62085 1595.58 7.01663 1599.44 7.84424C1619.24 12.0542 1639.39 27.2387 1640.62 45.3738C1643.07 43.2868 1645.74 41.5236 1648.67 40.2643C1652.57 38.5371 1656.76 37.7095 1660.88 37.7095C1668.75 37.7095 1676.41 40.7321 1681.46 46.3094C1685.61 50.9151 1687.71 57.3199 1687.24 63.9047C1686.81 69.9137 1684.24 75.1672 1680.02 78.6935C1675.36 82.5796 1668.42 83.8389 1661.96 81.9678C1655.89 80.2406 1651.41 76.2107 1649.68 70.9213C1649.39 69.9857 1649.9 68.9782 1650.84 68.6544C1651.81 68.3665 1652.79 68.8703 1653.11 69.8058C1654.45 73.9438 1658.06 77.1102 1662.93 78.5135C1668.28 80.0607 1673.91 79.0532 1677.67 75.9228C1681.14 73.0442 1683.23 68.6903 1683.59 63.6528C1683.99 58.1475 1682.18 52.5702 1678.72 48.7201C1672.07 41.3438 1660.01 39.1488 1650.08 43.5387C1640.94 47.5687 1633.83 56.5643 1631.12 67.5389C1625.27 91.0354 1640.15 113.596 1654.7 125.83C1665.79 135.15 1678.18 141.015 1690.53 142.814C1704.43 144.829 1718.12 141.483 1728.09 133.674C1728.66 133.243 1729.39 133.207 1730 133.495V0H1333.35C1338.23 1.58322 1342.27 3.92212 1345.52 7.0166C1351.26 12.4499 1354.15 20.9417 1353.21 29.6854C1352.27 38.4291 1347.65 46.1295 1340.9 50.2314C1334.11 54.3334 1325.15 54.8732 1316.92 51.7067C1308.68 48.5043 1302.44 42.0634 1300.23 34.4711C1299.94 33.5356 1300.52 32.5281 1301.46 32.2403V32.2043Z"/>
</mask>
<path d="M1301.46 32.2043C1302.4 31.9164 1303.41 32.4921 1303.7 33.4276C1305.58 39.9404 1311.03 45.5177 1318.22 48.2884C1325.4 51.059 1333.17 50.6273 1339.02 47.101C1344.83 43.5747 1348.81 36.8819 1349.64 29.2537C1350.47 21.5894 1347.98 14.249 1343.06 9.57132C1336.96 3.81415 1327.68 0.971527 1314.61 0.899567C1303.3 0.827576 1294.92 2.77072 1288.64 6.94467C1278.53 13.6734 1272.86 27.8144 1274.19 42.9629C1274.19 43.0709 1274.23 43.2148 1274.23 43.3228C1274.55 43.6466 1274.77 44.1144 1274.77 44.6541C1274.77 45.2658 1274.7 45.8056 1274.66 46.3813C1278.67 72.2886 1301.75 95.2093 1328.76 99.3113C1356.17 103.485 1385.9 89.2362 1401.03 64.6603C1405.22 57.8596 1407.96 50.7711 1409.19 43.8985C1409.19 43.7186 1409.23 43.5386 1409.3 43.3947C1410.06 39.0049 1410.17 34.723 1409.62 30.621C1409.48 29.6495 1410.2 28.714 1411.18 28.606C1412.15 28.4621 1413.09 29.1817 1413.2 30.1532C1413.81 34.795 1413.6 39.2928 1412.91 43.5387C1424.72 59.0471 1447.69 65.1641 1465.67 57.4279C1466 57.284 1466.36 57.2839 1466.69 57.3559C1468.42 47.2088 1474.2 38.3212 1482.36 34.0034C1485.72 32.2043 1489.62 31.3047 1493.59 31.3047C1496.55 31.3047 1499.51 31.8085 1502.33 32.816C1508.15 34.903 1512.55 38.8969 1514.68 44.0064C1517.17 50.0155 1515.66 57.4638 1510.85 63.0051C1506.56 67.9707 1500.67 70.0937 1495.11 68.6904C1494.13 68.4385 1493.56 67.4669 1493.81 66.4954C1494.06 65.5239 1495.04 64.9482 1496.01 65.2001C1500.2 66.2796 1504.72 64.5524 1508.15 60.6663C1512.08 56.1325 1513.35 50.1235 1511.4 45.4098C1509.66 41.2359 1506.02 37.9614 1501.18 36.2343C1495.51 34.1833 1489.11 34.5791 1484.13 37.2058C1475.14 41.9555 1469.36 53.1099 1469.79 64.9841C1470.15 74.8073 1474.13 85.0263 1481.93 96.1808C1488.75 105.932 1504.28 111.149 1514.57 114.604C1517.97 115.755 1520.68 116.655 1522.38 117.518C1522.88 117.77 1523.24 118.238 1523.35 118.814C1523.46 119.389 1523.28 119.965 1522.88 120.361C1513.71 130.076 1510.28 145.513 1514.18 159.69C1517.72 172.535 1526.75 184.338 1539.57 192.865C1560.37 206.683 1587.67 207.906 1605.98 195.888C1616.09 189.267 1623.32 177.717 1625.38 165.015C1627.18 153.861 1624.69 143.39 1618.44 135.546C1609.74 124.679 1594.14 118.562 1576.51 119.282C1569.18 119.569 1558.53 122.196 1552.57 128.673C1549.5 132.019 1548.05 135.977 1548.23 140.475C1548.49 145.585 1552.03 151.63 1557.73 156.595C1563.58 161.669 1570.48 164.583 1575.79 164.08C1580.09 163.684 1583.63 159.618 1584.57 155.876C1585 154.22 1585.29 151.126 1582.54 149.291C1581.71 148.751 1581.5 147.636 1582.04 146.808C1582.58 145.98 1583.7 145.764 1584.53 146.304C1587.85 148.535 1589.19 152.421 1588.07 156.775C1586.8 161.669 1582.18 167.138 1576.11 167.678C1569.76 168.217 1561.99 165.123 1555.35 159.33C1548.92 153.753 1544.91 146.772 1544.62 140.655C1544.37 135.15 1546.14 130.328 1549.89 126.262C1556.61 118.994 1567.95 116.043 1576.37 115.719C1595 115 1611.87 121.548 1621.26 133.315C1628.16 141.95 1630.86 153.393 1628.91 165.591C1626.71 179.264 1618.87 191.75 1607.97 198.91C1604.79 200.997 1601.32 202.689 1597.67 204.02C1598.11 204.272 1598.43 204.668 1598.54 205.171C1601.9 220.788 1617.07 233.382 1633.1 233.885C1640.65 225.214 1651.59 219.133 1663.22 217.873C1664.67 217.729 1666.08 217.657 1667.45 217.657C1679.51 217.657 1689.88 223.486 1696.23 234.065C1700.71 241.514 1702.34 249.574 1700.75 256.806C1698.91 265.262 1692.48 271.991 1684.75 273.574C1676.12 275.337 1667.02 269.796 1665.28 261.772C1665.07 260.8 1665.68 259.829 1666.65 259.649C1667.63 259.433 1668.6 260.044 1668.79 261.016C1670.12 267.097 1677.38 271.451 1683.99 270.048C1690.24 268.788 1695.65 263.031 1697.17 256.05C1698.54 249.718 1697.1 242.593 1693.09 235.936C1686.63 225.25 1676.15 220.104 1663.55 221.471C1647.87 223.163 1633 234.893 1628.16 249.286C1622.67 265.622 1627.22 285.7 1639.75 300.417C1654.74 318.048 1684.28 332.657 1707.75 326.612C1715.52 324.633 1722.96 319.271 1728.66 311.499C1728.99 311.067 1729.46 310.816 1729.96 310.78V136.697C1719.27 144.937 1704.72 148.427 1689.98 146.34C1676.98 144.469 1663.95 138.316 1652.35 128.565C1632.16 111.617 1622.45 87.3291 1627.61 66.6753C1629.31 59.8386 1632.6 53.7577 1636.97 48.9001C1638.41 31.0169 1618.33 15.5085 1598.69 11.3345C1591.97 9.93121 1569.58 6.80072 1563 26.3751C1559.21 37.7455 1561.67 53.2899 1568.57 61.7457C1575.61 70.3455 1585.79 69.374 1592.26 64.8042C1598.4 60.4864 1602.15 52.1025 1596.66 43.1429C1595.94 41.9915 1594.5 40.0125 1592.58 39.9045C1591.97 39.7966 1591.14 40.3003 1590.74 40.912C1590.56 41.1639 1590.42 41.5237 1590.56 41.8475C1590.99 42.747 1590.63 43.8266 1589.73 44.2584C1588.83 44.6901 1587.74 44.3303 1587.31 43.4307C1586.59 41.9914 1586.77 40.3362 1587.74 38.8969C1588.9 37.2057 1590.92 36.1983 1592.84 36.3063C1595.44 36.4862 1597.89 38.2492 1599.77 41.2718C1606.49 52.2104 1601.9 62.4294 1594.39 67.7548C1586.33 73.44 1573.91 73.9798 1565.79 64.0486C1558.02 54.5493 1555.38 37.8895 1559.57 25.2597C1563.58 13.2776 1574.24 6.62085 1588.43 6.62085C1591.9 6.62085 1595.58 7.01663 1599.44 7.84424C1619.24 12.0542 1639.39 27.2387 1640.62 45.3738C1643.07 43.2868 1645.74 41.5236 1648.67 40.2643C1652.57 38.5371 1656.76 37.7095 1660.88 37.7095C1668.75 37.7095 1676.41 40.7321 1681.46 46.3094C1685.61 50.9151 1687.71 57.3199 1687.24 63.9047C1686.81 69.9137 1684.24 75.1672 1680.02 78.6935C1675.36 82.5796 1668.42 83.8389 1661.96 81.9678C1655.89 80.2406 1651.41 76.2107 1649.68 70.9213C1649.39 69.9857 1649.9 68.9782 1650.84 68.6544C1651.81 68.3665 1652.79 68.8703 1653.11 69.8058C1654.45 73.9438 1658.06 77.1102 1662.93 78.5135C1668.28 80.0607 1673.91 79.0532 1677.67 75.9228C1681.14 73.0442 1683.23 68.6903 1683.59 63.6528C1683.99 58.1475 1682.18 52.5702 1678.72 48.7201C1672.07 41.3438 1660.01 39.1488 1650.08 43.5387C1640.94 47.5687 1633.83 56.5643 1631.12 67.5389C1625.27 91.0354 1640.15 113.596 1654.7 125.83C1665.79 135.15 1678.18 141.015 1690.53 142.814C1704.43 144.829 1718.12 141.483 1728.09 133.674C1728.66 133.243 1729.39 133.207 1730 133.495V0H1333.35C1338.23 1.58322 1342.27 3.92212 1345.52 7.0166C1351.26 12.4499 1354.15 20.9417 1353.21 29.6854C1352.27 38.4291 1347.65 46.1295 1340.9 50.2314C1334.11 54.3334 1325.15 54.8732 1316.92 51.7067C1308.68 48.5043 1302.44 42.0634 1300.23 34.4711C1299.94 33.5356 1300.52 32.5281 1301.46 32.2403V32.2043Z" fill="white" stroke="black" stroke-width="4" mask="url(#path-1-inside-1_22_411)"/>
<mask id="path-2-inside-2_22_411" fill="white">
<path d="M428.54 511.796C427.601 512.084 426.59 511.508 426.301 510.572C424.423 504.06 418.969 498.482 411.783 495.712C404.596 492.941 396.831 493.373 390.98 496.899C385.166 500.425 381.193 507.118 380.362 514.746C379.532 522.411 382.024 529.751 386.935 534.429C393.039 540.186 402.32 543.028 415.394 543.1C426.698 543.172 435.077 541.229 441.361 537.055C451.473 530.327 457.143 516.186 455.807 501.037C455.807 500.929 455.77 500.785 455.77 500.677C455.445 500.353 455.229 499.886 455.229 499.346C455.229 498.734 455.301 498.194 455.337 497.619C451.328 471.711 428.251 448.791 401.237 444.689C373.826 440.515 344.103 454.764 328.971 479.34C324.782 486.14 322.037 493.229 320.809 500.102C320.809 500.281 320.773 500.461 320.701 500.605C319.942 504.995 319.834 509.277 320.376 513.379C320.52 514.351 319.798 515.286 318.823 515.394C317.848 515.538 316.909 514.818 316.8 513.847C316.186 509.205 316.403 504.707 317.089 500.461C305.28 484.953 282.31 478.836 264.325 486.572C264 486.716 263.639 486.716 263.314 486.644C261.58 496.791 255.802 505.679 247.64 509.997C244.281 511.796 240.381 512.695 236.408 512.695C233.447 512.695 230.486 512.192 227.669 511.184C221.854 509.097 217.448 505.103 215.317 499.994C212.825 493.984 214.342 486.536 219.145 480.995C223.443 476.029 229.33 473.906 234.892 475.31C235.867 475.561 236.444 476.533 236.192 477.505C235.939 478.476 234.964 479.052 233.989 478.8C229.799 477.72 225.285 479.448 221.854 483.334C217.918 487.867 216.654 493.876 218.604 498.59C220.337 502.764 223.985 506.039 228.824 507.766C234.494 509.817 240.887 509.421 245.87 506.794C254.863 502.044 260.641 490.89 260.208 479.016C259.847 469.193 255.874 458.974 248.074 447.819C241.248 438.068 225.718 432.851 215.426 429.396C212.031 428.245 209.322 427.345 207.625 426.482C207.119 426.23 206.758 425.762 206.65 425.186C206.541 424.611 206.722 424.035 207.119 423.639C216.292 413.924 219.723 398.487 215.823 384.31C212.284 371.465 203.255 359.662 190.434 351.135C169.632 337.317 142.329 336.094 124.019 348.112C113.907 354.733 106.684 366.283 104.625 378.985C102.819 390.139 105.311 400.61 111.559 408.454C120.263 419.321 135.864 425.438 153.488 424.718C160.82 424.431 171.474 421.804 177.433 415.327C180.502 411.981 181.947 408.023 181.766 403.525C181.514 398.415 177.974 392.37 172.268 387.405C166.418 382.331 159.52 379.417 154.211 379.92C149.913 380.316 146.374 384.382 145.435 388.124C145.001 389.78 144.713 392.874 147.457 394.709C148.288 395.249 148.505 396.364 147.963 397.192C147.421 398.02 146.302 398.236 145.471 397.696C142.148 395.465 140.812 391.579 141.932 387.225C143.196 382.331 147.818 376.862 153.886 376.322C160.242 375.783 168.007 378.877 174.652 384.67C181.08 390.247 185.089 397.228 185.378 403.345C185.631 408.85 183.861 413.672 180.105 417.738C173.388 425.006 162.048 427.957 153.633 428.281C134.998 429 118.132 422.452 108.742 410.685C101.844 402.05 99.1355 390.607 101.086 378.409C103.289 364.736 111.126 352.25 122.032 345.09C125.21 343.003 128.678 341.311 132.325 339.98C131.892 339.728 131.567 339.332 131.458 338.829C128.1 323.212 112.931 310.618 96.8964 310.115C89.3484 318.786 78.4055 324.867 66.7765 326.127C65.3319 326.271 63.9234 326.343 62.5511 326.343C50.4887 326.343 40.1237 320.514 33.7675 309.935C29.2892 302.486 27.664 294.426 29.2531 287.194C31.095 278.738 37.5234 272.009 45.252 270.426C53.8835 268.663 62.9844 274.204 64.718 282.228C64.9347 283.2 64.3207 284.171 63.3456 284.351C62.3705 284.567 61.3954 283.956 61.2148 282.984C59.8786 276.903 52.6195 272.549 46.0104 273.952C39.7625 275.212 34.3453 280.969 32.8285 287.95C31.4561 294.282 32.9007 301.407 36.9095 308.064C43.374 318.75 53.8474 323.896 66.4515 322.529C82.1254 320.837 97.0047 309.107 101.844 294.714C107.334 278.378 102.783 258.3 90.2512 243.583C75.2635 225.952 45.7215 211.343 22.2468 217.388C14.4821 219.367 7.04242 224.729 1.33626 232.501C1.01122 232.933 0.541725 233.184 0.0361158 233.22V407.303C10.7261 399.063 25.2805 395.573 40.0154 397.66C53.0167 399.531 66.0542 405.684 77.6471 415.435C97.8354 432.383 107.55 456.671 102.386 477.325C100.688 484.161 97.402 490.242 93.0321 495.1C91.5875 512.983 111.667 528.492 131.314 532.665C138.031 534.069 160.423 537.199 166.995 517.625C170.788 506.254 168.332 490.71 161.434 482.254C154.391 473.655 144.207 474.626 137.742 479.196C131.603 483.514 127.847 491.897 133.336 500.857C134.059 502.009 135.503 503.988 137.417 504.095C138.031 504.203 138.862 503.7 139.259 503.088C139.44 502.836 139.584 502.476 139.44 502.153C139.006 501.253 139.368 500.173 140.27 499.742C141.173 499.31 142.257 499.67 142.69 500.569C143.412 502.009 143.232 503.664 142.257 505.103C141.101 506.794 139.079 507.802 137.165 507.694C134.564 507.514 132.108 505.751 130.23 502.728C123.513 491.79 128.1 481.571 135.612 476.245C143.665 470.56 156.089 470.02 164.215 479.951C171.979 489.451 174.616 506.111 170.426 518.74C166.418 530.722 155.764 537.379 141.571 537.379C138.104 537.379 134.42 536.983 130.555 536.156C110.765 531.946 90.6124 516.761 89.3845 498.626C86.9287 500.713 84.2562 502.476 81.3308 503.736C77.4304 505.463 73.2411 506.29 69.124 506.29C61.2509 506.29 53.5946 503.268 48.5385 497.691C44.3853 493.085 42.2906 486.68 42.7601 480.095C43.1935 474.086 45.7576 468.833 49.9831 465.307C54.6419 461.42 61.576 460.161 68.0406 462.032C74.1079 463.759 78.5861 467.789 80.3196 473.079C80.6085 474.014 80.1029 475.022 79.1639 475.346C78.1888 475.633 77.2137 475.13 76.8887 474.194C75.5524 470.056 71.941 466.89 67.0654 465.486C61.7204 463.939 56.0865 464.947 52.3305 468.077C48.8635 470.956 46.7688 475.31 46.4077 480.347C46.0104 485.853 47.8162 491.43 51.2832 495.28C57.9284 502.656 69.9907 504.851 79.9223 500.461C89.0594 496.431 96.1741 487.436 98.8827 476.461C104.733 452.965 89.854 430.404 75.2996 418.17C64.2124 408.85 51.8249 402.985 39.4736 401.186C25.5694 399.171 11.8818 402.517 1.91409 410.326C1.33626 410.757 0.613954 410.793 0 410.505V544H396.65C391.775 542.417 387.73 540.078 384.48 536.983C378.737 531.55 375.848 523.058 376.787 514.315C377.726 505.571 382.349 497.871 389.102 493.769C395.892 489.667 404.848 489.127 413.083 492.293C421.317 495.496 427.565 501.937 429.768 509.529C430.057 510.464 429.479 511.472 428.54 511.76V511.796Z"/>
</mask>
<path d="M428.54 511.796C427.601 512.084 426.59 511.508 426.301 510.572C424.423 504.06 418.969 498.482 411.783 495.712C404.596 492.941 396.831 493.373 390.98 496.899C385.166 500.425 381.193 507.118 380.362 514.746C379.532 522.411 382.024 529.751 386.935 534.429C393.039 540.186 402.32 543.028 415.394 543.1C426.698 543.172 435.077 541.229 441.361 537.055C451.473 530.327 457.143 516.186 455.807 501.037C455.807 500.929 455.77 500.785 455.77 500.677C455.445 500.353 455.229 499.886 455.229 499.346C455.229 498.734 455.301 498.194 455.337 497.619C451.328 471.711 428.251 448.791 401.237 444.689C373.826 440.515 344.103 454.764 328.971 479.34C324.782 486.14 322.037 493.229 320.809 500.102C320.809 500.281 320.773 500.461 320.701 500.605C319.942 504.995 319.834 509.277 320.376 513.379C320.52 514.351 319.798 515.286 318.823 515.394C317.848 515.538 316.909 514.818 316.8 513.847C316.186 509.205 316.403 504.707 317.089 500.461C305.28 484.953 282.31 478.836 264.325 486.572C264 486.716 263.639 486.716 263.314 486.644C261.58 496.791 255.802 505.679 247.64 509.997C244.281 511.796 240.381 512.695 236.408 512.695C233.447 512.695 230.486 512.192 227.669 511.184C221.854 509.097 217.448 505.103 215.317 499.994C212.825 493.984 214.342 486.536 219.145 480.995C223.443 476.029 229.33 473.906 234.892 475.31C235.867 475.561 236.444 476.533 236.192 477.505C235.939 478.476 234.964 479.052 233.989 478.8C229.799 477.72 225.285 479.448 221.854 483.334C217.918 487.867 216.654 493.876 218.604 498.59C220.337 502.764 223.985 506.039 228.824 507.766C234.494 509.817 240.887 509.421 245.87 506.794C254.863 502.044 260.641 490.89 260.208 479.016C259.847 469.193 255.874 458.974 248.074 447.819C241.248 438.068 225.718 432.851 215.426 429.396C212.031 428.245 209.322 427.345 207.625 426.482C207.119 426.23 206.758 425.762 206.65 425.186C206.541 424.611 206.722 424.035 207.119 423.639C216.292 413.924 219.723 398.487 215.823 384.31C212.284 371.465 203.255 359.662 190.434 351.135C169.632 337.317 142.329 336.094 124.019 348.112C113.907 354.733 106.684 366.283 104.625 378.985C102.819 390.139 105.311 400.61 111.559 408.454C120.263 419.321 135.864 425.438 153.488 424.718C160.82 424.431 171.474 421.804 177.433 415.327C180.502 411.981 181.947 408.023 181.766 403.525C181.514 398.415 177.974 392.37 172.268 387.405C166.418 382.331 159.52 379.417 154.211 379.92C149.913 380.316 146.374 384.382 145.435 388.124C145.001 389.78 144.713 392.874 147.457 394.709C148.288 395.249 148.505 396.364 147.963 397.192C147.421 398.02 146.302 398.236 145.471 397.696C142.148 395.465 140.812 391.579 141.932 387.225C143.196 382.331 147.818 376.862 153.886 376.322C160.242 375.783 168.007 378.877 174.652 384.67C181.08 390.247 185.089 397.228 185.378 403.345C185.631 408.85 183.861 413.672 180.105 417.738C173.388 425.006 162.048 427.957 153.633 428.281C134.998 429 118.132 422.452 108.742 410.685C101.844 402.05 99.1355 390.607 101.086 378.409C103.289 364.736 111.126 352.25 122.032 345.09C125.21 343.003 128.678 341.311 132.325 339.98C131.892 339.728 131.567 339.332 131.458 338.829C128.1 323.212 112.931 310.618 96.8964 310.115C89.3484 318.786 78.4055 324.867 66.7765 326.127C65.3319 326.271 63.9234 326.343 62.5511 326.343C50.4887 326.343 40.1237 320.514 33.7675 309.935C29.2892 302.486 27.664 294.426 29.2531 287.194C31.095 278.738 37.5234 272.009 45.252 270.426C53.8835 268.663 62.9844 274.204 64.718 282.228C64.9347 283.2 64.3207 284.171 63.3456 284.351C62.3705 284.567 61.3954 283.956 61.2148 282.984C59.8786 276.903 52.6195 272.549 46.0104 273.952C39.7625 275.212 34.3453 280.969 32.8285 287.95C31.4561 294.282 32.9007 301.407 36.9095 308.064C43.374 318.75 53.8474 323.896 66.4515 322.529C82.1254 320.837 97.0047 309.107 101.844 294.714C107.334 278.378 102.783 258.3 90.2512 243.583C75.2635 225.952 45.7215 211.343 22.2468 217.388C14.4821 219.367 7.04242 224.729 1.33626 232.501C1.01122 232.933 0.541725 233.184 0.0361158 233.22V407.303C10.7261 399.063 25.2805 395.573 40.0154 397.66C53.0167 399.531 66.0542 405.684 77.6471 415.435C97.8354 432.383 107.55 456.671 102.386 477.325C100.688 484.161 97.402 490.242 93.0321 495.1C91.5875 512.983 111.667 528.492 131.314 532.665C138.031 534.069 160.423 537.199 166.995 517.625C170.788 506.254 168.332 490.71 161.434 482.254C154.391 473.655 144.207 474.626 137.742 479.196C131.603 483.514 127.847 491.897 133.336 500.857C134.059 502.009 135.503 503.988 137.417 504.095C138.031 504.203 138.862 503.7 139.259 503.088C139.44 502.836 139.584 502.476 139.44 502.153C139.006 501.253 139.368 500.173 140.27 499.742C141.173 499.31 142.257 499.67 142.69 500.569C143.412 502.009 143.232 503.664 142.257 505.103C141.101 506.794 139.079 507.802 137.165 507.694C134.564 507.514 132.108 505.751 130.23 502.728C123.513 491.79 128.1 481.571 135.612 476.245C143.665 470.56 156.089 470.02 164.215 479.951C171.979 489.451 174.616 506.111 170.426 518.74C166.418 530.722 155.764 537.379 141.571 537.379C138.104 537.379 134.42 536.983 130.555 536.156C110.765 531.946 90.6124 516.761 89.3845 498.626C86.9287 500.713 84.2562 502.476 81.3308 503.736C77.4304 505.463 73.2411 506.29 69.124 506.29C61.2509 506.29 53.5946 503.268 48.5385 497.691C44.3853 493.085 42.2906 486.68 42.7601 480.095C43.1935 474.086 45.7576 468.833 49.9831 465.307C54.6419 461.42 61.576 460.161 68.0406 462.032C74.1079 463.759 78.5861 467.789 80.3196 473.079C80.6085 474.014 80.1029 475.022 79.1639 475.346C78.1888 475.633 77.2137 475.13 76.8887 474.194C75.5524 470.056 71.941 466.89 67.0654 465.486C61.7204 463.939 56.0865 464.947 52.3305 468.077C48.8635 470.956 46.7688 475.31 46.4077 480.347C46.0104 485.853 47.8162 491.43 51.2832 495.28C57.9284 502.656 69.9907 504.851 79.9223 500.461C89.0594 496.431 96.1741 487.436 98.8827 476.461C104.733 452.965 89.854 430.404 75.2996 418.17C64.2124 408.85 51.8249 402.985 39.4736 401.186C25.5694 399.171 11.8818 402.517 1.91409 410.326C1.33626 410.757 0.613954 410.793 0 410.505V544H396.65C391.775 542.417 387.73 540.078 384.48 536.983C378.737 531.55 375.848 523.058 376.787 514.315C377.726 505.571 382.349 497.871 389.102 493.769C395.892 489.667 404.848 489.127 413.083 492.293C421.317 495.496 427.565 501.937 429.768 509.529C430.057 510.464 429.479 511.472 428.54 511.76V511.796Z" fill="white" stroke="black" stroke-width="4" mask="url(#path-2-inside-2_22_411)"/>
</svg>
