<svg width="576" height="106" viewBox="0 0 576 106" fill="none" xmlns="http://www.w3.org/2000/svg">
<mask id="path-1-outside-1_172_13109" maskUnits="userSpaceOnUse" x="414.104" y="5.62939" width="63" height="72" fill="black">
<rect fill="white" x="414.104" y="5.62939" width="63" height="72"/>
<path fill-rule="evenodd" clip-rule="evenodd" d="M474.916 7.62939H456.879C456.879 7.62947 456.879 7.62954 456.879 7.62961H454.782C455.473 10.4292 457.534 13.4617 459.835 16.8461C463.637 22.4401 468.093 28.9952 468.093 37.048V51.3225L435.659 7.62939H418.201V7.62961H416.104V7.91898L422.374 16.1176V45.6324C422.374 58.5572 421.216 67.6239 419.48 75.0508H436.938C436.938 75.0507 436.938 75.0507 436.938 75.0506H439.035C438.379 72.2462 436.404 69.2079 434.198 65.8165C430.563 60.2264 426.303 53.6766 426.303 45.6322V21.1507L468.768 76.2083H469.926V76.208H472.022V37.0478C472.022 24.123 473.18 15.0563 474.916 7.62939Z"/>
</mask>
<path fill-rule="evenodd" clip-rule="evenodd" d="M474.916 7.62939H456.879C456.879 7.62947 456.879 7.62954 456.879 7.62961H454.782C455.473 10.4292 457.534 13.4617 459.835 16.8461C463.637 22.4401 468.093 28.9952 468.093 37.048V51.3225L435.659 7.62939H418.201V7.62961H416.104V7.91898L422.374 16.1176V45.6324C422.374 58.5572 421.216 67.6239 419.48 75.0508H436.938C436.938 75.0507 436.938 75.0507 436.938 75.0506H439.035C438.379 72.2462 436.404 69.2079 434.198 65.8165C430.563 60.2264 426.303 53.6766 426.303 45.6322V21.1507L468.768 76.2083H469.926V76.208H472.022V37.0478C472.022 24.123 473.18 15.0563 474.916 7.62939Z" fill="#808CE2"/>
<path d="M456.879 7.62939V6.56322H455.499L455.847 7.89815L456.879 7.62939ZM474.916 7.62939L475.954 7.87209L476.26 6.56322H474.916V7.62939ZM456.879 7.62961V8.69579H458.258L457.911 7.36086L456.879 7.62961ZM454.782 7.62961V6.56344H453.421L453.747 7.88504L454.782 7.62961ZM459.835 16.8461L458.953 17.4455L459.835 16.8461ZM468.093 51.3225L467.237 51.958L469.159 54.5476V51.3225H468.093ZM435.659 7.62939L436.515 6.99391L436.195 6.56322H435.659V7.62939ZM418.201 7.62939V6.56322H417.135V7.62939H418.201ZM418.201 7.62961V8.69579H419.267V7.62961H418.201ZM416.104 7.62961V6.56344H415.038V7.62961H416.104ZM416.104 7.91898H415.038V8.27991L415.257 8.56662L416.104 7.91898ZM422.374 16.1176H423.44V15.7566L423.221 15.4699L422.374 16.1176ZM419.48 75.0508L418.442 74.8081L418.136 76.117H419.48V75.0508ZM436.938 75.0508V76.117H438.271L437.979 74.8168L436.938 75.0508ZM436.938 75.0506V73.9844H435.606L435.898 75.2846L436.938 75.0506ZM439.035 75.0506V76.1168H440.379L440.073 74.8079L439.035 75.0506ZM434.198 65.8165L433.304 66.3977H433.304L434.198 65.8165ZM426.303 21.1507L427.147 20.4996L425.237 18.0227V21.1507H426.303ZM468.768 76.2083L467.924 76.8594L468.244 77.2744H468.768V76.2083ZM469.926 76.2083V77.2744H470.992V76.2083H469.926ZM469.926 76.208V75.1419H468.859V76.208H469.926ZM472.022 76.208V77.2742H473.088V76.208H472.022ZM456.879 8.69557H474.916V6.56322H456.879V8.69557ZM457.911 7.36086C457.913 7.36907 457.914 7.37574 457.915 7.37982C457.916 7.38352 457.917 7.3867 457.917 7.38615C457.917 7.38615 457.917 7.38615 457.917 7.38615C457.917 7.38614 457.917 7.38613 457.917 7.38613C457.917 7.38611 457.917 7.38608 457.917 7.38605C457.917 7.38598 457.917 7.38587 457.917 7.38574C457.917 7.38548 457.917 7.38505 457.917 7.38453C457.916 7.38349 457.916 7.3818 457.915 7.37971C457.914 7.3756 457.913 7.36889 457.911 7.36064L455.847 7.89815C455.845 7.88994 455.843 7.88327 455.842 7.87919C455.842 7.87549 455.841 7.87231 455.841 7.87285C455.841 7.87285 455.841 7.87286 455.841 7.87286C455.841 7.87287 455.841 7.87287 455.841 7.87288C455.841 7.8729 455.841 7.87293 455.841 7.87296C455.841 7.87303 455.841 7.87314 455.841 7.87327C455.841 7.87353 455.841 7.87396 455.841 7.87448C455.842 7.87551 455.842 7.87721 455.842 7.8793C455.843 7.88341 455.845 7.89012 455.847 7.89837L457.911 7.36086ZM454.782 8.69579H456.879V6.56344H454.782V8.69579ZM460.717 16.2467C458.375 12.8019 456.452 9.94604 455.817 7.37419L453.747 7.88504C454.494 10.9123 456.694 14.1215 458.953 17.4455L460.717 16.2467ZM469.159 37.048C469.159 28.6172 464.49 21.7977 460.717 16.2467L458.953 17.4455C462.785 23.0825 467.027 29.3732 467.027 37.048H469.159ZM469.159 51.3225V37.048H467.027V51.3225H469.159ZM434.803 8.26488L467.237 51.958L468.949 50.687L436.515 6.99391L434.803 8.26488ZM418.201 8.69557H435.659V6.56322H418.201V8.69557ZM419.267 7.62961V7.62939H417.135V7.62961H419.267ZM416.104 8.69579H418.201V6.56344H416.104V8.69579ZM417.171 7.91898V7.62961H415.038V7.91898H417.171ZM423.221 15.4699L416.951 7.27133L415.257 8.56662L421.527 16.7652L423.221 15.4699ZM423.44 45.6324V16.1176H421.308V45.6324H423.44ZM420.518 75.2935C422.276 67.7738 423.44 58.6241 423.44 45.6324H421.308C421.308 58.4904 420.157 67.474 418.442 74.8081L420.518 75.2935ZM436.938 73.9846H419.48V76.117H436.938V73.9846ZM435.898 75.2846C435.899 75.2883 435.9 75.2914 435.9 75.2933C435.9 75.2943 435.901 75.2951 435.901 75.2956C435.901 75.2959 435.901 75.2961 435.901 75.2962C435.901 75.2963 435.901 75.2963 435.901 75.2964C435.901 75.2964 435.901 75.2964 435.901 75.2964C435.901 75.2964 435.901 75.2964 435.901 75.2964C435.901 75.2972 435.9 75.2916 435.898 75.2849L437.979 74.8168C437.978 74.8131 437.977 74.8101 437.977 74.8081C437.976 74.8071 437.976 74.8063 437.976 74.8058C437.976 74.8055 437.976 74.8053 437.976 74.8052C437.976 74.8051 437.976 74.8051 437.976 74.805C437.976 74.805 437.976 74.805 437.976 74.805C437.976 74.805 437.976 74.805 437.976 74.805C437.976 74.8042 437.977 74.8098 437.979 74.8166L435.898 75.2846ZM439.035 73.9844H436.938V76.1168H439.035V73.9844ZM433.304 66.3977C435.548 69.8478 437.393 72.7116 437.997 75.2933L440.073 74.8079C439.365 71.7807 437.259 68.5681 435.092 65.2352L433.304 66.3977ZM425.237 45.6322C425.237 54.0397 429.694 60.8462 433.304 66.3977L435.092 65.2352C431.431 59.6065 427.369 53.3135 427.369 45.6322H425.237ZM425.237 21.1507V45.6322H427.369V21.1507H425.237ZM469.612 75.5571L427.147 20.4996L425.459 21.8019L467.924 76.8594L469.612 75.5571ZM469.926 75.1421H468.768V77.2744H469.926V75.1421ZM468.859 76.208V76.2083H470.992V76.208H468.859ZM472.022 75.1419H469.926V77.2742H472.022V75.1419ZM470.956 37.0478V76.208H473.088V37.0478H470.956ZM473.878 7.3867C472.12 14.9065 470.956 24.0561 470.956 37.0478H473.088C473.088 24.1899 474.239 15.2062 475.954 7.87209L473.878 7.3867Z" fill="black" mask="url(#path-1-outside-1_172_13109)"/>
<mask id="path-3-outside-2_172_13109" maskUnits="userSpaceOnUse" x="417.879" y="5.62939" width="63" height="72" fill="black">
<rect fill="white" x="417.879" y="5.62939" width="63" height="72"/>
<path fill-rule="evenodd" clip-rule="evenodd" d="M478.69 7.62939H460.653C460.653 7.62947 460.653 7.62954 460.653 7.62961H458.557C459.248 10.4292 461.309 13.4617 463.609 16.8461C467.412 22.4401 471.867 28.9952 471.867 37.048V51.3225L439.434 7.62939H421.975V7.62961H419.879V7.91898L426.148 16.1176V45.6324C426.148 58.5572 424.991 67.6239 423.255 75.0508H440.713C440.713 75.0507 440.713 75.0507 440.713 75.0506H442.809C442.154 72.2462 440.178 69.2079 437.972 65.8165C434.337 60.2264 430.077 53.6766 430.077 45.6322V21.1507L472.543 76.2083H473.7V76.208H475.797V37.0478C475.797 24.123 476.954 15.0563 478.69 7.62939Z"/>
</mask>
<path fill-rule="evenodd" clip-rule="evenodd" d="M478.69 7.62939H460.653C460.653 7.62947 460.653 7.62954 460.653 7.62961H458.557C459.248 10.4292 461.309 13.4617 463.609 16.8461C467.412 22.4401 471.867 28.9952 471.867 37.048V51.3225L439.434 7.62939H421.975V7.62961H419.879V7.91898L426.148 16.1176V45.6324C426.148 58.5572 424.991 67.6239 423.255 75.0508H440.713C440.713 75.0507 440.713 75.0507 440.713 75.0506H442.809C442.154 72.2462 440.178 69.2079 437.972 65.8165C434.337 60.2264 430.077 53.6766 430.077 45.6322V21.1507L472.543 76.2083H473.7V76.208H475.797V37.0478C475.797 24.123 476.954 15.0563 478.69 7.62939Z" fill="#FF7372"/>
<path d="M460.653 7.62939V6.56322H459.274L459.622 7.89815L460.653 7.62939ZM478.69 7.62939L479.728 7.87209L480.034 6.56322H478.69V7.62939ZM460.653 7.62961V8.69579H462.033L461.685 7.36086L460.653 7.62961ZM458.557 7.62961V6.56344H457.196L457.522 7.88504L458.557 7.62961ZM463.609 16.8461L462.728 17.4455L463.609 16.8461ZM471.867 51.3225L471.011 51.958L472.934 54.5476V51.3225H471.867ZM439.434 7.62939L440.29 6.99391L439.97 6.56322H439.434V7.62939ZM421.975 7.62939V6.56322H420.909V7.62939H421.975ZM421.975 7.62961V8.69579H423.042V7.62961H421.975ZM419.879 7.62961V6.56344H418.813V7.62961H419.879ZM419.879 7.91898H418.813V8.27991L419.032 8.56662L419.879 7.91898ZM426.148 16.1176H427.214V15.7566L426.995 15.4699L426.148 16.1176ZM423.255 75.0508L422.216 74.8081L421.911 76.117H423.255V75.0508ZM440.713 75.0508V76.117H442.046L441.753 74.8168L440.713 75.0508ZM440.713 75.0506V73.9844H439.38L439.673 75.2846L440.713 75.0506ZM442.809 75.0506V76.1168H444.154L443.848 74.8079L442.809 75.0506ZM437.972 65.8165L437.079 66.3977L437.972 65.8165ZM430.077 21.1507L430.922 20.4996L429.011 18.0227V21.1507H430.077ZM472.543 76.2083L471.698 76.8594L472.018 77.2744H472.543V76.2083ZM473.7 76.2083V77.2744H474.766V76.2083H473.7ZM473.7 76.208V75.1419H472.634V76.208H473.7ZM475.797 76.208V77.2742H476.863V76.208H475.797ZM460.653 8.69557H478.69V6.56322H460.653V8.69557ZM461.685 7.36086C461.687 7.36907 461.689 7.37574 461.69 7.37982C461.691 7.38352 461.692 7.3867 461.691 7.38615C461.691 7.38615 461.691 7.38615 461.691 7.38615C461.691 7.38614 461.691 7.38613 461.691 7.38613C461.691 7.38611 461.691 7.38608 461.691 7.38605C461.691 7.38598 461.691 7.38587 461.691 7.38574C461.691 7.38548 461.691 7.38505 461.691 7.38453C461.691 7.38349 461.69 7.3818 461.69 7.37971C461.689 7.3756 461.687 7.36889 461.685 7.36064L459.622 7.89815C459.619 7.88994 459.618 7.88327 459.617 7.87919C459.616 7.87549 459.615 7.87231 459.615 7.87285C459.615 7.87285 459.615 7.87286 459.615 7.87286C459.615 7.87287 459.615 7.87287 459.615 7.87288C459.615 7.8729 459.615 7.87293 459.615 7.87296C459.615 7.87303 459.615 7.87314 459.615 7.87327C459.615 7.87353 459.616 7.87396 459.616 7.87448C459.616 7.87551 459.616 7.87721 459.617 7.8793C459.618 7.88341 459.619 7.89012 459.622 7.89837L461.685 7.36086ZM458.557 8.69579H460.653V6.56344H458.557V8.69579ZM464.491 16.2467C462.15 12.8019 460.226 9.94604 459.592 7.37419L457.522 7.88504C458.269 10.9123 460.468 14.1215 462.728 17.4455L464.491 16.2467ZM472.934 37.048C472.934 28.6172 468.264 21.7977 464.491 16.2467L462.728 17.4455C466.559 23.0825 470.801 29.3732 470.801 37.048H472.934ZM472.934 51.3225V37.048H470.801V51.3225H472.934ZM438.577 8.26488L471.011 51.958L472.723 50.687L440.29 6.99391L438.577 8.26488ZM421.975 8.69557H439.434V6.56322H421.975V8.69557ZM423.042 7.62961V7.62939H420.909V7.62961H423.042ZM419.879 8.69579H421.975V6.56344H419.879V8.69579ZM420.945 7.91898V7.62961H418.813V7.91898H420.945ZM426.995 15.4699L420.726 7.27133L419.032 8.56662L425.301 16.7652L426.995 15.4699ZM427.214 45.6324V16.1176H425.082V45.6324H427.214ZM424.293 75.2935C426.051 67.7738 427.214 58.6241 427.214 45.6324H425.082C425.082 58.4904 423.931 67.474 422.216 74.8081L424.293 75.2935ZM440.713 73.9846H423.255V76.117H440.713V73.9846ZM439.673 75.2846C439.673 75.2883 439.674 75.2914 439.675 75.2933C439.675 75.2943 439.675 75.2951 439.675 75.2956C439.675 75.2959 439.675 75.2961 439.675 75.2962C439.675 75.2963 439.675 75.2963 439.675 75.2964C439.675 75.2964 439.675 75.2964 439.675 75.2964C439.675 75.2964 439.675 75.2964 439.675 75.2964C439.675 75.2972 439.674 75.2916 439.673 75.2849L441.753 74.8168C441.752 74.8131 441.751 74.8101 441.751 74.8081C441.751 74.8071 441.751 74.8063 441.75 74.8058C441.75 74.8055 441.75 74.8053 441.75 74.8052C441.75 74.8051 441.75 74.8051 441.75 74.805C441.75 74.805 441.75 74.805 441.75 74.805C441.75 74.805 441.75 74.805 441.75 74.805C441.75 74.8042 441.751 74.8098 441.753 74.8166L439.673 75.2846ZM442.809 73.9844H440.713V76.1168H442.809V73.9844ZM437.079 66.3977C439.322 69.8478 441.168 72.7116 441.771 75.2933L443.848 74.8079C443.14 71.7807 441.034 68.5681 438.866 65.2352L437.079 66.3977ZM429.011 45.6322C429.011 54.0397 433.468 60.8462 437.079 66.3977L438.866 65.2352C435.206 59.6065 431.144 53.3135 431.144 45.6322H429.011ZM429.011 21.1507V45.6322H431.144V21.1507H429.011ZM473.387 75.5571L430.922 20.4996L429.233 21.8019L471.698 76.8594L473.387 75.5571ZM473.7 75.1421H472.543V77.2744H473.7V75.1421ZM472.634 76.208V76.2083H474.766V76.208H472.634ZM475.797 75.1419H473.7V77.2742H475.797V75.1419ZM474.73 37.0478V76.208H476.863V37.0478H474.73ZM477.652 7.3867C475.894 14.9065 474.73 24.0561 474.73 37.0478H476.863C476.863 24.1899 478.014 15.2062 479.728 7.87209L477.652 7.3867Z" fill="black" mask="url(#path-3-outside-2_172_13109)"/>
<mask id="path-5-outside-3_172_13109" maskUnits="userSpaceOnUse" x="422.072" y="5.62939" width="63" height="72" fill="black">
<rect fill="white" x="422.072" y="5.62939" width="63" height="72"/>
<path fill-rule="evenodd" clip-rule="evenodd" d="M482.884 7.62939H464.847C464.847 7.62947 464.847 7.62954 464.847 7.62961H462.75C463.441 10.4292 465.502 13.4617 467.803 16.8461C471.605 22.4401 476.061 28.9952 476.061 37.048V51.3226L443.627 7.62939H426.169V7.62961H424.072V7.91898L430.342 16.1176V45.6324C430.342 58.5572 429.184 67.6239 427.448 75.0508H444.906C444.906 75.0507 444.906 75.0507 444.906 75.0506H447.003C446.347 72.2462 444.372 69.2079 442.166 65.8165C438.531 60.2264 434.271 53.6766 434.271 45.6322V21.1507L476.736 76.2083H477.894V76.208H479.99V37.0478C479.99 24.123 481.148 15.0563 482.884 7.62939Z"/>
</mask>
<path fill-rule="evenodd" clip-rule="evenodd" d="M482.884 7.62939H464.847C464.847 7.62947 464.847 7.62954 464.847 7.62961H462.75C463.441 10.4292 465.502 13.4617 467.803 16.8461C471.605 22.4401 476.061 28.9952 476.061 37.048V51.3226L443.627 7.62939H426.169V7.62961H424.072V7.91898L430.342 16.1176V45.6324C430.342 58.5572 429.184 67.6239 427.448 75.0508H444.906C444.906 75.0507 444.906 75.0507 444.906 75.0506H447.003C446.347 72.2462 444.372 69.2079 442.166 65.8165C438.531 60.2264 434.271 53.6766 434.271 45.6322V21.1507L476.736 76.2083H477.894V76.208H479.99V37.0478C479.99 24.123 481.148 15.0563 482.884 7.62939Z" fill="#FEC753"/>
<path d="M464.847 7.62939V6.56322H463.467L463.815 7.89815L464.847 7.62939ZM482.884 7.62939L483.922 7.87209L484.228 6.56322H482.884V7.62939ZM464.847 7.62961V8.69579H466.226L465.879 7.36086L464.847 7.62961ZM462.75 7.62961V6.56344H461.389L461.715 7.88504L462.75 7.62961ZM467.803 16.8461L466.921 17.4455L467.803 16.8461ZM476.061 51.3226L475.205 51.9581L477.127 54.5476V51.3226H476.061ZM443.627 7.62939L444.483 6.99391L444.163 6.56322H443.627V7.62939ZM426.169 7.62939V6.56322H425.103V7.62939H426.169ZM426.169 7.62961V8.69579H427.235V7.62961H426.169ZM424.072 7.62961V6.56344H423.006V7.62961H424.072ZM424.072 7.91898H423.006V8.27991L423.225 8.56662L424.072 7.91898ZM430.342 16.1176H431.408V15.7566L431.189 15.4699L430.342 16.1176ZM427.448 75.0508L426.41 74.8081L426.104 76.117H427.448V75.0508ZM444.906 75.0508V76.117H446.239L445.947 74.8168L444.906 75.0508ZM444.906 75.0506V73.9844H443.574L443.866 75.2846L444.906 75.0506ZM447.003 75.0506V76.1168H448.347L448.041 74.8079L447.003 75.0506ZM442.166 65.8165L443.06 65.2352L442.166 65.8165ZM434.271 21.1507L435.115 20.4995L433.205 18.0226V21.1507H434.271ZM476.736 76.2083L475.892 76.8594L476.212 77.2744H476.736V76.2083ZM477.894 76.2083V77.2744H478.96V76.2083H477.894ZM477.894 76.208V75.1419H476.827V76.208H477.894ZM479.99 76.208V77.2742H481.056V76.208H479.99ZM464.847 8.69557H482.884V6.56322H464.847V8.69557ZM465.879 7.36086C465.881 7.36907 465.882 7.37574 465.883 7.37982C465.884 7.38352 465.885 7.3867 465.885 7.38615C465.885 7.38615 465.885 7.38615 465.885 7.38615C465.885 7.38614 465.885 7.38613 465.885 7.38613C465.885 7.38611 465.885 7.38608 465.885 7.38605C465.885 7.38598 465.885 7.38587 465.885 7.38574C465.885 7.38548 465.885 7.38505 465.885 7.38453C465.884 7.38349 465.884 7.3818 465.883 7.37971C465.882 7.3756 465.881 7.36889 465.879 7.36064L463.815 7.89815C463.813 7.88994 463.811 7.88327 463.81 7.87919C463.81 7.87549 463.809 7.87231 463.809 7.87285C463.809 7.87285 463.809 7.87286 463.809 7.87286C463.809 7.87287 463.809 7.87287 463.809 7.87288C463.809 7.8729 463.809 7.87293 463.809 7.87296C463.809 7.87303 463.809 7.87314 463.809 7.87327C463.809 7.87353 463.809 7.87396 463.809 7.87448C463.81 7.87551 463.81 7.87721 463.81 7.8793C463.811 7.88341 463.813 7.89012 463.815 7.89837L465.879 7.36086ZM462.75 8.69579H464.847V6.56344H462.75V8.69579ZM468.685 16.2467C466.343 12.8019 464.42 9.94604 463.785 7.37419L461.715 7.88504C462.462 10.9123 464.662 14.1215 466.921 17.4455L468.685 16.2467ZM477.127 37.048C477.127 28.6172 472.458 21.7977 468.685 16.2467L466.921 17.4455C470.753 23.0825 474.995 29.3732 474.995 37.048H477.127ZM477.127 51.3226V37.048H474.995V51.3226H477.127ZM442.771 8.26488L475.205 51.9581L476.917 50.6871L444.483 6.99391L442.771 8.26488ZM426.169 8.69557H443.627V6.56322H426.169V8.69557ZM427.235 7.62961V7.62939H425.103V7.62961H427.235ZM424.072 8.69579H426.169V6.56344H424.072V8.69579ZM425.139 7.91898V7.62961H423.006V7.91898H425.139ZM431.189 15.4699L424.919 7.27133L423.225 8.56662L429.495 16.7652L431.189 15.4699ZM431.408 45.6324V16.1176H429.276V45.6324H431.408ZM428.486 75.2935C430.244 67.7738 431.408 58.6241 431.408 45.6324H429.276C429.276 58.4904 428.125 67.474 426.41 74.8081L428.486 75.2935ZM444.906 73.9846H427.448V76.117H444.906V73.9846ZM443.866 75.2846C443.867 75.2883 443.868 75.2914 443.868 75.2933C443.868 75.2943 443.869 75.2951 443.869 75.2956C443.869 75.2959 443.869 75.2961 443.869 75.2962C443.869 75.2963 443.869 75.2963 443.869 75.2964C443.869 75.2964 443.869 75.2964 443.869 75.2964C443.869 75.2964 443.869 75.2964 443.869 75.2964C443.869 75.2972 443.868 75.2916 443.866 75.2849L445.947 74.8168C445.946 74.8131 445.945 74.8101 445.945 74.8081C445.944 74.8071 445.944 74.8063 445.944 74.8058C445.944 74.8055 445.944 74.8053 445.944 74.8052C445.944 74.8051 445.944 74.8051 445.944 74.805C445.944 74.805 445.944 74.805 445.944 74.805C445.944 74.805 445.944 74.805 445.944 74.805C445.944 74.8042 445.945 74.8098 445.947 74.8166L443.866 75.2846ZM447.003 73.9844H444.906V76.1168H447.003V73.9844ZM441.272 66.3977C443.516 69.8478 445.361 72.7116 445.965 75.2933L448.041 74.8079C447.333 71.7807 445.227 68.5681 443.06 65.2352L441.272 66.3977ZM433.205 45.6322C433.205 54.0397 437.662 60.8462 441.272 66.3977L443.06 65.2352C439.399 59.6065 435.337 53.3135 435.337 45.6322H433.205ZM433.205 21.1507V45.6322H435.337V21.1507H433.205ZM477.58 75.5571L435.115 20.4995L433.427 21.8018L475.892 76.8594L477.58 75.5571ZM477.894 75.1421H476.736V77.2744H477.894V75.1421ZM476.827 76.208V76.2083H478.96V76.208H476.827ZM479.99 75.1419H477.894V77.2742H479.99V75.1419ZM478.924 37.0478V76.208H481.056V37.0478H478.924ZM481.846 7.3867C480.088 14.9065 478.924 24.0561 478.924 37.0478H481.056C481.056 24.1899 482.207 15.2062 483.922 7.87209L481.846 7.3867Z" fill="black" mask="url(#path-5-outside-3_172_13109)"/>
<path d="M466.944 6.99914H466.263L466.426 7.65994C466.906 9.60579 468.008 11.6263 469.347 13.7307C470.019 14.7869 470.759 15.8761 471.52 16.996L471.554 17.0463C472.306 18.1525 473.079 19.2901 473.838 20.4684C476.924 25.2589 479.721 30.6479 479.721 36.9506V51.661L446.149 7.21094L445.989 6.99914H445.724H428.266H427.733V7.53223V7.82159V8.00206L427.842 8.14541L434.002 16.2006V45.535C434.002 58.4264 432.848 67.4515 431.123 74.8321L430.97 75.4865H431.642H449.1H449.772L449.619 74.8321C449.165 72.8885 448.114 70.8691 446.833 68.7641C446.191 67.7079 445.484 66.6187 444.755 65.4988L444.711 65.4304C443.995 64.3298 443.259 63.1981 442.537 62.0262C439.584 57.2366 436.901 51.8443 436.901 45.535V19.8991L480.507 76.4364L480.667 76.644H480.93H482.087H482.62V76.1109V36.9506C482.62 24.0593 483.774 15.0341 485.5 7.65357L485.653 6.99914H484.981H466.944Z" fill="#FFF8EC" stroke="black" stroke-width="1.06617"/>
<path d="M295.482 57.7596H295.2L295.041 57.9936C289.279 66.4945 280.979 68.9483 274.456 68.9483C268.005 68.9483 262.5 66.3898 258.592 61.2379C254.671 56.0687 252.322 48.2395 252.322 37.6516C252.322 29.262 253.786 21.6677 256.755 16.1915C259.713 10.735 264.137 7.41593 270.115 7.41593C272.049 7.41593 273.913 8.63705 275.713 10.77C277.503 12.8921 279.151 15.8253 280.66 19.0412C282.166 22.2519 283.518 25.713 284.726 28.8766C284.892 29.3121 285.056 29.7424 285.217 30.1658C286.222 32.8061 287.126 35.1801 287.924 36.9028L288.237 37.5777L288.775 37.0647L301.985 24.4838L302.374 24.1138L302.002 23.7277C299.377 21.0061 294.272 16.3163 288.448 12.3024C282.649 8.30612 276.03 4.90295 270.405 4.90295C260.251 4.90295 251.452 8.3465 245.191 14.5956C238.929 20.8457 235.245 29.8619 235.245 40.931C235.245 51.1768 238.613 59.8502 244.422 65.9662C250.232 72.0841 258.454 75.6088 268.09 75.6088C280.784 75.6088 294.724 68.5914 300.815 58.5696L301.308 57.7596H300.36H295.482Z" fill="#808CE2" stroke="black" stroke-width="1.06617"/>
<path d="M300.074 57.7596H299.792L299.633 57.9936C293.871 66.4945 285.571 68.9483 279.047 68.9483C272.597 68.9483 267.092 66.3898 263.184 61.2379C259.263 56.0687 256.914 48.2395 256.914 37.6516C256.914 29.262 258.378 21.6677 261.347 16.1915C264.305 10.735 268.729 7.41593 274.707 7.41593C276.671 7.41593 278.476 8.46139 280.162 10.266C281.849 12.0707 283.365 14.58 284.742 17.3732C286.118 20.1617 287.341 23.201 288.452 26.0495C288.64 26.5302 288.825 27.0059 289.006 27.4743C289.897 29.7702 290.72 31.8894 291.489 33.5479L291.791 34.2001L292.327 33.7215L305.956 21.56L306.37 21.191L305.985 20.7922C303.341 18.0499 298.373 14.089 292.7 10.812C287.038 7.54178 280.589 4.90295 274.996 4.90295C264.843 4.90295 256.044 8.3465 249.783 14.5956C243.521 20.8457 239.836 29.8619 239.836 40.931C239.836 51.1768 243.205 59.8502 249.013 65.9662C254.824 72.0841 263.046 75.6088 272.682 75.6088C279.044 75.6088 285.757 73.8482 291.634 70.8484C297.508 67.8497 302.584 63.5935 305.638 58.5696L306.13 57.7596H305.182H300.074Z" fill="#FF7372" stroke="black" stroke-width="1.06617"/>
<path d="M305.107 57.7596H304.824L304.665 57.9936C298.904 66.4945 290.603 68.9483 284.08 68.9483C277.629 68.9483 272.124 66.3898 268.216 61.2379C264.295 56.0687 261.946 48.2395 261.946 37.6516C261.946 29.262 263.41 21.6677 266.379 16.1915C269.337 10.735 273.761 7.41593 279.739 7.41593C281.733 7.41593 283.421 8.29295 284.912 9.78705C286.411 11.2903 287.688 13.3978 288.828 15.7938C289.966 18.186 290.953 20.8288 291.888 23.3852C291.964 23.5914 292.039 23.7971 292.114 24.0021C292.964 26.3272 293.781 28.5625 294.634 30.4027L294.933 31.0475L295.468 30.5801L308.678 19.0476L309.1 18.6792L308.711 18.276C306.061 15.528 301.663 12.1925 296.558 9.54236C291.455 6.89362 285.596 4.90295 280.029 4.90295C269.875 4.90295 261.077 8.3465 254.815 14.5956C248.553 20.8457 244.869 29.8619 244.869 40.931C244.869 51.1768 248.237 59.8502 254.046 65.9662C259.857 72.0841 268.078 75.6088 277.714 75.6088C284.075 75.6088 290.995 73.8491 297.079 70.8518C303.159 67.8562 308.451 63.6008 311.509 58.5696L312.001 57.7596H311.053H305.107Z" fill="#FEC753" stroke="black" stroke-width="1.06617"/>
<path d="M311.264 57.843L310.827 57.5649L310.537 57.9936C304.775 66.4945 296.474 68.9483 289.951 68.9483C283.5 68.9483 277.995 66.3898 274.087 61.2379C270.166 56.0687 267.817 48.2395 267.817 37.6516C267.817 29.262 269.281 21.6677 272.25 16.1915C275.208 10.735 279.632 7.41593 285.61 7.41593C289.636 7.41593 292.08 10.1143 294.007 13.9924C294.968 15.9268 295.779 18.1119 296.584 20.3303C296.641 20.4873 296.698 20.6444 296.756 20.8017C297.5 22.8553 298.251 24.9233 299.113 26.7836L299.415 27.4355L299.951 26.9573L311.526 16.6367L311.939 16.2678L311.554 15.8688C306.267 10.3853 296.972 4.90295 285.9 4.90295C275.746 4.90295 266.948 8.3465 260.686 14.5956C254.424 20.8457 250.74 29.8619 250.74 40.931C250.74 51.1768 254.108 59.8502 259.917 65.9662C265.728 72.0841 273.949 75.6088 283.585 75.6088C296.323 75.6088 306.424 69.2312 312.494 59.2448L312.766 58.7985L312.325 58.5181L311.264 57.843Z" fill="#FFF8EC" stroke="black" stroke-width="1.06617"/>
<path d="M104.5 75.5837H105.033V75.0506V47.2992C107.205 47.5632 110.424 47.805 113.084 47.805C121.269 47.805 127.91 45.7591 132.516 42.0569C137.135 38.3445 139.66 33.0033 139.66 26.5343C139.66 20.4576 137.428 15.5629 132.935 12.2059C128.467 8.86689 121.825 7.09631 113.084 7.09631H89.8389H89.3058V7.62939V75.0506V75.5837H89.8389H104.5ZM123.258 27.6918C123.258 33.2777 122.157 37.6809 119.961 40.675C117.784 43.6418 114.483 45.292 109.901 45.292C107.917 45.292 106.345 45.0557 105.033 44.663V9.70574H109.998C114.752 9.70574 118.029 11.5806 120.141 14.7153C122.276 17.8823 123.258 22.3901 123.258 27.6918Z" fill="#808CE2" stroke="black" stroke-width="1.06617"/>
<path d="M109.532 75.5837H110.066V75.0506V47.2992C112.238 47.5632 115.457 47.805 118.117 47.805C126.302 47.805 132.943 45.7591 137.549 42.0569C142.167 38.3445 144.692 33.0033 144.692 26.5343C144.692 20.4576 142.461 15.5629 137.968 12.2059C133.499 8.86689 126.858 7.09631 118.117 7.09631H94.8715H94.3384V7.62939V75.0506V75.5837H94.8715H109.532ZM128.29 27.6918C128.29 33.2777 127.19 37.6809 124.993 40.675C122.817 43.6418 119.515 45.292 114.934 45.292C112.95 45.292 111.378 45.0557 110.066 44.663V9.70574H115.03C119.784 9.70574 123.061 11.5806 125.174 14.7153C127.309 17.8823 128.29 22.3901 128.29 27.6918Z" fill="#FF7372" stroke="black" stroke-width="1.06617"/>
<path d="M115.404 75.5837H115.937V75.0506V47.2992C118.109 47.5632 121.328 47.805 123.988 47.805C132.173 47.805 138.814 45.7591 143.42 42.0569C148.039 38.3445 150.564 33.0033 150.564 26.5343C150.564 20.4576 148.332 15.5629 143.839 12.2059C139.37 8.86689 132.729 7.09631 123.988 7.09631H100.743H100.209V7.62939V75.0506V75.5837H100.743H115.404ZM134.161 27.6918C134.161 33.2777 133.061 37.6809 130.864 40.675C128.688 43.6418 125.386 45.292 120.805 45.292C118.821 45.292 117.249 45.0557 115.937 44.663V9.70574H120.901C125.655 9.70574 128.932 11.5806 131.045 14.7153C133.18 17.8823 134.161 22.3901 134.161 27.6918Z" fill="#FEC753" stroke="black" stroke-width="1.06617"/>
<path d="M122.113 75.5837H122.646V75.0506V47.2992C124.819 47.5632 128.037 47.805 130.698 47.805C138.882 47.805 145.523 45.7591 150.129 42.0569C154.748 38.3445 157.273 33.0033 157.273 26.5343C157.273 20.4576 155.041 15.5629 150.549 12.2059C146.08 8.86689 139.438 7.09631 130.698 7.09631H107.452H106.919V7.62939V75.0506V75.5837H107.452H122.113ZM140.871 27.6918C140.871 33.2777 139.771 37.6809 137.574 40.675C135.398 43.6418 132.096 45.292 127.515 45.292C125.531 45.292 123.958 45.0557 122.646 44.663V9.70574H127.611C132.365 9.70574 135.642 11.5806 137.755 14.7153C139.889 17.8823 140.871 22.3901 140.871 27.6918Z" fill="#FFF8EC" stroke="black" stroke-width="1.06617"/>
<path d="M197.737 7.09582H197.262L197.207 7.56813C197.026 9.15301 197.404 10.8703 197.919 12.6817C198.08 13.2464 198.253 13.8205 198.431 14.4076C198.833 15.7375 199.256 17.1347 199.592 18.644C200.548 22.9428 200.76 28.0119 197.462 34.0906C197.462 34.0912 197.462 34.0918 197.461 34.0924L193.298 41.6391L174.186 7.36926L174.033 7.09582H173.72H157.034H156.124L156.568 7.88924L178.685 47.4104V75.0501V75.5832H179.218H193.975H194.508V75.0501V45.4766L199.941 35.3732C199.942 35.3728 199.942 35.3724 199.942 35.372C206.399 23.5174 210.157 17.1581 215.654 7.90107L216.132 7.09582H215.195H197.737Z" fill="#808CE2" stroke="black" stroke-width="1.06617"/>
<path d="M200.761 28.0816L206.213 19.6943L208.519 28.9204L205.584 34.7915L200.761 28.0816Z" fill="#808CE2"/>
<path d="M203.608 7.09582H203.133L203.079 7.56813C202.897 9.15301 203.275 10.8703 203.79 12.6817C203.951 13.2464 204.124 13.8205 204.302 14.4076C204.704 15.7375 205.127 17.1347 205.463 18.644C206.42 22.9428 206.631 28.0119 203.333 34.0906C203.333 34.0912 203.333 34.0918 203.333 34.0924L199.169 41.6391L180.057 7.36926L179.904 7.09582H179.591H162.905H161.995L162.439 7.88924L184.556 47.4104V75.0501V75.5832H185.089H199.846H200.38V75.0501V45.4766L205.812 35.3732C205.813 35.3728 205.813 35.3724 205.813 35.372C212.271 23.5174 216.028 17.1581 221.525 7.90107L222.003 7.09582H221.066H203.608Z" fill="#FF7372" stroke="black" stroke-width="1.06617"/>
<path d="M205.374 33.5331L212.293 21.3716L215.858 25.9846L212.503 32.4847L206.841 39.1946L205.374 33.5331Z" fill="#FF7372"/>
<path fill-rule="evenodd" clip-rule="evenodd" d="M209.105 7.20947H227.674L227.298 7.84294C221.801 17.1006 218.043 23.4614 211.584 35.3183C211.584 35.3185 211.584 35.3186 211.584 35.3188L206.137 45.4479V75.4694H190.541V47.3807L168.061 7.20947H185.709L205.041 41.8735L209.304 34.1465C209.304 34.1461 209.304 34.1457 209.304 34.1453C212.619 28.0361 212.406 22.9372 211.445 18.6192C211.108 17.1057 210.684 15.7016 210.281 14.3699C210.103 13.7838 209.93 13.2117 209.771 12.6506C209.256 10.8398 208.884 9.14159 209.063 7.58103L209.105 7.20947ZM209.672 34.3465L205.043 42.738L185.462 7.62884H168.776L190.96 47.2713V75.05H205.718V45.3423L211.216 35.1182C217.58 23.4343 221.325 17.0828 226.689 8.0482C226.771 7.90906 226.854 7.76928 226.938 7.62884H209.479C209.259 9.5456 209.92 11.7285 210.677 14.2309C212.244 19.4099 214.225 25.9575 209.672 34.3465Z" fill="black"/>
<path fill-rule="evenodd" clip-rule="evenodd" d="M226.938 7.62891H209.479C209.259 9.54567 209.92 11.7286 210.677 14.231C212.244 19.41 214.224 25.9576 209.672 34.3466L205.043 42.7381L185.462 7.62891H168.776L190.96 47.2714V75.0501H205.718V45.3423L208.827 39.5604L211.036 43.8078L221.939 22.2105H218.399C221.229 17.2529 223.801 12.9119 226.938 7.62891Z" fill="#FEC753"/>
<path d="M215.35 7.09582H214.875L214.821 7.56813C214.639 9.15301 215.018 10.8703 215.532 12.6817C215.693 13.2464 215.867 13.8205 216.044 14.4076C216.447 15.7375 216.869 17.1347 217.205 18.644C218.162 22.9428 218.374 28.0119 215.076 34.0906C215.075 34.0912 215.075 34.0918 215.075 34.0924L210.911 41.6391L191.799 7.36926L191.646 7.09582H191.333H174.647H173.738L174.182 7.88924L196.298 47.4104V75.0501V75.5832H196.831H211.589H212.122V75.0501V45.4766L217.555 35.3732C217.555 35.3728 217.555 35.3724 217.555 35.372C224.013 23.5174 227.771 17.1581 233.267 7.90107L233.745 7.09582H232.808H215.35Z" fill="#FFF8EC" stroke="black" stroke-width="1.06617"/>
<mask id="path-23-outside-4_172_13109" maskUnits="userSpaceOnUse" x="316.812" y="0" width="79" height="76" fill="black">
<rect fill="white" x="316.812" width="79" height="76"/>
<path fill-rule="evenodd" clip-rule="evenodd" d="M344.66 72.6698C336.163 70.4149 328.57 64.8279 323.601 55.5872C313.184 36.3929 320.418 17.1021 338.937 7.07093C346.35 3.06044 354.053 1.38086 361.259 2.20368C372.378 2.71104 382.65 8.82135 389.135 20.8816C399.552 40.0759 392.414 59.4631 373.799 69.4943C364.027 74.756 353.688 75.9531 344.66 72.6698ZM372.6 28.8695C382.052 46.4241 382.824 60.7957 371.056 67.1616C368.165 68.7296 365.181 69.3517 362.181 69.1164C354.342 67.0676 346.566 59.37 340.233 47.5993C330.877 30.1412 330.009 15.5767 341.873 9.21071C344.713 7.68144 347.651 7.07462 350.609 7.30571C358.444 9.35504 366.247 17.0635 372.6 28.8695Z"/>
</mask>
<path fill-rule="evenodd" clip-rule="evenodd" d="M344.66 72.6698C336.163 70.4149 328.57 64.8279 323.601 55.5872C313.184 36.3929 320.418 17.1021 338.937 7.07093C346.35 3.06044 354.053 1.38086 361.259 2.20368C372.378 2.71104 382.65 8.82135 389.135 20.8816C399.552 40.0759 392.414 59.4631 373.799 69.4943C364.027 74.756 353.688 75.9531 344.66 72.6698ZM372.6 28.8695C382.052 46.4241 382.824 60.7957 371.056 67.1616C368.165 68.7296 365.181 69.3517 362.181 69.1164C354.342 67.0676 346.566 59.37 340.233 47.5993C330.877 30.1412 330.009 15.5767 341.873 9.21071C344.713 7.68144 347.651 7.07462 350.609 7.30571C358.444 9.35504 366.247 17.0635 372.6 28.8695Z" fill="#808CE2"/>
<path d="M344.66 72.6698L345.025 71.6678L344.98 71.6515L344.934 71.6392L344.66 72.6698ZM323.601 55.5872L324.54 55.0823L324.538 55.0786L323.601 55.5872ZM338.937 7.07093L338.43 6.13318L338.429 6.13345L338.937 7.07093ZM361.259 2.20368L361.138 3.26297L361.174 3.26709L361.21 3.26875L361.259 2.20368ZM389.135 20.8816L388.196 21.3865L388.198 21.3902L389.135 20.8816ZM373.799 69.4943L374.304 70.4331L374.305 70.4329L373.799 69.4943ZM371.056 67.1616L370.549 66.2239L370.548 66.2244L371.056 67.1616ZM372.6 28.8695L371.661 29.3747L371.661 29.375L372.6 28.8695ZM362.181 69.1164L361.911 70.1479L362.003 70.1719L362.098 70.1793L362.181 69.1164ZM340.233 47.5993L339.293 48.1029L339.294 48.1045L340.233 47.5993ZM341.873 9.21071L342.377 10.1502L342.378 10.1494L341.873 9.21071ZM350.609 7.30571L350.879 6.27423L350.787 6.25017L350.692 6.24277L350.609 7.30571ZM344.934 71.6392C336.722 69.4604 329.37 64.0645 324.54 55.0823L322.662 56.0921C327.77 65.5912 335.603 71.3694 344.387 73.7003L344.934 71.6392ZM324.538 55.0786C319.457 45.7154 318.71 36.3993 321.43 28.2296C324.153 20.0491 330.385 12.9157 339.445 8.0084L338.429 6.13345C328.97 11.2574 322.326 18.7849 319.406 27.5562C316.483 36.3383 317.329 46.2647 322.664 56.0957L324.538 55.0786ZM339.444 8.00867C346.698 4.08472 354.183 2.46876 361.138 3.26297L361.38 1.14439C353.923 0.292966 346.003 2.03617 338.43 6.13318L339.444 8.00867ZM361.21 3.26875C371.931 3.75793 381.877 9.63518 388.196 21.3865L390.074 20.3767C383.423 8.00751 372.825 1.66416 361.307 1.13862L361.21 3.26875ZM388.198 21.3902C393.28 30.7546 394.05 40.0957 391.342 48.2896C388.631 56.4932 382.398 63.6492 373.293 68.5557L374.305 70.4329C383.815 65.3082 390.459 57.7551 393.366 48.9587C396.277 40.1526 395.407 30.203 390.072 20.3731L388.198 21.3902ZM373.293 68.5556C363.735 73.7022 353.713 74.828 345.025 71.6678L344.296 73.6717C353.662 77.0782 364.319 75.8098 374.304 70.4331L373.293 68.5556ZM371.564 68.0994C377.824 64.7124 380.75 59.1508 380.851 52.2269C380.952 45.3822 378.302 37.2118 373.538 28.364L371.661 29.375C376.349 38.0817 378.812 45.8744 378.719 52.1957C378.628 58.4377 376.056 63.245 370.549 66.2239L371.564 68.0994ZM362.098 70.1793C365.31 70.4312 368.499 69.7616 371.565 68.0988L370.548 66.2244C367.832 67.6975 365.053 68.2721 362.264 68.0535L362.098 70.1793ZM339.294 48.1045C345.676 59.9665 353.641 67.9866 361.911 70.1479L362.451 68.0849C355.042 66.1487 347.456 58.7735 341.172 47.0942L339.294 48.1045ZM341.369 8.27124C335.054 11.6596 332.131 17.2732 332.029 24.2299C331.929 31.1091 334.577 39.3027 339.293 48.1029L341.173 47.0957C336.533 38.4378 334.069 30.6201 334.161 24.261C334.253 17.9794 336.828 13.1278 342.377 10.1502L341.369 8.27124ZM350.692 6.24277C347.524 5.9953 344.382 6.64846 341.367 8.27197L342.378 10.1494C345.043 8.71441 347.777 8.15394 350.526 8.36864L350.692 6.24277ZM373.538 28.3643C367.137 16.4666 359.144 8.43613 350.879 6.27423L350.339 8.33718C357.744 10.2739 365.358 17.6604 371.661 29.3747L373.538 28.3643Z" fill="black" mask="url(#path-23-outside-4_172_13109)"/>
<path d="M391.701 20.1278C386.478 10.4156 378.961 4.59391 370.481 2.43098C362.009 0.269948 352.636 1.77619 343.716 6.60206L343.716 6.60219C334.356 11.6719 327.815 19.1009 324.945 27.7245C322.072 36.3533 322.893 46.1268 328.164 55.8406C333.387 65.5537 340.929 71.3748 349.42 73.5497C357.903 75.7226 367.275 74.2415 376.148 69.4636L376.149 69.4636C385.558 64.3934 392.099 56.9395 394.957 48.2914C397.817 39.6385 396.972 29.8412 391.701 20.1278ZM391.701 20.1278C391.701 20.1282 391.701 20.1287 391.701 20.1291L391.232 20.3816L391.7 20.1273C391.701 20.1275 391.701 20.1276 391.701 20.1278ZM375.835 66.6928L375.834 66.6931C370.341 69.6727 364.493 69.1345 358.801 65.6461C353.087 62.1445 347.549 55.6741 342.799 46.847C338.141 38.1537 335.631 30.2422 335.725 23.7531C335.819 17.3028 338.481 12.2607 344.222 9.18037L344.222 9.18001C349.666 6.24876 355.49 6.80868 361.172 10.3099C366.875 13.8238 372.413 20.295 377.162 29.1221L377.163 29.1222C381.87 37.8643 384.379 45.7514 384.285 52.2035C384.191 58.616 381.53 63.6118 375.835 66.6928Z" fill="#FF7372" stroke="black" stroke-width="1.06617"/>
<mask id="path-26-outside-5_172_13109" maskUnits="userSpaceOnUse" x="321.844" y="0" width="79" height="76" fill="black">
<rect fill="white" x="321.844" width="79" height="76"/>
<path fill-rule="evenodd" clip-rule="evenodd" d="M349.694 72.67C341.196 70.4153 333.602 64.8282 328.633 55.5872C318.216 36.3929 325.45 17.1021 343.97 7.07093C351.383 3.06047 359.085 1.38089 366.291 2.20366C377.41 2.71089 387.683 8.82119 394.168 20.8816C404.585 40.0759 397.447 59.4631 378.831 69.4943C369.06 74.7558 358.721 75.953 349.694 72.67ZM377.632 28.8695C387.084 46.4241 387.856 60.7957 376.089 67.1616C373.198 68.7295 370.214 69.3516 367.214 69.1164C359.374 67.0677 351.599 59.37 345.266 47.5993C335.909 30.1412 335.041 15.5767 346.905 9.21071C349.745 7.6815 352.683 7.07467 355.641 7.30568C363.476 9.35497 371.28 17.0634 377.632 28.8695Z"/>
</mask>
<path fill-rule="evenodd" clip-rule="evenodd" d="M349.694 72.67C341.196 70.4153 333.602 64.8282 328.633 55.5872C318.216 36.3929 325.45 17.1021 343.97 7.07093C351.383 3.06047 359.085 1.38089 366.291 2.20366C377.41 2.71089 387.683 8.82119 394.168 20.8816C404.585 40.0759 397.447 59.4631 378.831 69.4943C369.06 74.7558 358.721 75.953 349.694 72.67ZM377.632 28.8695C387.084 46.4241 387.856 60.7957 376.089 67.1616C373.198 68.7295 370.214 69.3516 367.214 69.1164C359.374 67.0677 351.599 59.37 345.266 47.5993C335.909 30.1412 335.041 15.5767 346.905 9.21071C349.745 7.6815 352.683 7.07467 355.641 7.30568C363.476 9.35497 371.28 17.0634 377.632 28.8695Z" fill="#FF7372"/>
<path d="M349.694 72.67L350.058 71.668L350.013 71.6517L349.967 71.6395L349.694 72.67ZM328.633 55.5872L329.572 55.0823L329.57 55.0786L328.633 55.5872ZM343.97 7.07093L343.462 6.13318L343.462 6.13345L343.97 7.07093ZM366.291 2.20366L366.17 3.26295L366.206 3.26707L366.242 3.26873L366.291 2.20366ZM394.168 20.8816L393.229 21.3865L393.231 21.3902L394.168 20.8816ZM378.831 69.4943L379.337 70.4331L379.337 70.4329L378.831 69.4943ZM376.089 67.1616L375.581 66.2239L375.58 66.2244L376.089 67.1616ZM377.632 28.8695L376.693 29.3747L376.693 29.375L377.632 28.8695ZM367.214 69.1164L366.944 70.148L367.036 70.1719L367.13 70.1794L367.214 69.1164ZM345.266 47.5993L344.326 48.1029L344.327 48.1045L345.266 47.5993ZM346.905 9.21071L347.409 10.1502L347.411 10.1494L346.905 9.21071ZM355.641 7.30568L355.911 6.27421L355.819 6.25014L355.724 6.24274L355.641 7.30568ZM349.967 71.6395C341.755 69.4608 334.402 64.0649 329.572 55.0823L327.694 56.0921C332.802 65.5915 340.636 71.3699 349.42 73.7005L349.967 71.6395ZM329.57 55.0786C324.489 45.7154 323.743 36.3993 326.462 28.2296C329.185 20.0491 335.418 12.9157 344.477 8.0084L343.462 6.13345C334.002 11.2574 327.358 18.7849 324.439 27.5562C321.516 36.3383 322.361 46.2647 327.696 56.0957L329.57 55.0786ZM344.477 8.00867C351.73 4.08475 359.215 2.46879 366.17 3.26295L366.412 1.14437C358.956 0.292992 351.035 2.0362 343.462 6.13318L344.477 8.00867ZM366.242 3.26873C376.963 3.75778 386.91 9.63503 393.229 21.3865L395.107 20.3767C388.456 8.00736 377.857 1.664 366.34 1.1386L366.242 3.26873ZM393.231 21.3902C398.313 30.7546 399.082 40.0957 396.374 48.2896C393.663 56.4932 387.431 63.6492 378.326 68.5557L379.337 70.4329C388.847 65.3082 395.492 57.7551 398.399 48.9587C401.309 40.1526 400.439 30.203 395.105 20.3731L393.231 21.3902ZM378.326 68.5556C368.768 73.702 358.747 74.8279 350.058 71.668L349.329 73.672C358.695 77.0782 369.352 75.8097 379.337 70.4331L378.326 68.5556ZM376.596 68.0994C382.857 64.7124 385.782 59.1508 385.884 52.2269C385.984 45.3822 383.335 37.2118 378.571 28.364L376.693 29.375C381.381 38.0817 383.844 45.8744 383.752 52.1957C383.66 58.4377 381.088 63.245 375.581 66.2239L376.596 68.0994ZM367.13 70.1794C370.342 70.4311 373.531 69.7616 376.597 68.0988L375.58 66.2244C372.864 67.6974 370.085 68.2721 367.297 68.0535L367.13 70.1794ZM344.327 48.1045C350.709 59.9666 358.674 67.9866 366.944 70.148L367.483 68.0849C360.075 66.1487 352.488 58.7735 346.204 47.0942L344.327 48.1045ZM346.401 8.27124C340.086 11.6596 337.163 17.2732 337.062 24.2299C336.962 31.1091 339.61 39.3027 344.326 48.1029L346.205 47.0957C341.565 38.4378 339.101 30.6201 339.194 24.261C339.286 17.9794 341.86 13.1278 347.409 10.1502L346.401 8.27124ZM355.724 6.24274C352.556 5.99536 349.415 6.64853 346.4 8.27197L347.411 10.1494C350.076 8.71447 352.81 8.15399 355.558 8.36862L355.724 6.24274ZM378.571 28.3643C372.169 16.4665 364.177 8.43606 355.911 6.27421L355.372 8.33715C362.776 10.2739 370.39 17.6604 376.693 29.3747L378.571 28.3643Z" fill="black" mask="url(#path-26-outside-5_172_13109)"/>
<mask id="path-28-outside-6_172_13109" maskUnits="userSpaceOnUse" x="326.876" y="0" width="79" height="76" fill="black">
<rect fill="white" x="326.876" width="79" height="76"/>
<path fill-rule="evenodd" clip-rule="evenodd" d="M354.726 72.6701C346.228 70.4154 338.634 64.8283 333.665 55.5872C323.248 36.3929 330.483 17.1021 349.002 7.07093C356.415 3.06051 364.117 1.38092 371.323 2.20364C382.442 2.7108 392.715 8.82111 399.2 20.8816C409.617 40.0759 402.479 59.4631 383.864 69.4943C374.092 74.7558 363.753 75.953 354.726 72.6701ZM382.664 28.8695C392.116 46.4241 392.888 60.7957 381.121 67.1616C378.23 68.7295 375.246 69.3516 372.246 69.1164C364.407 67.0677 356.631 59.3701 350.298 47.5993C340.942 30.1412 340.074 15.5767 351.937 9.2107C354.777 7.68151 357.715 7.07467 360.673 7.30566C368.508 9.35492 376.312 17.0634 382.664 28.8695Z"/>
</mask>
<path fill-rule="evenodd" clip-rule="evenodd" d="M354.726 72.6701C346.228 70.4154 338.634 64.8283 333.665 55.5872C323.248 36.3929 330.483 17.1021 349.002 7.07093C356.415 3.06051 364.117 1.38092 371.323 2.20364C382.442 2.7108 392.715 8.82111 399.2 20.8816C409.617 40.0759 402.479 59.4631 383.864 69.4943C374.092 74.7558 363.753 75.953 354.726 72.6701ZM382.664 28.8695C392.116 46.4241 392.888 60.7957 381.121 67.1616C378.23 68.7295 375.246 69.3516 372.246 69.1164C364.407 67.0677 356.631 59.3701 350.298 47.5993C340.942 30.1412 340.074 15.5767 351.937 9.2107C354.777 7.68151 357.715 7.07467 360.673 7.30566C368.508 9.35492 376.312 17.0634 382.664 28.8695Z" fill="#FEC753"/>
<path d="M354.726 72.6701L355.09 71.6681L355.045 71.6518L354.999 71.6395L354.726 72.6701ZM333.665 55.5872L334.605 55.0823L334.603 55.0786L333.665 55.5872ZM349.002 7.07093L348.494 6.13318L348.494 6.13345L349.002 7.07093ZM371.323 2.20364L371.202 3.26293L371.238 3.26705L371.274 3.26871L371.323 2.20364ZM399.2 20.8816L398.261 21.3865L398.263 21.3902L399.2 20.8816ZM383.864 69.4943L384.369 70.433L384.369 70.4329L383.864 69.4943ZM381.121 67.1616L380.613 66.2239L380.612 66.2244L381.121 67.1616ZM382.664 28.8695L381.725 29.3747L381.725 29.375L382.664 28.8695ZM372.246 69.1164L371.976 70.148L372.068 70.1719L372.163 70.1794L372.246 69.1164ZM350.298 47.5993L349.358 48.1029L349.359 48.1045L350.298 47.5993ZM351.937 9.2107L352.441 10.1502L352.443 10.1494L351.937 9.2107ZM360.673 7.30566L360.943 6.27419L360.851 6.25012L360.756 6.24272L360.673 7.30566ZM354.999 71.6395C346.788 69.4609 339.434 64.0649 334.605 55.0823L332.726 56.0921C337.834 65.5916 345.668 71.3699 354.452 73.7006L354.999 71.6395ZM334.603 55.0786C329.521 45.7154 328.775 36.3993 331.494 28.2296C334.217 20.0491 340.45 12.9157 349.509 8.0084L348.494 6.13345C339.034 11.2574 332.391 18.7849 329.471 27.5562C326.548 36.3383 327.393 46.2647 332.728 56.0957L334.603 55.0786ZM349.509 8.00867C356.762 4.08479 364.247 2.46881 371.202 3.26293L371.444 1.14435C363.988 0.293021 356.067 2.03623 348.494 6.13318L349.509 8.00867ZM371.274 3.26871C381.995 3.7577 391.942 9.63495 398.261 21.3865L400.139 20.3767C393.488 8.00727 382.889 1.66391 371.371 1.13858L371.274 3.26871ZM398.263 21.3902C403.345 30.7546 404.115 40.0957 401.407 48.2896C398.695 56.4932 392.463 63.6492 383.358 68.5557L384.369 70.4329C393.88 65.3082 400.524 57.7551 403.431 48.9587C406.342 40.1526 405.472 30.203 400.137 20.3731L398.263 21.3902ZM383.358 68.5556C373.8 73.702 363.779 74.8279 355.09 71.6681L354.361 73.672C363.727 77.0781 374.384 75.8096 384.369 70.433L383.358 68.5556ZM381.628 68.0994C387.889 64.7124 390.814 59.1508 390.916 52.2269C391.016 45.3822 388.367 37.2118 383.603 28.364L381.725 29.375C386.414 38.0817 388.876 45.8744 388.784 52.1957C388.692 58.4377 386.12 63.2449 380.613 66.2239L381.628 68.0994ZM372.163 70.1794C375.375 70.4311 378.563 69.7616 381.629 68.0988L380.612 66.2244C377.897 67.6974 375.117 68.2721 372.329 68.0535L372.163 70.1794ZM349.359 48.1045C355.741 59.9666 363.706 67.9867 371.976 70.148L372.516 68.0849C365.107 66.1488 357.521 58.7735 351.237 47.0941L349.359 48.1045ZM351.433 8.27123C345.119 11.6596 342.195 17.2732 342.094 24.2299C341.994 31.1091 344.642 39.3027 349.358 48.1029L351.237 47.0957C346.598 38.4378 344.133 30.6201 344.226 24.261C344.318 17.9794 346.892 13.1277 352.441 10.1502L351.433 8.27123ZM360.756 6.24272C357.588 5.99536 354.447 6.64853 351.432 8.27196L352.443 10.1494C355.108 8.71448 357.842 8.15399 360.591 8.3686L360.756 6.24272ZM383.603 28.3643C377.201 16.4665 369.209 8.43601 360.943 6.27419L360.404 8.33714C367.808 10.2738 375.422 17.6604 381.725 29.3747L383.603 28.3643Z" fill="black" mask="url(#path-28-outside-6_172_13109)"/>
<path d="M403.443 20.1278C398.22 10.4156 390.703 4.59391 382.224 2.43098C373.751 0.269948 364.379 1.77619 355.458 6.60206L355.458 6.60219C346.098 11.6719 339.557 19.1009 336.687 27.7245C333.815 36.3533 334.635 46.1268 339.907 55.8406C345.129 65.5537 352.671 71.3748 361.162 73.5497C369.645 75.7226 379.017 74.2415 387.891 69.4636L387.891 69.4636C397.3 64.3934 403.841 56.9395 406.699 48.2914C409.559 39.6385 408.714 29.8412 403.443 20.1278ZM403.443 20.1278C403.443 20.1282 403.443 20.1287 403.444 20.1291L402.974 20.3816L403.443 20.1273C403.443 20.1275 403.443 20.1276 403.443 20.1278ZM387.577 66.6928L387.577 66.6931C382.083 69.6727 376.235 69.1345 370.543 65.6461C364.829 62.1445 359.291 55.6741 354.542 46.847C349.883 38.1537 347.373 30.2422 347.467 23.7531C347.561 17.3028 350.223 12.2607 355.964 9.18037L355.964 9.18001C361.408 6.24876 367.232 6.80868 372.914 10.3099C378.617 13.8238 384.155 20.295 388.905 29.1221L388.905 29.1222C393.612 37.8643 396.121 45.7514 396.027 52.2035C395.933 58.616 393.272 63.6118 387.577 66.6928Z" fill="#FFF8EC" stroke="black" stroke-width="1.06617"/>
<path d="M536.709 48.6962L536.929 47.9153L536.125 48.0237C529.468 48.9208 523.434 49.3353 514.752 49.3353H511.953C519.45 43.6496 525.322 38.9958 529.372 34.634C533.657 30.0198 535.963 25.6696 535.963 20.7006C535.963 16.1076 534.117 12.644 531.21 10.3408C528.318 8.04957 524.415 6.93469 520.322 6.93469C509.87 6.93469 504.505 14.0695 502.446 17.9569L502.181 18.4554L502.694 18.6909L503.599 19.1066L504.008 19.2942L504.262 18.9233C507.447 14.2701 511.259 12.5042 515.031 12.5042C517.639 12.5042 519.932 13.3016 521.571 14.8834C523.205 16.461 524.245 18.8749 524.245 22.2248C524.245 27.096 522.133 32.0655 518.774 37.0837C515.417 42.0983 510.851 47.1096 506.016 52.0593L506.016 52.0592L506.012 52.064L502.183 56.0824L502.035 56.2368V56.4501V56.7273V57.2603H502.568H533.899H534.303L534.412 56.8715L536.709 48.6962ZM574.533 39.0604V38.5273H574H567.989V8.16059V7.62751H567.456H564.74H564.49L564.33 7.82056L537.247 40.5217L537.045 40.7652L537.162 41.059L538.763 45.0774L538.897 45.4131H539.258H557.454V56.7273V57.2603H557.987H567.456H567.989V56.7273V45.4131H574H574.533V44.88V39.0604ZM557.454 19.6908V38.5273H541.921L557.454 19.6908Z" fill="#FFF8EC" stroke="black" stroke-width="1.06617"/>
<path d="M38.0364 76.8887C57.9388 76.8887 74.0728 60.7547 74.0728 40.8523C74.0728 20.95 57.9388 4.81592 38.0364 4.81592C18.1341 4.81592 2 20.95 2 40.8523C2 60.7547 18.1341 76.8887 38.0364 76.8887Z" stroke="#FFF8EC" stroke-width="3.19852" stroke-miterlimit="10"/>
<path d="M38.3175 15.833C36.4097 15.833 34.5019 15.9973 32.6206 16.3206C27.5755 17.2109 26.6587 19.0763 26.6587 22.5156V27.0573H38.5825V28.5729H22.1806C18.7148 28.5729 15.6835 30.6556 14.7349 34.6143C13.6379 39.156 13.5902 41.9912 14.7349 46.7289C15.5828 50.2584 17.6072 52.7703 21.0678 52.7703H25.1696V47.3278C25.2596 43.2578 28.5506 39.9933 32.6153 39.9244H44.5232C47.8407 39.8979 50.5063 37.1899 50.4851 33.8724C50.4851 33.8724 50.4851 33.8724 50.4851 33.8671V22.5156C50.4851 19.283 47.7612 16.8558 44.5232 16.3206C42.4723 15.9867 40.3949 15.8224 38.3122 15.833H38.3175ZM31.8681 19.4896C33.1241 19.4684 34.1575 20.47 34.1734 21.726C34.1946 22.982 33.193 24.0154 31.937 24.0313C30.681 24.0525 29.6476 23.0509 29.6317 21.7949C29.6317 21.7843 29.6317 21.779 29.6317 21.7684C29.6211 20.523 30.6227 19.5055 31.8681 19.4896Z" fill="#FFF8EC"/>
<path d="M51.974 28.5781V33.8723C51.9263 37.9847 48.6354 41.3234 44.5283 41.4293H32.6204C29.3188 41.4929 26.669 44.1851 26.6584 47.4919V58.8434C26.6584 62.0761 29.4672 63.9733 32.6204 64.9007C36.4943 66.1143 40.6491 66.1143 44.5283 64.9007C47.5278 64.0316 50.4902 62.2828 50.4902 58.8434V54.3018H38.5823V52.7861H56.4521C59.9179 52.7861 61.2057 50.3696 62.414 46.7447C63.6594 43.0086 63.6064 39.4208 62.414 34.6301C61.5555 31.1802 59.9232 28.5887 56.4521 28.5887H51.9793L51.974 28.5781ZM45.2755 57.3278C46.5315 57.3066 47.5649 58.3082 47.5808 59.5641C47.602 60.8201 46.6004 61.8535 45.3444 61.8694C44.0884 61.8906 43.055 60.889 43.0391 59.633C43.0391 59.6171 43.0391 59.6065 43.0391 59.5906C43.0285 58.3506 44.0301 57.3331 45.2755 57.3278Z" fill="#FFF8EC"/>
<path d="M561.645 102.139H555.145L554.103 105.215H549.662L555.964 87.7993H560.876L567.177 105.215H562.687L561.645 102.139ZM560.554 98.864L558.395 92.4882L556.262 98.864H560.554Z" fill="white"/>
<path d="M497.864 87.7993V105.215H493.622V87.7993H497.864Z" fill="white"/>
<path d="M437.947 96.2839C438.956 96.4989 439.766 97.0033 440.378 97.7972C440.99 98.5746 441.296 99.4677 441.296 100.477C441.296 101.932 440.783 103.09 439.758 103.95C438.749 104.793 437.335 105.215 435.515 105.215H427.403V87.7993H435.243C437.012 87.7993 438.393 88.2045 439.386 89.0149C440.394 89.8254 440.899 90.9252 440.899 92.3145C440.899 93.3399 440.626 94.1917 440.08 94.8698C439.551 95.5479 438.84 96.0193 437.947 96.2839ZM431.645 94.845H434.424C435.118 94.845 435.648 94.6961 436.012 94.3984C436.392 94.0842 436.582 93.6294 436.582 93.0339C436.582 92.4385 436.392 91.9837 436.012 91.6695C435.648 91.3552 435.118 91.1981 434.424 91.1981H431.645V94.845ZM434.771 101.791C435.482 101.791 436.028 101.634 436.409 101.32C436.805 100.989 437.004 100.518 437.004 99.906C437.004 99.294 436.797 98.8144 436.384 98.467C435.987 98.1197 435.433 97.9461 434.722 97.9461H431.645V101.791H434.771Z" fill="white"/>
<path d="M374.487 87.7993V105.215H370.244V94.7706L366.349 105.215H362.926L359.006 94.7457V105.215H354.764V87.7993H359.775L364.662 99.8563L369.5 87.7993H374.487Z" fill="white"/>
<path d="M293.632 105.389C291.995 105.389 290.49 105.008 289.117 104.248C287.761 103.487 286.677 102.428 285.867 101.072C285.073 99.6993 284.676 98.1611 284.676 96.4576C284.676 94.7541 285.073 93.2242 285.867 91.868C286.677 90.5118 287.761 89.4533 289.117 88.6925C290.49 87.9317 291.995 87.5513 293.632 87.5513C295.269 87.5513 296.766 87.9317 298.122 88.6925C299.495 89.4533 300.57 90.5118 301.347 91.868C302.141 93.2242 302.538 94.7541 302.538 96.4576C302.538 98.1611 302.141 99.6993 301.347 101.072C300.554 102.428 299.479 103.487 298.122 104.248C296.766 105.008 295.269 105.389 293.632 105.389ZM293.632 101.519C295.021 101.519 296.129 101.055 296.956 100.129C297.8 99.2031 298.222 97.9792 298.222 96.4576C298.222 94.9194 297.8 93.6956 296.956 92.7859C296.129 91.8597 295.021 91.3966 293.632 91.3966C292.226 91.3966 291.101 91.8514 290.258 92.7611C289.431 93.6707 289.018 94.9029 289.018 96.4576C289.018 97.9957 289.431 99.2279 290.258 100.154C291.101 101.064 292.226 101.519 293.632 101.519Z" fill="white"/>
<path d="M227.95 101.94H233.507V105.215H223.707V87.7993H227.95V101.94Z" fill="white"/>
<path d="M162.576 105.389C160.938 105.389 159.433 105.008 158.06 104.248C156.704 103.487 155.621 102.428 154.81 101.072C154.017 99.6993 153.62 98.1611 153.62 96.4576C153.62 94.7541 154.017 93.2242 154.81 91.868C155.621 90.5118 156.704 89.4533 158.06 88.6925C159.433 87.9317 160.938 87.5513 162.576 87.5513C164.213 87.5513 165.71 87.9317 167.066 88.6925C168.439 89.4533 169.514 90.5118 170.291 91.868C171.085 93.2242 171.482 94.7541 171.482 96.4576C171.482 98.1611 171.085 99.6993 170.291 101.072C169.497 102.428 168.422 103.487 167.066 104.248C165.71 105.008 164.213 105.389 162.576 105.389ZM162.576 101.519C163.965 101.519 165.073 101.055 165.9 100.129C166.743 99.2031 167.165 97.9792 167.165 96.4576C167.165 94.9194 166.743 93.6956 165.9 92.7859C165.073 91.8597 163.965 91.3966 162.576 91.3966C161.17 91.3966 160.045 91.8514 159.202 92.7611C158.375 93.6707 157.961 94.9029 157.961 96.4576C157.961 97.9957 158.375 99.2279 159.202 100.154C160.045 101.064 161.17 101.519 162.576 101.519Z" fill="white"/>
<path d="M84.8568 96.4826C84.8568 94.7625 85.2289 93.2326 85.9732 91.893C86.7175 90.5368 87.7512 89.4865 89.0743 88.7423C90.414 87.9815 91.9273 87.6011 93.6143 87.6011C95.6817 87.6011 97.4514 88.1469 98.9233 89.2384C100.395 90.33 101.379 91.8185 101.876 93.704H97.2115C96.8642 92.9763 96.368 92.4222 95.723 92.0418C95.0945 91.6614 94.3751 91.4712 93.5647 91.4712C92.2581 91.4712 91.1996 91.9261 90.3891 92.8357C89.5787 93.7454 89.1735 94.961 89.1735 96.4826C89.1735 98.0042 89.5787 99.2198 90.3891 100.129C91.1996 101.039 92.2581 101.494 93.5647 101.494C94.3751 101.494 95.0945 101.304 95.723 100.923C96.368 100.543 96.8642 99.9889 97.2115 99.2612H101.876C101.379 101.147 100.395 102.635 98.9233 103.727C97.4514 104.802 95.6817 105.339 93.6143 105.339C91.9273 105.339 90.414 104.967 89.0743 104.223C87.7512 103.462 86.7175 102.412 85.9732 101.072C85.2289 99.7325 84.8568 98.2026 84.8568 96.4826Z" fill="white"/>
</svg>
