<svg width="81" height="42" viewBox="0 0 81 42" fill="none" xmlns="http://www.w3.org/2000/svg">
<path d="M40.3093 0.504316C40.4502 0.506466 40.5742 0.509245 40.6805 0.51217C40.6834 0.626718 40.6863 0.761899 40.6884 0.916554C40.6963 1.47688 40.6952 2.29254 40.6592 3.30848C40.5873 5.34102 40.3759 8.17161 39.8184 11.3608C38.7388 17.5374 36.3711 25.0016 31.2608 30.638L30.7191 31.2013C25.2498 36.8892 17.7594 39.2612 11.5894 40.2024C8.50988 40.6721 5.7744 40.783 3.80951 40.7764C2.82744 40.7731 2.03891 40.7404 1.49737 40.7088C1.34616 40.6999 1.21424 40.6912 1.10277 40.6831C1.10054 40.5743 1.09857 40.446 1.09738 40.2994C1.09304 39.7636 1.09908 38.9829 1.14093 38.0088C1.22464 36.0601 1.4515 33.3409 2.02378 30.2631C3.17023 24.0972 5.69308 16.5451 11.1747 10.8445C16.6501 5.15032 24.1204 2.56261 30.2648 1.40503C33.3318 0.827234 36.0542 0.60844 38.0091 0.534182C38.9862 0.497066 39.7706 0.496092 40.3093 0.504316Z" fill="url(#paint0_linear_22_411)" stroke="black"/>
<path d="M51.4495 31.2053L50.9197 30.642C45.9207 25.0058 43.6039 17.5407 42.5475 11.3626C42.0021 8.17287 41.7952 5.34179 41.7248 3.30887C41.6896 2.29273 41.6886 1.47689 41.6962 0.916402C41.6983 0.761696 41.7011 0.626468 41.704 0.511875C41.8056 0.509058 41.9234 0.506392 42.0566 0.504313C42.5832 0.496095 43.3501 0.497066 44.3056 0.534166C46.2171 0.608391 48.8793 0.827094 51.8784 1.40465C57.8863 2.56168 65.1911 5.14808 70.5458 10.8405C75.9081 16.5409 78.3766 24.0937 79.4984 30.2611C80.0584 33.3395 80.2803 36.0592 80.3623 38.0083C80.4032 38.9826 80.4091 39.7635 80.4049 40.2995C80.4037 40.4464 80.4018 40.5749 80.3996 40.6839C80.2926 40.6917 80.1668 40.7002 80.0232 40.7088C79.4938 40.7405 78.7228 40.7731 77.7625 40.7764C75.8412 40.783 73.1663 40.6722 70.1551 40.2026C64.1223 39.2619 56.7982 36.8912 51.4495 31.2053Z" fill="url(#paint1_linear_22_411)" stroke="black"/>
<defs>
<linearGradient id="paint0_linear_22_411" x1="3.02314" y1="2.74155" x2="24.653" y2="48.4732" gradientUnits="userSpaceOnUse">
<stop stop-color="#E7B12D"/>
<stop offset="0.476697" stop-color="#F7C651"/>
<stop offset="0.904587" stop-color="#FFDE8C"/>
</linearGradient>
<linearGradient id="paint1_linear_22_411" x1="43.5666" y1="2.74155" x2="65.4969" y2="48.1006" gradientUnits="userSpaceOnUse">
<stop stop-color="#E7B12D"/>
<stop offset="0.476697" stop-color="#F7C651"/>
<stop offset="0.904587" stop-color="#FFDE8C"/>
</linearGradient>
</defs>
</svg>
