<svg width="1728" height="905" viewBox="0 0 1728 905" fill="none" xmlns="http://www.w3.org/2000/svg">
<path d="M1536.15 3.84099L1535.68 2.42781L1535.21 3.84099L1519.54 50.5408L1472.84 66.206L1471.43 66.68L1472.84 67.154L1519.54 82.8192L1535.21 129.519L1535.68 130.932L1536.15 129.519L1551.82 82.8192L1598.52 67.154L1599.93 66.68L1598.52 66.206L1551.82 50.5408L1536.15 3.84099Z" fill="#FFF8EC" stroke="black"/>
<path d="M1492.48 22.4787L1535.46 43.8479L1535.68 43.9586L1535.9 43.8479L1578.88 22.4787L1557.51 65.4572L1557.4 65.6798L1557.51 65.9024L1578.88 108.881L1535.9 87.5117L1535.68 87.401L1535.46 87.5117L1492.48 108.881L1513.85 65.9024L1513.96 65.6798L1513.85 65.4572L1492.48 22.4787Z" fill="url(#paint0_linear_22_411)" stroke="black"/>
<path d="M-7.43992 197.746L-7.1461 198.15L-6.85213 198.555C-22.3267 209.802 -30.4262 220.706 -33.5512 229.56C-36.6806 238.425 -34.8079 245.131 -30.5317 248.24C-26.2556 251.348 -19.302 251.059 -11.8403 245.344C-4.38873 239.637 3.47606 228.563 9.38894 210.367L9.86446 210.521L10.34 210.676C4.42712 228.872 4.281 242.454 6.95493 251.453C9.63254 260.464 15.0886 264.786 20.3753 264.786C25.662 264.786 31.1181 260.464 33.7957 251.453C36.4696 242.454 36.3235 228.872 30.4106 210.676L30.8861 210.521L31.3617 210.367C37.2745 228.563 45.1393 239.637 52.5909 245.344C60.0527 251.059 67.0062 251.348 71.2823 248.24C75.5586 245.131 77.4313 238.425 74.3019 229.56C71.1769 220.706 63.0775 209.802 47.6029 198.555L47.8968 198.15L48.1908 197.746C63.6654 208.993 76.5351 213.329 85.9183 213.566C95.3143 213.803 101.112 209.948 102.748 204.918C104.384 199.888 101.962 193.361 94.2253 188.028C86.4992 182.703 73.5441 178.643 54.4207 178.643V178.143V177.643C73.5441 177.643 86.5022 173.584 94.2322 168.258C101.973 162.925 104.399 156.398 102.766 151.368C101.133 146.338 95.3371 142.483 85.9387 142.72C76.5542 142.957 63.6804 147.292 48.1961 158.537C48.1943 158.538 48.1926 158.54 48.1908 158.541C48.1908 158.541 48.1907 158.541 48.1907 158.541L47.8968 158.136L47.6029 157.732C63.0775 146.484 71.1769 135.58 74.3019 126.727C77.4313 117.861 75.5586 111.155 71.2823 108.047C67.0062 104.938 60.0527 105.227 52.5909 110.942C45.1393 116.65 37.2745 127.723 31.3617 145.92L30.8861 145.765L30.4106 145.61C36.3235 127.414 36.4696 113.832 33.7957 104.834C31.1181 95.8228 25.662 91.5 20.3753 91.5C15.0886 91.5 9.63254 95.8228 6.95493 104.834C4.281 113.832 4.42712 127.414 10.34 145.61L9.86446 145.765L9.38894 145.92C3.47606 127.723 -4.38873 116.65 -11.8403 110.942C-19.302 105.227 -26.2556 104.938 -30.5317 108.047C-34.8079 111.155 -36.6806 117.861 -33.5512 126.727C-30.4262 135.58 -22.3267 146.484 -6.85213 157.732L-7.1461 158.136L-7.44007 158.541C-22.9147 147.293 -35.7844 142.957 -45.1676 142.72C-54.5636 142.483 -60.3616 146.338 -61.9974 151.368C-63.6332 156.399 -61.2114 162.925 -53.4747 168.258C-45.7486 173.584 -32.7935 177.643 -13.6701 177.643V178.143V178.643C-32.7935 178.643 -45.7516 182.703 -53.4816 188.028C-61.2222 193.361 -63.6484 199.888 -62.0155 204.918C-60.3826 209.948 -54.5864 213.803 -45.1879 213.566C-35.8028 213.329 -22.9277 208.994 -7.44175 197.747L-7.43992 197.746ZM-7.43992 197.746C-7.43997 197.746 -7.44002 197.746 -7.44007 197.746L-7.43992 197.746Z" fill="url(#paint1_linear_22_411)" stroke="black"/>
<path d="M52.472 178.144C52.472 195.884 38.0915 210.264 20.3522 210.264C2.61294 210.264 -11.7676 195.884 -11.7676 178.144C-11.7676 160.405 2.61294 146.025 20.3522 146.025C38.0915 146.025 52.472 160.405 52.472 178.144Z" fill="url(#paint2_linear_22_411)" stroke="black"/>
<path d="M158.807 156.914C158.092 156.916 157.449 157.226 156.981 157.718H156.945L156.795 157.908L137.705 182.09L137.183 182.751L138.014 182.892C140.889 183.381 143.832 183.565 146.752 183.429C142.026 191.165 136.669 198.495 130.719 205.325L130.007 206.142L131.091 206.153C134.66 206.19 138.246 205.885 141.764 205.222C135.507 213.009 129.268 220.91 124.559 229.765L125.291 230.406C140.795 219.282 155.618 207.168 169.596 194.187L170.604 193.25L169.23 193.321C164.216 193.579 159.235 194.346 154.375 195.592C160.072 189.839 165.428 183.735 170.392 177.346L171.097 176.438L169.952 176.541C166.724 176.832 163.463 176.832 160.24 176.556C165.841 171.934 170.82 166.561 175.018 160.63C176.268 158.868 174.941 156.427 172.782 156.502C172.781 156.502 172.781 156.502 172.78 156.502L158.807 156.914Z" fill="#FFF8EC" stroke="black"/>
<path d="M1592.99 250.333C1594.86 250.627 1596.97 250.837 1599.36 251C1596.97 251.164 1594.85 251.375 1592.98 251.67C1588.53 252.373 1585.39 253.562 1583.2 255.787C1581.01 258.011 1579.84 261.197 1579.15 265.717C1578.86 267.582 1578.66 269.688 1578.5 272.066C1578.34 269.684 1578.13 267.575 1577.85 265.709C1577.16 261.187 1575.99 258.002 1573.8 255.779C1571.6 253.555 1568.46 252.368 1564.01 251.667C1562.14 251.373 1560.03 251.163 1557.64 251C1560.03 250.836 1562.15 250.625 1564.02 250.33C1568.47 249.627 1571.61 248.438 1573.8 246.213C1575.99 243.989 1577.16 240.803 1577.85 236.283C1578.14 234.418 1578.34 232.312 1578.5 229.934C1578.66 232.316 1578.87 234.425 1579.15 236.291C1579.84 240.813 1581.01 243.998 1583.2 246.221C1585.4 248.445 1588.54 249.632 1592.99 250.333Z" fill="url(#paint3_linear_22_411)" stroke="black"/>
<path d="M278.991 104.333C280.857 104.627 282.969 104.837 285.358 105C282.965 105.164 280.85 105.375 278.982 105.67C274.526 106.373 271.387 107.562 269.196 109.787C267.007 112.011 265.839 115.197 265.149 119.717C264.865 121.582 264.659 123.688 264.5 126.066C264.34 123.684 264.134 121.575 263.848 119.709C263.156 115.187 261.987 112.002 259.796 109.779C257.604 107.555 254.464 106.368 250.009 105.667C248.143 105.373 246.031 105.163 243.642 105C246.035 104.836 248.149 104.625 250.018 104.33C254.474 103.627 257.613 102.438 259.804 100.213C261.993 97.9887 263.161 94.8033 263.851 90.2826C264.135 88.4184 264.341 86.3124 264.5 83.9336C264.66 86.3161 264.866 88.425 265.152 90.2913C265.844 94.813 267.013 97.9978 269.204 100.221C271.396 102.445 274.536 103.632 278.991 104.333Z" fill="url(#paint4_linear_22_411)" stroke="black"/>
<path d="M1167.96 380.649C1168.84 380.79 1169.81 380.905 1170.86 381C1169.81 381.096 1168.84 381.211 1167.95 381.353C1164.72 381.866 1162.41 382.737 1160.8 384.387C1159.18 386.035 1158.33 388.386 1157.83 391.683C1157.7 392.556 1157.59 393.502 1157.5 394.525C1157.41 393.499 1157.3 392.552 1157.17 391.677C1156.66 388.379 1155.81 386.028 1154.2 384.381C1152.58 382.732 1150.28 381.862 1147.04 381.351C1146.16 381.21 1145.19 381.095 1144.14 381C1145.19 380.904 1146.16 380.789 1147.05 380.647C1150.28 380.134 1152.59 379.263 1154.2 377.613C1155.82 375.965 1156.67 373.614 1157.17 370.317C1157.3 369.444 1157.41 368.498 1157.5 367.475C1157.59 368.501 1157.7 369.448 1157.83 370.323C1158.34 373.621 1159.19 375.972 1160.8 377.619C1162.42 379.268 1164.72 380.138 1167.96 380.649Z" fill="url(#paint5_linear_22_411)" stroke="black"/>
<path d="M1608 279.5C1608 281.985 1605.76 284 1603 284C1600.24 284 1598 281.985 1598 279.5C1598 277.015 1600.24 275 1603 275C1605.76 275 1608 277.015 1608 279.5Z" fill="#130000"/>
<path d="M294 133.5C294 135.985 291.761 138 289 138C286.239 138 284 135.985 284 133.5C284 131.015 286.239 129 289 129C291.761 129 294 131.015 294 133.5Z" fill="#130000"/>
<path d="M1139 330.5C1139 332.985 1136.76 335 1134 335C1131.24 335 1129 332.985 1129 330.5C1129 328.015 1131.24 326 1134 326C1136.76 326 1139 328.015 1139 330.5Z" fill="#130000"/>
<path d="M123.768 326.659L124.119 327.015L124.469 326.659L144.593 306.2C153.58 297.063 153.58 282.239 144.593 273.102L140.397 268.836C131.409 259.699 116.828 259.699 107.841 268.836L103.644 273.102C94.6568 282.239 94.6568 297.063 103.644 306.2L123.768 326.659Z" fill="#FFF8EC" stroke="black"/>
<path d="M124.453 326.677L124.803 326.32L124.453 325.964L104.329 305.505C95.3414 296.368 80.7606 296.368 71.7729 305.505L67.5768 309.771C58.5891 318.908 58.5891 333.732 67.5768 342.869L71.7729 347.135C80.7606 356.272 95.3414 356.272 104.329 347.135L124.453 326.677Z" fill="#FFF8EC" stroke="black"/>
<path d="M132.135 275.611C132.135 280.128 128.535 283.775 124.112 283.775C119.689 283.775 116.09 280.128 116.09 275.611C116.09 271.094 119.689 267.447 124.112 267.447C128.535 267.447 132.135 271.094 132.135 275.611Z" fill="url(#paint6_linear_22_411)" stroke="black"/>
<path d="M124.465 325.951L124.114 325.594L123.763 325.951L103.64 346.409C94.6521 355.546 94.6522 370.37 103.64 379.507L107.836 383.773C116.824 392.91 131.404 392.91 140.392 383.773L144.588 379.507C153.576 370.37 153.576 355.546 144.588 346.409L124.465 325.951Z" fill="#FFF8EC" stroke="black"/>
<path d="M132.135 377.016C132.135 381.533 128.535 385.18 124.112 385.18C119.689 385.18 116.09 381.533 116.09 377.016C116.09 372.499 119.689 368.851 124.112 368.851C128.535 368.851 132.135 372.499 132.135 377.016Z" fill="url(#paint7_linear_22_411)" stroke="black"/>
<path d="M123.761 325.954L123.411 326.311L123.761 326.667L143.885 347.126C152.873 356.263 167.453 356.263 176.441 347.126L180.637 342.86C189.625 333.723 189.625 318.899 180.637 309.762L176.441 305.496C167.453 296.359 152.873 296.359 143.885 305.496L123.761 325.954Z" fill="#FFF8EC" stroke="black"/>
<path d="M114.118 307.788L113.248 308.282C113.248 308.282 113.248 308.282 113.248 308.282C112.01 306.104 110.643 304.795 109.265 304.125C107.893 303.458 106.466 303.4 105.053 303.803C102.195 304.619 99.403 307.327 97.51 310.661C95.6176 313.994 94.7047 317.81 95.4415 320.742C95.8061 322.192 96.5723 323.423 97.8273 324.297C99.0879 325.176 100.884 325.724 103.355 325.724V326.224V326.724C100.884 326.724 99.0879 327.272 97.8273 328.15C96.5723 329.024 95.8061 330.255 95.4415 331.706C94.7047 334.637 95.6176 338.453 97.51 341.786C99.403 345.12 102.195 347.828 105.053 348.644C106.466 349.047 107.893 348.989 109.265 348.322C110.643 347.652 112.01 346.344 113.248 344.165L113.683 344.413L114.118 344.66C112.88 346.837 112.447 348.697 112.564 350.25C112.682 351.796 113.348 353.086 114.399 354.13C116.523 356.24 120.224 357.342 124.006 357.342C127.789 357.342 131.491 356.24 133.616 354.13C134.668 353.086 135.336 351.796 135.454 350.25C135.573 348.697 135.141 346.839 133.906 344.662L114.118 307.788ZM114.118 307.788C114.118 307.788 114.118 307.788 114.118 307.788M114.118 307.788L114.118 307.788M114.118 307.788C112.882 305.61 112.45 303.751 112.568 302.197C112.687 300.651 113.354 299.361 114.406 298.317C116.532 296.208 120.233 295.105 124.016 295.105C127.798 295.105 131.499 296.208 133.623 298.317C134.674 299.361 135.341 300.651 135.458 302.197C135.576 303.751 135.142 305.61 133.905 307.788L134.339 308.035L134.774 308.282C136.012 306.104 137.379 304.795 138.758 304.125C140.129 303.458 141.556 303.4 142.969 303.803C145.827 304.619 148.619 307.327 150.512 310.661C152.405 313.994 153.318 317.81 152.581 320.742C152.216 322.192 151.45 323.423 150.195 324.297C148.934 325.176 147.138 325.724 144.667 325.724V326.224V326.724C147.138 326.724 148.934 327.272 150.195 328.15C151.45 329.024 152.216 330.255 152.581 331.706C153.318 334.637 152.405 338.453 150.512 341.786C148.619 345.12 145.827 347.828 142.969 348.644C141.556 349.047 140.129 348.989 138.758 348.322C137.379 347.652 136.012 346.344 134.774 344.165L133.904 344.659C133.904 344.659 133.904 344.659 133.905 344.66L114.118 307.788Z" fill="url(#paint8_linear_22_411)" stroke="black"/>
<path d="M119.367 316.997C119.369 316.999 119.37 317.001 119.371 317.003L118.936 317.251L118.502 317.497C117.909 316.454 117.269 315.852 116.648 315.55C116.035 315.251 115.396 315.222 114.752 315.406C113.432 315.781 112.1 317.052 111.183 318.666C110.267 320.278 109.847 322.089 110.189 323.446C110.356 324.11 110.702 324.661 111.265 325.053C111.833 325.448 112.665 325.71 113.848 325.71C113.149 325.71 112.527 325.792 111.981 325.949C105.772 323.953 112.962 311.293 117.769 315.726C117.907 316.288 118.149 316.879 118.502 317.498L119.371 317.004C119.37 317.002 119.369 316.999 119.367 316.997ZM119.367 316.997C118.776 315.957 118.583 315.092 118.635 314.39C118.687 313.695 118.985 313.114 119.464 312.638C120.444 311.663 122.191 311.127 124.02 311.127C125.848 311.127 127.596 311.663 128.579 312.638C129.059 313.115 129.357 313.695 129.41 314.391C129.464 315.094 129.27 315.961 128.678 317.004L129.113 317.251M119.367 316.997L129.113 317.251M129.113 317.251L129.548 317.497C130.14 316.454 130.78 315.852 131.401 315.55C132.014 315.251 132.652 315.222 133.295 315.406C134.614 315.781 135.945 317.052 136.861 318.666C137.777 320.278 138.197 322.089 137.855 323.446C137.689 324.11 137.343 324.661 136.781 325.053C136.213 325.448 135.383 325.71 134.201 325.71V326.21V326.71M129.113 317.251L134.201 326.71M134.201 326.71C135.383 326.71 136.213 326.972 136.781 327.368C137.343 327.759 137.689 328.31 137.855 328.974C138.197 330.331 137.777 332.143 136.861 333.755C135.945 335.368 134.614 336.639 133.295 337.015C132.652 337.198 132.014 337.17 131.401 336.871C130.78 336.569 130.14 335.967 129.548 334.923L129.113 335.17L128.678 335.417C128.678 335.417 128.678 335.417 128.678 335.417L129.548 334.923C129.9 335.542 130.142 336.133 130.281 336.694C135.086 341.127 142.266 328.469 136.067 326.472C135.521 326.628 134.9 326.71 134.201 326.71ZM128.679 335.417C129.031 336.039 129.416 336.549 129.828 336.953M128.679 335.417L129.828 336.953M128.679 335.417C129.272 336.461 129.467 337.328 129.414 338.03C129.362 338.726 129.065 339.306 128.585 339.783C127.605 340.758 125.858 341.293 124.029 341.293C122.201 341.293 120.453 340.758 119.471 339.783C118.991 339.306 118.692 338.725 118.639 338.03C118.586 337.327 118.779 336.46 119.371 335.417C119.019 336.037 118.636 336.546 118.225 336.95C116.838 343.407 131.219 343.408 129.828 336.953M128.679 335.417L129.828 336.953M118.936 335.17L118.502 334.923C117.909 335.967 117.269 336.569 116.648 336.871C116.035 337.17 115.397 337.198 114.754 337.015C113.435 336.639 112.104 335.368 111.188 333.755C110.273 332.143 109.853 330.331 110.194 328.974C110.361 328.31 110.707 327.759 111.269 327.368C111.836 326.972 112.667 326.71 113.848 326.71V326.21L118.936 335.17Z" fill="url(#paint9_linear_22_411)" stroke="black"/>
<path d="M182.008 326.314C182.008 330.831 178.408 334.479 173.985 334.479C169.562 334.479 165.963 330.831 165.963 326.314C165.963 321.797 169.562 318.15 173.985 318.15C178.408 318.15 182.008 321.797 182.008 326.314Z" fill="url(#paint10_linear_22_411)" stroke="black"/>
<path d="M82.2624 326.314C82.2624 330.831 78.6628 334.479 74.2398 334.479C69.8169 334.479 66.2173 330.831 66.2173 326.314C66.2173 321.797 69.8169 318.15 74.2398 318.15C78.6628 318.15 82.2624 321.797 82.2624 326.314Z" fill="url(#paint11_linear_22_411)" stroke="black"/>
<path d="M132.135 326.314C132.135 330.831 128.535 334.479 124.112 334.479C119.689 334.479 116.09 330.831 116.09 326.314C116.09 321.797 119.689 318.15 124.112 318.15C128.535 318.15 132.135 321.797 132.135 326.314Z" fill="url(#paint12_linear_22_411)" stroke="black"/>
<path d="M72.9561 644.649C73.8446 644.79 74.8097 644.905 75.8575 645C74.8072 645.096 73.8401 645.211 72.9499 645.353C69.7165 645.866 67.4106 646.737 65.796 648.387C64.183 650.035 63.333 652.386 62.8325 655.683C62.6999 656.556 62.5911 657.502 62.4996 658.525C62.4078 657.499 62.2986 656.552 62.1655 655.677C61.6638 652.379 60.8123 650.028 59.1984 648.381C57.5828 646.732 55.2765 645.862 52.0439 645.351C51.1554 645.21 50.1903 645.095 49.1425 645C50.1928 644.904 51.1599 644.789 52.0501 644.647C55.2835 644.134 57.5894 643.263 59.204 641.613C60.817 639.965 61.667 637.614 62.1675 634.317C62.3001 633.444 62.4089 632.498 62.5004 631.475C62.5922 632.501 62.7014 633.448 62.8345 634.323C63.3362 637.621 64.1877 639.972 65.8016 641.619C67.4172 643.268 69.7235 644.138 72.9561 644.649Z" fill="url(#paint13_linear_22_411)" stroke="black"/>
<path d="M1548.95 407.732L1551.27 405.897C1539.88 384.848 1547.08 355.855 1567.11 342.272L1567.11 342.271C1587.12 328.681 1617.38 332.311 1633.47 350.223L1635.75 352.763L1636.08 349.364C1638.82 320.892 1663.73 295.193 1692.74 293.574C1707.21 292.768 1721.61 298.602 1732.31 308.25C1743 317.897 1749.87 331.244 1749.47 345.36L1752.42 345.786C1755.21 335.245 1764.87 327.093 1775.8 323.905C1786.74 320.717 1798.63 321.858 1809.88 324.868L1809.88 324.869C1820.96 327.821 1831.68 332.703 1838.94 341.031L1838.94 341.033C1852.35 356.369 1851.16 379.603 1845.28 399.661L1843.86 404.507L1847.7 401.223C1854.51 395.385 1863.87 394.165 1872.85 396.445C1881.83 398.727 1890.22 404.47 1894.95 412.225L1894.95 412.227C1899.72 420.032 1901.62 430.034 1901.41 440.336C1901.21 450.257 1899.05 460.341 1895.74 468.782H1504.54C1494.62 453.227 1491.84 432.534 1501.4 417.227C1506.21 409.535 1514.71 404.101 1523.76 402.146C1532.82 400.192 1542.22 401.752 1548.95 407.732ZM1810.27 323.42L1810.27 323.42L1810.27 323.42Z" fill="#FFF8EC" stroke="black" stroke-width="3"/>
<mask id="path-25-inside-1_22_411" fill="white">
<path d="M1697.7 708.902C1697.7 764.711 1652.45 809.954 1596.64 809.954C1540.84 809.954 1495.59 764.711 1495.59 708.902C1495.59 653.093 1540.84 607.851 1596.64 607.851C1652.45 607.851 1697.7 653.093 1697.7 708.902Z"/>
</mask>
<path d="M1697.7 708.902C1697.7 764.711 1652.45 809.954 1596.64 809.954C1540.84 809.954 1495.59 764.711 1495.59 708.902C1495.59 653.093 1540.84 607.851 1596.64 607.851C1652.45 607.851 1697.7 653.093 1697.7 708.902Z" fill="url(#paint14_linear_22_411)"/>
<path d="M1696.7 708.902C1696.7 764.159 1651.9 808.954 1596.64 808.954V810.954C1653.01 810.954 1698.7 765.264 1698.7 708.902H1696.7ZM1596.64 808.954C1541.39 808.954 1496.59 764.159 1496.59 708.902H1494.59C1494.59 765.264 1540.28 810.954 1596.64 810.954V808.954ZM1496.59 708.902C1496.59 653.646 1541.39 608.851 1596.64 608.851V606.851C1540.28 606.851 1494.59 652.541 1494.59 708.902H1496.59ZM1596.64 608.851C1651.9 608.851 1696.7 653.646 1696.7 708.902H1698.7C1698.7 652.541 1653.01 606.851 1596.64 606.851V608.851Z" fill="black" mask="url(#path-25-inside-1_22_411)"/>
<path d="M1595.48 716.143L1547 903.806H1535.25L1593.92 716.076L1595.48 716.143Z" fill="url(#paint15_linear_22_411)" stroke="black"/>
<path d="M1596.76 716.143L1598.37 716.075L1658.01 903.806H1646.06L1596.76 716.143Z" fill="url(#paint16_linear_22_411)" stroke="black"/>
<rect x="1494.41" y="769.322" width="108.103" height="4.12898" transform="rotate(-32.9709 1494.41 769.322)" fill="url(#paint17_linear_22_411)" stroke="black"/>
<rect x="1600.86" y="703.326" width="117.717" height="4.12898" transform="rotate(-19.577 1600.86 703.326)" fill="url(#paint18_linear_22_411)" stroke="black"/>
<rect x="1597.38" y="710.16" width="123.004" height="2.7089" transform="rotate(-156.049 1597.38 710.16)" fill="url(#paint19_linear_22_411)" stroke="black"/>
<rect x="1594.58" y="697.377" width="94.1668" height="2.7089" transform="rotate(-88.7397 1594.58 697.377)" fill="url(#paint20_linear_22_411)" stroke="black"/>
<rect x="1608.96" y="713.157" width="108.103" height="4.12898" transform="rotate(27.4705 1608.96 713.157)" fill="url(#paint21_linear_22_411)" stroke="black"/>
<path d="M1614.43 709.092C1614.43 718.842 1606.54 726.744 1596.8 726.744C1587.07 726.744 1579.18 718.842 1579.18 709.092C1579.18 699.343 1587.07 691.441 1596.8 691.441C1606.54 691.441 1614.43 699.343 1614.43 709.092Z" fill="url(#paint22_linear_22_411)" stroke="black"/>
<path d="M1605.46 709.092C1605.46 713.883 1601.58 717.765 1596.8 717.765C1592.02 717.765 1588.15 713.883 1588.15 709.092C1588.15 704.302 1592.02 700.419 1596.8 700.419C1601.58 700.419 1605.46 704.302 1605.46 709.092Z" fill="url(#paint23_linear_22_411)" stroke="black"/>
<mask id="path-36-inside-2_22_411" fill="white">
<path fill-rule="evenodd" clip-rule="evenodd" d="M1596.62 833.506C1665.45 833.506 1721.25 777.71 1721.25 708.882C1721.25 640.054 1665.45 584.258 1596.62 584.258C1527.8 584.258 1472 640.054 1472 708.882C1472 777.71 1527.8 833.506 1596.62 833.506ZM1596.63 828.397C1662.64 828.397 1716.14 774.893 1716.14 708.892C1716.14 642.891 1662.64 589.387 1596.63 589.387C1530.63 589.387 1477.13 642.891 1477.13 708.892C1477.13 774.893 1530.63 828.397 1596.63 828.397Z"/>
</mask>
<path fill-rule="evenodd" clip-rule="evenodd" d="M1596.62 833.506C1665.45 833.506 1721.25 777.71 1721.25 708.882C1721.25 640.054 1665.45 584.258 1596.62 584.258C1527.8 584.258 1472 640.054 1472 708.882C1472 777.71 1527.8 833.506 1596.62 833.506ZM1596.63 828.397C1662.64 828.397 1716.14 774.893 1716.14 708.892C1716.14 642.891 1662.64 589.387 1596.63 589.387C1530.63 589.387 1477.13 642.891 1477.13 708.892C1477.13 774.893 1530.63 828.397 1596.63 828.397Z" fill="url(#paint24_linear_22_411)"/>
<path d="M1720.25 708.882C1720.25 777.158 1664.9 832.506 1596.62 832.506V834.506C1666 834.506 1722.25 778.262 1722.25 708.882H1720.25ZM1596.62 585.258C1664.9 585.258 1720.25 640.606 1720.25 708.882H1722.25C1722.25 639.502 1666 583.258 1596.62 583.258V585.258ZM1473 708.882C1473 640.606 1528.35 585.258 1596.62 585.258V583.258C1527.24 583.258 1471 639.502 1471 708.882H1473ZM1596.62 832.506C1528.35 832.506 1473 777.158 1473 708.882H1471C1471 778.262 1527.24 834.506 1596.62 834.506V832.506ZM1715.14 708.892C1715.14 774.341 1662.08 827.397 1596.63 827.397V829.397C1663.19 829.397 1717.14 775.445 1717.14 708.892H1715.14ZM1596.63 590.387C1662.08 590.387 1715.14 643.444 1715.14 708.892H1717.14C1717.14 642.339 1663.19 588.387 1596.63 588.387V590.387ZM1478.13 708.892C1478.13 643.444 1531.19 590.387 1596.63 590.387V588.387C1530.08 588.387 1476.13 642.339 1476.13 708.892H1478.13ZM1596.63 827.397C1531.19 827.397 1478.13 774.341 1478.13 708.892H1476.13C1476.13 775.445 1530.08 829.397 1596.63 829.397V827.397Z" fill="black" mask="url(#path-36-inside-2_22_411)"/>
<path d="M1488.05 649.402C1488.26 646.473 1490.7 644.154 1493.68 644.154H1500.2C1503.18 644.154 1505.62 646.466 1505.83 649.402H1488.05Z" fill="url(#paint25_linear_22_411)" stroke="black" stroke-width="0.8"/>
<path d="M1514.71 660.05H1479.16C1477.86 660.05 1477.08 658.589 1477.81 657.506L1484 648.343C1484 648.342 1484 648.342 1484 648.342C1484.31 647.895 1484.81 647.625 1485.35 647.625H1508.52C1509.06 647.625 1509.57 647.895 1509.87 648.342C1509.87 648.342 1509.87 648.343 1509.87 648.343L1516.06 657.506C1516.79 658.59 1516.02 660.05 1514.71 660.05Z" fill="url(#paint26_linear_22_411)" stroke="black" stroke-width="0.8"/>
<path d="M1477.19 672.036H1516.67V686.992C1516.67 695.49 1509.78 702.395 1501.3 702.395H1492.57C1484.09 702.395 1477.19 695.49 1477.19 686.992V672.036Z" fill="url(#paint27_linear_22_411)" stroke="black" stroke-width="0.8"/>
<path d="M1482.22 676.918C1482.22 677.948 1481.39 678.782 1480.36 678.782C1479.33 678.782 1478.5 677.948 1478.5 676.918C1478.5 675.889 1479.33 675.055 1480.36 675.055C1481.39 675.055 1482.22 675.889 1482.22 676.918Z" fill="url(#paint28_linear_22_411)" stroke="black" stroke-width="0.3"/>
<path d="M1481.13 676.918C1481.13 677.34 1480.78 677.678 1480.37 677.678C1479.96 677.678 1479.61 677.332 1479.61 676.918C1479.61 676.504 1479.96 676.158 1480.37 676.158C1480.78 676.158 1481.13 676.504 1481.13 676.918Z" fill="url(#paint29_linear_22_411)" stroke="black" stroke-width="0.3"/>
<path d="M1498.44 676.918C1498.44 677.948 1497.6 678.782 1496.58 678.782C1495.55 678.782 1494.72 677.948 1494.72 676.918C1494.72 675.889 1495.55 675.055 1496.58 675.055C1497.6 675.055 1498.44 675.889 1498.44 676.918Z" fill="url(#paint30_linear_22_411)" stroke="black" stroke-width="0.3"/>
<path d="M1497.34 676.918C1497.34 677.338 1497 677.678 1496.58 677.678C1496.16 677.678 1495.82 677.338 1495.82 676.918C1495.82 676.498 1496.16 676.158 1496.58 676.158C1497 676.158 1497.34 676.498 1497.34 676.918Z" fill="url(#paint31_linear_22_411)" stroke="black" stroke-width="0.3"/>
<path d="M1514.85 676.918C1514.85 677.948 1514.02 678.782 1512.99 678.782C1511.96 678.782 1511.13 677.948 1511.13 676.918C1511.13 675.889 1511.96 675.055 1512.99 675.055C1514.02 675.055 1514.85 675.889 1514.85 676.918Z" fill="url(#paint32_linear_22_411)" stroke="black" stroke-width="0.3"/>
<path d="M1513.76 676.918C1513.76 677.34 1513.41 677.678 1513 677.678C1512.59 677.678 1512.24 677.332 1512.24 676.918C1512.24 676.504 1512.59 676.158 1513 676.158C1513.41 676.158 1513.76 676.504 1513.76 676.918Z" fill="url(#paint33_linear_22_411)" stroke="black" stroke-width="0.3"/>
<rect x="1481.38" y="660.317" width="1.75159" height="9.95796" fill="url(#paint34_linear_22_411)" stroke="black" stroke-width="0.3"/>
<rect x="1511.13" y="660.317" width="1.75159" height="9.95796" fill="url(#paint35_linear_22_411)" stroke="black" stroke-width="0.3"/>
<path d="M1518.14 672.912H1475.73C1475.03 672.912 1474.45 672.334 1474.45 671.628C1474.45 670.921 1475.03 670.343 1475.73 670.343H1518.14C1518.85 670.343 1519.42 670.921 1519.42 671.628C1519.42 672.334 1518.85 672.912 1518.14 672.912Z" fill="url(#paint36_linear_22_411)" stroke="black" stroke-width="0.8"/>
<path d="M1588.58 579.648C1588.79 576.718 1591.22 574.4 1594.21 574.4H1600.73C1603.71 574.4 1606.15 576.712 1606.36 579.648H1588.58Z" fill="url(#paint37_linear_22_411)" stroke="black" stroke-width="0.8"/>
<path d="M1615.24 590.296H1579.69C1578.39 590.296 1577.61 588.835 1578.34 587.752L1584.53 578.589C1584.53 578.588 1584.53 578.588 1584.53 578.588C1584.84 578.141 1585.34 577.871 1585.88 577.871H1609.05C1609.59 577.871 1610.1 578.141 1610.4 578.588C1610.4 578.588 1610.4 578.588 1610.4 578.589L1616.59 587.752C1617.32 588.836 1616.55 590.296 1615.24 590.296Z" fill="url(#paint38_linear_22_411)" stroke="black" stroke-width="0.8"/>
<path d="M1577.72 602.282H1617.2V617.238C1617.2 625.736 1610.31 632.641 1601.83 632.641H1593.1C1584.62 632.641 1577.72 625.736 1577.72 617.238V602.282Z" fill="url(#paint39_linear_22_411)" stroke="black" stroke-width="0.8"/>
<path d="M1582.75 607.164C1582.75 608.194 1581.91 609.028 1580.89 609.028C1579.86 609.028 1579.03 608.194 1579.03 607.164C1579.03 606.135 1579.86 605.301 1580.89 605.301C1581.91 605.301 1582.75 606.135 1582.75 607.164Z" fill="url(#paint40_linear_22_411)" stroke="black" stroke-width="0.3"/>
<path d="M1581.65 607.164C1581.65 607.586 1581.31 607.924 1580.9 607.924C1580.48 607.924 1580.14 607.578 1580.14 607.164C1580.14 606.75 1580.48 606.404 1580.9 606.404C1581.31 606.404 1581.65 606.75 1581.65 607.164Z" fill="url(#paint41_linear_22_411)" stroke="black" stroke-width="0.3"/>
<path d="M1598.97 607.164C1598.97 608.194 1598.13 609.028 1597.11 609.028C1596.08 609.028 1595.25 608.194 1595.25 607.164C1595.25 606.135 1596.08 605.301 1597.11 605.301C1598.13 605.301 1598.97 606.135 1598.97 607.164Z" fill="url(#paint42_linear_22_411)" stroke="black" stroke-width="0.3"/>
<path d="M1597.86 607.164C1597.86 607.584 1597.52 607.924 1597.11 607.924C1596.69 607.924 1596.35 607.584 1596.35 607.164C1596.35 606.744 1596.69 606.404 1597.11 606.404C1597.52 606.404 1597.86 606.744 1597.86 607.164Z" fill="url(#paint43_linear_22_411)" stroke="black" stroke-width="0.3"/>
<path d="M1615.38 607.164C1615.38 608.194 1614.55 609.028 1613.52 609.028C1612.49 609.028 1611.66 608.194 1611.66 607.164C1611.66 606.135 1612.49 605.301 1613.52 605.301C1614.55 605.301 1615.38 606.135 1615.38 607.164Z" fill="url(#paint44_linear_22_411)" stroke="black" stroke-width="0.3"/>
<path d="M1614.29 607.164C1614.29 607.586 1613.94 607.924 1613.53 607.924C1613.11 607.924 1612.77 607.578 1612.77 607.164C1612.77 606.75 1613.11 606.404 1613.53 606.404C1613.94 606.404 1614.29 606.75 1614.29 607.164Z" fill="url(#paint45_linear_22_411)" stroke="black" stroke-width="0.3"/>
<rect x="1581.91" y="590.563" width="1.75159" height="9.95796" fill="url(#paint46_linear_22_411)" stroke="black" stroke-width="0.3"/>
<rect x="1611.66" y="590.563" width="1.75159" height="9.95796" fill="url(#paint47_linear_22_411)" stroke="black" stroke-width="0.3"/>
<path d="M1618.67 603.158H1576.26C1575.56 603.158 1574.98 602.58 1574.98 601.874C1574.98 601.167 1575.56 600.589 1576.26 600.589H1618.67C1619.37 600.589 1619.95 601.167 1619.95 601.874C1619.95 602.58 1619.37 603.158 1618.67 603.158Z" fill="url(#paint48_linear_22_411)" stroke="black" stroke-width="0.8"/>
<path d="M1696.29 649.402C1696.5 646.473 1698.93 644.154 1701.92 644.154H1708.44C1711.42 644.154 1713.86 646.466 1714.06 649.402H1696.29Z" fill="url(#paint49_linear_22_411)" stroke="black" stroke-width="0.8"/>
<path d="M1722.95 660.05H1687.4C1686.1 660.05 1685.32 658.589 1686.05 657.506L1692.24 648.343C1692.24 648.342 1692.24 648.342 1692.24 648.342C1692.54 647.895 1693.05 647.625 1693.59 647.625H1716.76C1717.3 647.625 1717.81 647.895 1718.11 648.342C1718.11 648.342 1718.11 648.343 1718.11 648.343L1724.3 657.506C1725.03 658.59 1724.26 660.05 1722.95 660.05Z" fill="url(#paint50_linear_22_411)" stroke="black" stroke-width="0.8"/>
<path d="M1685.43 672.036H1724.91V686.992C1724.91 695.49 1718.02 702.395 1709.54 702.395H1700.81C1692.32 702.395 1685.43 695.49 1685.43 686.992V672.036Z" fill="url(#paint51_linear_22_411)" stroke="black" stroke-width="0.8"/>
<path d="M1690.46 676.918C1690.46 677.948 1689.62 678.782 1688.6 678.782C1687.57 678.782 1686.74 677.948 1686.74 676.918C1686.74 675.889 1687.57 675.055 1688.6 675.055C1689.62 675.055 1690.46 675.889 1690.46 676.918Z" fill="url(#paint52_linear_22_411)" stroke="black" stroke-width="0.3"/>
<path d="M1689.36 676.918C1689.36 677.34 1689.02 677.678 1688.61 677.678C1688.19 677.678 1687.85 677.332 1687.85 676.918C1687.85 676.504 1688.19 676.158 1688.61 676.158C1689.02 676.158 1689.36 676.504 1689.36 676.918Z" fill="url(#paint53_linear_22_411)" stroke="black" stroke-width="0.3"/>
<path d="M1706.67 676.918C1706.67 677.948 1705.84 678.782 1704.81 678.782C1703.79 678.782 1702.95 677.948 1702.95 676.918C1702.95 675.889 1703.79 675.055 1704.81 675.055C1705.84 675.055 1706.67 675.889 1706.67 676.918Z" fill="url(#paint54_linear_22_411)" stroke="black" stroke-width="0.3"/>
<path d="M1705.57 676.918C1705.57 677.338 1705.23 677.678 1704.81 677.678C1704.4 677.678 1704.06 677.338 1704.06 676.918C1704.06 676.498 1704.4 676.158 1704.81 676.158C1705.23 676.158 1705.57 676.498 1705.57 676.918Z" fill="url(#paint55_linear_22_411)" stroke="black" stroke-width="0.3"/>
<path d="M1723.09 676.918C1723.09 677.948 1722.25 678.782 1721.23 678.782C1720.2 678.782 1719.37 677.948 1719.37 676.918C1719.37 675.889 1720.2 675.055 1721.23 675.055C1722.25 675.055 1723.09 675.889 1723.09 676.918Z" fill="url(#paint56_linear_22_411)" stroke="black" stroke-width="0.3"/>
<path d="M1721.99 676.918C1721.99 677.34 1721.65 677.678 1721.24 677.678C1720.82 677.678 1720.48 677.332 1720.48 676.918C1720.48 676.504 1720.82 676.158 1721.24 676.158C1721.65 676.158 1721.99 676.504 1721.99 676.918Z" fill="url(#paint57_linear_22_411)" stroke="black" stroke-width="0.3"/>
<rect x="1689.62" y="660.317" width="1.75159" height="9.95796" fill="url(#paint58_linear_22_411)" stroke="black" stroke-width="0.3"/>
<rect x="1719.37" y="660.317" width="1.75159" height="9.95796" fill="url(#paint59_linear_22_411)" stroke="black" stroke-width="0.3"/>
<path d="M1726.38 672.912H1683.97C1683.27 672.912 1682.69 672.334 1682.69 671.628C1682.69 670.921 1683.27 670.343 1683.97 670.343H1726.38C1727.08 670.343 1727.66 670.921 1727.66 671.628C1727.66 672.334 1727.08 672.912 1726.38 672.912Z" fill="url(#paint60_linear_22_411)" stroke="black" stroke-width="0.8"/>
<path d="M1682.96 780.704C1683.16 777.774 1685.6 775.456 1688.58 775.456H1695.11C1698.08 775.456 1700.53 777.768 1700.73 780.704H1682.96Z" fill="url(#paint61_linear_22_411)" stroke="black" stroke-width="0.8"/>
<path d="M1709.61 791.352H1674.07C1672.76 791.352 1671.99 789.891 1672.72 788.808L1678.9 779.645C1678.9 779.644 1678.9 779.644 1678.9 779.644C1679.21 779.197 1679.72 778.927 1680.26 778.927H1703.42C1703.96 778.927 1704.47 779.197 1704.77 779.644C1704.77 779.644 1704.77 779.644 1704.77 779.645L1710.96 788.808C1711.69 789.892 1710.92 791.352 1709.61 791.352Z" fill="url(#paint62_linear_22_411)" stroke="black" stroke-width="0.8"/>
<path d="M1672.09 803.338H1711.58V818.294C1711.58 826.792 1704.68 833.697 1696.2 833.697H1687.47C1678.99 833.697 1672.09 826.792 1672.09 818.294V803.338Z" fill="url(#paint63_linear_22_411)" stroke="black" stroke-width="0.8"/>
<path d="M1677.12 808.22C1677.12 809.25 1676.29 810.084 1675.26 810.084C1674.23 810.084 1673.4 809.25 1673.4 808.22C1673.4 807.191 1674.23 806.357 1675.26 806.357C1676.29 806.357 1677.12 807.191 1677.12 808.22Z" fill="url(#paint64_linear_22_411)" stroke="black" stroke-width="0.3"/>
<path d="M1676.03 808.22C1676.03 808.642 1675.68 808.98 1675.27 808.98C1674.86 808.98 1674.51 808.634 1674.51 808.22C1674.51 807.806 1674.86 807.46 1675.27 807.46C1675.68 807.46 1676.03 807.806 1676.03 808.22Z" fill="url(#paint65_linear_22_411)" stroke="black" stroke-width="0.3"/>
<path d="M1693.34 808.22C1693.34 809.25 1692.51 810.084 1691.48 810.084C1690.45 810.084 1689.62 809.25 1689.62 808.22C1689.62 807.191 1690.45 806.357 1691.48 806.357C1692.51 806.357 1693.34 807.191 1693.34 808.22Z" fill="url(#paint66_linear_22_411)" stroke="black" stroke-width="0.3"/>
<path d="M1692.24 808.22C1692.24 808.64 1691.9 808.98 1691.48 808.98C1691.06 808.98 1690.72 808.64 1690.72 808.22C1690.72 807.8 1691.06 807.46 1691.48 807.46C1691.9 807.46 1692.24 807.8 1692.24 808.22Z" fill="url(#paint67_linear_22_411)" stroke="black" stroke-width="0.3"/>
<path d="M1709.75 808.22C1709.75 809.25 1708.92 810.084 1707.89 810.084C1706.86 810.084 1706.03 809.25 1706.03 808.22C1706.03 807.191 1706.86 806.357 1707.89 806.357C1708.92 806.357 1709.75 807.191 1709.75 808.22Z" fill="url(#paint68_linear_22_411)" stroke="black" stroke-width="0.3"/>
<path d="M1708.66 808.22C1708.66 808.642 1708.31 808.98 1707.9 808.98C1707.49 808.98 1707.14 808.634 1707.14 808.22C1707.14 807.806 1707.49 807.46 1707.9 807.46C1708.31 807.46 1708.66 807.806 1708.66 808.22Z" fill="url(#paint69_linear_22_411)" stroke="black" stroke-width="0.3"/>
<rect x="1676.28" y="791.619" width="1.75159" height="9.95796" fill="url(#paint70_linear_22_411)" stroke="black" stroke-width="0.3"/>
<rect x="1706.03" y="791.619" width="1.75159" height="9.95796" fill="url(#paint71_linear_22_411)" stroke="black" stroke-width="0.3"/>
<path d="M1713.04 804.214H1670.64C1669.93 804.214 1669.35 803.636 1669.35 802.93C1669.35 802.223 1669.93 801.645 1670.64 801.645H1713.04C1713.75 801.645 1714.33 802.223 1714.33 802.93C1714.33 803.636 1713.75 804.214 1713.04 804.214Z" fill="url(#paint72_linear_22_411)" stroke="black" stroke-width="0.8"/>
<path d="M1505.49 780.704C1505.7 777.774 1508.13 775.456 1511.12 775.456H1517.64C1520.62 775.456 1523.06 777.768 1523.27 780.704H1505.49Z" fill="url(#paint73_linear_22_411)" stroke="black" stroke-width="0.8"/>
<path d="M1532.15 791.352H1496.6C1495.3 791.352 1494.52 789.891 1495.25 788.808L1501.44 779.645C1501.44 779.644 1501.44 779.644 1501.44 779.644C1501.75 779.197 1502.25 778.927 1502.79 778.927H1525.96C1526.5 778.927 1527.01 779.197 1527.31 779.644C1527.31 779.644 1527.31 779.644 1527.31 779.645L1533.5 788.808C1534.23 789.892 1533.46 791.352 1532.15 791.352Z" fill="url(#paint74_linear_22_411)" stroke="black" stroke-width="0.8"/>
<path d="M1494.63 803.338H1534.11V818.294C1534.11 826.792 1527.22 833.697 1518.74 833.697H1510.01C1501.53 833.697 1494.63 826.792 1494.63 818.294V803.338Z" fill="url(#paint75_linear_22_411)" stroke="black" stroke-width="0.8"/>
<path d="M1499.66 808.22C1499.66 809.25 1498.82 810.084 1497.8 810.084C1496.77 810.084 1495.94 809.25 1495.94 808.22C1495.94 807.191 1496.77 806.357 1497.8 806.357C1498.82 806.357 1499.66 807.191 1499.66 808.22Z" fill="url(#paint76_linear_22_411)" stroke="black" stroke-width="0.3"/>
<path d="M1498.57 808.22C1498.57 808.642 1498.22 808.98 1497.81 808.98C1497.39 808.98 1497.05 808.634 1497.05 808.22C1497.05 807.806 1497.39 807.46 1497.81 807.46C1498.22 807.46 1498.57 807.806 1498.57 808.22Z" fill="url(#paint77_linear_22_411)" stroke="black" stroke-width="0.3"/>
<path d="M1515.88 808.22C1515.88 809.25 1515.04 810.084 1514.02 810.084C1512.99 810.084 1512.16 809.25 1512.16 808.22C1512.16 807.191 1512.99 806.357 1514.02 806.357C1515.04 806.357 1515.88 807.191 1515.88 808.22Z" fill="url(#paint78_linear_22_411)" stroke="black" stroke-width="0.3"/>
<path d="M1514.77 808.22C1514.77 808.64 1514.43 808.98 1514.02 808.98C1513.6 808.98 1513.26 808.64 1513.26 808.22C1513.26 807.8 1513.6 807.46 1514.02 807.46C1514.43 807.46 1514.77 807.8 1514.77 808.22Z" fill="url(#paint79_linear_22_411)" stroke="black" stroke-width="0.3"/>
<path d="M1532.29 808.22C1532.29 809.25 1531.46 810.084 1530.43 810.084C1529.4 810.084 1528.57 809.25 1528.57 808.22C1528.57 807.191 1529.4 806.357 1530.43 806.357C1531.46 806.357 1532.29 807.191 1532.29 808.22Z" fill="url(#paint80_linear_22_411)" stroke="black" stroke-width="0.3"/>
<path d="M1531.2 808.22C1531.2 808.642 1530.85 808.98 1530.44 808.98C1530.02 808.98 1529.68 808.634 1529.68 808.22C1529.68 807.806 1530.02 807.46 1530.44 807.46C1530.85 807.46 1531.2 807.806 1531.2 808.22Z" fill="url(#paint81_linear_22_411)" stroke="black" stroke-width="0.3"/>
<rect x="1498.82" y="791.619" width="1.75159" height="9.95796" fill="url(#paint82_linear_22_411)" stroke="black" stroke-width="0.3"/>
<rect x="1528.57" y="791.619" width="1.75159" height="9.95796" fill="url(#paint83_linear_22_411)" stroke="black" stroke-width="0.3"/>
<path d="M1535.58 804.214H1493.17C1492.47 804.214 1491.89 803.636 1491.89 802.93C1491.89 802.223 1492.47 801.645 1493.17 801.645H1535.58C1536.28 801.645 1536.86 802.223 1536.86 802.93C1536.86 803.636 1536.28 804.214 1535.58 804.214Z" fill="url(#paint84_linear_22_411)" stroke="black" stroke-width="0.8"/>
<defs>
<linearGradient id="paint0_linear_22_411" x1="1512.72" y1="25.6993" x2="1540.92" y2="113.243" gradientUnits="userSpaceOnUse">
<stop stop-color="#7383F7"/>
<stop offset="0.71875" stop-color="#9EAAFF"/>
</linearGradient>
<linearGradient id="paint1_linear_22_411" x1="-38.5312" y1="97.3288" x2="29.8988" y2="269.787" gradientUnits="userSpaceOnUse">
<stop stop-color="#FFB2D8"/>
<stop offset="0.458333" stop-color="#FFB2D8"/>
<stop offset="1" stop-color="#FFD9EC"/>
</linearGradient>
<linearGradient id="paint2_linear_22_411" x1="52.972" y1="148.318" x2="14.5919" y2="224.327" gradientUnits="userSpaceOnUse">
<stop stop-color="#FF48CA"/>
<stop offset="0.491167" stop-color="#E07CC3"/>
<stop offset="1" stop-color="#E07CC3"/>
</linearGradient>
<linearGradient id="paint3_linear_22_411" x1="1544.12" y1="219.65" x2="1582.64" y2="293.496" gradientUnits="userSpaceOnUse">
<stop stop-color="#D3C3ED"/>
<stop offset="0.489583" stop-color="#D3C3ED"/>
<stop offset="1" stop-color="#EEE3FF"/>
</linearGradient>
<linearGradient id="paint4_linear_22_411" x1="297" y1="74.8262" x2="257.822" y2="151.239" gradientUnits="userSpaceOnUse">
<stop stop-color="#FF48CA"/>
<stop offset="0.491167" stop-color="#E07CC3"/>
<stop offset="1" stop-color="#E07CC3"/>
</linearGradient>
<linearGradient id="paint5_linear_22_411" x1="1186.11" y1="405" x2="1128.41" y2="375.36" gradientUnits="userSpaceOnUse">
<stop stop-color="#8CB6F3"/>
<stop offset="0.419064" stop-color="#8CB6F3"/>
<stop offset="0.979167" stop-color="#CEE0FB"/>
</linearGradient>
<linearGradient id="paint6_linear_22_411" x1="118.091" y1="267.576" x2="124.758" y2="284.85" gradientUnits="userSpaceOnUse">
<stop stop-color="#FFB2D8"/>
<stop offset="0.458333" stop-color="#FFB2D8"/>
<stop offset="1" stop-color="#FFD9EC"/>
</linearGradient>
<linearGradient id="paint7_linear_22_411" x1="118.091" y1="368.981" x2="124.758" y2="386.254" gradientUnits="userSpaceOnUse">
<stop stop-color="#FFB2D8"/>
<stop offset="0.458333" stop-color="#FFB2D8"/>
<stop offset="1" stop-color="#FFD9EC"/>
</linearGradient>
<linearGradient id="paint8_linear_22_411" x1="108.818" y1="297.696" x2="130.19" y2="359.222" gradientUnits="userSpaceOnUse">
<stop stop-color="#7383F7"/>
<stop offset="0.484375" stop-color="#9EAAFF"/>
<stop offset="1" stop-color="#C1C8F7"/>
</linearGradient>
<linearGradient id="paint9_linear_22_411" x1="112.503" y1="310.627" x2="123.265" y2="343.677" gradientUnits="userSpaceOnUse">
<stop stop-color="#FF7372"/>
<stop offset="0.484375" stop-color="#FF7372"/>
<stop offset="1" stop-color="#FF8C8B"/>
</linearGradient>
<linearGradient id="paint10_linear_22_411" x1="167.964" y1="318.279" x2="174.631" y2="335.553" gradientUnits="userSpaceOnUse">
<stop stop-color="#FFB2D8"/>
<stop offset="0.458333" stop-color="#FFB2D8"/>
<stop offset="1" stop-color="#FFD9EC"/>
</linearGradient>
<linearGradient id="paint11_linear_22_411" x1="68.2185" y1="318.279" x2="74.8853" y2="335.553" gradientUnits="userSpaceOnUse">
<stop stop-color="#FFB2D8"/>
<stop offset="0.458333" stop-color="#FFB2D8"/>
<stop offset="1" stop-color="#FFD9EC"/>
</linearGradient>
<linearGradient id="paint12_linear_22_411" x1="118.091" y1="318.279" x2="124.758" y2="335.553" gradientUnits="userSpaceOnUse">
<stop stop-color="#FFB2D8"/>
<stop offset="0.458333" stop-color="#FFB2D8"/>
<stop offset="1" stop-color="#FFD9EC"/>
</linearGradient>
<linearGradient id="paint13_linear_22_411" x1="43.7681" y1="621" x2="59.6234" y2="672.408" gradientUnits="userSpaceOnUse">
<stop stop-color="#FF7372"/>
<stop offset="0.484375" stop-color="#FF7372"/>
<stop offset="1" stop-color="#FF8C8B"/>
</linearGradient>
<linearGradient id="paint14_linear_22_411" x1="1489.74" y1="612.904" x2="1606.66" y2="840.495" gradientUnits="userSpaceOnUse">
<stop stop-color="#D3C3ED"/>
<stop offset="0.489583" stop-color="#D3C3ED"/>
<stop offset="1" stop-color="#EEE3FF"/>
</linearGradient>
<linearGradient id="paint15_linear_22_411" x1="1549.4" y1="724.784" x2="1652.29" y2="828.929" gradientUnits="userSpaceOnUse">
<stop stop-color="#7383F7"/>
<stop offset="0.71875" stop-color="#9EAAFF"/>
</linearGradient>
<linearGradient id="paint16_linear_22_411" x1="1611.2" y1="724.784" x2="1714.05" y2="830.629" gradientUnits="userSpaceOnUse">
<stop stop-color="#7383F7"/>
<stop offset="0.71875" stop-color="#9EAAFF"/>
</linearGradient>
<linearGradient id="paint17_linear_22_411" x1="1602.82" y1="769.394" x2="1602.64" y2="776.889" gradientUnits="userSpaceOnUse">
<stop stop-color="#FF48CA"/>
<stop offset="0.491167" stop-color="#E07CC3"/>
<stop offset="1" stop-color="#E07CC3"/>
</linearGradient>
<linearGradient id="paint18_linear_22_411" x1="1718.94" y1="703.243" x2="1718.78" y2="710.738" gradientUnits="userSpaceOnUse">
<stop stop-color="#FF48CA"/>
<stop offset="0.491167" stop-color="#E07CC3"/>
<stop offset="1" stop-color="#E07CC3"/>
</linearGradient>
<linearGradient id="paint19_linear_22_411" x1="1721.64" y1="710.978" x2="1721.56" y2="716.4" gradientUnits="userSpaceOnUse">
<stop stop-color="#FF48CA"/>
<stop offset="0.491167" stop-color="#E07CC3"/>
<stop offset="1" stop-color="#E07CC3"/>
</linearGradient>
<linearGradient id="paint20_linear_22_411" x1="1689.24" y1="698.025" x2="1689.13" y2="703.445" gradientUnits="userSpaceOnUse">
<stop stop-color="#FF48CA"/>
<stop offset="0.491167" stop-color="#E07CC3"/>
<stop offset="1" stop-color="#E07CC3"/>
</linearGradient>
<linearGradient id="paint21_linear_22_411" x1="1717.85" y1="712.702" x2="1717.67" y2="720.197" gradientUnits="userSpaceOnUse">
<stop stop-color="#FF48CA"/>
<stop offset="0.491167" stop-color="#E07CC3"/>
<stop offset="1" stop-color="#E07CC3"/>
</linearGradient>
<linearGradient id="paint22_linear_22_411" x1="1614.93" y1="692.495" x2="1593.55" y2="734.762" gradientUnits="userSpaceOnUse">
<stop stop-color="#FF48CA"/>
<stop offset="0.491167" stop-color="#E07CC3"/>
<stop offset="1" stop-color="#E07CC3"/>
</linearGradient>
<linearGradient id="paint23_linear_22_411" x1="1592.06" y1="700.816" x2="1597.91" y2="718.933" gradientUnits="userSpaceOnUse">
<stop stop-color="#7383F7"/>
<stop offset="0.71875" stop-color="#9EAAFF"/>
</linearGradient>
<linearGradient id="paint24_linear_22_411" x1="1532.05" y1="596.439" x2="1611.37" y2="842.65" gradientUnits="userSpaceOnUse">
<stop stop-color="#7383F7"/>
<stop offset="0.71875" stop-color="#9EAAFF"/>
</linearGradient>
<linearGradient id="paint25_linear_22_411" x1="1489.53" y1="643.754" x2="1490.22" y2="650.78" gradientUnits="userSpaceOnUse">
<stop stop-color="#FF7372"/>
<stop offset="0.484375" stop-color="#FF7372"/>
<stop offset="1" stop-color="#FF8C8B"/>
</linearGradient>
<linearGradient id="paint26_linear_22_411" x1="1516.74" y1="647.791" x2="1513.57" y2="666.593" gradientUnits="userSpaceOnUse">
<stop stop-color="#E07CC3"/>
<stop offset="0.973958" stop-color="#FFABE7"/>
</linearGradient>
<linearGradient id="paint27_linear_22_411" x1="1480.88" y1="671.636" x2="1488.97" y2="706.291" gradientUnits="userSpaceOnUse">
<stop stop-color="#FF7372"/>
<stop offset="0.484375" stop-color="#FF7372"/>
<stop offset="1" stop-color="#FF8C8B"/>
</linearGradient>
<linearGradient id="paint28_linear_22_411" x1="1479.32" y1="675.102" x2="1480.6" y2="679.078" gradientUnits="userSpaceOnUse">
<stop stop-color="#7383F7"/>
<stop offset="0.484375" stop-color="#9EAAFF"/>
<stop offset="1" stop-color="#C1C8F7"/>
</linearGradient>
<linearGradient id="paint29_linear_22_411" x1="1479.57" y1="676.129" x2="1480.51" y2="678.156" gradientUnits="userSpaceOnUse">
<stop stop-color="#E7B12D"/>
<stop offset="0.476697" stop-color="#F7C651"/>
<stop offset="0.904587" stop-color="#FFDE8C"/>
</linearGradient>
<linearGradient id="paint30_linear_22_411" x1="1495.54" y1="675.102" x2="1496.82" y2="679.078" gradientUnits="userSpaceOnUse">
<stop stop-color="#7383F7"/>
<stop offset="0.484375" stop-color="#9EAAFF"/>
<stop offset="1" stop-color="#C1C8F7"/>
</linearGradient>
<linearGradient id="paint31_linear_22_411" x1="1495.78" y1="676.129" x2="1496.72" y2="678.156" gradientUnits="userSpaceOnUse">
<stop stop-color="#E7B12D"/>
<stop offset="0.476697" stop-color="#F7C651"/>
<stop offset="0.904587" stop-color="#FFDE8C"/>
</linearGradient>
<linearGradient id="paint32_linear_22_411" x1="1511.95" y1="675.102" x2="1513.23" y2="679.078" gradientUnits="userSpaceOnUse">
<stop stop-color="#7383F7"/>
<stop offset="0.484375" stop-color="#9EAAFF"/>
<stop offset="1" stop-color="#C1C8F7"/>
</linearGradient>
<linearGradient id="paint33_linear_22_411" x1="1512.2" y1="676.129" x2="1513.14" y2="678.156" gradientUnits="userSpaceOnUse">
<stop stop-color="#E7B12D"/>
<stop offset="0.476697" stop-color="#F7C651"/>
<stop offset="0.904587" stop-color="#FFDE8C"/>
</linearGradient>
<linearGradient id="paint34_linear_22_411" x1="1483.28" y1="660.606" x2="1478.15" y2="662.64" gradientUnits="userSpaceOnUse">
<stop stop-color="#E07CC3"/>
<stop offset="0.973958" stop-color="#FFABE7"/>
</linearGradient>
<linearGradient id="paint35_linear_22_411" x1="1513.03" y1="660.606" x2="1507.9" y2="662.64" gradientUnits="userSpaceOnUse">
<stop stop-color="#E07CC3"/>
<stop offset="0.973958" stop-color="#FFABE7"/>
</linearGradient>
<linearGradient id="paint36_linear_22_411" x1="1476.79" y1="670.167" x2="1476.94" y2="674.73" gradientUnits="userSpaceOnUse">
<stop stop-color="#E7B12D"/>
<stop offset="0.476697" stop-color="#F7C651"/>
<stop offset="0.904587" stop-color="#FFDE8C"/>
</linearGradient>
<linearGradient id="paint37_linear_22_411" x1="1590.06" y1="574" x2="1590.75" y2="581.026" gradientUnits="userSpaceOnUse">
<stop stop-color="#FF7372"/>
<stop offset="0.484375" stop-color="#FF7372"/>
<stop offset="1" stop-color="#FF8C8B"/>
</linearGradient>
<linearGradient id="paint38_linear_22_411" x1="1617.27" y1="578.037" x2="1614.1" y2="596.839" gradientUnits="userSpaceOnUse">
<stop stop-color="#E07CC3"/>
<stop offset="0.973958" stop-color="#FFABE7"/>
</linearGradient>
<linearGradient id="paint39_linear_22_411" x1="1581.41" y1="601.882" x2="1589.5" y2="636.536" gradientUnits="userSpaceOnUse">
<stop stop-color="#FF7372"/>
<stop offset="0.484375" stop-color="#FF7372"/>
<stop offset="1" stop-color="#FF8C8B"/>
</linearGradient>
<linearGradient id="paint40_linear_22_411" x1="1579.85" y1="605.348" x2="1581.13" y2="609.324" gradientUnits="userSpaceOnUse">
<stop stop-color="#7383F7"/>
<stop offset="0.484375" stop-color="#9EAAFF"/>
<stop offset="1" stop-color="#C1C8F7"/>
</linearGradient>
<linearGradient id="paint41_linear_22_411" x1="1580.1" y1="606.375" x2="1581.04" y2="608.402" gradientUnits="userSpaceOnUse">
<stop stop-color="#E7B12D"/>
<stop offset="0.476697" stop-color="#F7C651"/>
<stop offset="0.904587" stop-color="#FFDE8C"/>
</linearGradient>
<linearGradient id="paint42_linear_22_411" x1="1596.06" y1="605.348" x2="1597.35" y2="609.324" gradientUnits="userSpaceOnUse">
<stop stop-color="#7383F7"/>
<stop offset="0.484375" stop-color="#9EAAFF"/>
<stop offset="1" stop-color="#C1C8F7"/>
</linearGradient>
<linearGradient id="paint43_linear_22_411" x1="1596.31" y1="606.375" x2="1597.25" y2="608.402" gradientUnits="userSpaceOnUse">
<stop stop-color="#E7B12D"/>
<stop offset="0.476697" stop-color="#F7C651"/>
<stop offset="0.904587" stop-color="#FFDE8C"/>
</linearGradient>
<linearGradient id="paint44_linear_22_411" x1="1612.48" y1="605.348" x2="1613.76" y2="609.324" gradientUnits="userSpaceOnUse">
<stop stop-color="#7383F7"/>
<stop offset="0.484375" stop-color="#9EAAFF"/>
<stop offset="1" stop-color="#C1C8F7"/>
</linearGradient>
<linearGradient id="paint45_linear_22_411" x1="1612.73" y1="606.375" x2="1613.67" y2="608.402" gradientUnits="userSpaceOnUse">
<stop stop-color="#E7B12D"/>
<stop offset="0.476697" stop-color="#F7C651"/>
<stop offset="0.904587" stop-color="#FFDE8C"/>
</linearGradient>
<linearGradient id="paint46_linear_22_411" x1="1583.81" y1="590.852" x2="1578.68" y2="592.886" gradientUnits="userSpaceOnUse">
<stop stop-color="#E07CC3"/>
<stop offset="0.973958" stop-color="#FFABE7"/>
</linearGradient>
<linearGradient id="paint47_linear_22_411" x1="1613.56" y1="590.852" x2="1608.42" y2="592.886" gradientUnits="userSpaceOnUse">
<stop stop-color="#E07CC3"/>
<stop offset="0.973958" stop-color="#FFABE7"/>
</linearGradient>
<linearGradient id="paint48_linear_22_411" x1="1577.32" y1="600.413" x2="1577.47" y2="604.976" gradientUnits="userSpaceOnUse">
<stop stop-color="#E7B12D"/>
<stop offset="0.476697" stop-color="#F7C651"/>
<stop offset="0.904587" stop-color="#FFDE8C"/>
</linearGradient>
<linearGradient id="paint49_linear_22_411" x1="1697.76" y1="643.754" x2="1698.45" y2="650.78" gradientUnits="userSpaceOnUse">
<stop stop-color="#FF7372"/>
<stop offset="0.484375" stop-color="#FF7372"/>
<stop offset="1" stop-color="#FF8C8B"/>
</linearGradient>
<linearGradient id="paint50_linear_22_411" x1="1724.98" y1="647.791" x2="1721.81" y2="666.593" gradientUnits="userSpaceOnUse">
<stop stop-color="#E07CC3"/>
<stop offset="0.973958" stop-color="#FFABE7"/>
</linearGradient>
<linearGradient id="paint51_linear_22_411" x1="1689.12" y1="671.636" x2="1697.21" y2="706.291" gradientUnits="userSpaceOnUse">
<stop stop-color="#FF7372"/>
<stop offset="0.484375" stop-color="#FF7372"/>
<stop offset="1" stop-color="#FF8C8B"/>
</linearGradient>
<linearGradient id="paint52_linear_22_411" x1="1687.55" y1="675.102" x2="1688.84" y2="679.078" gradientUnits="userSpaceOnUse">
<stop stop-color="#7383F7"/>
<stop offset="0.484375" stop-color="#9EAAFF"/>
<stop offset="1" stop-color="#C1C8F7"/>
</linearGradient>
<linearGradient id="paint53_linear_22_411" x1="1687.81" y1="676.129" x2="1688.75" y2="678.156" gradientUnits="userSpaceOnUse">
<stop stop-color="#E7B12D"/>
<stop offset="0.476697" stop-color="#F7C651"/>
<stop offset="0.904587" stop-color="#FFDE8C"/>
</linearGradient>
<linearGradient id="paint54_linear_22_411" x1="1703.77" y1="675.102" x2="1705.06" y2="679.078" gradientUnits="userSpaceOnUse">
<stop stop-color="#7383F7"/>
<stop offset="0.484375" stop-color="#9EAAFF"/>
<stop offset="1" stop-color="#C1C8F7"/>
</linearGradient>
<linearGradient id="paint55_linear_22_411" x1="1704.01" y1="676.129" x2="1704.96" y2="678.156" gradientUnits="userSpaceOnUse">
<stop stop-color="#E7B12D"/>
<stop offset="0.476697" stop-color="#F7C651"/>
<stop offset="0.904587" stop-color="#FFDE8C"/>
</linearGradient>
<linearGradient id="paint56_linear_22_411" x1="1720.19" y1="675.102" x2="1721.47" y2="679.078" gradientUnits="userSpaceOnUse">
<stop stop-color="#7383F7"/>
<stop offset="0.484375" stop-color="#9EAAFF"/>
<stop offset="1" stop-color="#C1C8F7"/>
</linearGradient>
<linearGradient id="paint57_linear_22_411" x1="1720.44" y1="676.129" x2="1721.38" y2="678.156" gradientUnits="userSpaceOnUse">
<stop stop-color="#E7B12D"/>
<stop offset="0.476697" stop-color="#F7C651"/>
<stop offset="0.904587" stop-color="#FFDE8C"/>
</linearGradient>
<linearGradient id="paint58_linear_22_411" x1="1691.52" y1="660.606" x2="1686.39" y2="662.64" gradientUnits="userSpaceOnUse">
<stop stop-color="#E07CC3"/>
<stop offset="0.973958" stop-color="#FFABE7"/>
</linearGradient>
<linearGradient id="paint59_linear_22_411" x1="1721.27" y1="660.606" x2="1716.13" y2="662.64" gradientUnits="userSpaceOnUse">
<stop stop-color="#E07CC3"/>
<stop offset="0.973958" stop-color="#FFABE7"/>
</linearGradient>
<linearGradient id="paint60_linear_22_411" x1="1685.03" y1="670.167" x2="1685.18" y2="674.73" gradientUnits="userSpaceOnUse">
<stop stop-color="#E7B12D"/>
<stop offset="0.476697" stop-color="#F7C651"/>
<stop offset="0.904587" stop-color="#FFDE8C"/>
</linearGradient>
<linearGradient id="paint61_linear_22_411" x1="1684.43" y1="775.056" x2="1685.12" y2="782.082" gradientUnits="userSpaceOnUse">
<stop stop-color="#FF7372"/>
<stop offset="0.484375" stop-color="#FF7372"/>
<stop offset="1" stop-color="#FF8C8B"/>
</linearGradient>
<linearGradient id="paint62_linear_22_411" x1="1711.65" y1="779.093" x2="1708.48" y2="797.895" gradientUnits="userSpaceOnUse">
<stop stop-color="#E07CC3"/>
<stop offset="0.973958" stop-color="#FFABE7"/>
</linearGradient>
<linearGradient id="paint63_linear_22_411" x1="1675.78" y1="802.938" x2="1683.88" y2="837.592" gradientUnits="userSpaceOnUse">
<stop stop-color="#FF7372"/>
<stop offset="0.484375" stop-color="#FF7372"/>
<stop offset="1" stop-color="#FF8C8B"/>
</linearGradient>
<linearGradient id="paint64_linear_22_411" x1="1674.22" y1="806.404" x2="1675.5" y2="810.38" gradientUnits="userSpaceOnUse">
<stop stop-color="#7383F7"/>
<stop offset="0.484375" stop-color="#9EAAFF"/>
<stop offset="1" stop-color="#C1C8F7"/>
</linearGradient>
<linearGradient id="paint65_linear_22_411" x1="1674.47" y1="807.431" x2="1675.41" y2="809.458" gradientUnits="userSpaceOnUse">
<stop stop-color="#E7B12D"/>
<stop offset="0.476697" stop-color="#F7C651"/>
<stop offset="0.904587" stop-color="#FFDE8C"/>
</linearGradient>
<linearGradient id="paint66_linear_22_411" x1="1690.44" y1="806.404" x2="1691.72" y2="810.38" gradientUnits="userSpaceOnUse">
<stop stop-color="#7383F7"/>
<stop offset="0.484375" stop-color="#9EAAFF"/>
<stop offset="1" stop-color="#C1C8F7"/>
</linearGradient>
<linearGradient id="paint67_linear_22_411" x1="1690.68" y1="807.431" x2="1691.62" y2="809.458" gradientUnits="userSpaceOnUse">
<stop stop-color="#E7B12D"/>
<stop offset="0.476697" stop-color="#F7C651"/>
<stop offset="0.904587" stop-color="#FFDE8C"/>
</linearGradient>
<linearGradient id="paint68_linear_22_411" x1="1706.85" y1="806.404" x2="1708.13" y2="810.38" gradientUnits="userSpaceOnUse">
<stop stop-color="#7383F7"/>
<stop offset="0.484375" stop-color="#9EAAFF"/>
<stop offset="1" stop-color="#C1C8F7"/>
</linearGradient>
<linearGradient id="paint69_linear_22_411" x1="1707.1" y1="807.431" x2="1708.05" y2="809.458" gradientUnits="userSpaceOnUse">
<stop stop-color="#E7B12D"/>
<stop offset="0.476697" stop-color="#F7C651"/>
<stop offset="0.904587" stop-color="#FFDE8C"/>
</linearGradient>
<linearGradient id="paint70_linear_22_411" x1="1678.18" y1="791.908" x2="1673.05" y2="793.942" gradientUnits="userSpaceOnUse">
<stop stop-color="#E07CC3"/>
<stop offset="0.973958" stop-color="#FFABE7"/>
</linearGradient>
<linearGradient id="paint71_linear_22_411" x1="1707.93" y1="791.908" x2="1702.8" y2="793.942" gradientUnits="userSpaceOnUse">
<stop stop-color="#E07CC3"/>
<stop offset="0.973958" stop-color="#FFABE7"/>
</linearGradient>
<linearGradient id="paint72_linear_22_411" x1="1671.69" y1="801.469" x2="1671.85" y2="806.032" gradientUnits="userSpaceOnUse">
<stop stop-color="#E7B12D"/>
<stop offset="0.476697" stop-color="#F7C651"/>
<stop offset="0.904587" stop-color="#FFDE8C"/>
</linearGradient>
<linearGradient id="paint73_linear_22_411" x1="1506.97" y1="775.056" x2="1507.66" y2="782.082" gradientUnits="userSpaceOnUse">
<stop stop-color="#FF7372"/>
<stop offset="0.484375" stop-color="#FF7372"/>
<stop offset="1" stop-color="#FF8C8B"/>
</linearGradient>
<linearGradient id="paint74_linear_22_411" x1="1534.18" y1="779.093" x2="1531.01" y2="797.895" gradientUnits="userSpaceOnUse">
<stop stop-color="#E07CC3"/>
<stop offset="0.973958" stop-color="#FFABE7"/>
</linearGradient>
<linearGradient id="paint75_linear_22_411" x1="1498.32" y1="802.938" x2="1506.41" y2="837.592" gradientUnits="userSpaceOnUse">
<stop stop-color="#FF7372"/>
<stop offset="0.484375" stop-color="#FF7372"/>
<stop offset="1" stop-color="#FF8C8B"/>
</linearGradient>
<linearGradient id="paint76_linear_22_411" x1="1496.76" y1="806.404" x2="1498.04" y2="810.38" gradientUnits="userSpaceOnUse">
<stop stop-color="#7383F7"/>
<stop offset="0.484375" stop-color="#9EAAFF"/>
<stop offset="1" stop-color="#C1C8F7"/>
</linearGradient>
<linearGradient id="paint77_linear_22_411" x1="1497.01" y1="807.431" x2="1497.95" y2="809.458" gradientUnits="userSpaceOnUse">
<stop stop-color="#E7B12D"/>
<stop offset="0.476697" stop-color="#F7C651"/>
<stop offset="0.904587" stop-color="#FFDE8C"/>
</linearGradient>
<linearGradient id="paint78_linear_22_411" x1="1512.97" y1="806.404" x2="1514.26" y2="810.38" gradientUnits="userSpaceOnUse">
<stop stop-color="#7383F7"/>
<stop offset="0.484375" stop-color="#9EAAFF"/>
<stop offset="1" stop-color="#C1C8F7"/>
</linearGradient>
<linearGradient id="paint79_linear_22_411" x1="1513.22" y1="807.431" x2="1514.16" y2="809.458" gradientUnits="userSpaceOnUse">
<stop stop-color="#E7B12D"/>
<stop offset="0.476697" stop-color="#F7C651"/>
<stop offset="0.904587" stop-color="#FFDE8C"/>
</linearGradient>
<linearGradient id="paint80_linear_22_411" x1="1529.39" y1="806.404" x2="1530.67" y2="810.38" gradientUnits="userSpaceOnUse">
<stop stop-color="#7383F7"/>
<stop offset="0.484375" stop-color="#9EAAFF"/>
<stop offset="1" stop-color="#C1C8F7"/>
</linearGradient>
<linearGradient id="paint81_linear_22_411" x1="1529.64" y1="807.431" x2="1530.58" y2="809.458" gradientUnits="userSpaceOnUse">
<stop stop-color="#E7B12D"/>
<stop offset="0.476697" stop-color="#F7C651"/>
<stop offset="0.904587" stop-color="#FFDE8C"/>
</linearGradient>
<linearGradient id="paint82_linear_22_411" x1="1500.72" y1="791.908" x2="1495.59" y2="793.942" gradientUnits="userSpaceOnUse">
<stop stop-color="#E07CC3"/>
<stop offset="0.973958" stop-color="#FFABE7"/>
</linearGradient>
<linearGradient id="paint83_linear_22_411" x1="1530.47" y1="791.908" x2="1525.34" y2="793.942" gradientUnits="userSpaceOnUse">
<stop stop-color="#E07CC3"/>
<stop offset="0.973958" stop-color="#FFABE7"/>
</linearGradient>
<linearGradient id="paint84_linear_22_411" x1="1494.23" y1="801.469" x2="1494.38" y2="806.032" gradientUnits="userSpaceOnUse">
<stop stop-color="#E7B12D"/>
<stop offset="0.476697" stop-color="#F7C651"/>
<stop offset="0.904587" stop-color="#FFDE8C"/>
</linearGradient>
</defs>
</svg>
