<svg width="86" height="77" viewBox="0 0 86 77" fill="none" xmlns="http://www.w3.org/2000/svg">
<path d="M21.2944 42.252C27.5039 25.2075 41.7242 12.3729 56.8655 1.97431C54.2284 5.9682 52.3416 10.4558 51.3412 15.1355L51.1359 16.0959L52.0333 15.6969C62.0508 11.2425 72.6545 8.09576 83.4748 6.37667C76.4794 12.6702 69.8166 19.3277 63.5285 26.3155L62.806 27.1185L63.8857 27.1498C70.5858 27.3439 77.2601 28.3888 83.6925 30.2524C66.011 36.6574 49.004 44.8936 33.0153 54.7889L21.2944 42.252Z" fill="#FFF8EC" stroke="black"/>
<path d="M23.8152 40.2268L24.2098 40.7346L24.6047 40.227L32.0638 30.6392L31.6203 42.7817L31.5969 43.4239L32.2251 43.2888L44.0986 40.735L35.9492 49.7446L35.5181 50.2212L36.0861 50.5219L46.8254 56.2064L34.7917 57.8647L34.1545 57.9525L34.3968 58.5483L38.9731 69.8026L28.6858 63.3465L28.1417 63.005L27.9442 63.6162L24.2106 75.1719L20.4859 63.6166L20.2887 63.0048L19.7442 63.3465L9.45699 69.8026L14.0332 58.5483L14.2755 57.9525L13.6383 57.8647L1.60459 56.2064L12.3439 50.5219L12.9119 50.2212L12.4808 49.7446L4.33138 40.735L16.2049 43.2888L16.8331 43.4239L16.8097 42.7817L16.3662 30.6407L23.8152 40.2268Z" fill="url(#paint0_linear_114_30186)" stroke="black"/>
<defs>
<linearGradient id="paint0_linear_114_30186" x1="2.89527" y1="32.2774" x2="27.376" y2="85.7207" gradientUnits="userSpaceOnUse">
<stop stop-color="#E7B12D"/>
<stop offset="0.476697" stop-color="#F7C651"/>
<stop offset="0.904587" stop-color="#FFDE8C"/>
</linearGradient>
</defs>
</svg>
