<svg width="57" height="102" viewBox="0 0 57 102" fill="none" xmlns="http://www.w3.org/2000/svg">
<path d="M28.4574 50.418L28.571 50.9049C28.6249 50.8923 28.6944 50.8746 28.7764 50.8536C28.9441 50.8109 29.1635 50.7549 29.406 50.703C29.5788 50.6661 29.7385 50.6372 29.8632 50.6235C29.9154 50.6177 29.9539 50.6155 29.9801 50.6153C30.5847 50.9045 30.9722 51.2631 31.235 51.6687C31.5095 52.0924 31.6674 52.5975 31.7654 53.1949C31.853 53.7292 31.8886 54.3061 31.9279 54.9423C31.933 55.0247 31.9381 55.108 31.9435 55.1923C31.9892 55.917 32.048 56.7019 32.2056 57.5054L32.2056 57.5056C33.0169 61.6342 33.8303 65.7606 34.6437 69.887L34.6447 69.892C35.4577 74.0167 36.2707 78.1412 37.0816 82.2678L37.0819 82.2689C37.7382 85.5679 38.3645 88.8462 37.9762 92.0847C37.5888 95.3164 36.0048 98.4957 33.2611 100.015C31.9085 100.763 30.2312 100.978 28.7033 100.658C27.1771 100.338 25.8461 99.4962 25.124 98.1812L25.1139 98.1629L25.1024 98.1455C23.6018 95.8826 23.2756 93.0299 24.2673 90.5185L24.2676 90.5179C24.5963 89.6823 24.9707 88.8564 25.3516 88.0162C25.4365 87.8291 25.5216 87.6412 25.6067 87.4523C26.0705 86.4227 26.5279 85.3704 26.8849 84.2906L26.885 84.2903C28.6759 78.8621 27.8103 73.0832 26.9677 67.4586C26.9502 67.3418 26.9327 67.225 26.9153 67.1084C26.06 61.3911 25.2848 55.8401 27.1252 50.6939C27.1881 50.7031 27.2697 50.7194 27.3731 50.744C27.4258 50.7565 27.4884 50.7724 27.5551 50.7893C27.6774 50.8204 27.8133 50.8548 27.9264 50.8785C28.0914 50.9131 28.3459 50.9589 28.5741 50.9041L28.4574 50.418ZM28.4574 50.418C28.4957 50.409 28.555 50.3939 28.6288 50.3751C29.0462 50.2688 29.93 50.0438 30.1393 50.1376L26.7245 50.333C26.8155 50.0851 27.262 50.1988 27.6981 50.3097C27.9942 50.3851 28.2856 50.4592 28.4574 50.418ZM30.0102 50.6164C30.0101 50.6165 30.0082 50.6163 30.0048 50.6158C30.0085 50.6161 30.0103 50.6163 30.0102 50.6164Z" fill="url(#paint0_linear_129_4698)" stroke="black"/>
<path d="M54.5305 48.1026L54.5304 48.1026C48.9677 55.7678 41.0214 55.7134 37.0643 55.6862C36.5449 55.6827 36.0942 55.6796 35.7267 55.6945H35.7182L35.7079 55.6949L14.4212 56.5698C13.3535 56.6112 12.292 56.5613 11.2517 56.3892L11.2498 56.3889C6.39972 55.6059 1.71097 53.2495 0.67292 48.884C0.168044 46.755 0.816793 44.777 2.01001 42.8313C2.89613 41.3864 4.04589 40.013 5.19709 38.6378C5.61141 38.1428 6.02591 37.6477 6.42838 37.1489L6.42867 37.1486C13.4253 28.4614 16.364 21.8372 17.4552 16.2816C18.3508 11.7222 17.9933 7.89938 17.6607 4.3427C17.5891 3.57744 17.5187 2.82451 17.4621 2.07921C17.4345 1.7125 17.5057 1.35034 17.6751 1.06175L17.6755 1.06106C17.8821 0.707752 18.1384 0.558373 18.4153 0.514452C18.7157 0.466822 19.0946 0.536425 19.5209 0.735906C20.3781 1.13699 21.2477 1.98011 21.7051 2.8296L21.7054 2.83021C22.0055 3.38565 22.6799 4.24994 23.5905 5.31247C24.5125 6.3883 25.7093 7.70434 27.0865 9.17645C29.8413 12.1211 33.3317 15.7049 36.8173 19.267C37.4432 19.9066 38.0689 20.5455 38.6902 21.1799C41.5312 24.0807 44.2803 26.8877 46.5334 29.2405C47.9064 30.6742 49.0921 31.936 50.0004 32.9455C50.9193 33.9668 51.5251 34.6982 51.7666 35.0855C53.0259 37.1123 54.3834 39.4894 55.0849 41.823C55.7868 44.158 55.8037 46.3485 54.5305 48.1026Z" fill="url(#paint1_linear_129_4698)" stroke="black"/>
<mask id="mask0_129_4698" style="mask-type:luminance" maskUnits="userSpaceOnUse" x="0" y="0" width="57" height="58">
<path d="M35.737 56.1945C38.7951 56.0671 48.4621 57.3158 54.9351 48.3963C57.7469 44.5227 54.7143 38.8822 52.1913 34.8217C50.0421 31.3728 24.3115 6.60207 22.1453 2.59255C21.1345 0.715203 18.3567 -1.09418 17.2439 0.808645C17.0145 1.1994 16.9296 1.66662 16.9636 2.11684C17.6092 10.6286 19.9622 19.5481 6.03926 36.8349C3.0576 40.5301 -0.909412 44.3783 0.186412 48.9994C1.29923 53.68 6.27715 56.0925 11.1701 56.8825C12.249 57.0609 13.3448 57.1119 14.4406 57.0694L35.7285 56.1945H35.737Z" fill="white"/>
</mask>
<g mask="url(#mask0_129_4698)">
<path d="M15.9474 35.1692L15.9475 35.1689C16.6473 33.1324 16.2612 30.8386 15.1341 28.95C14.0595 27.1495 12.3412 25.7669 10.3402 25.3387L2.85573 35.3975C2.68736 36.12 2.86877 36.8686 3.29953 37.5646C3.74908 38.291 4.45214 38.9259 5.21705 39.3435L15.9474 35.1692ZM15.9474 35.1692C15.2475 37.2098 13.5328 38.7822 11.4832 39.5789M15.9474 35.1692L11.4832 39.5789M11.4832 39.5789C9.43355 40.3755 7.10813 40.3736 5.21714 39.3436L11.4832 39.5789Z" fill="url(#paint2_linear_129_4698)" stroke="black"/>
<path d="M29.1557 34.649C28.3979 32.1845 29.8051 29.2654 32.1258 28.1832L32.2068 28.3314C33.4803 27.7785 34.9735 27.8488 36.287 28.4062C37.6005 28.9637 38.6885 29.989 39.1766 31.2854L39.1768 31.2861C40.1715 33.9153 38.5819 37.2398 35.918 38.136C33.2543 39.0235 29.9822 37.3372 29.1557 34.649Z" fill="url(#paint3_linear_129_4698)" stroke="black"/>
<path d="M31.3401 7.07002L43.0793 19.2685C41.581 20.8938 39.3842 21.7822 37.1296 21.8762C34.7252 21.9764 32.3118 21.1708 30.6691 19.4646C29.0264 17.7584 28.3129 15.3166 28.5042 12.9184C28.6838 10.6675 29.6564 8.50501 31.3401 7.07002Z" fill="url(#paint4_linear_129_4698)" stroke="black"/>
<path d="M31.8388 61.3324C30.8298 57.7329 31.7076 53.5385 34.5163 51.2377L34.5169 51.2372C35.951 50.0585 37.9259 49.5533 39.7961 49.7542C41.6649 49.955 43.3681 50.852 44.3146 52.4026L44.3148 52.4029C45.7633 54.7717 45.3032 57.8946 44.2697 60.7144L31.8388 61.3324Z" fill="url(#paint5_linear_129_4698)" stroke="black"/>
<path d="M50.5136 30.8235L61.2488 38.3071C58.9621 40.2169 56.6133 42.0093 53.8376 42.5448L53.8374 42.5449C52.3854 42.8258 50.7706 42.6113 49.4376 41.9666C48.1072 41.3232 47.0989 40.2746 46.7645 38.9085C46.5276 37.9218 46.6371 36.863 46.8691 35.7939L46.8694 35.7926C47.1144 34.6492 47.5583 33.4764 48.2105 32.5475C48.8154 31.6859 49.5795 31.0599 50.5136 30.8235Z" fill="url(#paint6_linear_129_4698)" stroke="black"/>
<path d="M8.1203 49.4392L8.12112 49.4389C11.2501 48.0371 15.012 47.5758 17.6211 49.472L17.6215 49.4723C19.1561 50.5851 20.0101 52.2998 20.3201 54.2421C20.6306 56.1871 20.388 58.327 19.7596 60.2162C18.9858 62.5377 17.7691 64.7041 16.187 66.5687L1.26268 56.5948C2.01286 53.3506 4.9185 50.8667 8.1203 49.4392Z" fill="url(#paint7_linear_129_4698)" stroke="black"/>
</g>
<path d="M55.3288 43.8937C55.3398 44.1696 55.5725 44.3844 55.8484 44.3733C56.1243 44.3623 56.339 44.1297 56.328 43.8537L55.3288 43.8937ZM48.6342 31.9743C49.6336 32.6881 51.2579 34.2197 52.6591 36.3106C54.0591 38.3995 55.2135 41.0123 55.3288 43.8937L56.328 43.8537C56.2031 40.7321 54.9563 37.9421 53.4898 35.7539C52.0247 33.5676 50.3172 31.9475 49.2155 31.1606L48.6342 31.9743Z" fill="black"/>
<path d="M2.9469 53.1202C3.99458 54.8103 8.96318 57.853 20.4561 56.5034" stroke="black"/>
<path d="M28.8146 10.5569L39.6202 21.6625" stroke="black"/>
<path d="M31.2158 56.34C34.9964 56.6167 43.1708 56.6721 45.6231 54.6794" stroke="black"/>
<path d="M13.2067 26.7652L4.50226 39.0715" stroke="black"/>
<defs>
<linearGradient id="paint0_linear_129_4698" x1="24.1201" y1="53.5149" x2="55.763" y2="73.9749" gradientUnits="userSpaceOnUse">
<stop stop-color="#E7B12D"/>
<stop offset="0.458333" stop-color="#F7C651"/>
<stop offset="1" stop-color="#FFDE8C"/>
</linearGradient>
<linearGradient id="paint1_linear_129_4698" x1="5.68746" y1="-4.1444e-07" x2="24.4966" y2="61.1685" gradientUnits="userSpaceOnUse">
<stop stop-color="#FF7372"/>
<stop offset="0.484375" stop-color="#FF7372"/>
<stop offset="1" stop-color="#FF8C8B"/>
</linearGradient>
<linearGradient id="paint2_linear_129_4698" x1="4.42174" y1="25.3653" x2="10.8533" y2="40.8598" gradientUnits="userSpaceOnUse">
<stop stop-color="#FFB2D8"/>
<stop offset="0.458333" stop-color="#FFB2D8"/>
<stop offset="1" stop-color="#FFD9EC"/>
</linearGradient>
<linearGradient id="paint3_linear_129_4698" x1="30.1408" y1="27.8655" x2="34.453" y2="39.3266" gradientUnits="userSpaceOnUse">
<stop stop-color="#FFB2D8"/>
<stop offset="0.458333" stop-color="#FFB2D8"/>
<stop offset="1" stop-color="#FFD9EC"/>
</linearGradient>
<linearGradient id="paint4_linear_129_4698" x1="30.2898" y1="6.9705" x2="36.4292" y2="22.9273" gradientUnits="userSpaceOnUse">
<stop stop-color="#FFB2D8"/>
<stop offset="0.458333" stop-color="#FFB2D8"/>
<stop offset="1" stop-color="#FFD9EC"/>
</linearGradient>
<linearGradient id="paint5_linear_129_4698" x1="33.107" y1="49.6703" x2="37.3551" y2="62.7696" gradientUnits="userSpaceOnUse">
<stop stop-color="#FFB2D8"/>
<stop offset="0.458333" stop-color="#FFB2D8"/>
<stop offset="1" stop-color="#FFD9EC"/>
</linearGradient>
<linearGradient id="paint6_linear_129_4698" x1="48.4709" y1="30.7529" x2="52.6076" y2="44.2361" gradientUnits="userSpaceOnUse">
<stop stop-color="#FFB2D8"/>
<stop offset="0.458333" stop-color="#FFB2D8"/>
<stop offset="1" stop-color="#FFD9EC"/>
</linearGradient>
<linearGradient id="paint7_linear_129_4698" x1="3.67614" y1="48.422" x2="10.8885" y2="68.1349" gradientUnits="userSpaceOnUse">
<stop stop-color="#FFB2D8"/>
<stop offset="0.458333" stop-color="#FFB2D8"/>
<stop offset="1" stop-color="#FFD9EC"/>
</linearGradient>
</defs>
</svg>
