<svg width="77" height="80" viewBox="0 0 77 80" fill="none" xmlns="http://www.w3.org/2000/svg">
<path d="M53.0737 12.975C50.2057 20.9272 46.8911 28.7362 43.1767 36.3237L35.1307 31.2404C31.8468 25.2381 29.6395 18.6521 28.6544 11.8877L28.6543 11.887C28.3206 9.61789 28.1844 7.33216 29.1839 5.47114C30.5016 3.03557 33.4567 1.93421 36.3994 1.35214C40.5335 0.561726 44.7987 0.46318 48.9637 1.08875L48.9641 1.08882C50.0769 1.2549 51.1383 1.47817 52.012 2.02047C53.5997 3.00735 54.2396 4.70797 54.2875 6.7311C54.3355 8.75875 53.7814 11.0246 53.074 12.9741L53.0737 12.975Z" fill="#FFF8EC" stroke="black"/>
<path d="M51.2681 27.9682C54.1177 24.9893 56.9673 22.0103 59.8129 19.0313C60.7674 18.0353 61.8271 17.0244 62.9631 16.3365C64.095 15.651 65.2535 15.3152 66.4334 15.5847L66.4372 15.5856C68.0451 15.9396 69.2506 17.3454 70.2857 18.8814L70.2864 18.8824C73.3991 23.4775 75.4751 28.7658 76.3483 34.2353L76.3486 34.2375C76.5328 35.3593 76.6161 36.3967 76.193 37.257L76.1916 37.2599C75.7678 38.1357 74.8678 38.7404 73.8755 39.2531L73.8735 39.2541C65.4958 43.63 55.2858 42.6214 46.0129 40.0407L43.0285 36.5858C45.7725 33.7133 48.5202 30.8408 51.2681 27.9682Z" fill="#FFF8EC" stroke="black"/>
<path d="M30.5574 34.2209C28.343 28.5539 24.8963 23.3608 20.4885 19.1645L20.4882 19.1642C17.9828 16.7749 14.9941 14.7044 11.7243 14.8292C8.75041 14.9541 6.03135 16.9906 4.45636 19.6262C2.88087 22.2628 2.3044 25.407 2.08937 28.5658L30.5574 34.2209ZM30.5574 34.2209L28.1611 38.6623C23.2552 39.2102 18.3176 39.5333 13.3799 39.6314C10.0035 39.6986 6.48174 39.4755 4.28058 37.2743C2.16301 35.1568 1.87312 31.7766 2.08937 28.566L30.5574 34.2209Z" fill="#FFF8EC" stroke="black"/>
<path d="M2.48539 47.8521L2.48539 47.8522L2.48694 47.8503C3.68974 46.4496 5.60603 45.8428 7.58767 45.339C14.5337 43.5862 21.7554 42.8859 28.916 43.2702L31.9964 48.1348C31.6162 48.7795 31.235 49.4255 30.8532 50.0724C29.7948 51.8657 28.7324 53.6658 27.6786 55.4655C25.8348 58.5832 23.989 61.6936 21.3106 63.9662C18.6355 66.2359 14.97 67.541 11.7333 66.5563C8.48884 65.564 6.25579 62.6007 4.27812 59.5839L4.27799 59.5837C3.06627 57.7373 1.92953 55.5584 1.44984 53.449C0.971247 51.3444 1.15926 49.3817 2.48539 47.8521Z" fill="#FFF8EC" stroke="black"/>
<path d="M30.6097 78.2907L30.6121 78.2918C31.6239 78.7317 32.8261 78.6391 34.098 78.5035L30.6097 78.2907ZM30.6097 78.2907C29.4077 77.7756 28.7266 76.6802 28.4028 75.2732C28.0781 73.862 28.1333 72.208 28.3538 70.7298C29.3871 63.808 31.5415 57.0639 34.6886 50.8037L41.3345 48.787L47.7729 64.834L47.7732 64.8348C48.6116 66.9141 49.4095 68.9714 49.4895 71.1068C49.5526 73.2372 48.7527 75.4339 47.0526 76.508C45.9142 77.2211 44.512 77.4003 43.029 77.5519L43.0268 77.5522M30.6097 78.2907L43.0268 77.5522M43.0268 77.5522C41.5415 77.7107 40.0521 77.8692 38.5626 78.0278M43.0268 77.5522L38.5626 78.0278M38.5626 78.0278L38.5466 78.0295M38.5626 78.0278L38.5466 78.0295M38.5466 78.0295C37.0624 78.1875 35.5782 78.3455 34.0981 78.5034L38.5466 78.0295Z" fill="#FFF8EC" stroke="black"/>
<path d="M51.8281 62.4828L51.8276 62.4822C48.3089 57.7033 45.2095 52.618 42.5772 47.3058L45.2155 42.2855C52.6254 43.8905 59.937 46.0265 67.0552 48.6774L67.0585 48.6786C67.9451 49.0018 68.8351 49.3659 69.5863 49.853C70.334 50.3378 70.9146 50.9256 71.2225 51.6846L71.2229 51.6857C71.6422 52.7122 71.4816 53.9239 71.1984 55.1736C70.4121 58.5638 68.9538 61.7922 66.9539 64.6445L66.9533 64.6454C65.7351 66.3903 64.2493 67.9565 62.3483 68.5243C60.3706 69.1018 58.4264 68.5267 56.609 67.3152C54.7876 66.1009 53.1466 64.2793 51.8281 62.4828Z" fill="#FFF8EC" stroke="black"/>
<path d="M42.9922 52.2788C49.5237 49.5733 52.6253 42.0853 49.9199 35.5539C47.2144 29.0224 39.7264 25.9207 33.195 28.6262C26.6635 31.3316 23.5618 38.8196 26.2673 45.3511C28.9727 51.8826 36.4607 54.9842 42.9922 52.2788Z" fill="url(#paint0_linear_114_30094)"/>
<path d="M59.9354 26.7631C54.7618 29.5836 49.8551 32.838 45.1988 36.4596C44.7649 36.7934 44.8483 37.5277 45.1988 37.8949C45.616 38.3288 46.2001 38.2287 46.6341 37.8949C51.1402 34.3734 55.93 31.2525 60.9535 28.5155C62.0884 27.898 61.0703 26.1456 59.9354 26.7631Z" fill="#FF7D7C"/>
<path d="M57.5158 34.5403C52.7093 36.276 47.9529 38.1619 43.2298 40.1479C42.7291 40.3649 42.629 41.0992 42.8626 41.5332C43.163 42.0505 43.7472 42.1006 44.2478 41.9003C48.804 39.9811 53.3936 38.1786 58.0499 36.493C59.2682 36.0591 58.7341 34.1064 57.5158 34.5403Z" fill="#FF7D7C"/>
<path d="M40.0756 31.4695C39.0409 27.2805 38.5736 22.9746 38.7071 18.6688C38.7405 17.367 36.7211 17.367 36.6877 18.6688C36.5542 23.1582 37.0382 27.6477 38.123 32.0036C38.4401 33.2719 40.3927 32.7379 40.0756 31.4695Z" fill="#FF7D7C"/>
<path d="M40.9106 34.0897C41.3779 34.2232 42.0789 33.9228 42.1623 33.3887C42.7464 29.2498 43.3139 25.0942 43.898 20.9552C43.9814 20.4212 43.7645 19.8704 43.197 19.7035C42.7297 19.57 42.0288 19.8704 41.9453 20.4045C41.3612 24.5434 40.7938 28.6991 40.2096 32.838C40.1262 33.3721 40.3432 33.9228 40.9106 34.0897Z" fill="#FF7D7C"/>
<path d="M17.5282 34.6071C20.2652 35.3748 23.0023 36.1258 25.7226 36.8935C26.9743 37.244 27.5084 35.2914 26.2567 34.9409C23.5196 34.1732 20.7826 33.4222 18.0623 32.6545C16.8106 32.304 16.2765 34.2566 17.5282 34.6071Z" fill="#FF7D7C"/>
<path d="M29.6117 43.6026C25.5562 47.7082 21.1502 51.4633 16.4271 54.7845C15.3757 55.5355 16.377 57.2879 17.4451 56.5368C22.3017 53.1155 26.8579 49.277 31.0469 45.0379C31.9649 44.1033 30.5296 42.6847 29.6117 43.6026Z" fill="#FF7D7C"/>
<path d="M39.2744 53.2491C39.0408 52.7484 38.3231 52.6316 37.8892 52.8819C37.8058 52.932 37.7557 52.982 37.689 53.0321C37.6556 52.5815 37.6055 52.1309 37.5721 51.6636C37.4553 50.3785 35.4359 50.3618 35.5527 51.6636C35.9199 55.8025 36.2704 59.9415 36.6375 64.0804C36.7543 65.3655 38.7738 65.3822 38.6569 64.0804C38.3899 61.043 38.1229 58.0222 37.8559 54.9847C38.9073 57.2545 39.9587 59.5242 41.0101 61.794C41.2438 62.2947 41.9614 62.4115 42.3954 62.1611C42.896 61.8607 42.9962 61.2766 42.7625 60.7759C41.5943 58.2558 40.426 55.7524 39.2744 53.2324V53.2491Z" fill="#FF7675"/>
<path d="M47.4856 46.0226C47.0517 45.6888 46.4676 45.6054 46.0503 46.0226C45.6999 46.3731 45.6164 47.1074 46.0503 47.4579C49.2547 49.9947 52.4591 52.5314 55.6634 55.0682C56.0973 55.402 56.6815 55.4854 57.0987 55.0682C57.4492 54.7177 57.5326 53.9834 57.0987 53.6329C53.8943 51.0962 50.69 48.5594 47.4856 46.0226Z" fill="#FF7D7C"/>
<defs>
<linearGradient id="paint0_linear_114_30094" x1="23.7682" y1="32.5309" x2="41.9764" y2="54.7738" gradientUnits="userSpaceOnUse">
<stop stop-color="#FF7372"/>
<stop offset="0.484375" stop-color="#FF7372"/>
<stop offset="1" stop-color="#FF8C8B"/>
</linearGradient>
</defs>
</svg>
