<svg width="96" height="59" viewBox="0 0 96 59" fill="none" xmlns="http://www.w3.org/2000/svg">
<path d="M90.9158 23.5531L91.2756 23.2058L91.5849 23.5263L91.3022 23.8705L90.9158 23.5531ZM90.9158 23.5531C91.3022 23.8705 91.302 23.8707 91.3018 23.871L91.3009 23.872L91.298 23.8756L91.2868 23.8891L91.2438 23.9406C91.206 23.9857 91.1501 24.052 91.0764 24.1382C90.9289 24.3105 90.7104 24.5622 90.4241 24.8823C89.8514 25.5225 89.0074 26.4362 87.9183 27.5349C85.7404 29.7319 82.5799 32.6709 78.6468 35.6416C70.79 41.576 59.8019 47.6729 47.377 48.1729C34.9521 48.6728 23.5094 43.4749 15.2009 38.1874C11.0417 35.5406 7.65519 32.8632 5.30779 30.8471C4.13384 29.8388 3.2191 28.9952 2.59686 28.4028C2.28573 28.1065 2.04767 27.873 1.88686 27.713C1.80645 27.633 1.74535 27.5713 1.70407 27.5294L1.65709 27.4815L1.64487 27.4689L1.6416 27.4655L1.64068 27.4646C1.64042 27.4643 1.64024 27.4641 1.99995 27.1169M90.9158 23.5531C91.2756 23.2058 91.2754 23.2056 91.2751 23.2054L91.2742 23.2044L91.2709 23.201L91.2587 23.1885L91.2117 23.1405C91.1704 23.0986 91.1093 23.037 91.0289 22.957C90.8681 22.7969 90.6301 22.5634 90.3189 22.2672C89.6967 21.6747 88.7819 20.8312 87.608 19.8229C85.2606 17.8067 81.874 15.1294 77.7149 12.4825C69.4064 7.1951 57.9637 1.99712 45.5387 2.49707C33.1139 2.99701 22.1258 9.09397 14.269 15.0283C10.3359 17.999 7.17535 20.9381 4.99753 23.135C3.90838 24.2337 3.06435 25.1475 2.49172 25.7876C2.20539 26.1077 1.98686 26.3594 1.83942 26.5318C1.7657 26.6179 1.70975 26.6842 1.67197 26.7293L1.629 26.7808L1.61783 26.7943L1.61484 26.798L1.614 26.799C1.61376 26.7993 1.61359 26.7995 1.99995 27.1169M1.99995 27.1169L1.61359 26.7995L1.33086 27.1437L1.64024 27.4641L1.99995 27.1169Z" fill="#FFF8EC" stroke="black"/>
<path d="M63.1691 25.0475L63.1691 25.0475C62.7915 15.701 54.9082 8.43201 45.5785 8.80961L45.5784 8.80961C36.2319 9.18725 28.963 17.0704 29.3406 26.4002C29.7182 35.7467 37.6014 43.0157 46.9312 42.6381C56.2777 42.2605 63.5467 34.3773 63.1691 25.0475Z" fill="url(#paint0_linear_129_4841)" stroke="black"/>
<path d="M52.4901 34.1751C52.5273 35.0807 53.2817 35.7744 54.1892 35.7371C55.0949 35.6999 55.7885 34.9455 55.7512 34.038C55.714 33.1323 54.9597 32.4386 54.0521 32.4759C53.1464 32.5131 52.4528 33.2675 52.4901 34.1751Z" fill="url(#paint1_linear_129_4841)" stroke="black"/>
<path d="M2.72935 26.5868L90.067 23.0704C90.0001 22.958 89.9247 22.8333 89.8409 22.6972C89.4107 21.9992 88.7567 21.0014 87.8662 19.811C86.0847 17.4295 83.3591 14.2808 79.5874 11.2188C72.0511 5.1004 60.3301 -0.68038 43.5753 0.708493C26.7985 2.09919 16.5264 8.76831 10.4489 15.0616C7.40654 18.2121 5.40969 21.2745 4.17477 23.5454C3.55739 24.6808 3.13078 25.6177 2.85944 26.268C2.81123 26.3835 2.76794 26.4899 2.72935 26.5868Z" fill="url(#paint2_linear_129_4841)" stroke="black"/>
<path d="M16.7488 39.455C15.3881 42.9377 14.0274 46.4205 12.6666 49.9033C12.5047 50.3244 12.0997 50.616 11.6299 50.4864C11.225 50.373 10.8686 49.8709 11.0467 49.4497C12.4075 45.9669 13.7682 42.4842 15.1289 39.0014C15.2909 38.5802 15.6958 38.2886 16.1656 38.4182C16.5706 38.5316 16.927 39.0338 16.7488 39.455Z" fill="black"/>
<path d="M11.7808 36.3778C10.3229 38.6619 8.86503 40.9621 7.40712 43.2462C7.16414 43.635 6.66199 43.7807 6.25702 43.554C5.86824 43.3272 5.70625 42.7764 5.94923 42.4038C7.40713 40.1198 8.86501 37.8195 10.3229 35.5355C10.5659 35.1467 11.068 35.0009 11.473 35.2277C11.8618 35.4545 12.0238 36.0053 11.7808 36.3778Z" fill="black"/>
<path d="M24.1279 43.5353C23.5447 47.2287 22.2812 50.7924 20.4183 54.0484C19.8837 54.988 18.4096 54.1456 18.9604 53.1899C20.7585 50.0635 21.941 46.6455 22.508 43.0818C22.5728 42.6282 23.1397 42.3852 23.5447 42.4986C24.0306 42.6282 24.2089 43.0818 24.1279 43.5353Z" fill="black"/>
<path d="M30.6796 45.7351C30.5176 49.1531 29.7239 52.4577 28.3308 55.5679C28.1364 55.9891 27.537 56.0863 27.1807 55.8757C26.7595 55.6327 26.6947 55.1305 26.8729 54.7255C28.1364 51.8907 28.8491 48.8291 28.9949 45.7351C29.0435 44.6498 30.7282 44.6498 30.6796 45.7351Z" fill="black"/>
<path d="M40.342 48.6461C39.7589 51.5133 39.1757 54.3967 38.5763 57.2639C38.4791 57.7175 37.9608 57.9767 37.5396 57.8471C37.0699 57.7175 36.8593 57.2639 36.9564 56.8103C37.5396 53.9431 38.1228 51.0597 38.7221 48.1925C38.8193 47.7389 39.3377 47.4798 39.7589 47.6093C40.2286 47.7389 40.4392 48.1925 40.342 48.6461Z" fill="black"/>
<path d="M46.7253 49.0305C47.0978 51.8977 47.4542 54.7649 47.8268 57.6321C47.8916 58.0857 47.3894 58.4744 46.9844 58.4744C46.4822 58.4744 46.1907 58.0857 46.1421 57.6321C45.7695 54.7649 45.4131 51.8977 45.0406 49.0305C44.9758 48.5769 45.4779 48.1881 45.8829 48.1881C46.3851 48.1881 46.6767 48.5769 46.7253 49.0305Z" fill="black"/>
<path d="M55.5176 46.804C57.2995 48.8937 58.3525 51.5179 58.4497 54.2879C58.4659 54.7415 58.0447 55.1303 57.6073 55.1303C57.1375 55.1303 56.7812 54.7415 56.765 54.2879C56.684 52.0039 55.8254 49.7522 54.3351 48.0027C54.0436 47.6626 53.995 47.1442 54.3351 46.804C54.6429 46.4962 55.2261 46.4476 55.5338 46.804H55.5176Z" fill="black"/>
<path d="M64.4374 44.3476C66.9321 46.5182 68.7787 49.353 69.8479 52.4794C69.9937 52.9168 69.6859 53.4028 69.2647 53.5162C68.795 53.6457 68.3738 53.3542 68.228 52.933C67.256 50.082 65.5228 47.5388 63.2549 45.5463C62.9147 45.2385 62.9471 44.6553 63.2549 44.3476C63.5951 44.0074 64.1135 44.0398 64.4537 44.3476H64.4374Z" fill="black"/>
<path d="M71.9346 40.2701C73.8947 42.6189 75.8547 44.9677 77.8148 47.3166C78.1064 47.673 78.155 48.1751 77.8148 48.5153C77.507 48.8231 76.9077 48.8717 76.6161 48.5153C74.656 46.1665 72.6959 43.8176 70.7359 41.4688C70.4443 41.1124 70.3957 40.6102 70.7359 40.2701C71.0436 39.9623 71.643 39.9137 71.9346 40.2701Z" fill="black"/>
<path d="M79.1534 36.347C81.0811 38.8903 83.6891 40.8665 86.6211 42.13C87.0423 42.3082 87.1395 42.9238 86.9289 43.2802C86.6697 43.7175 86.1999 43.7661 85.7788 43.5879C82.5714 42.211 79.8013 39.9756 77.7117 37.2056C77.4363 36.8492 77.6469 36.266 78.0195 36.0554C78.4568 35.7963 78.8942 35.9906 79.1696 36.3632L79.1534 36.347Z" fill="black"/>
<path d="M85.2798 31.1295C88.4548 32.555 91.6136 33.9805 94.7886 35.406C95.2098 35.6004 95.307 36.1997 95.0964 36.5561C94.8534 36.9773 94.3512 37.0421 93.9462 36.8639C90.7713 35.4384 87.6125 34.0129 84.4375 32.5874C84.0163 32.393 83.9191 31.7936 84.1297 31.4372C84.3727 31.0161 84.8749 30.9513 85.2798 31.1295Z" fill="black"/>
<defs>
<linearGradient id="paint0_linear_129_4841" x1="62.8307" y1="10.2714" x2="12.8164" y2="29.3502" gradientUnits="userSpaceOnUse">
<stop stop-color="#8CB6F3"/>
<stop offset="0.419064" stop-color="#8CB6F3"/>
<stop offset="0.979167" stop-color="#CEE0FB"/>
</linearGradient>
<linearGradient id="paint1_linear_129_4841" x1="55.627" y1="32.1293" x2="54.0065" y2="36.3978" gradientUnits="userSpaceOnUse">
<stop stop-color="#FFB2D8"/>
<stop offset="0.458333" stop-color="#FFB2D8"/>
<stop offset="1" stop-color="#FFD9EC"/>
</linearGradient>
<linearGradient id="paint2_linear_129_4841" x1="85.6002" y1="1.80098" x2="80.4876" y2="37.8399" gradientUnits="userSpaceOnUse">
<stop stop-color="#E7B12D"/>
<stop offset="0.476697" stop-color="#F7C651"/>
<stop offset="0.904587" stop-color="#FFDE8C"/>
</linearGradient>
</defs>
</svg>
