<svg width="75" height="113" viewBox="0 0 75 113" fill="none" xmlns="http://www.w3.org/2000/svg">
<path d="M68.555 69.8359L68.4966 70.027L68.5073 70.0486C64.782 82.1871 60.438 94.1317 52.6076 103.828L52.6075 103.829C46.0658 111.934 35.9236 113.378 26.3589 110.308C16.7869 107.235 7.89428 99.6626 3.98129 89.8988L3.51717 90.0848L3.98128 89.8988C2.96685 87.3681 1.72246 82.7832 1.02954 77.6937C0.336007 72.5997 0.203385 67.0593 1.36985 62.5958L1.36992 62.5956C1.82246 60.8601 2.34748 58.2772 2.96092 55.2592C3.15657 54.2966 3.36121 53.2899 3.57536 52.2522C4.46374 47.9477 5.52022 43.0881 6.79001 38.5647C8.06206 34.0332 9.53841 29.8757 11.255 26.9572C12.9978 23.994 14.8463 22.5349 16.818 22.8657C17.6723 23.0093 18.3062 23.4094 18.7831 24.0124C19.2693 24.6271 19.6079 25.4738 19.8141 26.5213C20.2278 28.6231 20.0821 31.3904 19.6954 34.3058C19.3569 36.8577 18.8406 39.4792 18.3816 41.8096C18.3179 42.1332 18.2553 42.4511 18.1944 42.7625C17.9455 44.0352 17.725 45.2015 17.5795 46.1829C17.4358 47.1521 17.3576 47.9876 17.4143 48.5789L17.4143 48.5795C17.8478 53.0503 24.0719 53.6965 25.4437 49.4354C25.6213 48.8916 25.776 48.3497 25.9189 47.8114L25.9194 47.8092C26.8785 44.1253 27.7283 40.3831 28.5722 36.6424C28.6114 36.4687 28.6506 36.2951 28.6897 36.1214C29.4948 32.5521 30.299 28.9867 31.1945 25.464C33.0729 18.0753 35.347 10.901 38.8472 4.34276L38.8475 4.34227C40.4857 1.26475 45.187 2.37058 45.2775 5.86403V5.86407V5.86426V5.86445V5.86464V5.86483V5.86502V5.86521V5.8654V5.8656V5.86579V5.86598V5.86617V5.86636V5.86655V5.86674V5.86693V5.86712V5.86732V5.86751V5.8677V5.86789V5.86808V5.86827V5.86846V5.86865V5.86884V5.86904V5.86923V5.86942V5.86961V5.8698V5.86999V5.87018V5.87037V5.87056V5.87076V5.87095V5.87114V5.87133V5.87152V5.87171V5.8719V5.87209V5.87228V5.87248V5.87267V5.87286V5.87305V5.87324V5.87343V5.87362V5.87381V5.874V5.8742V5.87439V5.87458V5.87477V5.87496V5.87515V5.87534V5.87553V5.87572V5.87592V5.87611V5.8763V5.87649V5.87668V5.87687V5.87706V5.87725V5.87744V5.87764V5.87783V5.87802V5.87821V5.8784V5.87859V5.87878V5.87897V5.87916V5.87936V5.87955V5.87974V5.87993V5.88012V5.88031V5.8805V5.88069V5.88088V5.88108V5.88127V5.88146V5.88165V5.88184V5.88203V5.88222V5.88241V5.8826V5.8828V5.88299V5.88318V5.88337V5.88356V5.88375V5.88394V5.88413V5.88432V5.88452V5.88471V5.8849V5.88509V5.88528V5.88547V5.88566V5.88585V5.88604V5.88624V5.88643V5.88662V5.88681V5.887V5.88719V5.88738V5.88757V5.88776V5.88796V5.88815V5.88834V5.88853V5.88872V5.88891V5.8891V5.88929V5.88948V5.88968V5.88987V5.89006V5.89025V5.89044V5.89063V5.89082V5.89101V5.8912V5.8914V5.89159V5.89178V5.89197V5.89216V5.89235V5.89254V5.89273V5.89292V5.89312V5.89331V5.8935V5.89369V5.89388V5.89407V5.89426V5.89445V5.89464V5.89484V5.89503V5.89522V5.89541V5.8956V5.89579V5.89598V5.89617V5.89637V5.89656V5.89675V5.89694V5.89713V5.89732V5.89751V5.8977V5.89789V5.89809V5.89828V5.89847V5.89866V5.89885V5.89904V5.89923V5.89942V5.89961V5.89981V5.9V5.90019V5.90038V5.90057V5.90076V5.90095V5.90114V5.90133V5.90153V5.90172V5.90191V5.9021V5.90229V5.90248V5.90267V5.90286V5.90305V5.90324V5.90344V5.90363V5.90382V5.90401V5.9042V5.90439V5.90458V5.90477V5.90496V5.90516V5.90535V5.90554V5.90573V5.90592V5.90611V5.9063V5.90649V5.90668V5.90688V5.90707V5.90726V5.90745V5.90764V5.90783V5.90802V5.90821V5.90841V5.9086V5.90879V5.90898V5.90917V5.90936V5.90955V5.90974V5.90993V5.91013V5.91032V5.91051V5.9107V5.91089V5.91108V5.91127V5.91146V5.91165V5.91185V5.91204V5.91223V5.91242V5.91261V5.9128V5.91299V5.91318V5.91337V5.91357V5.91376V5.91395V5.91414V5.91433V5.91452V5.91471V5.9149V5.91509V5.91529V5.91548V5.91567V5.91586V5.91605V5.91624V5.91643V5.91662V5.91681V5.91701V5.9172V5.91739V5.91758V5.91777V5.91796V5.91815V5.91834V5.91853V5.91873V5.91892V5.91911V5.9193V5.91949V5.91968V5.91987V5.92006V5.92025V5.92045V5.92064V5.92083V5.92102V5.92121V5.9214V5.92159V5.92178V5.92197V5.92217V5.92236V5.92255V5.92274V5.92293V5.92312V5.92331V5.9235V5.92369V5.92389V5.92408V5.92427V5.92446V5.92465V5.92484V5.92503V5.92522V5.92541V5.92561V5.9258V5.92599V5.92618V5.92637V5.92656V5.92675V5.92694V5.92713V5.92733V5.92752V5.92771V5.9279V5.92809V5.92828V5.92847V5.92866V5.92885V5.92905V5.92924V5.92943V5.92962V5.92981V5.93V5.93019V5.93038V5.93057V5.93077V5.93096V5.93115V5.93134V5.93153V5.93172V5.93191V5.9321V5.93229V5.93249V5.93268V5.93287V5.93306V5.93325V5.93344V5.93363V5.93382V5.93401V5.93421V5.9344V5.93459V5.93478V5.93497V5.93516V5.93535V5.93554V5.93573V5.93593V5.93612V5.93631V5.9365V5.93669V5.93688V5.93707V5.93726V5.93745V5.93765V5.93784V5.93803V5.93822V5.93841V5.9386V5.93879V5.93898V5.93917V5.93937V5.93956V5.93975V5.93994V5.94013V5.94032V5.94051V5.9407V5.94089V5.94109V5.94128V5.94147V5.94166V5.94185V5.94204V5.94223V5.94242V5.94261V5.94281V5.943V5.94319V5.94338V5.94357V5.94376V5.94395V5.94414V5.94433V5.94453V5.94472V5.94491V5.9451V5.94529V5.94548V5.94567V5.94586V5.94605V5.94625V5.94644V5.94663V5.94682V5.94701V5.9472V5.94739V5.94758V5.94777V5.94797V5.94816V5.94835V5.94854V5.94873V5.94892V5.94911V5.9493V5.94949V5.94969V5.94988V5.95007V5.95026V5.95045V5.95064V5.95083V5.95102V5.95121V5.95141V5.9516V5.95179V5.95198V5.95217V5.95236V5.95255V5.95274V5.95293V5.95313V5.95332V5.95351V5.9537V5.95389V5.95408V5.95427V5.95446V5.95465V5.95485V5.95504V5.95523V5.95542V5.95561H45.2773L45.2776 5.96711C45.401 11.333 43.9865 18.8426 42.2836 26.3941C41.6745 29.0949 41.0284 31.8017 40.4057 34.4102C39.8304 36.8205 39.275 39.1468 38.7875 41.3071C38.2448 43.6879 37.8464 45.6118 37.6411 46.8397L38.6264 47.0106C38.9176 45.392 39.3012 43.5757 39.742 41.6191C40.9 36.53 42.7364 29.2793 44.7615 22.2778C46.2351 17.183 47.8049 12.2333 49.281 8.35444C50.0194 6.41416 50.7306 4.75201 51.3907 3.47727C52.0632 2.17833 52.6451 1.35856 53.1001 1.01798C54.511 -0.0356333 56.5311 0.58885 57.0535 2.23551C57.5922 3.96687 57.65 5.99396 57.5959 7.90936C57.4441 13.1613 55.8726 20.4356 54.0402 27.7929C53.8288 28.3807 53.6209 28.9708 53.4169 29.5619C50.9873 36.6015 49.1041 43.8324 48.801 48.9255L49.7906 49.0523C50.5083 45.4268 51.7124 40.8065 53.0066 35.8406C53.6181 33.4942 54.2498 31.0706 54.8597 28.6384C54.906 28.4536 54.9522 28.2687 54.9983 28.0838C57.2904 21.717 59.9741 15.6518 62.2801 11.6409L62.2804 11.6403C63.6379 9.27166 67.2646 10.433 67.0025 13.1263L67.0002 13.1505V13.1748V13.1749V13.175V13.1751V13.1753V13.1754V13.1755V13.1757V13.1758V13.1759V13.176V13.1762V13.1763V13.1764V13.1766V13.1767V13.1768V13.177V13.1771V13.1772V13.1774V13.1775V13.1776V13.1778V13.1779V13.178V13.1782V13.1783V13.1784V13.1786V13.1787V13.1788V13.179V13.1791V13.1792V13.1794V13.1795V13.1796V13.1798V13.1799V13.18V13.1802V13.1803V13.1805V13.1806V13.1807V13.1809V13.181V13.1811V13.1813V13.1814V13.1816V13.1817V13.1818V13.182V13.1821V13.1823V13.1824V13.1825V13.1827V13.1828V13.183V13.1831V13.1832V13.1834V13.1835V13.1837V13.1838V13.1839V13.1841V13.1842V13.1844V13.1845V13.1847V13.1848V13.1849V13.1851V13.1852V13.1854V13.1855V13.1857V13.1858V13.186V13.1861V13.1862V13.1864V13.1865V13.1867V13.1868V13.187V13.1871V13.1873V13.1874V13.1876V13.1877V13.1878V13.188V13.1881V13.1883V13.1884V13.1886V13.1887V13.1889V13.189V13.1892V13.1893V13.1895V13.1896V13.1898V13.1899V13.1901V13.1902V13.1904V13.1905V13.1907V13.1908V13.191V13.1911V13.1913V13.1914V13.1916V13.1917V13.1919V13.192V13.1922V13.1923V13.1925V13.1926V13.1928V13.1929V13.1931V13.1932V13.1934V13.1935V13.1937V13.1938V13.194V13.1941V13.1943V13.1944V13.1946V13.1947V13.1949V13.195V13.1952V13.1954V13.1955V13.1957V13.1958V13.196V13.1961V13.1963V13.1964V13.1966V13.1967V13.1969V13.197V13.1972V13.1974V13.1975V13.1977V13.1978V13.198V13.1981V13.1983V13.1984V13.1986V13.1988V13.1989V13.1991V13.1992V13.1994V13.1995V13.1997V13.1998V13.2V13.2002V13.2003V13.2005V13.2006V13.2008V13.2009V13.2011V13.2012V13.2014V13.2016V13.2017V13.2019V13.202V13.2022V13.2023V13.2025V13.2027V13.2028V13.203V13.2031V13.2033V13.2034V13.2036V13.2038V13.2039V13.2041V13.2042V13.2044V13.2046V13.2047V13.2049V13.205V13.2052V13.2053V13.2055V13.2057V13.2058V13.206V13.2061V13.2063V13.2065V13.2066V13.2068V13.2069V13.2071V13.2072V13.2074V13.2076V13.2077V13.2079V13.208V13.2082V13.2084V13.2085V13.2087V13.2088V13.209V13.2092V13.2093V13.2095V13.2096V13.2098V13.2099V13.2101V13.2103V13.2104V13.2106V13.2107V13.2109V13.2111V13.2112V13.2114V13.2115V13.2117V13.2119V13.212V13.2122V13.2123V13.2125V13.2127V13.2128V13.213V13.2131V13.2133V13.2134V13.2136V13.2138V13.2139V13.2141V13.2142V13.2144V13.2146V13.2147V13.2149V13.215V13.2152V13.2154V13.2155V13.2157V13.2158V13.216V13.2162V13.2163V13.2165V13.2166V13.2168V13.2169V13.2171V13.2173V13.2174V13.2176V13.2177V13.2179V13.2181V13.2182V13.2184V13.2185V13.2187V13.2189V13.219V13.2192V13.2193V13.2195V13.2196V13.2198V13.22V13.2201V13.2203V13.2204V13.2206V13.2208V13.2209V13.2211V13.2212V13.2214V13.2215V13.2217V13.2219V13.222V13.2222V13.2223V13.2225V13.2226V13.2228V13.223V13.2231V13.2233V13.2234V13.2236V13.2237V13.2239V13.2241V13.2242V13.2244C66.4632 18.2499 64.7653 25.6186 62.9123 33.0008C62.2324 35.7094 61.5316 38.4199 60.8614 41.012C59.9248 44.6344 59.048 48.0257 58.3715 50.8576C58.1939 51.5505 58.0458 52.1856 57.9318 52.7482L58.9096 52.9574C59.0422 52.3691 59.1871 51.7474 59.3427 51.096C60.3225 47.2774 62.2321 41.6183 64.3161 36.6693C65.5434 33.7547 66.8216 31.1099 67.9943 29.2426C68.5824 28.3061 69.1289 27.5898 69.6129 27.1334C70.122 26.6533 70.4436 26.5705 70.6112 26.6033L70.6116 26.6034C71.4454 26.7664 72.1246 27.3141 72.6669 28.2639C73.2148 29.2236 73.6008 30.5603 73.8358 32.2077C74.3055 35.4992 74.1536 39.884 73.642 44.589C72.6196 53.9903 70.1776 64.53 68.555 69.8359Z" fill="url(#paint0_linear_129_4858)" stroke="black"/>
<path d="M55.4211 81.833L55.6911 82.2538L56.0659 82.0134L55.8703 81.6134L55.4211 81.833ZM55.4211 81.833C55.6911 82.2538 55.691 82.2539 55.6908 82.254L55.6901 82.2544L55.6881 82.2557L55.6811 82.2602L55.6552 82.2765C55.6327 82.2907 55.5998 82.3112 55.5568 82.3375C55.4709 82.3903 55.3447 82.4664 55.1812 82.5619C54.8542 82.7527 54.3775 83.0208 53.7739 83.3328C52.5673 83.9564 50.8504 84.757 48.8062 85.4664C44.7291 86.8813 39.293 87.953 33.9987 86.4677C28.7043 84.9877 24.6149 81.2494 21.8647 77.9237C20.4858 76.2562 19.434 74.6808 18.7263 73.5216C18.3723 72.9417 18.104 72.4651 17.9236 72.1323C17.8333 71.9659 17.765 71.8353 17.719 71.7456C17.6959 71.7008 17.6784 71.6662 17.6665 71.6424L17.6529 71.615L17.6492 71.6076L17.6481 71.6054L17.6478 71.6048C17.6477 71.6045 17.6476 71.6043 18.0968 71.3848M55.4211 81.833C55.8703 81.6134 55.8702 81.6132 55.8701 81.613L55.8698 81.6123L55.8687 81.6101L55.8651 81.6027L55.8514 81.5753C55.8395 81.5515 55.822 81.5169 55.799 81.4721C55.7529 81.3824 55.6846 81.2519 55.5944 81.0854C55.4139 80.7526 55.1456 80.276 54.7916 79.6961C54.084 78.5369 53.0321 76.9615 51.6533 75.2941C48.9032 71.9684 44.8139 68.2302 39.5197 66.7502C34.2253 65.2646 28.7889 66.3363 24.7117 67.7513C22.6676 68.4607 20.9506 69.2613 19.744 69.8849C19.1404 70.1969 18.6637 70.465 18.3367 70.6558C18.1732 70.7513 18.0471 70.8274 17.9611 70.8802C17.9182 70.9065 17.8853 70.927 17.8628 70.9412L17.8368 70.9575L17.8298 70.962L17.8278 70.9633L17.8272 70.9637C17.827 70.9638 17.8268 70.9639 18.0968 71.3848M18.0968 71.3848L17.8268 70.9639L17.4521 71.2043L17.6476 71.6043L18.0968 71.3848Z" fill="#FFF8EC" stroke="black"/>
<path d="M34.6181 84.5868L34.6184 84.5869C38.928 85.7917 43.3903 83.2891 44.5956 78.9778C45.8004 74.6682 43.2977 70.206 38.9865 69.0007C34.6769 67.7958 30.2147 70.2985 29.0094 74.6097C27.8043 78.92 30.3187 83.3816 34.6181 84.5868Z" fill="#FF7372" stroke="black"/>
<path d="M39.4997 76.3562C40.7348 76.7032 42.0099 75.9808 42.3559 74.7489C42.7029 73.5138 41.9805 72.2387 40.7486 71.8927C39.5135 71.5457 38.2384 72.2681 37.8923 73.5C37.5454 74.7351 38.2678 76.0102 39.4997 76.3562Z" fill="#FFF8EC" stroke="black"/>
<defs>
<linearGradient id="paint0_linear_129_4858" x1="10.9494" y1="4.07785" x2="66.3483" y2="101.042" gradientUnits="userSpaceOnUse">
<stop stop-color="#FFB2D8"/>
<stop offset="0.458333" stop-color="#FFB2D8"/>
<stop offset="1" stop-color="#FFD9EC"/>
</linearGradient>
</defs>
</svg>
