<svg width="553" height="502" viewBox="0 0 553 502" fill="none" xmlns="http://www.w3.org/2000/svg">
<path d="M153.74 478.85C213.489 466.107 251.594 407.34 238.85 347.591C226.107 287.843 167.34 249.737 107.591 262.481C47.8426 275.225 9.73742 333.991 22.481 393.74C35.2246 453.489 93.9912 491.594 153.74 478.85Z" fill="#FFF8EC" stroke="black"/>
<path d="M203.888 397.844C169.567 380.236 122.002 371.735 84.1757 379.58L89.7269 363.832C106.738 351.592 128.735 347.173 149.597 349.647C170.371 352.111 196.049 363.571 213.229 375.737C211.46 379.369 209.989 383.124 208.527 386.857L208.523 386.866C207.068 390.582 205.621 394.276 203.888 397.844Z" fill="url(#paint0_linear_22_411)" stroke="black"/>
<path d="M88.8259 375.758L91.2796 363.865C105.997 345.788 131.238 339.737 154.733 339.703C166.982 339.693 179.528 341.097 190.243 346.836L190.243 346.836C198.567 351.277 210.774 360.4 217.069 367.404C217.052 367.415 217.034 367.427 217.014 367.44C217.005 367.446 216.995 367.452 216.986 367.459C216.849 367.548 216.627 367.694 216.462 367.904C216.26 368.163 216.153 368.498 216.229 368.91C216.337 369.499 216.169 370.082 215.831 370.711C215.595 371.15 215.307 371.562 215.006 371.991C214.862 372.197 214.715 372.406 214.57 372.625L214.57 372.625C213.228 374.644 212.502 376.919 211.801 379.116L211.791 379.147C211.135 381.202 210.498 383.189 209.417 384.971C192.99 372.648 171.591 365.262 149.878 363.528C128.362 361.81 106.499 365.638 88.8259 375.758ZM217.155 367.513C217.155 367.513 217.154 367.511 217.153 367.508C217.154 367.511 217.155 367.513 217.155 367.513Z" fill="url(#paint1_linear_22_411)" stroke="black"/>
<path d="M87.4636 352.843L87.3751 352.919L87.3294 353.026L87.3239 353.039L87.293 353.112L87.2861 353.191L85.8519 369.399L85.7449 370.609L86.6726 369.825C104.28 354.958 127.46 346.842 150.507 347.473C173.554 348.105 197.611 358.057 214.382 373.881L214.864 374.336L215.169 373.747C216.65 370.891 217.79 367.895 218.918 364.93L218.923 364.917C220.056 361.939 221.177 358.992 222.63 356.191L222.824 355.817L222.488 355.562C210.874 346.787 197.22 341.171 183.498 336.522C161.95 329.204 141.246 327.39 120.105 336.028C118.882 336.527 117.636 337.029 116.376 337.536C106.4 341.549 95.5017 345.933 87.4636 352.843Z" fill="#FF7372" stroke="black"/>
<path d="M52.1488 342.8L58.4251 368.401L58.4878 368.657L58.312 368.854C53.0222 374.764 47.7441 380.68 42.4663 386.596C52.7835 387.495 63.202 387.236 73.4559 385.83L73.9227 385.766L74.0143 386.228C75.8336 395.408 78.9977 404.322 83.3302 412.623C85.0635 408.353 87.6224 402.082 89.9 396.653C91.1306 393.719 92.2805 391.028 93.1741 389.03C93.6205 388.032 94.0052 387.202 94.3052 386.599C94.4547 386.299 94.5865 386.048 94.6965 385.859C94.7513 385.765 94.8044 385.68 94.8548 385.609C94.8967 385.55 94.964 385.46 95.0514 385.392L52.1488 342.8ZM52.1488 342.8L72.7052 353.18L72.6399 353.22L73.5373 353.601L73.563 353.612L73.7606 353.187L73.9924 353.569C74.1472 353.475 76.3831 352.112 79.6469 350.122C86.0185 346.239 96.3075 339.967 102.679 336.086C102.481 340.743 102.187 347.854 102.002 354.111C101.904 357.457 101.836 360.563 101.832 362.92C101.83 364.098 101.843 365.095 101.877 365.843C101.894 366.217 101.916 366.536 101.945 366.787C101.971 367.016 102.008 367.253 102.081 367.418C102.143 367.56 102.257 367.72 102.375 367.871C102.502 368.033 102.667 368.226 102.862 368.444C103.253 368.879 103.782 369.431 104.411 370.065C105.668 371.335 107.341 372.954 109.145 374.67C112.351 377.721 115.981 381.089 118.447 383.373C114.901 383.563 109.737 383.851 105.183 384.174C102.639 384.354 100.281 384.545 98.4987 384.735C97.6088 384.83 96.8553 384.926 96.2919 385.021C96.011 385.069 95.7683 385.118 95.5758 385.169C95.4796 385.195 95.3884 385.223 95.3074 385.254C95.234 385.282 95.1384 385.325 95.0535 385.391L52.1488 342.8Z" fill="url(#paint2_linear_22_411)" stroke="black"/>
<path d="M271.74 238.85C331.489 226.107 369.594 167.34 356.85 107.591C344.107 47.8425 285.34 9.73736 225.591 22.4809C165.843 35.2245 127.737 93.9911 140.481 153.74C153.225 213.489 211.991 251.594 271.74 238.85Z" fill="#FFF8EC" stroke="black"/>
<path d="M180.711 120.866L180.352 120.519L180.042 120.839L180.325 121.183L180.711 120.866ZM180.711 120.866C180.325 121.183 180.325 121.184 180.326 121.184L180.327 121.185L180.331 121.191L180.348 121.211C180.363 121.229 180.385 121.256 180.415 121.291C180.473 121.361 180.56 121.464 180.675 121.598C180.904 121.866 181.245 122.259 181.692 122.758C182.585 123.757 183.903 125.183 185.604 126.899C189.006 130.331 193.942 134.922 200.085 139.562C212.362 148.834 229.506 158.34 248.871 159.119C268.236 159.898 286.088 151.795 299.07 143.533C305.567 139.399 310.856 135.217 314.523 132.068C316.356 130.493 317.785 129.176 318.755 128.252C319.241 127.79 319.612 127.426 319.862 127.177C319.987 127.052 320.082 126.956 320.146 126.891C320.178 126.859 320.202 126.834 320.219 126.817L320.237 126.798L320.242 126.793L320.244 126.792C320.244 126.792 320.244 126.791 319.885 126.444M180.711 120.866C180.352 120.519 180.352 120.518 180.352 120.518L180.354 120.517L180.358 120.512L180.377 120.492C180.394 120.476 180.418 120.451 180.45 120.418C180.514 120.353 180.609 120.258 180.734 120.133C180.984 119.884 181.355 119.52 181.841 119.058C182.811 118.133 184.24 116.816 186.073 115.242C189.74 112.093 195.029 107.911 201.526 103.776C214.508 95.5144 232.36 87.4117 251.725 88.1909C271.09 88.9701 288.234 98.4754 300.51 107.748C306.654 112.388 311.59 116.979 314.992 120.411C316.693 122.126 318.011 123.553 318.904 124.552C319.351 125.051 319.692 125.444 319.921 125.712C320.036 125.846 320.123 125.949 320.181 126.019C320.204 126.046 320.222 126.067 320.236 126.084L320.248 126.099L320.265 126.119L320.269 126.125L320.27 126.126C320.271 126.126 320.271 126.127 319.885 126.444M319.885 126.444L320.271 126.127L320.554 126.471L320.244 126.791L319.885 126.444Z" fill="#FFF8EC" stroke="black"/>
<path d="M223.859 123.194L223.859 123.194C224.456 108.408 236.926 96.9093 251.686 97.5066L251.686 97.5066C266.471 98.104 277.97 110.574 277.373 125.334C276.775 140.119 264.305 151.618 249.546 151.021C234.76 150.423 223.261 137.953 223.859 123.194Z" fill="url(#paint3_linear_22_411)" stroke="black"/>
<path d="M241.138 137.503C241.074 139.077 239.761 140.284 238.185 140.219C236.611 140.154 235.405 138.841 235.469 137.266C235.534 135.691 236.847 134.485 238.423 134.55C239.997 134.615 241.203 135.927 241.138 137.503Z" fill="url(#paint4_linear_22_411)" stroke="black"/>
<path d="M319.163 125.914L181.558 120.374C181.711 120.108 181.91 119.773 182.153 119.378C182.831 118.279 183.859 116.71 185.259 114.839C188.058 111.097 192.34 106.151 198.265 101.341C210.108 91.7257 228.524 82.6464 254.833 84.8273C281.164 87.01 297.305 97.4811 306.863 107.378C311.646 112.331 314.786 117.146 316.729 120.719C317.7 122.505 318.372 123.98 318.8 125.006C318.95 125.366 319.07 125.671 319.163 125.914Z" fill="url(#paint5_linear_22_411)" stroke="black"/>
<path d="M296.799 145.756C298.929 151.207 301.059 156.658 303.189 162.11C303.442 162.769 304.076 163.225 304.811 163.022C305.445 162.845 306.003 162.059 305.724 161.4C303.594 155.948 301.465 150.497 299.335 145.046C299.081 144.387 298.447 143.93 297.712 144.133C297.078 144.311 296.52 145.097 296.799 145.756Z" fill="black"/>
<path d="M304.576 140.939C306.857 144.514 309.139 148.115 311.421 151.69C311.802 152.298 312.588 152.527 313.221 152.172C313.83 151.817 314.084 150.955 313.703 150.371C311.421 146.796 309.139 143.196 306.857 139.621C306.477 139.012 305.691 138.784 305.057 139.139C304.449 139.494 304.195 140.356 304.576 140.939Z" fill="black"/>
<path d="M285.25 152.142C286.162 157.923 288.14 163.501 291.056 168.598C291.893 170.068 294.2 168.75 293.338 167.254C290.523 162.36 288.673 157.01 287.785 151.432C287.684 150.722 286.796 150.342 286.162 150.52C285.402 150.722 285.123 151.432 285.25 152.142Z" fill="black"/>
<path d="M274.995 155.586C275.248 160.935 276.491 166.108 278.671 170.976C278.976 171.635 279.914 171.787 280.471 171.458C281.131 171.077 281.232 170.291 280.953 169.658C278.976 165.22 277.86 160.428 277.632 155.586C277.556 153.887 274.919 153.887 274.995 155.586Z" fill="black"/>
<path d="M259.871 160.142C260.784 164.63 261.696 169.143 262.634 173.631C262.787 174.341 263.598 174.746 264.257 174.544C264.992 174.341 265.322 173.631 265.17 172.921C264.257 168.433 263.344 163.92 262.406 159.432C262.254 158.722 261.443 158.316 260.784 158.519C260.048 158.722 259.719 159.432 259.871 160.142Z" fill="black"/>
<path d="M249.88 160.744C249.297 165.231 248.739 169.719 248.156 174.207C248.054 174.917 248.841 175.525 249.474 175.525C250.26 175.525 250.717 174.917 250.793 174.207C251.376 169.719 251.934 165.231 252.517 160.744C252.618 160.034 251.832 159.425 251.198 159.425C250.412 159.425 249.956 160.034 249.88 160.744Z" fill="black"/>
<path d="M236.118 157.259C233.329 160.53 231.681 164.637 231.529 168.973C231.503 169.683 232.162 170.291 232.847 170.291C233.582 170.291 234.14 169.683 234.165 168.973C234.292 165.398 235.636 161.873 237.969 159.135C238.425 158.603 238.501 157.791 237.969 157.259C237.487 156.777 236.574 156.701 236.092 157.259H236.118Z" fill="black"/>
<path d="M222.156 153.414C218.252 156.811 215.361 161.248 213.688 166.142C213.46 166.827 213.941 167.587 214.601 167.765C215.336 167.967 215.995 167.511 216.223 166.852C217.745 162.389 220.458 158.409 224.007 155.29C224.54 154.808 224.489 153.896 224.007 153.414C223.475 152.881 222.663 152.932 222.131 153.414H222.156Z" fill="black"/>
<path d="M210.421 147.031C207.353 150.708 204.285 154.384 201.218 158.061C200.761 158.619 200.685 159.405 201.218 159.937C201.699 160.419 202.637 160.495 203.094 159.937C206.162 156.261 209.23 152.584 212.298 148.908C212.754 148.35 212.83 147.564 212.298 147.031C211.816 146.55 210.878 146.474 210.421 147.031Z" fill="black"/>
<path d="M199.122 140.891C196.105 144.872 192.023 147.965 187.434 149.943C186.774 150.222 186.622 151.185 186.952 151.743C187.358 152.428 188.093 152.504 188.752 152.225C193.772 150.07 198.108 146.571 201.379 142.235C201.81 141.677 201.48 140.764 200.897 140.435C200.212 140.029 199.528 140.333 199.097 140.917L199.122 140.891Z" fill="black"/>
<path d="M189.533 132.724C184.564 134.956 179.619 137.187 174.65 139.418C173.991 139.722 173.839 140.661 174.168 141.218C174.548 141.878 175.334 141.979 175.968 141.7C180.938 139.469 185.882 137.238 190.852 135.006C191.511 134.702 191.663 133.764 191.333 133.206C190.953 132.547 190.167 132.446 189.533 132.724Z" fill="black"/>
<path d="M444.74 461.85C504.489 449.107 542.594 390.34 529.85 330.591C517.107 270.843 458.34 232.737 398.591 245.481C338.843 258.225 300.737 316.991 313.481 376.74C326.225 436.489 384.991 474.594 444.74 461.85Z" fill="#FFF8EC" stroke="black"/>
<path d="M363.414 379.59C363.414 379.59 363.414 383.094 365.344 386.369C366.803 388.84 371.422 389.293 371.944 390.287C372.473 391.28 373.696 396.071 376.563 397.415C379.43 398.76 384.571 396.186 386.208 397.065C387.839 397.944 388.661 400.804 392.107 401.448C395.554 402.091 401.109 395.702 405.753 399.511L397.567 388.713L376.939 378.781L363.42 379.597L363.414 379.59Z" fill="#130000"/>
<path d="M418.466 341.091V359.103C418.466 361.001 418.576 362.888 418.729 364.762L418.729 364.763C419.38 372.594 418.52 379.056 417.465 384.53C417.158 386.124 416.838 387.614 416.534 389.036C416.31 390.077 416.095 391.082 415.898 392.064C415.438 394.36 415.09 396.478 415.033 398.446L418.466 341.091ZM418.466 341.091L390.761 348.332L370.919 365.499L370.825 365.586L370.825 365.586L370.825 365.586L370.824 365.587L370.82 365.59L370.805 365.605C370.791 365.618 370.769 365.638 370.741 365.665C370.685 365.719 370.602 365.8 370.495 365.906C370.283 366.118 369.979 366.431 369.619 366.83C368.896 367.629 367.949 368.771 367.046 370.14C365.226 372.897 363.649 376.482 364.314 380.027C364.65 381.822 365.284 383.052 366.052 383.935C366.823 384.821 367.753 385.388 368.728 385.819C369.36 386.099 369.969 386.307 370.571 386.512C370.929 386.634 371.285 386.755 371.641 386.89C372.544 387.233 373.422 387.657 373.983 388.408C374.482 389.077 374.832 389.764 375.129 390.42C375.244 390.673 375.348 390.915 375.448 391.148C375.616 391.538 375.774 391.906 375.959 392.273C376.518 393.386 377.238 394.313 378.838 394.901C380.446 395.492 381.902 395.259 383.246 394.916C383.47 394.859 383.697 394.797 383.924 394.735C384.356 394.617 384.784 394.5 385.174 394.422C385.781 394.3 386.407 394.244 386.995 394.428C386.995 394.428 386.995 394.428 386.995 394.428L386.846 394.906L418.466 341.091ZM416.006 426.437L416.007 426.437C416.596 426.302 417.008 425.999 417.304 425.543C417.611 425.072 417.808 424.412 417.897 423.557C418.075 421.838 417.802 419.506 417.349 416.776C417.161 415.646 416.943 414.452 416.717 413.214C415.861 408.535 414.893 403.235 415.033 398.446L416.006 426.437ZM416.006 426.437C415.272 426.606 414.611 426.293 413.976 425.44C413.332 424.574 412.794 423.24 412.365 421.63C411.512 418.422 411.143 414.307 411.127 411.206L416.006 426.437Z" fill="url(#paint6_linear_22_411)" stroke="black"/>
<path d="M373.582 388.707C373.582 388.707 387.024 358.44 418.973 341.169" stroke="#130000" stroke-linecap="round" stroke-linejoin="round"/>
<path d="M418.972 347.54C418.972 347.54 413.302 358.446 411.328 369.659C408.856 383.712 408.512 402.684 408.512 402.684" stroke="#130000" stroke-linecap="round" stroke-linejoin="round"/>
<path d="M418.973 343.132C418.973 343.132 401.072 365.174 398.74 397.811" stroke="#130000" stroke-linecap="round" stroke-linejoin="round"/>
<path d="M386.203 394.804C386.203 394.804 394.198 374.411 406.582 365.136" stroke="#130000" stroke-linecap="round" stroke-linejoin="round"/>
<path d="M328 325.453C328 325.453 328.14 329.129 330.51 332.613C332.319 335.27 333.536 335.945 334.103 338.264C334.67 340.589 333.536 345.265 334.632 347.877C336.868 353.222 342.742 352.464 344.494 354.522C345.43 355.624 344.36 361.797 347.399 364.938C350.845 368.499 356.247 368.875 358.267 369.423C362.605 370.608 362.745 375.188 370.275 374.417C373.066 374.131 375.327 373.494 377.519 373.57C379.71 373.647 387.553 375.418 395.777 371.347C404.001 367.276 408.996 351.681 411.971 346.705C414.946 341.73 330.096 321.535 328 325.453Z" fill="#130000"/>
<path d="M418.479 330.96C418.449 330.94 418.415 330.919 418.379 330.896C418.167 330.761 417.853 330.562 417.443 330.308C416.623 329.8 415.422 329.073 413.902 328.196C410.861 326.443 406.544 324.095 401.441 321.713C391.224 316.946 377.902 312.07 365.381 311.549C352.777 311.024 342.313 312.081 335.819 314.935C332.577 316.36 330.39 318.205 329.375 320.459C328.366 322.7 328.469 325.451 330.033 328.803C330.992 330.856 332.153 331.806 334.575 333.79C334.868 334.03 335.179 334.286 335.511 334.56C337.193 335.95 337.529 337.752 337.749 339.618C337.775 339.837 337.799 340.057 337.824 340.279C338.011 341.969 338.206 343.736 339.143 345.588C340.159 347.591 341.67 348.208 343.31 348.64C343.561 348.706 343.822 348.769 344.087 348.833C344.671 348.974 345.274 349.119 345.83 349.312C346.661 349.599 347.465 350.012 348.126 350.739C349.413 352.157 349.524 353.699 349.631 355.187L349.634 355.225C349.743 356.733 349.856 358.249 350.974 359.913C352.063 361.536 353.513 362.054 355.202 362.477C355.415 362.531 355.634 362.583 355.856 362.636C357.368 362.997 359.051 363.399 360.569 364.589C362.035 365.738 362.587 366.739 363.04 367.56C363.121 367.707 363.2 367.849 363.279 367.985C363.532 368.416 363.799 368.788 364.241 369.144C364.689 369.505 365.342 369.87 366.39 370.238C368.435 370.955 370.819 370.837 372.73 370.521C373.679 370.364 374.496 370.16 375.076 369.996C375.365 369.914 375.595 369.842 375.751 369.791C375.829 369.765 375.888 369.745 375.928 369.731L375.972 369.716L375.982 369.712L375.984 369.711L375.984 369.711L375.984 369.711L375.984 369.711L376.189 369.637L376.38 369.735L376.381 369.735L376.381 369.735L376.382 369.735L376.382 369.735L376.383 369.736L376.401 369.745C376.42 369.753 376.45 369.767 376.493 369.785C376.578 369.821 376.713 369.874 376.902 369.938C377.278 370.066 377.868 370.236 378.697 370.395C380.354 370.712 382.971 370.983 386.76 370.771C392.291 370.458 396.791 367.049 400.42 362.825C403.548 359.185 405.977 355.004 407.832 351.81C408.129 351.298 408.412 350.812 408.68 350.357C408.68 350.357 408.68 350.357 408.68 350.357L418.479 330.96ZM418.479 330.96V340.871V330.96Z" fill="url(#paint7_linear_22_411)" stroke="black"/>
<path d="M376.149 370.181C376.149 370.181 395.064 342.66 418.973 340.437" stroke="#130000" stroke-linecap="round" stroke-linejoin="round"/>
<path d="M359.337 364.365C359.337 364.365 385.597 335.066 418.973 339.035" stroke="#130000" stroke-linecap="round" stroke-linejoin="round"/>
<path d="M347.756 351.075C347.756 351.075 366.084 335.009 392.458 337.627C395.325 337.914 401.295 339.742 406.111 339.067" stroke="#130000" stroke-linecap="round" stroke-linejoin="round"/>
<path d="M336.008 335.806C345.711 327.39 376.15 317.649 418.966 336.468" stroke="#130000" stroke-linecap="round" stroke-linejoin="round"/>
<path d="M328.631 326.472C328.631 326.472 333.498 315.432 355.821 314.731C378.143 314.03 400.44 321.509 418.979 332.613" stroke="#130000" stroke-linecap="round" stroke-linejoin="round"/>
<path d="M484.132 379.591C484.132 379.591 484.132 383.094 482.202 386.369C480.743 388.841 476.124 389.293 475.602 390.287C475.073 391.281 473.85 396.071 470.983 397.416C468.123 398.76 462.975 396.186 461.338 397.065C459.707 397.944 458.885 400.805 455.439 401.448C451.992 402.092 446.437 395.702 441.793 399.511L449.979 388.713L470.607 378.781L484.126 379.597L484.132 379.591Z" fill="#130000"/>
<path d="M476.628 365.499L456.786 348.332L429.08 341.09V359.102C429.08 361 428.971 362.888 428.818 364.762L428.818 364.763C428.167 372.594 429.027 379.056 430.082 384.53C430.389 386.124 430.709 387.614 431.013 389.036C431.236 390.077 431.452 391.081 431.649 392.063C432.109 394.36 432.457 396.478 432.514 398.445L476.628 365.499ZM476.628 365.499L476.722 365.586L476.722 365.586L476.722 365.586M476.628 365.499L476.722 365.586M476.722 365.586L476.723 365.587L476.726 365.59L476.742 365.604C476.746 365.608 476.75 365.612 476.755 365.617C476.768 365.629 476.785 365.645 476.805 365.665C476.862 365.719 476.945 365.799 477.051 365.905C477.264 366.118 477.567 366.431 477.928 366.83C478.65 367.629 479.598 368.771 480.501 370.139C482.32 372.897 483.897 376.482 483.233 380.027C482.897 381.822 482.263 383.052 481.494 383.935C480.724 384.821 479.794 385.388 478.819 385.819C478.187 386.099 477.578 386.306 476.976 386.512C476.618 386.634 476.262 386.755 475.906 386.89C475.002 387.232 474.125 387.656 473.564 388.408L473.564 388.408C473.066 389.077 472.717 389.764 472.42 390.42C472.307 390.67 472.204 390.909 472.104 391.14C471.935 391.533 471.776 391.903 471.59 392.272C471.03 393.385 470.309 394.313 468.709 394.901C467.101 395.491 465.644 395.259 464.301 394.916C464.077 394.859 463.85 394.797 463.623 394.735C463.191 394.617 462.763 394.5 462.372 394.421C461.766 394.3 461.14 394.244 460.552 394.428C459.703 394.694 459.195 395.207 458.707 395.701C458.574 395.835 458.443 395.968 458.307 396.093C457.647 396.703 456.67 397.407 454.497 397.976C452.492 398.502 451.172 398.063 449.786 397.602C449.726 397.581 449.665 397.561 449.604 397.541C448.875 397.3 448.101 397.058 447.221 397.001C446.332 396.943 445.358 397.073 444.211 397.538C439.657 399.382 436.452 404.105 436.42 411.205C436.404 414.307 436.035 418.422 435.181 421.63C434.753 423.24 434.215 424.574 433.571 425.439C432.936 426.293 432.275 426.606 431.54 426.437L431.54 426.437C430.951 426.302 430.539 425.999 430.243 425.543C429.936 425.072 429.739 424.412 429.65 423.556C429.472 421.838 429.744 419.506 430.198 416.776C430.386 415.646 430.604 414.452 430.83 413.214C431.686 408.534 432.654 403.235 432.514 398.446L476.722 365.586Z" fill="url(#paint8_linear_22_411)" stroke="black"/>
<path d="M473.964 388.707C473.964 388.707 460.522 358.44 428.574 341.169" stroke="#130000" stroke-linecap="round" stroke-linejoin="round"/>
<path d="M428.574 347.54C428.574 347.54 434.244 358.446 436.218 369.659C438.69 383.712 439.034 402.684 439.034 402.684" stroke="#130000" stroke-linecap="round" stroke-linejoin="round"/>
<path d="M428.574 343.131C428.574 343.131 446.475 365.174 448.807 397.81" stroke="#130000" stroke-linecap="round" stroke-linejoin="round"/>
<path d="M461.344 394.803C461.344 394.803 453.349 374.411 440.965 365.135" stroke="#130000" stroke-linecap="round" stroke-linejoin="round"/>
<path d="M519.546 325.453C519.546 325.453 519.406 329.128 517.036 332.613C515.227 335.27 514.01 335.945 513.443 338.264C512.876 340.583 514.01 345.265 512.914 347.877C510.678 353.222 504.804 352.464 503.053 354.522C502.116 355.624 503.186 361.797 500.148 364.938C496.701 368.499 491.299 368.875 489.279 369.423C484.941 370.608 484.801 375.188 477.271 374.417C474.48 374.131 472.219 373.493 470.027 373.57C467.836 373.646 459.994 375.417 451.769 371.347C443.545 367.276 438.55 351.68 435.575 346.705C432.6 341.73 517.45 321.535 519.546 325.453Z" fill="#130000"/>
<path d="M429.069 340.872C429.068 340.871 429.068 340.871 429.067 340.871V330.959C429.098 330.94 429.131 330.919 429.167 330.896C429.379 330.76 429.694 330.561 430.104 330.308C430.924 329.8 432.124 329.073 433.644 328.196C436.685 326.443 441.002 324.094 446.105 321.713C456.323 316.945 469.644 312.07 482.165 311.548C494.769 311.024 505.234 312.08 511.727 314.935C514.969 316.36 517.157 318.204 518.172 320.459C519.18 322.699 519.077 325.45 517.513 328.803C516.554 330.855 515.394 331.806 512.972 333.79C512.679 334.03 512.367 334.285 512.035 334.56C510.353 335.949 510.017 337.752 509.797 339.618C509.771 339.837 509.747 340.057 509.722 340.279C509.536 341.969 509.34 343.736 508.404 345.588C507.387 347.591 505.876 348.208 504.236 348.639C503.985 348.705 503.724 348.768 503.459 348.832C502.875 348.973 502.272 349.119 501.717 349.311C500.886 349.599 500.081 350.012 499.421 350.739C498.133 352.156 498.022 353.698 497.915 355.187L497.912 355.225C497.803 356.733 497.69 358.248 496.573 359.913C495.483 361.536 494.033 362.054 492.345 362.477C492.131 362.531 491.913 362.583 491.69 362.636C490.179 362.997 488.495 363.398 486.977 364.589L486.976 364.589C485.513 365.74 484.96 366.741 484.507 367.561C484.425 367.709 484.347 367.851 484.267 367.987C484.014 368.417 483.747 368.789 483.305 369.145C482.857 369.505 482.204 369.869 481.156 370.238C479.111 370.955 476.727 370.837 474.816 370.521C473.867 370.363 473.05 370.16 472.47 369.996C472.181 369.914 471.952 369.842 471.796 369.791C471.775 369.784 471.755 369.777 471.737 369.771C471.687 369.755 471.647 369.741 471.619 369.731L471.575 369.716L471.564 369.712L471.562 369.711L471.562 369.711L471.562 369.711L471.562 369.711L471.358 369.637L471.166 369.734L471.165 369.735L471.165 369.735L471.164 369.735L471.164 369.735L471.163 369.736L471.145 369.744C471.127 369.753 471.096 369.766 471.054 369.784C470.968 369.82 470.833 369.874 470.645 369.938C470.268 370.066 469.678 370.236 468.85 370.395C467.192 370.712 464.575 370.982 460.786 370.771C455.255 370.457 450.756 367.048 447.126 362.824C443.998 359.184 441.57 355.003 439.715 351.81C439.417 351.298 439.135 350.811 438.866 350.356C436.898 347.016 434.383 344.612 432.363 343.044C431.352 342.26 430.463 341.683 429.824 341.301C429.505 341.109 429.248 340.967 429.069 340.872Z" fill="url(#paint9_linear_22_411)" stroke="black"/>
<path d="M471.397 370.181C471.397 370.181 452.483 342.66 428.574 340.437" stroke="#130000" stroke-linecap="round" stroke-linejoin="round"/>
<path d="M488.209 364.365C488.209 364.365 461.949 335.066 428.574 339.035" stroke="#130000" stroke-linecap="round" stroke-linejoin="round"/>
<path d="M499.791 351.075C499.791 351.075 481.463 335.009 455.088 337.627C452.221 337.914 446.252 339.742 441.436 339.067" stroke="#130000" stroke-linecap="round" stroke-linejoin="round"/>
<path d="M511.539 335.805C501.837 327.389 471.398 317.649 428.581 336.468" stroke="#130000" stroke-linecap="round" stroke-linejoin="round"/>
<path d="M518.915 326.472C518.915 326.472 514.048 315.432 491.726 314.731C469.403 314.03 447.106 321.51 428.567 332.614" stroke="#130000" stroke-linecap="round" stroke-linejoin="round"/>
<path d="M422.343 325.313C421.547 323.854 421.063 322.192 420.731 320.491C419.782 315.299 419.973 309.973 420.126 304.698C420.298 299.372 420.974 293.893 419.266 288.727C418.68 287 417.922 285.312 416.54 284.051C416.54 284.051 415.316 282.789 414.571 283.012C413.883 283.222 414.004 284.49 414.82 284.847C415.915 285.318 416.705 284.898 417.476 285.987C418.018 286.898 418.413 287.918 418.712 288.899C420.266 294.014 419.464 299.41 419.177 304.647C418.897 309.979 418.585 315.394 419.438 320.72C419.75 322.51 420.215 324.307 421.082 325.988C421.267 326.345 421.713 326.485 422.063 326.288C422.413 326.097 422.541 325.651 422.343 325.3V325.313Z" fill="#130000"/>
<path d="M425.203 325.313C426 323.854 426.484 322.192 426.815 320.491C427.764 315.299 427.573 309.973 427.42 304.698C427.248 299.372 426.573 293.893 428.28 288.727C428.867 287 429.625 285.312 431.007 284.051C431.007 284.051 432.23 282.789 432.976 283.012C433.664 283.222 433.543 284.49 432.727 284.847C431.631 285.318 430.841 284.898 430.071 285.987C429.529 286.898 429.134 287.918 428.835 288.899C427.28 294.014 428.083 299.41 428.37 304.647C428.65 309.979 428.962 315.394 428.108 320.72C427.796 322.51 427.331 324.307 426.465 325.988C426.28 326.345 425.834 326.485 425.484 326.288C425.133 326.097 425.006 325.651 425.203 325.3V325.313Z" fill="#130000"/>
<path d="M429.618 337.576C429.529 334.588 429.064 333.308 429.064 333.308C429.064 333.308 431.637 329.887 429.943 326.236C428.083 322.229 423.776 322.395 423.776 322.395C423.776 322.395 419.47 322.229 417.609 326.236C415.915 329.887 418.488 333.308 418.488 333.308C418.488 333.308 418.023 334.582 417.934 337.576C417.877 339.411 417.96 350.228 419.342 358.599C419.342 358.599 419.342 358.599 419.342 358.606C419.495 359.542 419.667 360.447 419.858 361.3C420.381 364.167 421.113 368.512 421.037 370.175C420.922 372.748 421.037 375.666 423.782 375.666C426.528 375.666 426.643 372.742 426.528 370.175C426.452 368.512 427.178 364.167 427.707 361.3C427.898 360.44 428.064 359.536 428.223 358.606V358.599C429.605 350.222 429.688 339.411 429.631 337.576H429.618Z" fill="#130000"/>
<path d="M423.777 337.162C420.298 337.162 418.98 334.971 418.98 334.971C418.935 336.787 420.139 337.761 421.35 338.284C422.891 338.946 424.669 338.946 426.21 338.284C427.421 337.768 428.618 336.793 428.58 334.971C428.58 334.971 427.255 337.162 423.783 337.162H423.777Z" fill="url(#paint10_linear_22_411)"/>
<path d="M423.777 343.979C420.076 343.979 418.661 341.647 418.661 341.647C418.617 343.584 419.897 344.623 421.184 345.177C422.828 345.884 424.72 345.884 426.363 345.177C427.65 344.623 428.931 343.584 428.886 341.647C428.886 341.647 427.478 343.979 423.771 343.979H423.777Z" fill="url(#paint11_linear_22_411)"/>
<path d="M423.776 350.917C420.501 350.917 419.252 348.853 419.252 348.853C419.214 350.566 420.342 351.484 421.482 351.974C422.935 352.598 424.61 352.598 426.063 351.974C427.203 351.484 428.331 350.566 428.292 348.853C428.292 348.853 427.044 350.917 423.769 350.917H423.776Z" fill="url(#paint12_linear_22_411)"/>
<path d="M423.776 357.995C420.973 357.995 419.903 356.23 419.903 356.23C419.871 357.695 420.84 358.485 421.814 358.899C423.057 359.434 424.49 359.434 425.739 358.899C426.713 358.479 427.682 357.695 427.65 356.23C427.65 356.23 426.58 357.995 423.776 357.995Z" fill="url(#paint13_linear_22_411)"/>
<path d="M423.776 364.677C421.699 364.677 420.909 363.371 420.909 363.371C420.884 364.461 421.604 365.04 422.324 365.353C423.247 365.748 424.305 365.748 425.229 365.353C425.955 365.04 426.668 364.461 426.643 363.371C426.643 363.371 425.853 364.677 423.776 364.677Z" fill="url(#paint14_linear_22_411)"/>
<path d="M423.777 369.818C422.254 369.818 421.674 368.863 421.674 368.863C421.655 369.659 422.184 370.086 422.713 370.309C423.388 370.595 424.165 370.595 424.841 370.309C425.369 370.079 425.898 369.653 425.879 368.863C425.879 368.863 425.299 369.818 423.777 369.818Z" fill="url(#paint15_linear_22_411)"/>
<defs>
<linearGradient id="paint0_linear_22_411" x1="110.453" y1="332.027" x2="96.787" y2="408.618" gradientUnits="userSpaceOnUse">
<stop stop-color="#E7B12D"/>
<stop offset="0.476697" stop-color="#F7C651"/>
<stop offset="0.904587" stop-color="#FFDE8C"/>
</linearGradient>
<linearGradient id="paint1_linear_22_411" x1="206.44" y1="427.027" x2="149.827" y2="303.642" gradientUnits="userSpaceOnUse">
<stop stop-color="#8CB6F3"/>
<stop offset="0.419064" stop-color="#8CB6F3"/>
<stop offset="0.979167" stop-color="#CEE0FB"/>
</linearGradient>
<linearGradient id="paint2_linear_22_411" x1="64.0173" y1="324.294" x2="67.742" y2="422.519" gradientUnits="userSpaceOnUse">
<stop stop-color="#E7B12D"/>
<stop offset="0.476697" stop-color="#F7C651"/>
<stop offset="0.904587" stop-color="#FFDE8C"/>
</linearGradient>
<linearGradient id="paint3_linear_22_411" x1="224.671" y1="100.077" x2="302.954" y2="129.94" gradientUnits="userSpaceOnUse">
<stop stop-color="#8CB6F3"/>
<stop offset="0.419064" stop-color="#8CB6F3"/>
<stop offset="0.979167" stop-color="#CEE0FB"/>
</linearGradient>
<linearGradient id="paint4_linear_22_411" x1="235.946" y1="134.29" x2="238.483" y2="140.971" gradientUnits="userSpaceOnUse">
<stop stop-color="#FFB2D8"/>
<stop offset="0.458333" stop-color="#FFB2D8"/>
<stop offset="1" stop-color="#FFD9EC"/>
</linearGradient>
<linearGradient id="paint5_linear_22_411" x1="189.032" y1="86.8189" x2="197.034" y2="143.228" gradientUnits="userSpaceOnUse">
<stop stop-color="#E7B12D"/>
<stop offset="0.476697" stop-color="#F7C651"/>
<stop offset="0.904587" stop-color="#FFDE8C"/>
</linearGradient>
<linearGradient id="paint6_linear_22_411" x1="362.041" y1="342.607" x2="422.074" y2="417.946" gradientUnits="userSpaceOnUse">
<stop stop-color="#D3C3ED"/>
<stop offset="0.489583" stop-color="#D3C3ED"/>
<stop offset="1" stop-color="#EEE3FF"/>
</linearGradient>
<linearGradient id="paint7_linear_22_411" x1="428.844" y1="371.346" x2="341.961" y2="302.886" gradientUnits="userSpaceOnUse">
<stop stop-color="#8CB6F3"/>
<stop offset="0.419064" stop-color="#8CB6F3"/>
<stop offset="0.979167" stop-color="#CEE0FB"/>
</linearGradient>
<linearGradient id="paint8_linear_22_411" x1="426.475" y1="342.606" x2="486.507" y2="417.946" gradientUnits="userSpaceOnUse">
<stop stop-color="#D3C3ED"/>
<stop offset="0.489583" stop-color="#D3C3ED"/>
<stop offset="1" stop-color="#EEE3FF"/>
</linearGradient>
<linearGradient id="paint9_linear_22_411" x1="529.194" y1="371.346" x2="442.31" y2="302.886" gradientUnits="userSpaceOnUse">
<stop stop-color="#8CB6F3"/>
<stop offset="0.419064" stop-color="#8CB6F3"/>
<stop offset="0.979167" stop-color="#CEE0FB"/>
</linearGradient>
<linearGradient id="paint10_linear_22_411" x1="419.953" y1="334.971" x2="420.48" y2="339.376" gradientUnits="userSpaceOnUse">
<stop stop-color="#FF7372"/>
<stop offset="0.484375" stop-color="#FF7372"/>
<stop offset="1" stop-color="#FF8C8B"/>
</linearGradient>
<linearGradient id="paint11_linear_22_411" x1="419.698" y1="341.647" x2="420.26" y2="346.342" gradientUnits="userSpaceOnUse">
<stop stop-color="#FF7372"/>
<stop offset="0.484375" stop-color="#FF7372"/>
<stop offset="1" stop-color="#FF8C8B"/>
</linearGradient>
<linearGradient id="paint12_linear_22_411" x1="420.169" y1="348.853" x2="420.666" y2="353.003" gradientUnits="userSpaceOnUse">
<stop stop-color="#FF7372"/>
<stop offset="0.484375" stop-color="#FF7372"/>
<stop offset="1" stop-color="#FF8C8B"/>
</linearGradient>
<linearGradient id="paint13_linear_22_411" x1="420.688" y1="356.23" x2="421.113" y2="359.781" gradientUnits="userSpaceOnUse">
<stop stop-color="#FF7372"/>
<stop offset="0.484375" stop-color="#FF7372"/>
<stop offset="1" stop-color="#FF8C8B"/>
</linearGradient>
<linearGradient id="paint14_linear_22_411" x1="421.49" y1="363.371" x2="421.806" y2="366.005" gradientUnits="userSpaceOnUse">
<stop stop-color="#FF7372"/>
<stop offset="0.484375" stop-color="#FF7372"/>
<stop offset="1" stop-color="#FF8C8B"/>
</linearGradient>
<linearGradient id="paint15_linear_22_411" x1="422.1" y1="368.863" x2="422.33" y2="370.784" gradientUnits="userSpaceOnUse">
<stop stop-color="#FF7372"/>
<stop offset="0.484375" stop-color="#FF7372"/>
<stop offset="1" stop-color="#FF8C8B"/>
</linearGradient>
</defs>
</svg>
