<svg width="547" height="523" viewBox="0 0 547 523" fill="none" xmlns="http://www.w3.org/2000/svg">
<path d="M153.74 273.85C213.489 261.107 251.594 202.34 238.85 142.591C226.107 82.8425 167.34 44.7374 107.591 57.4809C47.8426 70.2245 9.73742 128.991 22.481 188.74C35.2246 248.489 93.9912 286.594 153.74 273.85Z" fill="#FFF8EC" stroke="black"/>
<mask id="mask0_22_411" style="mask-type:luminance" maskUnits="userSpaceOnUse" x="76" y="181" width="80" height="68">
<path d="M76.1831 195.423V236.594L118.033 248.745L155.846 236.594V193.385L118.033 181.913L76.1831 195.423Z" fill="white"/>
</mask>
<g mask="url(#mask0_22_411)">
<path d="M76.0349 195.606L75.6851 195.717V196.083V237.273V237.651L76.0487 237.754L118.908 249.906L119.054 249.947L119.197 249.901L157.01 237.749L157.357 237.638V237.273V194.065V193.694L157.002 193.586L119.19 182.114L119.042 182.069L118.894 182.116L76.0349 195.606Z" fill="#FF7372" stroke="black"/>
<path d="M105.162 156.848L66.5909 193.856L66.2314 193.783V194.395V194.414V195.587L66.9054 194.94C81.1688 197.839 101.145 202.754 114.463 208.365L114.464 208.366C114.626 208.433 114.812 208.443 114.958 208.441C115.12 208.439 115.311 208.421 115.523 208.392C115.947 208.333 116.498 208.223 117.153 208.07C118.466 207.764 120.244 207.276 122.363 206.657C126.604 205.418 132.247 203.641 138.357 201.696C139.879 201.212 141.43 200.717 142.996 200.218C154.011 196.704 165.753 192.959 173.252 190.957L174.034 190.748L173.497 190.142C163.762 179.153 149.753 173.137 136.358 167.515C131.418 165.438 126.478 163.366 121.538 161.294L121.538 161.294L121.532 161.292C116.643 159.241 111.753 157.19 106.864 155.135C106.548 154.71 106.001 154.631 105.605 154.708C105.156 154.796 104.606 155.142 104.569 155.796C104.54 156.296 104.83 156.648 105.162 156.848Z" fill="#FFF8EC" stroke="black"/>
<path d="M119.094 256.157L119.232 255.997L119.213 255.786L118.715 255.83C119.213 255.786 119.213 255.786 119.213 255.786L119.213 255.785L119.213 255.78L119.211 255.763L119.205 255.693L119.18 255.418C119.159 255.177 119.127 254.82 119.085 254.362C119.002 253.444 118.881 252.114 118.727 250.469C118.42 247.177 117.984 242.619 117.468 237.555C116.455 227.607 115.133 215.69 113.879 207.576C122.087 205.047 130.035 202.31 137.974 199.576L137.978 199.575C145.854 196.862 153.722 194.153 161.84 191.647C162.913 216.992 165.174 242.298 168.606 267.436C145.983 272.34 123.102 275.932 100.071 278.213L119.094 256.157Z" fill="url(#paint0_linear_22_411)" stroke="black"/>
<path d="M68.2797 217.601V217.334L67.3691 218.645L49.084 244.967L48.7397 245.462L49.2906 245.708C64.8558 252.665 80.8095 258.747 97.0545 263.936C103.71 266.064 111.259 268.096 117.933 265.32C119.07 264.861 120.288 264.173 121.031 263.059C121.723 262.042 121.928 260.827 122.1 259.755C122.48 257.466 122.903 256.35 123.333 255.218L123.335 255.212C123.778 254.046 124.227 252.862 124.623 250.478L123.681 250.176C123.256 251.043 122.664 251.488 121.959 251.688C121.226 251.895 120.328 251.848 119.296 251.629C118.268 251.411 117.161 251.035 116.024 250.629C115.843 250.564 115.66 250.498 115.477 250.433C114.528 250.091 113.567 249.745 112.658 249.488C108.577 248.332 105.345 245.053 103.068 241.341C101.93 239.486 100.99 237.52 100.089 235.509C99.8074 234.879 99.5286 234.243 99.2488 233.605C98.6401 232.216 98.0267 230.816 97.3658 229.447L97.3647 229.445C95.6429 225.923 93.5879 222.556 91.1989 219.423L68.2797 217.601ZM68.2797 217.601C68.5967 217.207 68.8995 216.815 69.1982 216.428C69.2305 216.386 69.2627 216.344 69.295 216.302C69.8818 215.542 70.4607 214.799 71.0898 214.142C72.3653 212.81 73.8644 211.817 76.1411 211.619L68.2797 217.601ZM84.4841 213.788C87.165 215.266 89.5987 217.323 91.1988 219.423L84.4841 213.788ZM84.4841 213.788C81.8087 212.313 78.8295 211.384 76.1413 211.619L84.4841 213.788Z" fill="#FFF8EC" stroke="black"/>
<path d="M85.6378 231.348C86.4375 231.348 87.0778 230.805 87.491 230.115C87.9111 229.414 88.1567 228.478 88.1567 227.471C88.1567 226.463 87.9111 225.527 87.491 224.826C87.0778 224.137 86.4375 223.593 85.6378 223.593C84.8382 223.593 84.1979 224.137 83.7847 224.826C83.3647 225.527 83.1191 226.463 83.1191 227.471C83.1191 228.478 83.3647 229.414 83.7847 230.115C84.1979 230.805 84.8382 231.348 85.6378 231.348Z" fill="#FF7372" stroke="black"/>
<path d="M105.223 222.575C106.023 222.575 106.663 222.031 107.077 221.342C107.497 220.641 107.742 219.704 107.742 218.697C107.742 217.69 107.497 216.753 107.077 216.053C106.663 215.363 106.023 214.82 105.223 214.82C104.424 214.82 103.783 215.363 103.37 216.053C102.95 216.753 102.705 217.69 102.705 218.697C102.705 219.704 102.95 220.641 103.37 221.342C103.783 222.031 104.424 222.575 105.223 222.575Z" fill="#FFF8EC" stroke="black"/>
<path d="M124.79 220.556C125.589 220.556 126.23 220.012 126.643 219.323C127.063 218.622 127.309 217.686 127.309 216.678C127.309 215.671 127.063 214.735 126.643 214.034C126.23 213.344 125.589 212.801 124.79 212.801C123.99 212.801 123.35 213.344 122.937 214.034C122.517 214.735 122.271 215.671 122.271 216.678C122.271 217.686 122.517 218.622 122.937 219.323C123.35 220.012 123.99 220.556 124.79 220.556Z" fill="#FFF8EC" stroke="black"/>
<path d="M137.621 227.311C138.424 227.311 139.065 226.769 139.477 226.078C139.897 225.377 140.14 224.441 140.14 223.433C140.14 222.426 139.897 221.49 139.477 220.788C139.065 220.097 138.424 219.556 137.621 219.556C136.818 219.556 136.177 220.097 135.764 220.788C135.345 221.49 135.102 222.426 135.102 223.433C135.102 224.441 135.345 225.377 135.764 226.078C136.177 226.769 136.818 227.311 137.621 227.311Z" fill="#FFF8EC" stroke="black"/>
<path d="M150.431 232.707C151.234 232.707 151.875 232.166 152.288 231.475C152.707 230.774 152.95 229.837 152.95 228.83C152.95 227.822 152.707 226.886 152.288 226.185C151.875 225.494 151.234 224.952 150.431 224.952C149.628 224.952 148.988 225.494 148.575 226.185C148.156 226.886 147.913 227.823 147.913 228.83C147.913 229.837 148.156 230.774 148.575 231.475C148.988 232.166 149.628 232.707 150.431 232.707Z" fill="#FFF8EC" stroke="black"/>
</g>
<path d="M133.194 195.465L133.667 195.547C140.113 158.419 158.346 123.704 186.9 99.1546L187.286 98.8229L186.947 98.4429C184.242 95.4058 181.291 92.6155 178.357 89.8445L178.32 89.809C175.394 87.0451 172.487 84.2994 169.826 81.3219L169.543 81.0052L169.185 81.2332C151.779 92.3115 131.796 111.547 121.866 129.67C111.929 147.807 107.85 175.499 112.832 195.582L112.926 195.961H113.317H132.58H133.175H133.194V195.465Z" fill="#FEC753" stroke="black"/>
<path d="M125.271 195.461V195.424L125.266 195.387C122.295 175.719 126.725 154.384 136.193 135.401C145.661 116.42 160.148 99.8283 177.243 89.6354L177.699 89.3632L177.4 88.9242C176.069 86.9731 174.281 85.4937 172.555 84.0663L172.53 84.0455C170.779 82.5968 169.094 81.1985 167.85 79.374L167.849 79.3738C167.734 79.2042 167.613 79.0181 167.488 78.8247C167.195 78.3725 166.877 77.8801 166.53 77.4631C166.021 76.8494 165.376 76.2964 164.489 76.1184C164.378 76.095 164.35 76.0562 164.328 76.0177C164.285 75.9432 164.262 75.8426 164.224 75.6512V75.6512C164.208 75.5706 164.186 75.4603 164.152 75.3566C164.117 75.2536 164.057 75.1102 163.935 74.9881C163.634 74.6874 163.236 74.7463 162.936 74.8577C154.215 78.0256 141.433 85.7829 134.331 91.734C125.074 99.4611 119.174 110.423 114.718 121.533C110.427 132.222 107.329 145.704 106.698 159.035C106.067 172.358 107.898 185.585 113.522 195.723L113.665 195.981H113.959H124.771H125.271V195.481V195.461Z" fill="#FF7372" stroke="black"/>
<path d="M102.982 195.622L103.097 195.962H103.456H117.529H118.219L118.004 195.306C111.015 174.011 112.116 149.02 121.073 128.5L121.073 128.499C130.011 107.979 147.742 89.9198 168.09 80.5566L168.691 80.2801L168.261 79.7774C166.233 77.4073 163.95 75.295 161.689 73.2035L161.676 73.1914C159.404 71.0894 157.155 69.0075 155.158 66.6749L154.883 66.3541L154.521 66.5711C142.397 73.834 132.378 84.1131 123.187 94.7807L123.186 94.7812C108.773 111.551 99.5969 129.541 99.6946 151.75L99.6946 151.751C99.7013 153.064 99.7008 154.509 99.7003 156.053C99.6986 161.249 99.6965 167.574 99.9644 173.852C100.311 181.983 101.113 190.103 102.982 195.622Z" fill="#808CE2" stroke="black"/>
<path d="M101.064 197.427H137.265C138.566 197.427 138.566 195.408 137.265 195.408H101.064C99.7632 195.408 99.7632 197.427 101.064 197.427Z" fill="#9E7223"/>
<path d="M118.298 248.974C118.563 249.052 118.841 248.901 118.919 248.636C118.997 248.371 118.846 248.093 118.581 248.015L118.298 248.974ZM75.9913 236.494L118.298 248.974L118.581 248.015L76.2743 235.535L75.9913 236.494Z" fill="black"/>
<path d="M330.74 499.85C390.489 487.107 428.594 428.34 415.85 368.591C403.107 308.843 344.34 270.737 284.591 283.481C224.843 296.225 186.737 354.991 199.481 414.74C212.225 474.489 270.991 512.594 330.74 499.85Z" fill="#FFF8EC" stroke="black"/>
<path d="M292.096 463.043L292.086 463.024L292.074 463.007C289.549 459.2 288.999 454.397 290.67 450.165L290.67 450.165C291.214 448.782 291.834 447.415 292.46 446.032C292.6 445.725 292.739 445.417 292.878 445.108C293.641 443.416 294.387 441.698 294.969 439.939L294.969 439.939C297.89 431.084 296.477 421.646 295.087 412.37C295.06 412.189 295.033 412.007 295.006 411.826C293.589 402.354 292.285 393.062 295.449 384.444C295.457 384.444 295.467 384.443 295.477 384.443C295.629 384.439 295.854 384.478 296.153 384.549C296.249 384.572 296.358 384.599 296.47 384.628C296.665 384.678 296.873 384.73 297.054 384.768C297.328 384.826 297.679 384.883 297.975 384.813C298.053 384.795 298.161 384.767 298.292 384.734C298.571 384.663 298.951 384.566 299.354 384.48C299.642 384.418 299.917 384.368 300.138 384.344C300.249 384.332 300.336 384.327 300.397 384.329C300.421 384.329 300.436 384.331 300.445 384.332C301.522 384.835 302.224 385.473 302.7 386.208C303.185 386.956 303.455 387.835 303.62 388.842C303.767 389.738 303.827 390.704 303.891 391.748C303.9 391.884 303.908 392.021 303.917 392.159C303.992 393.35 304.088 394.622 304.343 395.922L304.343 395.922C305.677 402.712 307.015 409.5 308.353 416.287L308.355 416.299C309.692 423.082 311.029 429.865 312.363 436.651L312.363 436.652C313.441 442.071 314.484 447.513 313.838 452.898C313.193 458.277 310.552 463.62 305.919 466.185C303.621 467.457 300.783 467.819 298.2 467.277C295.618 466.736 293.338 465.305 292.096 463.043ZM295.395 384.452C295.395 384.452 295.397 384.451 295.401 384.45C295.397 384.451 295.395 384.452 295.395 384.452Z" fill="url(#paint1_linear_22_411)" stroke="black"/>
<path d="M341.007 380.707L341.412 381.001L341.007 380.707C331.752 393.461 318.502 393.363 312.004 393.315C311.154 393.309 310.419 393.303 309.824 393.328H309.821H309.81L309.8 393.328L274.787 394.767C274.787 394.767 274.786 394.767 274.786 394.767C273.012 394.836 271.244 394.753 269.508 394.466L269.507 394.466C261.501 393.173 253.603 389.261 251.847 381.877C250.989 378.259 252.101 374.915 254.085 371.679C255.556 369.281 257.47 366.994 259.369 364.727C260.047 363.916 260.723 363.109 261.377 362.299L261.377 362.298C272.862 348.038 277.666 337.189 279.448 328.116C280.912 320.667 280.329 314.432 279.782 308.584C279.664 307.321 279.548 306.077 279.455 304.843C279.405 304.186 279.531 303.522 279.848 302.982L279.849 302.981C280.235 302.321 280.737 302.014 281.293 301.926C281.873 301.834 282.563 301.973 283.299 302.317C284.775 303.008 286.255 304.445 287.039 305.9L287.039 305.9C287.514 306.779 288.6 308.176 290.101 309.927C291.613 311.691 293.578 313.852 295.842 316.272C300.37 321.112 306.109 327.004 311.842 332.864C312.871 333.916 313.901 334.966 314.923 336.01C319.595 340.781 324.119 345.399 327.826 349.271C330.085 351.629 332.038 353.708 333.535 355.372C335.043 357.048 336.06 358.273 336.475 358.938C338.547 362.274 340.8 366.214 341.967 370.096C343.135 373.98 343.187 377.704 341.007 380.707Z" fill="url(#paint2_linear_22_411)" stroke="black"/>
<mask id="mask1_22_411" style="mask-type:luminance" maskUnits="userSpaceOnUse" x="251" y="301" width="93" height="95">
<path d="M309.835 393.828C314.865 393.618 330.765 395.672 341.412 381.001C346.037 374.63 341.049 365.352 336.899 358.673C333.364 353.001 291.042 312.258 287.479 305.663C285.816 302.575 281.247 299.599 279.417 302.729C279.04 303.371 278.9 304.14 278.956 304.88C280.018 318.88 283.888 333.551 260.988 361.985C256.083 368.063 249.558 374.392 251.361 381.993C253.191 389.692 261.379 393.66 269.427 394.959C271.201 395.253 273.004 395.337 274.806 395.267L309.821 393.828H309.835Z" fill="white"/>
</mask>
<g mask="url(#mask1_22_411)">
<path d="M277.59 359.349L277.59 359.349C276.402 362.812 273.502 365.46 270.059 366.799C266.616 368.137 262.69 368.142 259.481 366.394C258.179 365.684 256.979 364.602 256.207 363.355C255.454 362.137 255.125 360.794 255.453 359.481L267.925 342.719C271.406 343.393 274.383 345.766 276.224 348.85C278.117 352.023 278.777 355.894 277.59 359.349Z" fill="url(#paint3_linear_22_411)" stroke="black"/>
<path d="M303.767 347.459L303.9 347.702C306.088 346.752 308.637 346.879 310.865 347.825C313.094 348.77 314.955 350.516 315.794 352.743L315.794 352.744C317.495 357.241 314.789 362.899 310.235 364.431C305.682 365.948 300.114 363.079 298.702 358.484C297.406 354.27 299.802 349.302 303.767 347.459Z" fill="url(#paint4_linear_22_411)" stroke="black"/>
<path d="M302.627 312.588L322.352 333.084C319.818 335.974 316.021 337.541 312.139 337.703C308.108 337.871 304.043 336.521 301.267 333.638C298.49 330.754 297.296 326.641 297.617 322.621C297.926 318.746 299.639 315.009 302.627 312.588Z" fill="url(#paint5_linear_22_411)" stroke="black"/>
<path d="M303.184 402.613C301.388 396.546 302.816 389.363 307.623 385.425L307.623 385.425C310.057 383.424 313.394 382.575 316.546 382.914C319.696 383.252 322.598 384.768 324.219 387.423L324.219 387.423C326.717 391.509 325.857 396.864 324.098 401.573L303.184 402.613Z" fill="url(#paint6_linear_22_411)" stroke="black"/>
<path d="M334.205 351.75L352.327 364.383C348.468 367.62 344.455 370.769 339.668 371.693L339.668 371.693C337.21 372.168 334.484 371.806 332.229 370.716C329.977 369.627 328.238 367.834 327.659 365.471C327.253 363.778 327.444 361.98 327.83 360.204L327.83 360.203C328.239 358.293 328.983 356.32 330.087 354.748C331.143 353.244 332.507 352.133 334.205 351.75Z" fill="url(#paint7_linear_22_411)" stroke="black"/>
<path d="M264.279 382.422L264.28 382.422C269.463 380.1 275.794 379.288 280.227 382.509L280.228 382.51C282.839 384.403 284.276 387.311 284.795 390.565C285.315 393.823 284.909 397.395 283.861 400.544C282.545 404.493 280.458 408.171 277.738 411.318L252.769 394.631C253.954 389.046 258.901 384.82 264.279 382.422Z" fill="url(#paint8_linear_22_411)" stroke="black"/>
</g>
<path d="M342.382 373.582C342.393 373.858 342.625 374.073 342.901 374.062C343.177 374.051 343.392 373.818 343.381 373.542L342.382 373.582ZM331.236 353.728C332.912 354.925 335.611 357.473 337.936 360.943C340.26 364.411 342.189 368.765 342.382 373.582L343.381 373.542C343.179 368.485 341.158 363.953 338.767 360.386C336.378 356.821 333.596 354.185 331.817 352.914L331.236 353.728Z" fill="black"/>
<path d="M255.901 388.771C257.625 391.551 265.797 396.556 284.701 394.336" stroke="black"/>
<path d="M334.126 491.016L334.053 490.994H334.04C329.768 489.658 327.005 487.796 325.249 485.728C323.485 483.651 322.707 481.331 322.469 479.04C322.231 476.742 322.535 474.479 322.936 472.533C323.113 471.671 323.308 470.878 323.481 470.17C323.504 470.08 323.525 469.991 323.547 469.904C323.733 469.143 323.893 468.468 323.953 467.953L323.953 467.952C326.43 446.62 329.54 424.016 343.5 408.03C343.766 408.683 343.839 409.414 343.787 410.196C343.718 411.231 343.432 412.313 343.125 413.359C338.444 429.245 334.383 446.106 337.679 462.474L337.679 462.475C337.996 464.037 338.384 465.611 338.769 467.172C339.03 468.226 339.288 469.275 339.523 470.31C340.11 472.907 340.562 475.489 340.576 478.111L340.576 478.112C340.596 480.734 340.103 484.408 338.99 487.21C338.432 488.615 337.739 489.749 336.922 490.436C336.132 491.102 335.222 491.356 334.126 491.016Z" fill="url(#paint9_linear_22_411)" stroke="black"/>
<path d="M352.431 423.123L351.852 423.031V423.175C351.833 423.175 351.814 423.176 351.794 423.176C351.452 423.186 350.94 423.184 350.274 423.137C348.941 423.044 346.991 422.773 344.548 422.056C339.665 420.623 332.801 417.407 324.968 410.253L324.968 410.253C323.192 408.633 322.428 406.007 322.181 403.462C321.941 401.002 322.787 398.397 324.67 396.949C325.643 396.202 326.806 395.793 328.082 395.486C328.648 395.35 329.226 395.237 329.815 395.121C329.89 395.106 329.965 395.091 330.041 395.076C330.704 394.946 331.379 394.808 332.039 394.633L332.04 394.632C336.19 393.518 339.547 390.923 342.739 388.15C343.339 387.628 343.933 387.101 344.526 386.575C347.107 384.283 349.656 382.019 352.57 380.375L352.57 380.375C353.977 379.58 355.686 379.007 357.272 378.941C358.854 378.875 360.253 379.313 361.169 380.461L361.171 380.463C361.74 381.169 362.055 382.097 362.273 383.08L362.274 383.083C363.372 387.897 362.538 392.787 361.5 397.805C361.4 398.286 361.299 398.769 361.197 399.253C360.245 403.778 359.271 408.408 359.65 413.039L359.65 413.04C359.685 413.445 359.727 413.837 359.769 414.222C359.833 414.819 359.896 415.403 359.927 416.005C359.976 416.971 359.933 417.891 359.67 418.764L359.669 418.767C359.479 419.412 359.16 420.005 358.762 420.576C357.923 421.747 357.037 422.48 356.038 422.876C355.036 423.273 353.868 423.351 352.431 423.123Z" fill="url(#paint10_linear_22_411)" stroke="black"/>
<path d="M330.601 398.835L331.146 398.563C335.839 398.572 340.152 396.099 343.647 393.163C345.328 391.751 346.885 390.203 348.426 388.672C348.504 388.595 348.581 388.517 348.659 388.44C350.28 386.83 351.89 385.244 353.641 383.824C353.915 383.611 354.061 383.513 354.206 383.498C354.308 383.493 354.431 383.545 354.544 383.703C354.661 383.866 354.716 384.082 354.692 384.261C354.632 384.714 354.304 385.116 353.861 385.633L344.168 396.555C344.168 396.555 344.168 396.555 344.167 396.556C342.08 398.897 339.939 401.215 337.117 401.98L337.115 401.981C335.74 402.358 334.148 402.17 332.868 401.527C331.701 400.94 330.845 400.006 330.601 398.835Z" fill="url(#paint11_linear_22_411)" stroke="black"/>
<path d="M298.449 318.762L316.222 337.029" stroke="black"/>
<path d="M302.398 394.067C308.617 394.522 322.062 394.613 326.096 391.336" stroke="black"/>
<path d="M272.777 345.422L258.459 365.664" stroke="black"/>
<path d="M438.74 238.85C498.489 226.107 536.594 167.34 523.85 107.591C511.107 47.8425 452.34 9.73736 392.591 22.4809C332.843 35.2245 294.737 93.9911 307.481 153.74C320.225 213.489 378.991 251.594 438.74 238.85Z" fill="#FFF8EC" stroke="black"/>
<path d="M460.31 147.972L460.251 148.163L460.266 148.193C455.037 165.241 448.936 182.051 437.915 195.699L437.915 195.699C428.676 207.146 414.359 209.171 400.895 204.849C387.423 200.524 374.906 189.867 369.395 176.117L368.931 176.303L369.395 176.117C367.966 172.55 366.217 166.106 365.244 158.957C364.27 151.805 364.081 144.006 365.726 137.711L365.726 137.711C366.359 135.284 367.094 131.671 367.953 127.441C368.228 126.091 368.515 124.677 368.816 123.219C370.062 117.183 371.544 110.364 373.326 104.015C375.111 97.6579 377.186 91.8084 379.607 87.6933C382.053 83.5337 384.71 81.3735 387.613 81.8606C388.861 82.0703 389.793 82.6579 390.493 83.5418C391.201 84.4374 391.685 85.6583 391.978 87.1453C392.564 90.1261 392.356 94.0333 391.813 98.1247C391.338 101.709 390.612 105.392 389.969 108.658C389.88 109.112 389.792 109.557 389.707 109.994C389.358 111.778 389.049 113.409 388.846 114.78C388.645 116.139 388.539 117.289 388.616 118.091L388.616 118.091C389.202 124.14 397.625 125.018 399.482 119.249C399.73 118.491 399.945 117.735 400.145 116.982L400.146 116.98C401.49 111.819 402.68 106.575 403.864 101.33C403.919 101.086 403.973 100.843 404.028 100.599C405.157 95.5952 406.285 90.5939 407.541 85.6522C410.176 75.2867 413.37 65.21 418.288 55.9941L418.289 55.9936C420.683 51.4955 427.552 53.1127 427.682 58.2191V58.2193V58.2196V58.2198V58.2201V58.2204V58.2206V58.2209V58.2212V58.2214V58.2217V58.222V58.2222V58.2225V58.2228V58.223V58.2233V58.2236V58.2238V58.2241V58.2244V58.2246V58.2249V58.2252V58.2254V58.2257V58.226V58.2263V58.2265V58.2268V58.2271V58.2273V58.2276V58.2279V58.2281V58.2284V58.2287V58.2289V58.2292V58.2295V58.2297V58.23V58.2303V58.2305V58.2308V58.2311V58.2313V58.2316V58.2319V58.2321V58.2324V58.2327V58.233V58.2332V58.2335V58.2338V58.234V58.2343V58.2346V58.2348V58.2351V58.2354V58.2356V58.2359V58.2362V58.2364V58.2367V58.237V58.2372V58.2375V58.2378V58.238V58.2383V58.2386V58.2388V58.2391V58.2394V58.2397V58.2399V58.2402V58.2405V58.2407V58.241V58.2413V58.2415V58.2418V58.2421V58.2423V58.2426V58.2429V58.2431V58.2434V58.2437V58.2439V58.2442V58.2445V58.2447V58.245V58.2453V58.2455V58.2458V58.2461V58.2464V58.2466V58.2469V58.2472V58.2474V58.2477V58.248V58.2482V58.2485V58.2488V58.249V58.2493V58.2496V58.2498V58.2501V58.2504V58.2506V58.2509V58.2512V58.2514V58.2517V58.252V58.2522V58.2525V58.2528V58.253V58.2533V58.2536V58.2539V58.2541V58.2544V58.2547V58.2549V58.2552V58.2555V58.2557V58.256V58.2563V58.2565V58.2568V58.2571V58.2573V58.2576V58.2579V58.2581V58.2584V58.2587V58.2589V58.2592V58.2595V58.2597V58.26V58.2603V58.2606V58.2608V58.2611V58.2614V58.2616V58.2619V58.2622V58.2624V58.2627V58.263V58.2632V58.2635V58.2638V58.264V58.2643V58.2646V58.2648V58.2651V58.2654V58.2656V58.2659V58.2662V58.2664V58.2667V58.267V58.2673V58.2675V58.2678V58.2681V58.2683V58.2686V58.2689V58.2691V58.2694V58.2697V58.2699V58.2702V58.2705V58.2707V58.271V58.2713V58.2715V58.2718V58.2721V58.2723V58.2726V58.2729V58.2731V58.2734V58.2737V58.2739V58.2742V58.2745V58.2748V58.275V58.2753V58.2756V58.2758V58.2761V58.2764V58.2766V58.2769V58.2772V58.2774V58.2777V58.278V58.2782V58.2785V58.2788V58.279V58.2793V58.2796V58.2798V58.2801V58.2804V58.2806V58.2809V58.2812V58.2815V58.2817V58.282V58.2823V58.2825V58.2828V58.2831V58.2833V58.2836V58.2839V58.2841V58.2844V58.2847V58.2849V58.2852V58.2855V58.2857V58.286V58.2863V58.2865V58.2868V58.2871V58.2873V58.2876V58.2879V58.2881V58.2884V58.2887V58.289V58.2892V58.2895V58.2898V58.29V58.2903V58.2906V58.2908V58.2911V58.2914V58.2916V58.2919V58.2922V58.2924V58.2927V58.293V58.2932V58.2935V58.2938V58.294V58.2943V58.2946V58.2948V58.2951V58.2954V58.2957V58.2959V58.2962V58.2965V58.2967V58.297V58.2973V58.2975V58.2978V58.2981V58.2983V58.2986V58.2989V58.2991V58.2994V58.2997V58.2999V58.3002V58.3005V58.3007V58.301V58.3013V58.3015V58.3018V58.3021V58.3024V58.3026V58.3029V58.3032V58.3034V58.3037V58.304V58.3042V58.3045V58.3048V58.305V58.3053V58.3056V58.3058V58.3061V58.3064V58.3066V58.3069V58.3072V58.3074V58.3077V58.308V58.3082V58.3085V58.3088V58.309V58.3093V58.3096V58.3099V58.3101V58.3104V58.3107V58.3109V58.3112V58.3115V58.3117V58.312V58.3123V58.3125V58.3128V58.3131V58.3133V58.3136V58.3139V58.3141V58.3144V58.3147V58.3149V58.3152V58.3155V58.3157V58.316V58.3163V58.3166V58.3168V58.3171V58.3174V58.3176V58.3179V58.3182V58.3184V58.3187V58.319V58.3192V58.3195V58.3198V58.32V58.3203V58.3206V58.3208V58.3211V58.3214V58.3216V58.3219V58.3222V58.3224V58.3227V58.323V58.3233V58.3235V58.3238V58.3241V58.3243V58.3246V58.3249V58.3251V58.3254V58.3257V58.3259V58.3262V58.3265V58.3267V58.327V58.3273V58.3275V58.3278V58.3281V58.3283V58.3286V58.3289V58.3291V58.3294V58.3297V58.33V58.3302V58.3305V58.3308V58.331V58.3313V58.3316V58.3318V58.3321V58.3324V58.3326V58.3329V58.3332V58.3334V58.3337V58.334V58.3342V58.3345V58.3348V58.335V58.3353V58.3356V58.3358V58.3361V58.3364V58.3366V58.3369V58.3372V58.3375V58.3377V58.338V58.3383V58.3385V58.3388V58.3391V58.3393V58.3396V58.3399V58.3401V58.3404V58.3407V58.3409V58.3412V58.3415V58.3417V58.342V58.3423V58.3425V58.3428V58.3431V58.3433V58.3436V58.3439V58.3442V58.3444V58.3447V58.345V58.3452V58.3455V58.3458V58.346V58.3463V58.3466V58.3468V58.3471V58.3474V58.3476V58.3479V58.3482V58.3484V58.3487V58.349V58.3492V58.3495V58.3498V58.35H427.682L427.682 58.3615C427.856 65.913 425.867 76.4649 423.48 87.05C422.624 90.8435 421.717 94.6418 420.844 98.3003C420.036 101.684 419.257 104.948 418.574 107.977C417.816 111.303 417.26 113.99 416.973 115.705L417.958 115.876C418.368 113.599 418.908 111.043 419.528 108.29C421.153 101.149 423.727 90.9881 426.565 81.1787C428.631 74.0332 430.834 67.0876 432.906 61.6418C433.943 58.9181 434.943 56.5797 435.874 54.7829C436.817 52.9615 437.65 51.7735 438.329 51.2659C440.413 49.7102 443.407 50.6271 444.183 53.0727C444.949 55.5342 445.029 58.4052 444.953 61.0947C444.74 68.4849 442.529 78.708 439.96 89.0254C439.662 89.8518 439.37 90.6816 439.083 91.5127C435.678 101.378 433.045 111.495 432.622 118.608L433.612 118.735C434.619 113.646 436.31 107.158 438.125 100.191C438.982 96.903 439.867 93.5081 440.721 90.1035C440.787 89.8411 440.852 89.5787 440.918 89.3162C444.135 80.3791 447.903 71.8597 451.145 66.2209L451.146 66.2203C453.154 62.7152 458.53 64.4273 458.141 68.4232L458.138 68.4474V68.4716V68.4718V68.472V68.4722V68.4724V68.4725V68.4727V68.4729V68.4731V68.4733V68.4734V68.4736V68.4738V68.474V68.4742V68.4744V68.4745V68.4747V68.4749V68.4751V68.4753V68.4755V68.4756V68.4758V68.476V68.4762V68.4764V68.4766V68.4768V68.477V68.4771V68.4773V68.4775V68.4777V68.4779V68.4781V68.4783V68.4785V68.4787V68.4789V68.479V68.4792V68.4794V68.4796V68.4798V68.48V68.4802V68.4804V68.4806V68.4808V68.481V68.4812V68.4814V68.4816V68.4818V68.4819V68.4821V68.4823V68.4825V68.4827V68.4829V68.4831V68.4833V68.4835V68.4837V68.4839V68.4841V68.4843V68.4845V68.4847V68.4849V68.4851V68.4853V68.4855V68.4857V68.4859V68.4861V68.4863V68.4865V68.4867V68.4869V68.4871V68.4873V68.4875V68.4877V68.4879V68.4881V68.4883V68.4885V68.4888V68.489V68.4892V68.4894V68.4896V68.4898V68.49V68.4902V68.4904V68.4906V68.4908V68.491V68.4912V68.4914V68.4916V68.4918V68.4921V68.4923V68.4925V68.4927V68.4929V68.4931V68.4933V68.4935V68.4937V68.4939V68.4941V68.4943V68.4946V68.4948V68.495V68.4952V68.4954V68.4956V68.4958V68.496V68.4962V68.4965V68.4967V68.4969V68.4971V68.4973V68.4975V68.4977V68.4979V68.4982V68.4984V68.4986V68.4988V68.499V68.4992V68.4994V68.4997V68.4999V68.5001V68.5003V68.5005V68.5007V68.5009V68.5012V68.5014V68.5016V68.5018V68.502V68.5022V68.5025V68.5027V68.5029V68.5031V68.5033V68.5035V68.5037V68.504V68.5042V68.5044V68.5046V68.5048V68.5051V68.5053V68.5055V68.5057V68.5059V68.5061V68.5064V68.5066V68.5068V68.507V68.5072V68.5075V68.5077V68.5079V68.5081V68.5083V68.5086V68.5088V68.509V68.5092V68.5094V68.5097V68.5099V68.5101V68.5103V68.5105V68.5108V68.511V68.5112V68.5114V68.5116V68.5119V68.5121V68.5123V68.5125V68.5127V68.513V68.5132V68.5134V68.5136V68.5138V68.5141V68.5143V68.5145V68.5147V68.515V68.5152V68.5154V68.5156V68.5158V68.5161V68.5163V68.5165V68.5167V68.517V68.5172V68.5174V68.5176V68.5178V68.5181V68.5183V68.5185V68.5187V68.519V68.5192V68.5194V68.5196V68.5199V68.5201V68.5203V68.5205V68.5207V68.521V68.5212V68.5214V68.5216V68.5219V68.5221V68.5223V68.5225V68.5228V68.523V68.5232V68.5234V68.5236V68.5239V68.5241V68.5243V68.5245V68.5248V68.525V68.5252V68.5254V68.5257V68.5259V68.5261V68.5263V68.5265V68.5268V68.527V68.5272V68.5274V68.5277V68.5279V68.5281V68.5283V68.5286V68.5288V68.529V68.5292V68.5294V68.5297V68.5299V68.5301V68.5303V68.5306V68.5308V68.531V68.5312V68.5315V68.5317V68.5319V68.5321V68.5323V68.5326V68.5328V68.533V68.5332V68.5335V68.5337V68.5339V68.5341V68.5343V68.5346V68.5348V68.535V68.5352V68.5355V68.5357V68.5359V68.5361V68.5363V68.5366V68.5368V68.537V68.5372V68.5374V68.5377V68.5379V68.5381V68.5383V68.5386V68.5388V68.539V68.5392V68.5394V68.5397V68.5399V68.5401V68.5403V68.5405V68.5408V68.541V68.5412V68.5414V68.5416V68.5419V68.5421V68.5423V68.5425V68.5427V68.5429V68.5432V68.5434V68.5436V68.5438V68.544V68.5443V68.5445V68.5447V68.5449V68.5451V68.5454V68.5456V68.5458V68.546V68.5462V68.5464V68.5467V68.5469V68.5471V68.5473V68.5475V68.5477V68.548V68.5482V68.5484V68.5486V68.5488V68.549V68.5492V68.5495V68.5497V68.5499V68.5501V68.5503V68.5505V68.5507V68.551V68.5512V68.5514V68.5516V68.5518C457.385 75.6143 455 85.9641 452.401 96.3177C451.447 100.119 450.464 103.921 449.524 107.556C448.211 112.633 446.983 117.384 446.035 121.352C445.786 122.321 445.58 123.209 445.42 123.995L446.398 124.205C446.584 123.379 446.788 122.506 447.006 121.591C448.383 116.224 451.065 108.279 453.989 101.334C455.711 97.2439 457.508 93.5242 459.161 90.8926C459.989 89.5739 460.766 88.5531 461.463 87.896C462.185 87.2153 462.701 87.0357 463.039 87.1019L463.039 87.102C464.281 87.3447 465.277 88.1608 466.057 89.5277C466.843 90.9043 467.389 92.8067 467.72 95.1284C468.382 99.7683 468.167 105.936 467.449 112.538C466.014 125.733 462.588 140.522 460.31 147.972Z" fill="url(#paint12_linear_22_411)" stroke="black"/>
<path d="M441.703 164.734L441.973 165.155L442.348 164.914L442.152 164.514L441.703 164.734ZM441.703 164.734C442.152 164.514 442.152 164.514 442.152 164.514L442.152 164.513L442.15 164.51L442.145 164.5L442.127 164.462C442.11 164.43 442.086 164.382 442.054 164.32C441.99 164.195 441.895 164.013 441.769 163.781C441.518 163.317 441.143 162.652 440.649 161.843C439.66 160.223 438.191 158.023 436.265 155.694C432.421 151.045 426.72 145.84 419.354 143.78C411.988 141.714 404.412 143.203 398.713 145.18C395.858 146.171 393.46 147.29 391.774 148.161C390.931 148.596 390.266 148.97 389.81 149.236C389.582 149.37 389.407 149.476 389.287 149.549C389.228 149.585 389.182 149.614 389.151 149.633L389.116 149.656L389.106 149.662L389.104 149.663L389.103 149.664C389.103 149.664 389.103 149.664 389.373 150.085M441.703 164.734C441.973 165.155 441.973 165.155 441.973 165.155L441.972 165.155L441.969 165.157L441.96 165.163L441.924 165.185C441.893 165.205 441.848 165.233 441.788 165.27C441.669 165.343 441.493 165.449 441.265 165.582C440.809 165.848 440.144 166.222 439.301 166.658C437.616 167.529 435.218 168.647 432.363 169.638C426.664 171.616 419.088 173.105 411.722 171.038C404.356 168.979 398.654 163.773 394.81 159.125C392.884 156.796 391.415 154.595 390.427 152.976C389.932 152.166 389.558 151.501 389.306 151.037C389.181 150.805 389.086 150.623 389.022 150.499C388.99 150.437 388.965 150.389 388.949 150.356L388.93 150.319L388.925 150.309L388.924 150.306L388.924 150.305C388.923 150.305 388.923 150.304 389.373 150.085M389.373 150.085L389.103 149.664L388.728 149.904L388.923 150.304L389.373 150.085Z" fill="#FFF8EC" stroke="black"/>
<path d="M412.591 168.401L412.591 168.401C418.527 170.061 424.672 166.614 426.332 160.677C427.991 154.741 424.544 148.596 418.607 146.936C412.671 145.276 406.526 148.723 404.866 154.661C403.207 160.597 406.67 166.741 412.591 168.401Z" fill="#FF7372" stroke="black"/>
<path d="M419.435 156.862C421.059 157.318 422.736 156.368 423.191 154.747C423.648 153.123 422.698 151.446 421.077 150.99C419.453 150.534 417.776 151.484 417.32 153.105C416.864 154.729 417.814 156.406 419.435 156.862Z" fill="#FFF8EC" stroke="black"/>
<defs>
<linearGradient id="paint0_linear_22_411" x1="100.596" y1="195.958" x2="206.28" y2="228.212" gradientUnits="userSpaceOnUse">
<stop stop-color="#8CB6F3"/>
<stop offset="0.419064" stop-color="#8CB6F3"/>
<stop offset="0.979167" stop-color="#CEE0FB"/>
</linearGradient>
<linearGradient id="paint1_linear_22_411" x1="290.727" y1="389.42" x2="342.774" y2="423.073" gradientUnits="userSpaceOnUse">
<stop stop-color="#E7B12D"/>
<stop offset="0.458333" stop-color="#F7C651"/>
<stop offset="1" stop-color="#FFDE8C"/>
</linearGradient>
<linearGradient id="paint2_linear_22_411" x1="260.409" y1="301.398" x2="291.346" y2="402.009" gradientUnits="userSpaceOnUse">
<stop stop-color="#FF7372"/>
<stop offset="0.484375" stop-color="#FF7372"/>
<stop offset="1" stop-color="#FF8C8B"/>
</linearGradient>
<linearGradient id="paint3_linear_22_411" x1="258.327" y1="343.119" x2="268.906" y2="368.605" gradientUnits="userSpaceOnUse">
<stop stop-color="#FFB2D8"/>
<stop offset="0.458333" stop-color="#FFB2D8"/>
<stop offset="1" stop-color="#FFD9EC"/>
</linearGradient>
<linearGradient id="paint4_linear_22_411" x1="300.63" y1="347.232" x2="307.723" y2="366.083" gradientUnits="userSpaceOnUse">
<stop stop-color="#FFB2D8"/>
<stop offset="0.458333" stop-color="#FFB2D8"/>
<stop offset="1" stop-color="#FFD9EC"/>
</linearGradient>
<linearGradient id="paint5_linear_22_411" x1="300.875" y1="312.864" x2="310.973" y2="339.109" gradientUnits="userSpaceOnUse">
<stop stop-color="#FFB2D8"/>
<stop offset="0.458333" stop-color="#FFB2D8"/>
<stop offset="1" stop-color="#FFD9EC"/>
</linearGradient>
<linearGradient id="paint6_linear_22_411" x1="305.509" y1="383.097" x2="312.496" y2="404.642" gradientUnits="userSpaceOnUse">
<stop stop-color="#FFB2D8"/>
<stop offset="0.458333" stop-color="#FFB2D8"/>
<stop offset="1" stop-color="#FFD9EC"/>
</linearGradient>
<linearGradient id="paint7_linear_22_411" x1="330.779" y1="351.981" x2="337.584" y2="374.158" gradientUnits="userSpaceOnUse">
<stop stop-color="#FFB2D8"/>
<stop offset="0.458333" stop-color="#FFB2D8"/>
<stop offset="1" stop-color="#FFD9EC"/>
</linearGradient>
<linearGradient id="paint8_linear_22_411" x1="257.101" y1="381.043" x2="268.964" y2="413.467" gradientUnits="userSpaceOnUse">
<stop stop-color="#FFB2D8"/>
<stop offset="0.458333" stop-color="#FFB2D8"/>
<stop offset="1" stop-color="#FFD9EC"/>
</linearGradient>
<linearGradient id="paint9_linear_22_411" x1="323.225" y1="412.77" x2="372.529" y2="440.886" gradientUnits="userSpaceOnUse">
<stop stop-color="#E7B12D"/>
<stop offset="0.458333" stop-color="#F7C651"/>
<stop offset="1" stop-color="#FFDE8C"/>
</linearGradient>
<linearGradient id="paint10_linear_22_411" x1="363.292" y1="380.375" x2="335.331" y2="431.271" gradientUnits="userSpaceOnUse">
<stop stop-color="#FF48CA"/>
<stop offset="0.491167" stop-color="#E07CC3"/>
<stop offset="1" stop-color="#E07CC3"/>
</linearGradient>
<linearGradient id="paint11_linear_22_411" x1="330.667" y1="384.113" x2="364.061" y2="400.393" gradientUnits="userSpaceOnUse">
<stop stop-color="#8CB6F3"/>
<stop offset="0.419064" stop-color="#8CB6F3"/>
<stop offset="0.979167" stop-color="#CEE0FB"/>
</linearGradient>
<linearGradient id="paint12_linear_22_411" x1="370.254" y1="60.457" x2="470.543" y2="203.711" gradientUnits="userSpaceOnUse">
<stop stop-color="#E7B12D"/>
<stop offset="0.476697" stop-color="#F7C651"/>
<stop offset="0.904587" stop-color="#FFDE8C"/>
</linearGradient>
</defs>
</svg>
