<svg width="1526" height="2212" viewBox="0 0 1526 2212" fill="none" xmlns="http://www.w3.org/2000/svg">
<path d="M1003.68 110.65C1004.59 110.79 1005.57 110.905 1006.64 111C1005.57 111.096 1004.58 111.211 1003.68 111.352C1000.38 111.865 998.024 112.735 996.377 114.383C994.73 116.031 993.862 118.383 993.35 121.682C993.21 122.589 993.095 123.573 993 124.643C992.904 123.571 992.789 122.584 992.648 121.675C992.135 118.376 991.265 116.024 989.617 114.377C987.969 112.73 985.617 111.862 982.318 111.35C981.411 111.21 980.427 111.095 979.357 111C980.429 110.904 981.416 110.789 982.325 110.648C985.624 110.135 987.976 109.265 989.623 107.617C991.27 105.969 992.138 103.617 992.65 100.318C992.79 99.4115 992.905 98.4267 993 97.3574C993.096 98.4292 993.211 99.4161 993.352 100.325C993.865 103.624 994.735 105.976 996.383 107.623C998.031 109.27 1000.38 110.138 1003.68 110.65Z" fill="url(#paint0_linear_22_411)" stroke="black"/>
<path d="M67.9921 2163.84C71.5806 2164.4 75.8019 2164.74 80.7677 2165C75.7962 2165.26 71.5709 2165.61 67.9797 2166.16C61.554 2167.16 57.0711 2168.84 53.953 2171.96C50.835 2175.08 49.1555 2179.57 48.1595 2185.99C47.6031 2189.58 47.2565 2193.8 46.9997 2198.77C46.7422 2193.8 46.3943 2189.57 45.8364 2185.98C44.8381 2179.55 43.1559 2175.07 40.0359 2171.95C36.916 2168.83 32.4322 2167.16 26.008 2166.16C22.4194 2165.6 18.1981 2165.26 13.2323 2165C18.2038 2164.74 22.4291 2164.39 26.0203 2163.84C32.446 2162.84 36.9289 2161.16 40.047 2158.04C43.1651 2154.92 44.8445 2150.43 45.8405 2144.01C46.3969 2140.42 46.7435 2136.2 47.0003 2131.23C47.2578 2136.2 47.6057 2140.43 48.1636 2144.02C49.1619 2150.45 50.8441 2154.93 53.9641 2158.05C57.084 2161.17 61.5678 2162.84 67.9921 2163.84Z" fill="url(#paint1_linear_22_411)" stroke="black"/>
<path d="M1499.99 1362.84C1503.58 1363.4 1507.8 1363.74 1512.77 1364C1507.8 1364.26 1503.57 1364.61 1499.98 1365.16C1493.55 1366.16 1489.07 1367.84 1485.95 1370.96C1482.83 1374.08 1481.16 1378.57 1480.16 1384.99C1479.6 1388.58 1479.26 1392.8 1479 1397.77C1478.74 1392.8 1478.39 1388.57 1477.84 1384.98C1476.84 1378.55 1475.16 1374.07 1472.04 1370.95C1468.92 1367.83 1464.43 1366.16 1458.01 1365.16C1454.42 1364.6 1450.2 1364.26 1445.23 1364C1450.2 1363.74 1454.43 1363.39 1458.02 1362.84C1464.45 1361.84 1468.93 1360.16 1472.05 1357.04C1475.17 1353.92 1476.84 1349.43 1477.84 1343.01C1478.4 1339.42 1478.74 1335.2 1479 1330.23C1479.26 1335.2 1479.61 1339.43 1480.16 1343.02C1481.16 1349.45 1482.84 1353.93 1485.96 1357.05C1489.08 1360.17 1493.57 1361.84 1499.99 1362.84Z" fill="url(#paint2_linear_22_411)" stroke="black"/>
<path d="M114.992 255.841C118.581 256.397 122.802 256.743 127.768 257C122.796 257.258 118.571 257.606 114.98 258.164C108.554 259.162 104.071 260.844 100.953 263.964C97.835 267.084 96.1555 271.568 95.1595 277.992C94.6031 281.581 94.2565 285.802 93.9997 290.768C93.7422 285.796 93.3943 281.571 92.8364 277.98C91.8381 271.554 90.1559 267.071 87.0359 263.953C83.916 260.835 79.4322 259.155 73.008 258.159C69.4194 257.603 65.1981 257.257 60.2323 257C65.2038 256.742 69.4291 256.394 73.0203 255.836C79.446 254.838 83.9289 253.156 87.047 250.036C90.1651 246.916 91.8445 242.432 92.8405 236.008C93.3969 232.419 93.7435 228.198 94.0003 223.232C94.2578 228.204 94.6057 232.429 95.1636 236.02C96.1619 242.446 97.8441 246.929 100.964 250.047C104.084 253.165 108.568 254.845 114.992 255.841Z" fill="url(#paint3_linear_22_411)" stroke="black"/>
<path d="M464 67.015L465 67.015C465.235 59.1927 465.459 53.3163 466.138 48.8684C466.817 44.4207 467.941 41.4884 469.909 39.4886C471.876 37.49 474.76 36.3484 479.138 35.6578C483.518 34.9669 489.306 34.7387 497.015 34.4998L497.015 33.5002C489.311 33.2613 483.525 33.0344 479.147 32.3451C474.769 31.656 471.884 30.5162 469.916 28.5188C467.947 26.5202 466.821 23.5886 466.14 19.1401C465.46 14.6912 465.235 8.81234 465 0.984978L464 0.984968C463.765 8.80732 463.541 14.6837 462.862 19.1316C462.183 23.5793 461.059 26.5116 459.091 28.5114C457.124 30.51 454.24 31.6516 449.862 32.3422C445.482 33.0331 439.694 33.2613 431.985 33.5002L431.985 34.4998C439.689 34.7387 445.475 34.9656 449.853 35.6549C454.231 36.3441 457.116 37.4838 459.084 39.4812C461.053 41.4798 462.179 44.4114 462.86 48.8599C463.54 53.3088 463.765 59.1877 464 67.015Z" fill="#FFF8EC" stroke="black"/>
<path d="M342.991 1743.33C344.857 1743.63 346.969 1743.84 349.358 1744C346.965 1744.16 344.85 1744.38 342.982 1744.67C338.526 1745.37 335.387 1746.56 333.196 1748.79C331.007 1751.01 329.839 1754.2 329.149 1758.72C328.865 1760.58 328.659 1762.69 328.5 1765.07C328.34 1762.68 328.134 1760.58 327.848 1758.71C327.156 1754.19 325.987 1751 323.796 1748.78C321.604 1746.56 318.464 1745.37 314.009 1744.67C312.143 1744.37 310.031 1744.16 307.642 1744C310.035 1743.84 312.149 1743.62 314.018 1743.33C318.474 1742.63 321.613 1741.44 323.804 1739.21C325.993 1736.99 327.161 1733.8 327.851 1729.28C328.135 1727.42 328.341 1725.31 328.5 1722.93C328.66 1725.32 328.866 1727.42 329.152 1729.29C329.844 1733.81 331.013 1737 333.204 1739.22C335.396 1741.44 338.536 1742.63 342.991 1743.33Z" fill="url(#paint4_linear_22_411)" stroke="black"/>
<path d="M1503.96 544.649C1504.84 544.79 1505.81 544.905 1506.86 545C1505.81 545.096 1504.84 545.211 1503.95 545.353C1500.72 545.866 1498.41 546.737 1496.8 548.387C1495.18 550.035 1494.33 552.386 1493.83 555.683C1493.7 556.556 1493.59 557.502 1493.5 558.525C1493.41 557.499 1493.3 556.552 1493.17 555.677C1492.66 552.379 1491.81 550.028 1490.2 548.381C1488.58 546.732 1486.28 545.862 1483.04 545.351C1482.16 545.21 1481.19 545.095 1480.14 545C1481.19 544.904 1482.16 544.789 1483.05 544.647C1486.28 544.134 1488.59 543.263 1490.2 541.613C1491.82 539.965 1492.67 537.614 1493.17 534.317C1493.3 533.444 1493.41 532.498 1493.5 531.475C1493.59 532.501 1493.7 533.448 1493.83 534.323C1494.34 537.621 1495.19 539.972 1496.8 541.619C1498.42 543.268 1500.72 544.138 1503.96 544.649Z" fill="url(#paint5_linear_22_411)" stroke="black"/>
<path d="M1020.99 33.3329C1022.86 33.6266 1024.97 33.8372 1027.36 34.0003C1024.97 34.164 1022.85 34.3753 1020.98 34.67C1016.53 35.3729 1013.39 36.5617 1011.2 38.7871C1009.01 41.0113 1007.84 44.1967 1007.15 48.7174C1006.86 50.5816 1006.66 52.6876 1006.5 55.0664C1006.34 52.6839 1006.13 50.575 1005.85 48.7087C1005.16 44.187 1003.99 41.0022 1001.8 38.7793C999.604 36.5552 996.464 35.3685 992.009 34.6671C990.143 34.3734 988.031 34.1628 985.642 33.9997C988.035 33.836 990.149 33.6247 992.018 33.33C996.474 32.6271 999.613 31.4383 1001.8 29.2129C1003.99 26.9887 1005.16 23.8033 1005.85 19.2826C1006.14 17.4184 1006.34 15.3124 1006.5 12.9336C1006.66 15.3161 1006.87 17.425 1007.15 19.2913C1007.84 23.813 1009.01 26.9978 1011.2 29.2207C1013.4 31.4448 1016.54 32.6315 1020.99 33.3329Z" fill="url(#paint6_linear_22_411)" stroke="black"/>
<path d="M502 62.5C502 64.9847 499.761 67 497 67C494.239 67 492 64.9847 492 62.5C492 60.0152 494.239 58 497 58C499.761 58 502 60.0152 502 62.5Z" fill="#130000"/>
<path d="M1405 851.5C1405 853.985 1402.76 856 1400 856C1397.24 856 1395 853.985 1395 851.5C1395 849.015 1397.24 847 1400 847C1402.76 847 1405 849.015 1405 851.5Z" fill="#130000"/>
<path d="M1517 573.5C1517 575.985 1514.76 578 1512 578C1509.24 578 1507 575.985 1507 573.5C1507 571.015 1509.24 569 1512 569C1514.76 569 1517 571.015 1517 573.5Z" fill="#130000"/>
<path d="M23 2113.5C23 2115.98 20.7609 2118 18 2118C15.2391 2118 13 2115.98 13 2113.5C13 2111.02 15.2391 2109 18 2109C20.7609 2109 23 2111.02 23 2113.5Z" fill="#FFF8EC"/>
<path d="M1412 1781.5C1412 1783.98 1409.76 1786 1407 1786C1404.24 1786 1402 1783.98 1402 1781.5C1402 1779.02 1404.24 1777 1407 1777C1409.76 1777 1412 1779.02 1412 1781.5Z" fill="#FFF8EC"/>
<defs>
<linearGradient id="paint0_linear_22_411" x1="973.87" y1="87" x2="989.45" y2="138.593" gradientUnits="userSpaceOnUse">
<stop stop-color="#FF7372"/>
<stop offset="0.484375" stop-color="#FF7372"/>
<stop offset="1" stop-color="#FF8C8B"/>
</linearGradient>
<linearGradient id="paint1_linear_22_411" x1="-2.72464" y1="2120.35" x2="51.6594" y2="2226.2" gradientUnits="userSpaceOnUse">
<stop stop-color="#D3C3ED"/>
<stop offset="0.489583" stop-color="#D3C3ED"/>
<stop offset="1" stop-color="#EEE3FF"/>
</linearGradient>
<linearGradient id="paint2_linear_22_411" x1="1526" y1="1321.03" x2="1470.7" y2="1430.54" gradientUnits="userSpaceOnUse">
<stop stop-color="#FF48CA"/>
<stop offset="0.491167" stop-color="#E07CC3"/>
<stop offset="1" stop-color="#E07CC3"/>
</linearGradient>
<linearGradient id="paint3_linear_22_411" x1="141" y1="214.025" x2="85.7003" y2="323.542" gradientUnits="userSpaceOnUse">
<stop stop-color="#FF48CA"/>
<stop offset="0.491167" stop-color="#E07CC3"/>
<stop offset="1" stop-color="#E07CC3"/>
</linearGradient>
<linearGradient id="paint4_linear_22_411" x1="294.116" y1="1712.65" x2="332.638" y2="1786.5" gradientUnits="userSpaceOnUse">
<stop stop-color="#D3C3ED"/>
<stop offset="0.489583" stop-color="#D3C3ED"/>
<stop offset="1" stop-color="#EEE3FF"/>
</linearGradient>
<linearGradient id="paint5_linear_22_411" x1="1522.11" y1="569" x2="1464.41" y2="539.36" gradientUnits="userSpaceOnUse">
<stop stop-color="#8CB6F3"/>
<stop offset="0.419064" stop-color="#8CB6F3"/>
<stop offset="0.979167" stop-color="#CEE0FB"/>
</linearGradient>
<linearGradient id="paint6_linear_22_411" x1="977.886" y1="5.38346" x2="1012.44" y2="78.5432" gradientUnits="userSpaceOnUse">
<stop stop-color="#E7B12D"/>
<stop offset="0.458333" stop-color="#F7C651"/>
<stop offset="1" stop-color="#FFDE8C"/>
</linearGradient>
</defs>
</svg>
