<svg width="300" height="40" xmlns="http://www.w3.org/2000/svg" fill="none">

 <g>
  <title>Layer 1</title>
  <path stroke="null" id="svg_1" fill="#2F2F2F" d="m31.353,7.056l0,3.728l4.064,0l0,1.2l-4.064,0l0,3.84l4.544,0l0,1.2l-6,0l0,-11.168l6,0l0,1.2l-4.544,0zm6.20313,5.552c0,-0.896 0.18133,-1.68 0.544,-2.352c0.36266,-0.68267 0.85866,-1.21067 1.488,-1.584c0.63997,-0.37333 1.34937,-0.56 2.12797,-0.56c0.768,0 1.4347,0.16533 2,0.496c0.5654,0.33067 0.9867,0.74667 1.264,1.248l0,-1.6l1.472,0l0,8.768l-1.472,0l0,-1.632c-0.288,0.512 -0.72,0.9387 -1.296,1.28c-0.5653,0.3307 -1.2266,0.496 -1.984,0.496c-0.7786,0 -1.4826,-0.192 -2.11197,-0.576c-0.62934,-0.384 -1.12534,-0.9227 -1.488,-1.616c-0.36267,-0.6933 -0.544,-1.48267 -0.544,-2.368zm7.42397,0.016c0,-0.66133 -0.1333,-1.23733 -0.4,-1.728c-0.2666,-0.49067 -0.6293,-0.864 -1.088,-1.12c-0.448,-0.26667 -0.944,-0.4 -1.488,-0.4c-0.544,0 -1.04,0.128 -1.488,0.384c-0.448,0.256 -0.8053,0.62933 -1.07197,1.12c-0.26667,0.49067 -0.4,1.06667 -0.4,1.728c0,0.672 0.13333,1.25867 0.4,1.76c0.26667,0.4907 0.62397,0.8693 1.07197,1.136c0.448,0.256 0.944,0.384 1.488,0.384c0.544,0 1.04,-0.128 1.488,-0.384c0.4587,-0.2667 0.8214,-0.6453 1.088,-1.136c0.2667,-0.50133 0.4,-1.08267 0.4,-1.744zm5.3885,-2.944c0.256,-0.50133 0.6187,-0.89067 1.088,-1.168c0.48,-0.27733 1.0614,-0.416 1.744,-0.416l0,1.504l-0.384,0c-1.632,0 -2.448,0.88533 -2.448,2.656l0,4.768l-1.456,0l0,-8.768l1.456,0l0,1.424zm5.9688,-4.496l0,11.84l-1.456,0l0,-11.84l1.456,0zm10.0335,3.072l-5.28,12.896l-1.504,0l1.728,-4.224l-3.536,-8.672l1.616,0l2.752,7.104l2.72,-7.104l1.504,0zm7.1852,1.632c0.2987,-0.52267 0.736,-0.94933 1.312,-1.28c0.576,-0.33067 1.232,-0.496 1.968,-0.496c0.7894,0 1.4987,0.18667 2.128,0.56c0.6294,0.37333 1.1254,0.90133 1.488,1.584c0.3627,0.672 0.544,1.456 0.544,2.352c0,0.88533 -0.1813,1.6747 -0.544,2.368c-0.3626,0.6933 -0.864,1.232 -1.504,1.616c-0.6293,0.384 -1.3333,0.576 -2.112,0.576c-0.7573,0 -1.424,-0.1653 -2,-0.496c-0.5653,-0.3307 -0.992,-0.752 -1.28,-1.264l0,1.616l-1.456,0l0,-11.84l1.456,0l0,4.704zm5.952,2.72c0,-0.66133 -0.1333,-1.23733 -0.4,-1.728c-0.2666,-0.49067 -0.6293,-0.864 -1.088,-1.12c-0.448,-0.256 -0.944,-0.384 -1.488,-0.384c-0.5333,0 -1.0293,0.13333 -1.488,0.4c-0.448,0.256 -0.8106,0.63467 -1.088,1.136c-0.2666,0.49067 -0.4,1.06133 -0.4,1.712c0,0.66133 0.1334,1.24267 0.4,1.744c0.2774,0.4907 0.64,0.8693 1.088,1.136c0.4587,0.256 0.9547,0.384 1.488,0.384c0.544,0 1.04,-0.128 1.488,-0.384c0.4587,-0.2667 0.8214,-0.6453 1.088,-1.136c0.2667,-0.50133 0.4,-1.088 0.4,-1.76zm4.1565,-5.776c-0.2773,0 -0.512,-0.096 -0.704,-0.288c-0.192,-0.192 -0.288,-0.42667 -0.288,-0.704c0,-0.27733 0.096,-0.512 0.288,-0.704c0.192,-0.192 0.4267,-0.288 0.704,-0.288c0.2667,0 0.4907,0.096 0.672,0.288c0.192,0.192 0.288,0.42667 0.288,0.704c0,0.27733 -0.096,0.512 -0.288,0.704c-0.1813,0.192 -0.4053,0.288 -0.672,0.288zm0.704,1.424l0,8.768l-1.456,0l0,-8.768l1.456,0zm3.9375,1.424c0.256,-0.50133 0.6187,-0.89067 1.088,-1.168c0.48,-0.27733 1.0614,-0.416 1.744,-0.416l0,1.504l-0.384,0c-1.632,0 -2.448,0.88533 -2.448,2.656l0,4.768l-1.456,0l0,-8.768l1.456,0l0,1.424zm3.9688,2.928c0,-0.896 0.1813,-1.68 0.544,-2.352c0.3626,-0.68267 0.8586,-1.21067 1.488,-1.584c0.64,-0.37333 1.3546,-0.56 2.144,-0.56c0.6826,0 1.3173,0.16 1.904,0.48c0.5866,0.30933 1.0346,0.72 1.344,1.232l0,-4.64l1.472,0l0,11.84l-1.472,0l0,-1.648c-0.288,0.5227 -0.7147,0.9547 -1.28,1.296c-0.5654,0.3307 -1.2267,0.496 -1.984,0.496c-0.7787,0 -1.488,-0.192 -2.128,-0.576c-0.6294,-0.384 -1.1254,-0.9227 -1.488,-1.616c-0.3627,-0.6933 -0.544,-1.48267 -0.544,-2.368zm7.424,0.016c0,-0.66133 -0.1334,-1.23733 -0.4,-1.728c-0.2667,-0.49067 -0.6294,-0.864 -1.088,-1.12c-0.448,-0.26667 -0.944,-0.4 -1.488,-0.4c-0.544,0 -1.04,0.128 -1.488,0.384c-0.448,0.256 -0.8054,0.62933 -1.072,1.12c-0.2667,0.49067 -0.4,1.06667 -0.4,1.728c0,0.672 0.1333,1.25867 0.4,1.76c0.2666,0.4907 0.624,0.8693 1.072,1.136c0.448,0.256 0.944,0.384 1.488,0.384c0.544,0 1.04,-0.128 1.488,-0.384c0.4586,-0.2667 0.8213,-0.6453 1.088,-1.136c0.2666,-0.50133 0.4,-1.08267 0.4,-1.744zm7.0365,4.544c-0.672,0 -1.2747,-0.112 -1.808,-0.336c-0.5334,-0.2347 -0.9547,-0.5547 -1.264,-0.96c-0.3094,-0.416 -0.48,-0.8907 -0.512,-1.424l1.504,0c0.0426,0.4373 0.2453,0.7947 0.608,1.072c0.3733,0.2773 0.8586,0.416 1.456,0.416c0.5546,0 0.992,-0.1227 1.312,-0.368c0.32,-0.2453 0.48,-0.5547 0.48,-0.928c0,-0.384 -0.1707,-0.66667 -0.512,-0.848c-0.3414,-0.192 -0.8694,-0.37867 -1.584,-0.56c-0.6507,-0.17067 -1.184,-0.34133 -1.6,-0.512c-0.4054,-0.18133 -0.7574,-0.44267 -1.056,-0.784c-0.288,-0.352 -0.432,-0.81067 -0.432,-1.376c0,-0.448 0.1333,-0.85867 0.4,-1.232c0.2666,-0.37333 0.6453,-0.66667 1.136,-0.88c0.4906,-0.224 1.0506,-0.336 1.68,-0.336c0.9706,0 1.7546,0.24533 2.352,0.736c0.5973,0.49067 0.9173,1.16267 0.96,2.016l-1.456,0c-0.032,-0.45867 -0.2187,-0.82667 -0.56,-1.104c-0.3307,-0.27733 -0.7787,-0.416 -1.344,-0.416c-0.5227,0 -0.9387,0.112 -1.248,0.336c-0.3094,0.224 -0.464,0.51733 -0.464,0.88c0,0.288 0.0906,0.528 0.272,0.72c0.192,0.18133 0.4266,0.33067 0.704,0.448c0.288,0.10667 0.6826,0.22933 1.184,0.368c0.6293,0.17067 1.1413,0.34133 1.536,0.512c0.3946,0.16 0.7306,0.40533 1.008,0.736c0.288,0.33067 0.4373,0.7627 0.448,1.296c0,0.48 -0.1334,0.912 -0.4,1.296c-0.2667,0.384 -0.6454,0.688 -1.136,0.912c-0.48,0.2133 -1.0347,0.32 -1.664,0.32zm11.297,-7.712l0,5.168c0,0.4267 0.0906,0.7307 0.272,0.912c0.1813,0.1707 0.496,0.256 0.944,0.256l1.072,0l0,1.232l-1.312,0c-0.8107,0 -1.4187,-0.1867 -1.824,-0.56c-0.4054,-0.3733 -0.608,-0.9867 -0.608,-1.84l0,-5.168l-1.136,0l0,-1.2l1.136,0l0,-2.208l1.456,0l0,2.208l2.288,0l0,1.2l-2.288,0zm4.8041,-2.624c-0.2773,0 -0.512,-0.096 -0.704,-0.288c-0.192,-0.192 -0.288,-0.42667 -0.288,-0.704c0,-0.27733 0.096,-0.512 0.288,-0.704c0.192,-0.192 0.4267,-0.288 0.704,-0.288c0.2667,0 0.4907,0.096 0.672,0.288c0.192,0.192 0.288,0.42667 0.288,0.704c0,0.27733 -0.096,0.512 -0.288,0.704c-0.1813,0.192 -0.4053,0.288 -0.672,0.288zm0.704,1.424l0,8.768l-1.456,0l0,-8.768l1.456,0zm1.9375,4.368c0,-0.90667 0.1813,-1.696 0.544,-2.368c0.3627,-0.68267 0.864,-1.21067 1.504,-1.584c0.6507,-0.37333 1.392,-0.56 2.224,-0.56c1.077,0 1.963,0.26133 2.656,0.784c0.704,0.52267 1.168,1.248 1.392,2.176l-1.568,0c-0.149,-0.53333 -0.443,-0.95467 -0.88,-1.264c-0.427,-0.30933 -0.96,-0.464 -1.6,-0.464c-0.832,0 -1.504,0.288 -2.016,0.864c-0.512,0.56533 -0.768,1.37067 -0.768,2.416c0,1.056 0.256,1.872 0.768,2.448c0.512,0.576 1.184,0.864 2.016,0.864c0.64,0 1.173,-0.1493 1.6,-0.448c0.427,-0.2987 0.72,-0.7253 0.88,-1.28l1.568,0c-0.235,0.896 -0.704,1.616 -1.408,2.16c-0.704,0.5333 -1.584,0.8 -2.64,0.8c-0.832,0 -1.5733,-0.1867 -2.224,-0.56c-0.64,-0.3733 -1.1413,-0.9013 -1.504,-1.584c-0.3627,-0.6827 -0.544,-1.48267 -0.544,-2.4zm15.159,4.4l-3.44,-3.872l0,3.872l-1.456,0l0,-11.84l1.456,0l0,6.96l3.376,-3.888l2.032,0l-4.128,4.368l4.144,4.4l-1.984,0zm11.338,-4.72c0,0.27733 -0.016,0.57067 -0.048,0.88l-7.008,0c0.053,0.864 0.347,1.5413 0.88,2.032c0.544,0.48 1.2,0.72 1.968,0.72c0.629,0 1.152,-0.144 1.568,-0.432c0.427,-0.2987 0.725,-0.6933 0.896,-1.184l1.568,0c-0.235,0.8427 -0.704,1.5307 -1.408,2.064c-0.704,0.5227 -1.579,0.784 -2.624,0.784c-0.832,0 -1.579,-0.1867 -2.24,-0.56c-0.651,-0.3733 -1.163,-0.9013 -1.536,-1.584c-0.373,-0.6933 -0.56,-1.49333 -0.56,-2.4c0,-0.90667 0.181,-1.70133 0.544,-2.384c0.363,-0.68267 0.869,-1.20533 1.52,-1.568c0.661,-0.37333 1.419,-0.56 2.272,-0.56c0.832,0 1.568,0.18133 2.208,0.544c0.64,0.36267 1.131,0.864 1.472,1.504c0.352,0.62933 0.528,1.344 0.528,2.144zm-1.504,-0.304c0,-0.55467 -0.123,-1.02933 -0.368,-1.424c-0.245,-0.40533 -0.581,-0.70933 -1.008,-0.912c-0.416,-0.21333 -0.88,-0.32 -1.392,-0.32c-0.736,0 -1.365,0.23467 -1.888,0.704c-0.512,0.46933 -0.805,1.12 -0.88,1.952l5.536,0zm5.202,-2.544l0,5.168c0,0.4267 0.091,0.7307 0.272,0.912c0.181,0.1707 0.496,0.256 0.944,0.256l1.072,0l0,1.232l-1.312,0c-0.811,0 -1.419,-0.1867 -1.824,-0.56c-0.405,-0.3733 -0.608,-0.9867 -0.608,-1.84l0,-5.168l-1.136,0l0,-1.2l1.136,0l0,-2.208l1.456,0l0,2.208l2.288,0l0,1.2l-2.288,0zm7.156,7.712c-0.672,0 -1.275,-0.112 -1.808,-0.336c-0.533,-0.2347 -0.955,-0.5547 -1.264,-0.96c-0.309,-0.416 -0.48,-0.8907 -0.512,-1.424l1.504,0c0.043,0.4373 0.245,0.7947 0.608,1.072c0.373,0.2773 0.859,0.416 1.456,0.416c0.555,0 0.992,-0.1227 1.312,-0.368c0.32,-0.2453 0.48,-0.5547 0.48,-0.928c0,-0.384 -0.171,-0.66667 -0.512,-0.848c-0.341,-0.192 -0.869,-0.37867 -1.584,-0.56c-0.651,-0.17067 -1.184,-0.34133 -1.6,-0.512c-0.405,-0.18133 -0.757,-0.44267 -1.056,-0.784c-0.288,-0.352 -0.432,-0.81067 -0.432,-1.376c0,-0.448 0.133,-0.85867 0.4,-1.232c0.267,-0.37333 0.645,-0.66667 1.136,-0.88c0.491,-0.224 1.051,-0.336 1.68,-0.336c0.971,0 1.755,0.24533 2.352,0.736c0.597,0.49067 0.917,1.16267 0.96,2.016l-1.456,0c-0.032,-0.45867 -0.219,-0.82667 -0.56,-1.104c-0.331,-0.27733 -0.779,-0.416 -1.344,-0.416c-0.523,0 -0.939,0.112 -1.248,0.336c-0.309,0.224 -0.464,0.51733 -0.464,0.88c0,0.288 0.091,0.528 0.272,0.72c0.192,0.18133 0.427,0.33067 0.704,0.448c0.288,0.10667 0.683,0.22933 1.184,0.368c0.629,0.17067 1.141,0.34133 1.536,0.512c0.395,0.16 0.731,0.40533 1.008,0.736c0.288,0.33067 0.437,0.7627 0.448,1.296c0,0.48 -0.133,0.912 -0.4,1.296c-0.267,0.384 -0.645,0.688 -1.136,0.912c-0.48,0.2133 -1.035,0.32 -1.664,0.32zm13.345,0c-0.821,0 -1.568,-0.1867 -2.24,-0.56c-0.661,-0.3733 -1.184,-0.9013 -1.568,-1.584c-0.373,-0.6933 -0.56,-1.49333 -0.56,-2.4c0,-0.896 0.192,-1.68533 0.576,-2.368c0.395,-0.69333 0.928,-1.22133 1.6,-1.584c0.672,-0.37333 1.424,-0.56 2.256,-0.56c0.832,0 1.584,0.18667 2.256,0.56c0.672,0.36267 1.2,0.88533 1.584,1.568c0.395,0.68267 0.592,1.47733 0.592,2.384c0,0.90667 -0.203,1.7067 -0.608,2.4c-0.395,0.6827 -0.933,1.2107 -1.616,1.584c-0.683,0.3733 -1.44,0.56 -2.272,0.56zm0,-1.28c0.523,0 1.013,-0.1227 1.472,-0.368c0.459,-0.2453 0.827,-0.6133 1.104,-1.104c0.288,-0.49067 0.432,-1.088 0.432,-1.792c0,-0.704 -0.139,-1.30133 -0.416,-1.792c-0.277,-0.49067 -0.64,-0.85333 -1.088,-1.088c-0.448,-0.24533 -0.933,-0.368 -1.456,-0.368c-0.533,0 -1.024,0.12267 -1.472,0.368c-0.437,0.23467 -0.789,0.59733 -1.056,1.088c-0.267,0.49067 -0.4,1.088 -0.4,1.792c0,0.71467 0.128,1.31733 0.384,1.808c0.267,0.4907 0.619,0.8587 1.056,1.104c0.437,0.2347 0.917,0.352 1.44,0.352zm10.683,-7.792c1.066,0 1.93,0.32533 2.592,0.976c0.661,0.64 0.992,1.568 0.992,2.784l0,5.168l-1.44,0l0,-4.96c0,-0.87467 -0.219,-1.54133 -0.656,-2c-0.438,-0.46933 -1.035,-0.704 -1.792,-0.704c-0.768,0 -1.382,0.24 -1.84,0.72c-0.448,0.48 -0.672,1.17867 -0.672,2.096l0,4.848l-1.456,0l0,-8.768l1.456,0l0,1.248c0.288,-0.448 0.677,-0.79467 1.168,-1.04c0.501,-0.24533 1.05,-0.368 1.648,-0.368zm13.332,9.072c-0.672,0 -1.275,-0.112 -1.808,-0.336c-0.534,-0.2347 -0.955,-0.5547 -1.264,-0.96c-0.31,-0.416 -0.48,-0.8907 -0.512,-1.424l1.504,0c0.042,0.4373 0.245,0.7947 0.608,1.072c0.373,0.2773 0.858,0.416 1.456,0.416c0.554,0 0.992,-0.1227 1.312,-0.368c0.32,-0.2453 0.48,-0.5547 0.48,-0.928c0,-0.384 -0.171,-0.66667 -0.512,-0.848c-0.342,-0.192 -0.87,-0.37867 -1.584,-0.56c-0.651,-0.17067 -1.184,-0.34133 -1.6,-0.512c-0.406,-0.18133 -0.758,-0.44267 -1.056,-0.784c-0.288,-0.352 -0.432,-0.81067 -0.432,-1.376c0,-0.448 0.133,-0.85867 0.4,-1.232c0.266,-0.37333 0.645,-0.66667 1.136,-0.88c0.49,-0.224 1.05,-0.336 1.68,-0.336c0.97,0 1.754,0.24533 2.352,0.736c0.597,0.49067 0.917,1.16267 0.96,2.016l-1.456,0c-0.032,-0.45867 -0.219,-0.82667 -0.56,-1.104c-0.331,-0.27733 -0.779,-0.416 -1.344,-0.416c-0.523,0 -0.939,0.112 -1.248,0.336c-0.31,0.224 -0.464,0.51733 -0.464,0.88c0,0.288 0.09,0.528 0.272,0.72c0.192,0.18133 0.426,0.33067 0.704,0.448c0.288,0.10667 0.682,0.22933 1.184,0.368c0.629,0.17067 1.141,0.34133 1.536,0.512c0.394,0.16 0.73,0.40533 1.008,0.736c0.288,0.33067 0.437,0.7627 0.448,1.296c0,0.48 -0.134,0.912 -0.4,1.296c-0.267,0.384 -0.646,0.688 -1.136,0.912c-0.48,0.2133 -1.035,0.32 -1.664,0.32zm4.711,-4.56c0,-0.896 0.181,-1.68 0.544,-2.352c0.363,-0.68267 0.859,-1.21067 1.488,-1.584c0.64,-0.37333 1.349,-0.56 2.128,-0.56c0.768,0 1.435,0.16533 2,0.496c0.565,0.33067 0.987,0.74667 1.264,1.248l0,-1.6l1.472,0l0,8.768l-1.472,0l0,-1.632c-0.288,0.512 -0.72,0.9387 -1.296,1.28c-0.565,0.3307 -1.227,0.496 -1.984,0.496c-0.779,0 -1.483,-0.192 -2.112,-0.576c-0.629,-0.384 -1.125,-0.9227 -1.488,-1.616c-0.363,-0.6933 -0.544,-1.48267 -0.544,-2.368zm7.424,0.016c0,-0.66133 -0.133,-1.23733 -0.4,-1.728c-0.267,-0.49067 -0.629,-0.864 -1.088,-1.12c-0.448,-0.26667 -0.944,-0.4 -1.488,-0.4c-0.544,0 -1.04,0.128 -1.488,0.384c-0.448,0.256 -0.805,0.62933 -1.072,1.12c-0.267,0.49067 -0.4,1.06667 -0.4,1.728c0,0.672 0.133,1.25867 0.4,1.76c0.267,0.4907 0.624,0.8693 1.072,1.136c0.448,0.256 0.944,0.384 1.488,0.384c0.544,0 1.04,-0.128 1.488,-0.384c0.459,-0.2667 0.821,-0.6453 1.088,-1.136c0.267,-0.50133 0.4,-1.08267 0.4,-1.744zm5.388,-7.44l0,11.84l-1.456,0l0,-11.84l1.456,0zm10.482,7.12c0,0.27733 -0.016,0.57067 -0.048,0.88l-7.008,0c0.053,0.864 0.347,1.5413 0.88,2.032c0.544,0.48 1.2,0.72 1.968,0.72c0.629,0 1.152,-0.144 1.568,-0.432c0.427,-0.2987 0.725,-0.6933 0.896,-1.184l1.568,0c-0.235,0.8427 -0.704,1.5307 -1.408,2.064c-0.704,0.5227 -1.579,0.784 -2.624,0.784c-0.832,0 -1.579,-0.1867 -2.24,-0.56c-0.651,-0.3733 -1.163,-0.9013 -1.536,-1.584c-0.373,-0.6933 -0.56,-1.49333 -0.56,-2.4c0,-0.90667 0.181,-1.70133 0.544,-2.384c0.363,-0.68267 0.869,-1.20533 1.52,-1.568c0.661,-0.37333 1.419,-0.56 2.272,-0.56c0.832,0 1.568,0.18133 2.208,0.544c0.64,0.36267 1.131,0.864 1.472,1.504c0.352,0.62933 0.528,1.344 0.528,2.144zm-1.504,-0.304c0,-0.55467 -0.123,-1.02933 -0.368,-1.424c-0.245,-0.40533 -0.581,-0.70933 -1.008,-0.912c-0.416,-0.21333 -0.88,-0.32 -1.392,-0.32c-0.736,0 -1.365,0.23467 -1.888,0.704c-0.512,0.46933 -0.805,1.12 -0.88,1.952l5.536,0zm11.963,-3.904c1.067,0 1.931,0.32533 2.592,0.976c0.662,0.64 0.992,1.568 0.992,2.784l0,5.168l-1.44,0l0,-4.96c0,-0.87467 -0.218,-1.54133 -0.656,-2c-0.437,-0.46933 -1.034,-0.704 -1.792,-0.704c-0.768,0 -1.381,0.24 -1.84,0.72c-0.448,0.48 -0.672,1.17867 -0.672,2.096l0,4.848l-1.456,0l0,-8.768l1.456,0l0,1.248c0.288,-0.448 0.678,-0.79467 1.168,-1.04c0.502,-0.24533 1.051,-0.368 1.648,-0.368zm9.787,9.072c-0.822,0 -1.568,-0.1867 -2.24,-0.56c-0.662,-0.3733 -1.184,-0.9013 -1.568,-1.584c-0.374,-0.6933 -0.56,-1.49333 -0.56,-2.4c0,-0.896 0.192,-1.68533 0.576,-2.368c0.394,-0.69333 0.928,-1.22133 1.6,-1.584c0.672,-0.37333 1.424,-0.56 2.256,-0.56c0.832,0 1.584,0.18667 2.256,0.56c0.672,0.36267 1.2,0.88533 1.584,1.568c0.394,0.68267 0.592,1.47733 0.592,2.384c0,0.90667 -0.203,1.7067 -0.608,2.4c-0.395,0.6827 -0.934,1.2107 -1.616,1.584c-0.683,0.3733 -1.44,0.56 -2.272,0.56zm0,-1.28c0.522,0 1.013,-0.1227 1.472,-0.368c0.458,-0.2453 0.826,-0.6133 1.104,-1.104c0.288,-0.49067 0.432,-1.088 0.432,-1.792c0,-0.704 -0.139,-1.30133 -0.416,-1.792c-0.278,-0.49067 -0.64,-0.85333 -1.088,-1.088c-0.448,-0.24533 -0.934,-0.368 -1.456,-0.368c-0.534,0 -1.024,0.12267 -1.472,0.368c-0.438,0.23467 -0.79,0.59733 -1.056,1.088c-0.267,0.49067 -0.4,1.088 -0.4,1.792c0,0.71467 0.128,1.31733 0.384,1.808c0.266,0.4907 0.618,0.8587 1.056,1.104c0.437,0.2347 0.917,0.352 1.44,0.352zm18.09,-7.632l-2.736,8.768l-1.504,0l-2.112,-6.96l-2.112,6.96l-1.504,0l-2.752,-8.768l1.488,0l2.016,7.36l2.176,-7.36l1.488,0l2.128,7.376l1.984,-7.376l1.44,0zm3.333,-2.384l-0.176,8l-1.216,0l-0.176,-8l1.568,0zm-0.72,11.248c-0.277,0 -0.512,-0.096 -0.704,-0.288c-0.192,-0.192 -0.288,-0.4267 -0.288,-0.704c0,-0.2773 0.096,-0.512 0.288,-0.704c0.192,-0.192 0.427,-0.288 0.704,-0.288c0.267,0 0.491,0.096 0.672,0.288c0.192,0.192 0.288,0.4267 0.288,0.704c0,0.2773 -0.096,0.512 -0.288,0.704c-0.181,0.192 -0.405,0.288 -0.672,0.288z"/>
 </g>
</svg>