<svg width="507" height="514" viewBox="0 0 507 514" fill="none" xmlns="http://www.w3.org/2000/svg">
<rect x="87.5" y="40.5" width="419" height="473" rx="15.5" fill="url(#paint0_linear_22_411)" stroke="black"/>
<path d="M204.232 257.338V256.838H203.732H192.692H192.192V257.338V394.337V394.837H192.692H203.732H204.232V394.337V257.338Z" fill="#FFF8EC" stroke="black"/>
<path d="M203.732 264.57V268.929L192.692 264.855V260.496L203.732 264.57Z" fill="url(#paint1_linear_22_411)"/>
<path d="M203.732 273.898V278.257L192.692 274.183V269.824L203.732 273.898Z" fill="url(#paint2_linear_22_411)"/>
<path d="M203.732 283.226V287.585L192.692 283.511V279.162L203.732 283.226Z" fill="url(#paint3_linear_22_411)"/>
<path d="M203.732 292.555V296.924L192.692 292.85V288.491L203.732 292.555Z" fill="url(#paint4_linear_22_411)"/>
<path d="M203.732 301.883V306.251L192.692 302.178V297.819L203.732 301.883Z" fill="url(#paint5_linear_22_411)"/>
<path d="M203.732 311.21V315.579L192.692 311.505V307.146L203.732 311.21Z" fill="url(#paint6_linear_22_411)"/>
<path d="M203.732 320.549V324.908L192.692 320.834V316.475L203.732 320.549Z" fill="url(#paint7_linear_22_411)"/>
<path d="M203.732 329.877V334.236L192.692 330.162V325.803L203.732 329.877Z" fill="url(#paint8_linear_22_411)"/>
<path d="M203.732 339.204V343.573L192.692 339.5V335.131L203.732 339.204Z" fill="url(#paint9_linear_22_411)"/>
<path d="M203.732 348.533V352.892L192.692 348.818V344.459L203.732 348.533Z" fill="url(#paint10_linear_22_411)"/>
<path d="M203.732 357.861V362.22L192.692 358.146V353.787L203.732 357.861Z" fill="url(#paint11_linear_22_411)"/>
<path d="M203.732 367.189V371.548L192.692 367.475V363.125L203.732 367.189Z" fill="url(#paint12_linear_22_411)"/>
<path d="M203.732 376.517V380.886L192.692 376.812V372.453L203.732 376.517Z" fill="url(#paint13_linear_22_411)"/>
<path d="M203.732 385.845V390.214L192.692 386.141V381.781L203.732 385.845Z" fill="url(#paint14_linear_22_411)"/>
<path d="M192.084 260.465L204.064 264.247" stroke="black"/>
<path d="M192.084 265.278L204.064 269.06" stroke="black"/>
<path d="M192.298 270.091L204.024 274.303" stroke="black"/>
<path d="M192.167 274.661L203.982 278.929" stroke="black"/>
<path d="M192.167 278.514L203.982 282.781" stroke="black"/>
<path d="M192.167 283.327L203.982 287.594" stroke="black"/>
<path d="M192.167 288.14L203.982 292.407" stroke="black"/>
<path d="M192.167 292.953L203.982 297.22" stroke="black"/>
<path d="M192.167 297.766L203.982 302.033" stroke="black"/>
<path d="M192.167 302.579L203.982 306.846" stroke="black"/>
<path d="M192.231 306.67L204.047 310.937" stroke="black"/>
<path d="M192.231 311.964L204.047 316.231" stroke="black"/>
<path d="M192.231 315.815L204.047 320.082" stroke="black"/>
<path d="M192.231 321.109L204.047 325.376" stroke="black"/>
<path d="M192.231 325.441L204.047 329.708" stroke="black"/>
<path d="M192.231 330.254L204.047 334.521" stroke="black"/>
<path d="M192.231 335.067L204.047 339.334" stroke="black"/>
<path d="M192.231 339.88L204.047 344.147" stroke="black"/>
<path d="M192.231 343.73L204.047 347.997" stroke="black"/>
<path d="M192.231 353.115L204.047 357.382" stroke="black"/>
<path d="M192.231 362.741L204.047 367.008" stroke="black"/>
<path d="M192.231 371.766L204.047 376.033" stroke="black"/>
<path d="M192.231 381.392L204.047 385.659" stroke="black"/>
<path d="M192.231 348.904L204.047 353.171" stroke="black"/>
<path d="M192.231 358.289L204.047 362.556" stroke="black"/>
<path d="M192.231 367.915L204.047 372.182" stroke="black"/>
<path d="M192.231 377.18L204.047 381.447" stroke="black"/>
<path d="M192.231 386.205L204.047 390.472" stroke="black"/>
<path d="M307.776 257.338V256.838H307.276H296.236H295.736V257.338V394.337V394.837H296.236H307.276H307.776V394.337V257.338Z" fill="#FFF8EC" stroke="black"/>
<path d="M307.276 264.57V268.929L296.236 264.855V260.496L307.276 264.57Z" fill="url(#paint15_linear_22_411)"/>
<path d="M307.276 273.898V278.257L296.236 274.183V269.824L307.276 273.898Z" fill="url(#paint16_linear_22_411)"/>
<path d="M307.276 283.226V287.585L296.236 283.511V279.162L307.276 283.226Z" fill="url(#paint17_linear_22_411)"/>
<path d="M307.276 292.555V296.924L296.236 292.85V288.491L307.276 292.555Z" fill="url(#paint18_linear_22_411)"/>
<path d="M307.276 301.883V306.251L296.236 302.178V297.819L307.276 301.883Z" fill="url(#paint19_linear_22_411)"/>
<path d="M307.276 311.21V315.579L296.236 311.505V307.146L307.276 311.21Z" fill="url(#paint20_linear_22_411)"/>
<path d="M307.276 320.549V324.908L296.236 320.834V316.475L307.276 320.549Z" fill="url(#paint21_linear_22_411)"/>
<path d="M307.276 329.877V334.236L296.236 330.162V325.803L307.276 329.877Z" fill="url(#paint22_linear_22_411)"/>
<path d="M307.276 339.204V343.573L296.236 339.5V335.131L307.276 339.204Z" fill="url(#paint23_linear_22_411)"/>
<path d="M307.276 348.533V352.892L296.236 348.818V344.459L307.276 348.533Z" fill="url(#paint24_linear_22_411)"/>
<path d="M307.276 357.861V362.22L296.236 358.146V353.787L307.276 357.861Z" fill="url(#paint25_linear_22_411)"/>
<path d="M307.276 367.189V371.548L296.236 367.475V363.125L307.276 367.189Z" fill="url(#paint26_linear_22_411)"/>
<path d="M307.276 376.517V380.886L296.236 376.812V372.453L307.276 376.517Z" fill="url(#paint27_linear_22_411)"/>
<path d="M307.276 385.845V390.214L296.236 386.141V381.781L307.276 385.845Z" fill="url(#paint28_linear_22_411)"/>
<path d="M295.628 260.465L307.608 264.247" stroke="black"/>
<path d="M295.628 265.278L307.608 269.06" stroke="black"/>
<path d="M295.842 270.091L307.568 274.303" stroke="black"/>
<path d="M295.71 274.661L307.526 278.929" stroke="black"/>
<path d="M295.71 278.514L307.526 282.781" stroke="black"/>
<path d="M295.71 283.327L307.526 287.594" stroke="black"/>
<path d="M295.71 288.14L307.526 292.407" stroke="black"/>
<path d="M295.71 292.953L307.526 297.22" stroke="black"/>
<path d="M295.71 297.766L307.526 302.033" stroke="black"/>
<path d="M295.71 302.579L307.526 306.846" stroke="black"/>
<path d="M295.775 306.67L307.591 310.937" stroke="black"/>
<path d="M295.775 311.964L307.591 316.231" stroke="black"/>
<path d="M295.775 315.815L307.591 320.082" stroke="black"/>
<path d="M295.775 321.109L307.591 325.376" stroke="black"/>
<path d="M295.775 325.441L307.591 329.708" stroke="black"/>
<path d="M295.775 330.254L307.591 334.521" stroke="black"/>
<path d="M295.775 335.067L307.591 339.334" stroke="black"/>
<path d="M295.775 339.88L307.591 344.147" stroke="black"/>
<path d="M295.775 343.73L307.591 347.997" stroke="black"/>
<path d="M295.775 353.115L307.591 357.382" stroke="black"/>
<path d="M295.775 362.741L307.591 367.008" stroke="black"/>
<path d="M295.775 371.766L307.591 376.033" stroke="black"/>
<path d="M295.775 381.392L307.591 385.659" stroke="black"/>
<path d="M295.775 348.904L307.591 353.171" stroke="black"/>
<path d="M295.775 358.289L307.591 362.556" stroke="black"/>
<path d="M295.775 367.915L307.591 372.182" stroke="black"/>
<path d="M295.775 377.18L307.591 381.447" stroke="black"/>
<path d="M295.775 386.205L307.591 390.472" stroke="black"/>
<path d="M406.443 257.338V256.838H405.943H394.902H394.402V257.338V394.337V394.837H394.902H405.943H406.443V394.337V257.338Z" fill="#FFF8EC" stroke="black"/>
<path d="M405.943 264.57V268.929L394.902 264.855V260.496L405.943 264.57Z" fill="url(#paint29_linear_22_411)"/>
<path d="M405.943 273.898V278.257L394.902 274.183V269.824L405.943 273.898Z" fill="url(#paint30_linear_22_411)"/>
<path d="M405.943 283.226V287.585L394.902 283.511V279.162L405.943 283.226Z" fill="url(#paint31_linear_22_411)"/>
<path d="M405.943 292.555V296.924L394.902 292.85V288.491L405.943 292.555Z" fill="url(#paint32_linear_22_411)"/>
<path d="M405.943 301.883V306.251L394.902 302.178V297.819L405.943 301.883Z" fill="url(#paint33_linear_22_411)"/>
<path d="M405.943 311.21V315.579L394.902 311.505V307.146L405.943 311.21Z" fill="url(#paint34_linear_22_411)"/>
<path d="M405.943 320.549V324.908L394.902 320.834V316.475L405.943 320.549Z" fill="url(#paint35_linear_22_411)"/>
<path d="M405.943 329.877V334.236L394.902 330.162V325.803L405.943 329.877Z" fill="url(#paint36_linear_22_411)"/>
<path d="M405.943 339.204V343.573L394.902 339.5V335.131L405.943 339.204Z" fill="url(#paint37_linear_22_411)"/>
<path d="M405.943 348.533V352.892L394.902 348.818V344.459L405.943 348.533Z" fill="url(#paint38_linear_22_411)"/>
<path d="M405.943 357.861V362.22L394.902 358.146V353.787L405.943 357.861Z" fill="url(#paint39_linear_22_411)"/>
<path d="M405.943 367.189V371.548L394.902 367.475V363.125L405.943 367.189Z" fill="url(#paint40_linear_22_411)"/>
<path d="M405.943 376.517V380.886L394.902 376.812V372.453L405.943 376.517Z" fill="url(#paint41_linear_22_411)"/>
<path d="M405.943 385.845V390.214L394.902 386.141V381.781L405.943 385.845Z" fill="url(#paint42_linear_22_411)"/>
<path d="M394.295 260.465L406.274 264.247" stroke="black"/>
<path d="M394.295 265.278L406.274 269.06" stroke="black"/>
<path d="M394.509 270.091L406.235 274.303" stroke="black"/>
<path d="M394.377 274.661L406.192 278.929" stroke="black"/>
<path d="M394.377 278.514L406.192 282.781" stroke="black"/>
<path d="M394.377 283.327L406.192 287.594" stroke="black"/>
<path d="M394.377 288.14L406.192 292.407" stroke="black"/>
<path d="M394.377 292.953L406.192 297.22" stroke="black"/>
<path d="M394.377 297.766L406.192 302.033" stroke="black"/>
<path d="M394.377 302.579L406.192 306.846" stroke="black"/>
<path d="M394.441 306.67L406.257 310.937" stroke="black"/>
<path d="M394.441 311.964L406.257 316.231" stroke="black"/>
<path d="M394.441 315.815L406.257 320.082" stroke="black"/>
<path d="M394.441 321.109L406.257 325.376" stroke="black"/>
<path d="M394.441 325.441L406.257 329.708" stroke="black"/>
<path d="M394.441 330.254L406.257 334.521" stroke="black"/>
<path d="M394.441 335.067L406.257 339.334" stroke="black"/>
<path d="M394.441 339.88L406.257 344.147" stroke="black"/>
<path d="M394.441 343.73L406.257 347.997" stroke="black"/>
<path d="M394.441 353.115L406.257 357.382" stroke="black"/>
<path d="M394.441 362.741L406.257 367.008" stroke="black"/>
<path d="M394.441 371.766L406.257 376.033" stroke="black"/>
<path d="M394.441 381.392L406.257 385.659" stroke="black"/>
<path d="M394.441 348.904L406.257 353.171" stroke="black"/>
<path d="M394.441 358.289L406.257 362.556" stroke="black"/>
<path d="M394.441 367.915L406.257 372.182" stroke="black"/>
<path d="M394.441 377.18L406.257 381.447" stroke="black"/>
<path d="M394.441 386.205L406.257 390.472" stroke="black"/>
<path d="M293.53 99.2732L293.529 99.2732L293.529 99.2734L293.529 99.2735L293.529 99.2738L293.529 99.2743L293.529 99.2745L293.507 99.311L293.478 99.3443C293.329 99.5157 293.161 99.6998 292.99 99.8882C292.861 100.03 292.729 100.175 292.602 100.319C292.601 100.32 292.6 100.321 292.599 100.322L292.428 100.522L292.423 100.528C292.276 100.693 292.116 100.874 291.954 101.046C291.247 101.842 290.441 102.746 289.538 103.757L289.536 103.759C288.622 104.772 287.619 105.893 286.536 107.103C286.308 107.36 286.066 107.626 285.822 107.896C285.636 108.101 285.45 108.306 285.266 108.511L285.265 108.512C284.351 109.525 283.377 110.607 282.354 111.748L282.351 111.751C282.035 112.097 281.725 112.436 281.426 112.783L281.418 112.793L281.418 112.793C280.783 113.493 280.131 114.213 279.463 114.951C277.632 116.973 275.676 119.132 273.614 121.403L273.614 121.404C272.519 122.604 271.393 123.837 270.24 125.099C269.579 125.822 268.909 126.556 268.231 127.298C268.094 127.448 267.958 127.597 267.822 127.746C267.548 128.047 267.274 128.347 266.991 128.656L266.991 128.657C263.251 132.74 259.266 137.08 255.103 141.578C251.549 145.426 247.859 149.383 244.1 153.398C217.009 182.368 185.625 214.611 167.139 229.183M293.53 99.2732L166.827 228.793M293.53 99.2732L293.53 99.2729L293.531 99.2709C293.732 99.0407 293.913 98.841 294.093 98.6518L294.102 98.6426L294.11 98.6329C294.257 98.4612 294.39 98.3107 294.518 98.1663C294.54 98.1407 294.563 98.1153 294.585 98.09C294.783 97.8714 294.952 97.6843 295.091 97.5292C295.284 97.3148 295.422 97.1616 295.507 97.0711C295.523 97.0552 295.545 97.0326 295.565 97.011C295.585 96.9885 295.62 96.9475 295.652 96.8904C296.069 96.4587 296.492 96.3762 296.882 96.4208L297.023 96.4472L297.069 96.4558H297.108C297.208 96.4828 297.284 96.505 297.346 96.5297L297.39 96.5738L297.501 96.596L297.516 96.6033C297.533 96.612 297.559 96.6243 297.589 96.6365L297.603 96.6419L297.616 96.6464C297.617 96.6467 297.62 96.648 297.625 96.6508C297.636 96.6565 297.648 96.6638 297.675 96.6797L297.683 96.6847L297.692 96.6894C297.828 96.7643 297.942 96.8365 298.024 96.8928C298.065 96.921 298.096 96.9442 298.118 96.9608C298.123 96.9646 298.127 96.9677 298.13 96.9702L298.132 96.9731L298.204 97.0542L298.487 97.3741C298.737 97.6561 299.107 98.0743 299.592 98.6188C300.56 99.7079 301.982 101.302 303.798 103.325C307.607 107.587 313.148 113.747 319.849 121.118L319.849 121.118C325.331 127.141 331.57 133.97 338.282 141.233L338.282 141.234C353.979 158.209 372.226 177.55 389.009 194.372C403.435 208.847 416.805 221.479 426.571 229.184C427.324 229.789 427.137 230.996 426.282 231.34L426.284 231.348C421.25 233.369 416.157 235.272 411.054 237.039L411.053 237.039C402.731 239.937 394.33 242.502 385.861 244.742C380.024 246.285 374.148 247.68 368.234 248.908L368.233 248.908C356.515 251.364 344.698 253.211 332.832 254.439C332.817 254.44 332.805 254.441 332.805 254.441L332.737 254.447C332.68 254.452 332.598 254.46 332.495 254.469C332.349 254.483 332.159 254.5 331.931 254.522L331.634 254.549C330.911 254.617 329.917 254.709 328.818 254.808C326.619 255.008 324.002 255.236 322.281 255.354L322.278 255.354C318.241 255.658 314.204 255.884 310.166 256.041C309.816 256.051 309.467 256.064 309.119 256.076L309.117 256.076C308.768 256.088 308.42 256.1 308.073 256.11L308.071 256.11C300.23 256.366 292.369 256.346 284.528 256.071L284.519 256.071H284.511C284.49 256.071 284.469 256.07 284.446 256.069C284.423 256.069 284.399 256.068 284.371 256.066C284.321 256.064 284.259 256.061 284.195 256.061C277.341 255.815 270.496 255.363 263.66 254.715C263.527 254.701 263.399 254.689 263.273 254.677C263.029 254.653 262.795 254.631 262.554 254.599L262.546 254.598L262.538 254.597C250.551 253.418 238.623 251.61 226.783 249.173L226.782 249.173C218.912 247.562 211.081 245.666 203.319 243.504C196.726 241.667 190.172 239.633 183.669 237.383L183.668 237.383C178.214 235.506 172.8 233.501 167.427 231.34M293.53 99.2732L167.24 231.804M167.139 229.183C167.138 229.184 167.137 229.185 167.136 229.186L166.827 228.793M167.139 229.183C167.14 229.183 167.141 229.182 167.141 229.182L166.827 228.793M167.139 229.183C166.391 229.791 166.577 230.997 167.427 231.34M166.827 228.793C165.793 229.629 166.02 231.312 167.24 231.804M167.427 231.34L167.24 231.804M167.427 231.34C167.427 231.34 167.427 231.34 167.427 231.34L167.24 231.804M284.511 256.571C284.457 256.571 284.402 256.568 284.348 256.566C284.294 256.563 284.24 256.561 284.186 256.561C277.318 256.315 270.459 255.862 263.611 255.213L284.511 256.571ZM262.489 255.095C250.485 253.914 238.539 252.103 226.682 249.663C218.8 248.049 210.958 246.15 203.185 243.986L262.489 255.095Z" fill="url(#paint43_linear_22_411)" stroke="black"/>
<path d="M298.929 96.8856L298.94 96.8675L298.95 96.8485L298.96 96.8289L299.167 96.4147L298.777 96.1807C298.777 96.1805 298.768 96.1743 298.741 96.1548L298.735 96.1506C298.705 96.1289 298.664 96.0992 298.616 96.0654C298.514 95.9938 298.376 95.9017 298.212 95.8085C298.159 95.7776 298.109 95.7556 298.081 95.7432L298.059 95.7337C298.038 95.7246 298.028 95.7206 298.018 95.7152L298.018 95.7152C297.996 95.7044 297.974 95.6941 297.956 95.686C297.903 95.6473 297.851 95.6248 297.812 95.6118C297.785 95.6027 297.759 95.5968 297.738 95.5928C297.6 95.5461 297.466 95.5082 297.332 95.4726L297.269 95.4558H297.204H297.204H297.203H297.203H297.203H297.203H297.203H297.202H297.202H297.202H297.202H297.202H297.202H297.202H297.202H297.201H297.201H297.201H297.201H297.201H297.201H297.201H297.201H297.201H297.2H297.2H297.2H297.2H297.2H297.2H297.2H297.199H297.199H297.199H297.199H297.199H297.199H297.199H297.199H297.198H297.198H297.198H297.198H297.198H297.198H297.198H297.198H297.197H297.197H297.197H297.197H297.197H297.197H297.197H297.196H297.196H297.196H297.196H297.196H297.196H297.196H297.195H297.195H297.195H297.195H297.195H297.195H297.195H297.194H297.194H297.194H297.194H297.194H297.194H297.194H297.193H297.193H297.193H297.193H297.193H297.193H297.193H297.192H297.192H297.192H297.192H297.192H297.192H297.192H297.191H297.191H297.191H297.191H297.191H297.191H297.191H297.19H297.19H297.19H297.19H297.19L297.079 95.4348L297.064 95.4319L297.048 95.43C296.34 95.343 295.552 95.5289 294.872 96.2923L294.746 96.4345V96.4529C294.654 96.5525 294.526 96.6953 294.363 96.8757C294.224 97.0307 294.059 97.2135 293.871 97.4208L293.867 97.4256C293.825 97.4734 293.784 97.5207 293.742 97.5681C293.63 97.6969 293.518 97.8257 293.387 97.9631L293.379 97.9724L293.37 97.9821C293.299 98.0653 293.224 98.1485 293.143 98.2389L293.1 98.2873C293.003 98.395 292.9 98.5113 292.795 98.6368L292.758 98.6814L292.757 98.6825L292.753 98.6875C292.494 98.9853 292.205 99.3034 291.892 99.645C291.813 99.7246 291.747 99.8026 291.692 99.8667L291.69 99.8689C291.62 99.9479 291.547 100.028 291.47 100.112L291.46 100.123C291.386 100.204 291.309 100.289 291.231 100.376L291.229 100.379C290.532 101.173 289.727 102.077 288.822 103.09C288.375 103.585 287.901 104.113 287.405 104.665C286.894 105.233 286.361 105.826 285.812 106.435L285.812 106.435L285.806 106.442C285.53 106.759 285.237 107.084 284.934 107.419C284.808 107.558 284.68 107.7 284.552 107.843L284.551 107.843C283.991 108.47 283.409 109.117 282.807 109.788C282.427 110.211 282.039 110.644 281.643 111.086C281.431 111.311 281.217 111.547 281.006 111.78C280.902 111.895 280.799 112.009 280.697 112.12L280.696 112.121C280.329 112.526 279.957 112.937 279.579 113.354C276.012 117.288 271.951 121.767 267.512 126.624L267.512 126.624C267.374 126.775 267.237 126.925 267.1 127.075C266.827 127.374 266.554 127.673 266.272 127.981C262.534 132.064 258.549 136.403 254.388 140.899C250.836 144.736 247.157 148.701 243.389 152.714L243.389 152.715C216.284 181.699 184.951 213.875 166.536 228.4L166.536 228.4L166.531 228.404C165.212 229.472 165.496 231.627 167.071 232.267L167.073 232.268C172.463 234.436 177.893 236.456 183.363 238.329L183.604 238.411L183.812 238.264C201.322 225.944 221.739 203.212 240.456 179.561C259.183 155.898 276.244 131.269 287.042 115.116L287.042 115.116C292.18 107.418 295.911 101.649 297.714 98.8223L297.72 98.812L297.726 98.8015C297.756 98.7497 297.786 98.7042 297.826 98.6438L297.835 98.6314L297.842 98.6184C297.871 98.5694 297.9 98.5229 297.933 98.4721L297.945 98.4537C297.973 98.4096 298.006 98.3593 298.036 98.3089C298.075 98.2439 298.114 98.1825 298.156 98.1177L298.158 98.1138C298.197 98.0529 298.24 97.9859 298.28 97.9191C298.495 97.5821 298.656 97.325 298.764 97.1516C298.819 97.0642 298.86 96.998 298.887 96.9535L298.918 96.9031L298.926 96.8902L298.928 96.8869L298.929 96.886L298.929 96.8857L298.929 96.8856L298.929 96.8856ZM294.89 96.308C294.89 96.3077 294.89 96.3076 294.89 96.3078L294.89 96.308Z" fill="#FFF8EC" stroke="black"/>
<path d="M297.997 96.163L298.441 96.2829L298.436 96.3662C298.408 96.8013 298.38 97.2502 298.342 97.6997C298.322 97.9375 298.304 98.1634 298.294 98.3874L298.294 98.399L298.294 98.399C298.245 99.1565 298.176 99.9317 298.098 100.723C298.098 100.799 298.097 100.914 298.074 101.037C297.709 104.947 297.187 109.217 296.518 113.76C296.518 113.76 296.518 113.76 296.518 113.76L296.024 113.687C291.364 145.508 275.118 190.341 263.568 222.212C258.653 235.773 254.589 246.988 252.63 253.855L297.997 96.163ZM297.997 96.163L298.015 96.133H298.137C298.137 96.0849 298.131 96.0293 298.112 95.9717L298.19 95.842C298.135 95.809 298.081 95.7856 298.052 95.7728C298.043 95.7691 298.036 95.766 298.03 95.7633C298.009 95.7542 298 95.7502 297.989 95.7448L297.989 95.7448C297.967 95.734 297.945 95.7238 297.927 95.7156C297.874 95.6769 297.822 95.6544 297.783 95.6414C297.756 95.6323 297.731 95.6264 297.709 95.6225C297.572 95.5757 297.437 95.5379 297.304 95.5022L297.24 95.4854H297.175H297.175H297.175H297.175H297.174H297.174H297.174H297.174H297.174H297.174H297.174H297.174H297.173H297.173H297.173H297.173H297.173H297.173H297.173H297.173H297.173H297.172H297.172H297.172H297.172H297.172H297.172H297.172H297.172H297.171H297.171H297.171H297.171H297.171H297.171H297.171H297.17H297.17H297.17H297.17H297.17H297.17H297.17H297.17H297.169H297.169H297.169H297.169H297.169H297.169H297.169H297.168H297.168H297.168H297.168H297.168H297.168H297.168H297.168H297.167H297.167H297.167H297.167H297.167H297.167H297.167H297.166H297.166H297.166H297.166H297.166H297.166H297.166H297.165H297.165H297.165H297.165H297.165H297.165H297.165H297.164H297.164H297.164H297.164H297.164H297.164H297.164H297.163H297.163H297.163H297.163H297.163H297.163H297.163H297.162H297.162H297.162H297.162H297.162H297.162L297.051 95.4644L297.035 95.4615L297.019 95.4596C296.311 95.3726 295.523 95.5585 294.843 96.3219L294.717 96.4641V96.4826C294.625 96.5823 294.497 96.7252 294.334 96.906C294.194 97.0609 294.03 97.2434 293.843 97.4504L293.838 97.4552C293.796 97.503 293.755 97.5502 293.714 97.5975C293.601 97.7264 293.489 97.8552 293.359 97.9927L293.35 98.002L293.341 98.0117C293.27 98.095 293.195 98.1782 293.114 98.2687C293.1 98.2846 293.086 98.3006 293.071 98.3169C292.974 98.4246 292.871 98.5409 292.766 98.6664L292.729 98.711L292.729 98.7121L292.724 98.7172C292.465 99.0149 292.176 99.333 291.864 99.6746L297.997 96.163ZM294.861 96.3376C294.861 96.3373 294.861 96.3372 294.861 96.3374L294.861 96.3376Z" fill="#FFF8EC" stroke="black"/>
<path d="M296.701 96.6152L296.271 96.8708L296.271 96.8708L296.271 96.8709L296.271 96.8712L296.272 96.8723L296.274 96.876L296.282 96.8896L296.314 96.942C296.342 96.9879 296.383 97.0556 296.438 97.1443C296.547 97.3208 296.71 97.5802 296.927 97.9152C297.002 98.0362 297.084 98.1706 297.187 98.3159C297.243 98.4086 297.298 98.5002 297.361 98.6088L297.366 98.6177L297.372 98.6265C299.124 101.364 302.895 107.221 308.152 115.077C318.896 131.141 335.853 155.625 354.485 179.199C373.108 202.763 393.437 225.461 410.926 237.918L411.136 238.068L411.38 237.984C416.504 236.21 421.609 234.298 426.674 232.268L427.376 231.987L427.275 231.885C428.289 231.006 428.333 229.297 427.203 228.393L427.201 228.391C417.484 220.726 404.15 208.129 389.726 193.657L389.726 193.656C372.955 176.837 354.727 157.517 339.025 140.535C324.11 124.39 311.467 110.381 304.552 102.648L304.551 102.648C302.736 100.626 301.315 99.0326 300.347 97.9446C299.864 97.4007 299.493 96.983 299.244 96.7015L298.962 96.3824L298.89 96.3017L298.872 96.2814L298.868 96.2763L298.867 96.2751L298.867 96.2748L298.867 96.2747L298.492 96.6054L298.867 96.2747L298.815 96.2165L298.756 96.1808C298.755 96.1803 298.746 96.1738 298.72 96.155C298.718 96.1535 298.716 96.1519 298.714 96.1503C298.684 96.1286 298.643 96.0991 298.595 96.0656C298.493 95.994 298.355 95.9019 298.191 95.8088C298.139 95.7778 298.088 95.7557 298.06 95.7434C298.051 95.7397 298.044 95.7366 298.038 95.7339C298.017 95.7248 298.008 95.7208 297.997 95.7154C297.975 95.7045 297.953 95.6943 297.935 95.6862C297.882 95.6475 297.83 95.625 297.791 95.612C297.729 95.5913 297.677 95.5868 297.654 95.5853C297.631 95.5838 297.61 95.5838 297.606 95.5839C297.606 95.5839 297.606 95.5839 297.606 95.5839C297.564 95.5839 297.529 95.589 297.502 95.5947C297.489 95.5974 297.477 95.6004 297.466 95.6035H297.46L297.442 95.611C297.439 95.6118 297.437 95.6126 297.435 95.6134C297.418 95.6195 297.403 95.6256 297.392 95.6305C297.391 95.6311 297.39 95.6316 297.389 95.6321L297.371 95.6393C297.288 95.6724 297.21 95.7064 297.136 95.7413L297.12 95.7413L297.016 95.7999L296.995 95.8107L296.991 95.8141C296.828 95.9075 296.68 96.0085 296.573 96.0851C296.518 96.1249 296.473 96.1592 296.441 96.1839C296.424 96.1963 296.412 96.2063 296.402 96.2135L296.392 96.2222L296.388 96.2248L296.387 96.2257L296.387 96.226L296.387 96.2261L296.387 96.2262L296.701 96.6152ZM296.701 96.6152L296.271 96.8707L296.05 96.4984L296.387 96.2262L296.701 96.6152ZM297.803 96.1035L297.773 96.1626L297.803 96.1035Z" fill="#FFF8EC" stroke="black"/>
<path d="M298.493 96.615L298.868 96.2843L298.817 96.2262L298.757 96.1905C298.757 96.1899 298.748 96.1835 298.722 96.1647C298.72 96.1631 298.718 96.1616 298.715 96.16C298.685 96.1383 298.645 96.1088 298.597 96.0753C298.495 96.0037 298.357 95.9116 298.193 95.8184C298.14 95.7874 298.09 95.7654 298.062 95.7531C298.053 95.7493 298.046 95.7462 298.04 95.7436C298.019 95.7345 298.009 95.7304 297.999 95.725C297.977 95.7142 297.955 95.704 297.936 95.6958C297.884 95.6572 297.832 95.6347 297.793 95.6217C297.731 95.601 297.678 95.5965 297.655 95.5949C297.633 95.5934 297.612 95.5935 297.608 95.5935C297.608 95.5935 297.608 95.5935 297.608 95.5935C297.566 95.5935 297.53 95.5986 297.503 95.6043C297.49 95.607 297.478 95.6101 297.467 95.6132H297.462L297.444 95.6206C297.441 95.6215 297.439 95.6223 297.436 95.6231C297.419 95.6292 297.405 95.6353 297.394 95.6402C297.393 95.6407 297.392 95.6413 297.391 95.6418L297.373 95.649C297.29 95.6821 297.211 95.716 297.137 95.751L296.72 95.7511L296.754 96.2828C296.756 96.3112 296.758 96.3397 296.76 96.3682C296.788 96.8015 296.816 97.2486 296.853 97.6961L296.902 98.4011L296.902 98.4021L296.922 98.6776L296.922 98.6777L296.923 98.686C296.982 99.3546 297.041 100.033 297.1 100.731L297.1 100.731L297.1 100.734C299.06 122.187 309.077 154.143 319.492 183.881C323.751 196.044 328.076 207.833 331.951 218.395C337.392 233.227 341.945 245.638 344.182 253.262C341.769 253.582 339.353 253.878 336.935 254.147C336.061 254.235 335.241 254.317 334.558 254.387C333.988 254.445 333.512 254.495 333.179 254.532C333.012 254.55 332.879 254.565 332.786 254.577C332.741 254.583 332.701 254.588 332.669 254.593C332.656 254.596 332.633 254.599 332.61 254.605L332.61 254.605C332.601 254.607 332.571 254.614 332.535 254.628L332.535 254.628C332.522 254.633 332.469 254.654 332.412 254.698C332.38 254.725 332.308 254.806 332.273 254.863C332.236 254.956 332.222 255.169 332.252 255.28L332.391 255.629L332.765 255.592C334.191 255.451 335.616 255.301 337.04 255.142C337.624 255.084 338.233 255.023 338.842 254.963C340.363 254.811 341.885 254.66 343.026 254.543C343.596 254.485 344.072 254.435 344.406 254.398C344.572 254.38 344.705 254.365 344.798 254.353C344.816 254.351 344.834 254.348 344.851 254.346C344.875 254.343 344.896 254.34 344.915 254.337C344.928 254.334 344.951 254.331 344.974 254.325L344.975 254.325C344.983 254.323 345.013 254.316 345.049 254.302L345.049 254.302C345.062 254.297 345.115 254.276 345.172 254.232C345.195 254.214 345.236 254.169 345.271 254.125C352.974 253.08 360.649 251.776 368.288 250.212L369.023 251.314V250.028C369.053 250.02 369.084 250.011 369.117 250.002C369.415 249.922 369.847 249.812 370.37 249.68C371.415 249.418 372.815 249.075 374.216 248.732L374.22 248.731C375.619 248.388 377.02 248.045 378.068 247.782C378.592 247.65 379.03 247.538 379.337 247.456C379.489 247.415 379.614 247.38 379.702 247.353C379.744 247.34 379.789 247.326 379.826 247.311C379.84 247.305 379.877 247.291 379.917 247.268C379.93 247.26 379.987 247.228 380.041 247.168C380.068 247.138 380.126 247.068 380.155 246.96C380.189 246.83 380.173 246.68 380.088 246.552L380.088 246.552L380.08 246.542C362.809 221.996 324.251 155.192 309.037 114.624C307.434 110.344 305.958 106.37 304.65 102.818L304.617 102.728L304.553 102.657C302.738 100.636 301.316 99.0423 300.349 97.9543C299.865 97.4103 299.495 96.9927 299.246 96.7111L298.963 96.392L298.892 96.3113L298.874 96.291L298.87 96.286L298.869 96.2847L298.868 96.2844L298.868 96.2843L298.493 96.615ZM297.791 96.1403L297.775 96.1722L297.804 96.1132L297.791 96.1403ZM297.253 96.2509C297.253 96.3128 297.253 96.367 297.253 96.4145L297.253 96.2509Z" fill="#FFF8EC" stroke="black"/>
<path d="M310.203 257.041L310.193 256.54L310.671 256.505L299.149 97.6219L298.152 97.6137L284.002 256.536L283.956 257.062L284.483 257.08C292.356 257.356 300.229 257.376 308.093 257.12L308.098 257.12C308.445 257.105 308.794 257.093 309.146 257.08L309.147 257.08C309.498 257.068 309.852 257.056 310.203 257.041Z" fill="#FFF8EC" stroke="black"/>
<path d="M320.239 120.782C303.925 125.741 287.827 124.186 276.905 121.903C275.616 121.628 274.396 121.352 273.254 121.067C276.069 117.967 278.686 115.074 281.057 112.457C281.362 112.103 281.677 111.758 281.992 111.414C283.015 110.273 283.99 109.19 284.905 108.177C285.338 107.695 285.771 107.222 286.174 106.77C287.256 105.559 288.26 104.438 289.175 103.424C290.08 102.411 290.887 101.505 291.596 100.708C291.753 100.541 291.911 100.364 292.058 100.197L292.235 99.9901C292.55 99.6358 292.845 99.321 293.111 99.0159C293.111 99.0159 293.141 98.9667 293.16 98.9471C293.367 98.7109 293.554 98.5043 293.741 98.3075C293.918 98.1008 294.075 97.9237 294.223 97.7564C294.695 97.2349 295.01 96.8807 295.158 96.7233C295.197 96.6839 295.217 96.6642 295.227 96.6445C295.236 96.6445 295.236 96.6249 295.236 96.6249C295.797 95.9951 296.417 95.8574 296.978 95.9262L297.136 95.9558H297.195C297.342 95.9951 297.49 96.0345 297.618 96.0935C297.637 96.1034 297.647 96.1034 297.657 96.1132C297.706 96.123 297.746 96.1526 297.795 96.1722C297.854 96.1919 297.903 96.2214 297.952 96.251C298.257 96.4182 298.464 96.5757 298.503 96.615H298.513C298.513 96.615 298.602 96.7233 298.779 96.9102C299.418 97.6482 301.308 99.7736 304.201 102.991C308.009 107.252 313.548 113.412 320.249 120.782H320.239Z" fill="url(#paint44_linear_22_411)"/>
<path d="M302.558 91.4297C302.558 94.6669 299.938 97.2961 296.692 97.2961C293.446 97.2961 290.825 94.6669 290.825 91.4297C290.825 88.193 293.455 85.5634 296.692 85.5634C299.929 85.5634 302.558 88.1837 302.558 91.4297Z" fill="url(#paint45_linear_22_411)" stroke="black"/>
<path d="M184.3 223.609L164.423 240.173V208.13C164.471 208.132 164.522 208.135 164.576 208.138C165 208.162 165.616 208.214 166.373 208.328C167.888 208.555 169.963 209.025 172.2 209.997C176.603 211.91 181.65 215.771 184.3 223.609Z" fill="url(#paint46_linear_22_411)" stroke="black"/>
<path d="M429.133 208.195C429.19 208.186 429.244 208.179 429.294 208.172V242.613L408.169 225.26C410.832 217.414 416.187 213.136 420.918 210.808C423.318 209.628 425.555 208.951 427.19 208.57C428.008 208.38 428.674 208.263 429.133 208.195Z" fill="url(#paint47_linear_22_411)" stroke="black"/>
<path d="M429.295 234.794V254.634C339.897 263.739 251.643 263.486 164.423 254.634V234.794H429.295Z" fill="url(#paint48_linear_22_411)" stroke="black"/>
<path d="M182.89 240.872L182.89 240.873L182.898 240.868C183.583 240.513 184.35 240.324 185.177 240.324C188.011 240.324 190.305 242.62 190.305 245.443C190.305 246.115 190.171 246.77 189.938 247.352C189.175 249.237 187.336 250.571 185.177 250.571C182.354 250.571 180.059 248.276 180.059 245.443C180.059 243.444 181.205 241.706 182.89 240.872Z" fill="url(#paint49_linear_22_411)" stroke="black"/>
<path d="M212.066 242.289L212.066 242.289L212.075 242.285C212.759 241.929 213.526 241.741 214.353 241.741C217.187 241.741 219.482 244.037 219.482 246.859C219.482 247.531 219.347 248.186 219.114 248.769C218.351 250.654 216.512 251.988 214.353 251.988C211.531 251.988 209.235 249.693 209.235 246.859C209.235 244.861 210.382 243.123 212.066 242.289Z" fill="url(#paint50_linear_22_411)" stroke="black"/>
<path d="M241.022 243.362L241.022 243.362L241.031 243.358C241.715 243.002 242.482 242.814 243.309 242.814C246.143 242.814 248.438 245.11 248.438 247.932C248.438 248.604 248.303 249.259 248.071 249.842C247.307 251.727 245.468 253.061 243.309 253.061C240.487 253.061 238.191 250.766 238.191 247.932C238.191 245.934 239.338 244.195 241.022 243.362Z" fill="url(#paint51_linear_22_411)" stroke="black"/>
<path d="M271.33 243.657L271.33 243.657L271.339 243.653C272.023 243.297 272.79 243.109 273.618 243.109C276.451 243.109 278.746 245.405 278.746 248.228C278.746 248.899 278.611 249.554 278.379 250.137C277.615 252.022 275.776 253.356 273.618 253.356C270.795 253.356 268.499 251.061 268.499 248.228C268.499 246.229 269.646 244.491 271.33 243.657Z" fill="url(#paint52_linear_22_411)" stroke="black"/>
<path d="M299.805 243.204L299.805 243.204L299.814 243.2C300.498 242.844 301.265 242.656 302.092 242.656C304.926 242.656 307.221 244.952 307.221 247.774C307.221 248.446 307.086 249.101 306.853 249.684C306.09 251.569 304.251 252.903 302.092 252.903C299.269 252.903 296.974 250.608 296.974 247.774C296.974 245.776 298.12 244.038 299.805 243.204Z" fill="url(#paint53_linear_22_411)" stroke="black"/>
<path d="M330.113 243.51L330.113 243.51L330.122 243.506C330.806 243.15 331.573 242.962 332.4 242.962C335.234 242.962 337.529 245.257 337.529 248.08C337.529 248.752 337.394 249.407 337.161 249.989C336.398 251.875 334.559 253.208 332.4 253.208C329.577 253.208 327.282 250.914 327.282 248.08C327.282 246.081 328.428 244.343 330.113 243.51Z" fill="url(#paint54_linear_22_411)" stroke="black"/>
<path d="M388.176 241.071C390.89 240.942 393.202 242.945 393.508 245.598L393.527 245.951C393.563 246.618 393.456 247.272 393.249 247.876C392.575 249.797 390.799 251.211 388.651 251.309L388.65 251.309C385.828 251.443 383.434 249.258 383.299 246.423C383.209 244.423 384.276 242.632 385.914 241.728L385.914 241.728L385.921 241.724C386.592 241.339 387.351 241.107 388.174 241.071L388.174 241.071L388.176 241.071Z" fill="url(#paint55_linear_22_411)" stroke="black"/>
<path d="M360.673 242.666C363.388 242.537 365.699 244.54 366.006 247.192L366.025 247.546C366.06 248.213 365.954 248.866 365.747 249.471C365.073 251.391 363.297 252.805 361.148 252.904L361.147 252.904C358.326 253.038 355.931 250.853 355.796 248.018C355.707 246.018 356.774 244.226 358.412 243.322L358.412 243.322L358.419 243.318C359.09 242.934 359.848 242.702 360.671 242.666L360.671 242.666L360.673 242.666Z" fill="url(#paint56_linear_22_411)" stroke="black"/>
<path d="M417.428 239.231C420.143 239.102 422.454 241.105 422.761 243.758L422.78 244.111C422.815 244.778 422.709 245.432 422.501 246.036C421.828 247.957 420.052 249.371 417.903 249.469L417.902 249.469C415.081 249.604 412.686 247.418 412.551 244.583C412.462 242.583 413.529 240.792 415.166 239.888L415.167 239.888L415.174 239.884C415.844 239.499 416.603 239.267 417.426 239.231L417.426 239.231L417.428 239.231Z" fill="url(#paint57_linear_22_411)" stroke="black"/>
<path d="M262.847 209.182C262.923 209.128 263.006 209.07 263.097 209.008C263.627 208.643 264.416 208.125 265.446 207.515C267.507 206.295 270.529 204.709 274.365 203.255L274.365 203.255C284.32 199.478 299.73 196.567 318.04 203.218L318.041 203.218C322.154 204.707 326.412 206.684 330.781 209.228L296.693 233.678L262.847 209.182Z" fill="url(#paint58_linear_22_411)" stroke="black"/>
<path d="M278.384 219.147C284.038 223.129 289.786 227.96 295.602 233.746C252.054 237.748 208.516 237.746 164.969 233.741C165.035 233.669 165.106 233.593 165.182 233.511C165.762 232.89 166.625 231.992 167.753 230.891C170.009 228.689 173.324 225.676 177.555 222.437C186.02 215.958 198.135 208.589 212.757 204.995C231.319 200.432 253.968 201.936 278.384 219.146L278.384 219.147Z" fill="url(#paint59_linear_22_411)" stroke="black"/>
<path d="M192.171 226.882L192.173 226.882C204.914 227.581 217.666 227.926 230.31 227.926C242.943 227.926 255.685 227.571 268.417 226.882L268.418 226.882C270.115 226.785 270.66 224.563 269.25 223.659L269.248 223.658C256.625 215.655 243.712 211.605 230.683 211.605C215.2 211.605 201.609 217.337 191.347 223.665L191.347 223.665L191.345 223.666C189.903 224.567 190.49 226.786 192.171 226.882Z" fill="#FFF8EC" stroke="black"/>
<path d="M427.465 233.741C383.917 237.746 340.379 237.748 296.832 233.746C302.647 227.96 308.396 223.128 314.049 219.146L314.049 219.146C338.475 201.936 361.114 200.432 379.677 204.995C394.299 208.589 406.413 215.957 414.879 222.437C419.11 225.676 422.425 228.689 424.681 230.891C425.809 231.991 426.672 232.889 427.252 233.511C427.327 233.592 427.399 233.669 427.465 233.741Z" fill="url(#paint60_linear_22_411)" stroke="black"/>
<path d="M400.261 226.882L400.262 226.882C401.943 226.786 402.531 224.567 401.089 223.666L401.086 223.665C390.824 217.337 377.233 211.605 361.75 211.605C348.722 211.605 335.809 215.655 323.186 223.658L323.184 223.659C321.773 224.563 322.318 226.785 324.015 226.882L324.017 226.882C336.748 227.571 349.49 227.926 362.124 227.926C374.767 227.926 387.519 227.581 400.261 226.882Z" fill="#FFF8EC" stroke="black"/>
<path d="M429.29 395.334V409.927C339.893 416.736 251.638 416.551 164.419 409.927V395.334H429.29Z" fill="url(#paint61_linear_22_411)" stroke="black"/>
<path d="M442.211 434.033V448.633C344.095 455.446 247.221 455.251 151.5 448.633V434.033H442.211Z" fill="url(#paint62_linear_22_411)" stroke="black"/>
<path d="M163.92 409.891H163.528L163.434 410.271L157.717 433.414L157.564 434.034H158.203H438.302H439.019L438.772 433.362L430.26 410.218L430.14 409.891H429.791H163.92Z" fill="#FFF8EC" stroke="black"/>
<path d="M181.377 414.968L181.377 414.968L181.384 414.964C182.435 414.42 183.615 414.124 184.874 414.124C189.203 414.124 192.708 417.631 192.708 421.939V421.949C192.708 422.985 192.505 423.975 192.144 424.871C190.977 427.75 188.165 429.783 184.874 429.783C180.555 429.783 177.049 426.278 177.049 421.949C177.049 418.889 178.805 416.244 181.377 414.968Z" fill="url(#paint63_linear_22_411)" stroke="black"/>
<path d="M212.746 414.968L212.746 414.968L212.753 414.964C213.804 414.42 214.984 414.124 216.243 414.124C220.573 414.124 224.077 417.631 224.077 421.939V421.949C224.077 422.985 223.874 423.975 223.513 424.871C222.347 427.75 219.534 429.783 216.243 429.783C211.924 429.783 208.418 426.278 208.418 421.949C208.418 418.889 210.174 416.244 212.746 414.968Z" fill="url(#paint64_linear_22_411)" stroke="black"/>
<path d="M244.106 414.968L244.106 414.968L244.113 414.964C245.164 414.42 246.344 414.124 247.603 414.124C251.932 414.124 255.437 417.631 255.437 421.939V421.949C255.437 422.985 255.234 423.975 254.873 424.871C253.706 427.75 250.894 429.783 247.603 429.783C243.284 429.783 239.778 426.278 239.778 421.949C239.778 418.889 241.534 416.244 244.106 414.968Z" fill="url(#paint65_linear_22_411)" stroke="black"/>
<path d="M275.475 414.968L275.475 414.968L275.483 414.964C276.533 414.42 277.714 414.124 278.972 414.124C283.302 414.124 286.807 417.631 286.807 421.939V421.949C286.807 422.985 286.603 423.975 286.243 424.871C285.076 427.75 282.263 429.783 278.972 429.783C274.654 429.783 271.148 426.278 271.148 421.949C271.148 418.889 272.904 416.244 275.475 414.968Z" fill="url(#paint66_linear_22_411)" stroke="black"/>
<path d="M306.845 414.968L306.845 414.968L306.852 414.964C307.903 414.42 309.084 414.124 310.342 414.124C314.672 414.124 318.176 417.631 318.176 421.939V421.949C318.176 422.985 317.973 423.975 317.612 424.871C316.446 427.75 313.633 429.783 310.342 429.783C306.023 429.783 302.518 426.278 302.518 421.949C302.518 418.889 304.273 416.244 306.845 414.968Z" fill="url(#paint67_linear_22_411)" stroke="black"/>
<path d="M338.215 414.968L338.215 414.968L338.223 414.964C339.273 414.42 340.454 414.124 341.712 414.124C346.042 414.124 349.546 417.631 349.546 421.939V421.949C349.546 422.985 349.343 423.975 348.982 424.871C347.816 427.75 345.003 429.783 341.712 429.783C337.393 429.783 333.888 426.278 333.888 421.949C333.888 418.889 335.644 416.244 338.215 414.968Z" fill="url(#paint68_linear_22_411)" stroke="black"/>
<path d="M369.583 414.968L369.583 414.968L369.591 414.964C370.641 414.42 371.822 414.124 373.08 414.124C377.41 414.124 380.915 417.631 380.915 421.939V421.949C380.915 422.985 380.711 423.975 380.351 424.871C379.184 427.75 376.371 429.783 373.08 429.783C368.762 429.783 365.256 426.278 365.256 421.949C365.256 418.889 367.012 416.244 369.583 414.968Z" fill="url(#paint69_linear_22_411)" stroke="black"/>
<path d="M400.953 414.968L400.953 414.968L400.961 414.964C402.011 414.42 403.192 414.124 404.45 414.124C408.78 414.124 412.285 417.631 412.285 421.939V421.949C412.285 422.985 412.081 423.975 411.721 424.871C410.554 427.75 407.741 429.783 404.45 429.783C400.132 429.783 396.626 426.278 396.626 421.949C396.626 418.889 398.382 416.244 400.953 414.968Z" fill="url(#paint70_linear_22_411)" stroke="black"/>
<path d="M101.353 2.80642L100.892 1.70855L100.431 2.80642L90.0779 27.4608L67.2311 13.6055L66.2126 12.9879L66.4851 14.1474L72.5985 40.1627L45.9583 42.3939L44.7708 42.4933L45.6737 43.271L65.9321 60.7182L45.6737 78.1655L44.7708 78.9431L45.9583 79.0426L72.5985 81.2737L66.4851 107.289L66.2126 108.449L67.2311 107.831L90.0779 93.9756L100.431 118.63L100.892 119.728L101.353 118.63L111.705 93.9756L134.552 107.831L135.57 108.449L135.298 107.289L129.185 81.2737L155.825 79.0426L157.012 78.9431L156.109 78.1655L135.851 60.7182L156.109 43.271L157.012 42.4933L155.825 42.3939L129.185 40.1627L135.298 14.1474L135.57 12.9879L134.552 13.6055L111.705 27.4608L101.353 2.80642Z" fill="#FFF8EC" stroke="black"/>
<path d="M123.187 60.7177C123.187 73.0311 113.205 83.0132 100.892 83.0132C88.5782 83.0132 78.5962 73.0311 78.5962 60.7177C78.5962 48.4042 88.5782 38.4222 100.892 38.4222C113.205 38.4222 123.187 48.4042 123.187 60.7177Z" fill="url(#paint71_linear_22_411)" stroke="black"/>
<path d="M34.6819 444.65C35.5885 444.79 36.5733 444.905 37.6427 445C36.5708 445.096 35.5839 445.211 34.6755 445.352C31.3758 445.865 29.0244 446.735 27.3774 448.383C25.7305 450.031 24.8617 452.383 24.3503 455.682C24.2097 456.589 24.0953 457.573 23.9996 458.643C23.9036 457.571 23.7887 456.584 23.6476 455.675C23.135 452.376 22.2648 450.024 20.6168 448.377C18.9689 446.73 16.617 445.862 13.3181 445.35C12.4115 445.21 11.4267 445.095 10.3574 445C11.4292 444.904 12.4161 444.789 13.3245 444.648C16.6242 444.135 18.9756 443.265 20.6226 441.617C22.2695 439.969 23.1383 437.617 23.6497 434.318C23.7903 433.411 23.9047 432.427 24.0004 431.357C24.0964 432.429 24.2113 433.416 24.3524 434.325C24.865 437.624 25.7352 439.976 27.3832 441.623C29.0311 443.27 31.383 444.138 34.6819 444.65Z" fill="url(#paint72_linear_22_411)" stroke="black"/>
<path d="M51.991 367.333C53.857 367.627 55.9689 367.837 58.3583 368C55.9652 368.164 53.8505 368.375 51.9824 368.67C47.5263 369.373 44.3865 370.562 42.1962 372.787C40.007 375.011 38.8394 378.197 38.1492 382.717C37.8645 384.582 37.6592 386.688 37.4997 389.066C37.3396 386.684 37.1336 384.575 36.848 382.709C36.1562 378.187 34.9867 375.002 32.7961 372.779C30.6044 370.555 27.4641 369.368 23.009 368.667C21.143 368.373 19.0311 368.163 16.6417 368C19.0348 367.836 21.1495 367.625 23.0176 367.33C27.4737 366.627 30.6135 365.438 32.8038 363.213C34.993 360.989 36.1606 357.803 36.8508 353.283C37.1355 351.418 37.3408 349.312 37.5003 346.934C37.6604 349.316 37.8664 351.425 38.152 353.291C38.8438 357.813 40.0134 360.998 42.2039 363.221C44.3956 365.445 47.5359 366.632 51.991 367.333Z" fill="url(#paint73_linear_22_411)" stroke="black"/>
<defs>
<linearGradient id="paint0_linear_22_411" x1="74.8261" y1="51.85" x2="367.588" y2="556.772" gradientUnits="userSpaceOnUse">
<stop stop-color="#D3C3ED"/>
<stop offset="0.489583" stop-color="#D3C3ED"/>
<stop offset="1" stop-color="#EEE3FF"/>
</linearGradient>
<linearGradient id="paint1_linear_22_411" x1="204.932" y1="268.929" x2="193.293" y2="260.935" gradientUnits="userSpaceOnUse">
<stop stop-color="#8CB6F3"/>
<stop offset="0.979167" stop-color="#CEE0FB"/>
</linearGradient>
<linearGradient id="paint2_linear_22_411" x1="204.932" y1="278.257" x2="193.293" y2="270.262" gradientUnits="userSpaceOnUse">
<stop stop-color="#8CB6F3"/>
<stop offset="0.979167" stop-color="#CEE0FB"/>
</linearGradient>
<linearGradient id="paint3_linear_22_411" x1="204.932" y1="287.585" x2="193.301" y2="279.587" gradientUnits="userSpaceOnUse">
<stop stop-color="#8CB6F3"/>
<stop offset="0.979167" stop-color="#CEE0FB"/>
</linearGradient>
<linearGradient id="paint4_linear_22_411" x1="204.932" y1="296.924" x2="193.293" y2="288.929" gradientUnits="userSpaceOnUse">
<stop stop-color="#8CB6F3"/>
<stop offset="0.979167" stop-color="#CEE0FB"/>
</linearGradient>
<linearGradient id="paint5_linear_22_411" x1="204.932" y1="306.251" x2="193.293" y2="298.257" gradientUnits="userSpaceOnUse">
<stop stop-color="#8CB6F3"/>
<stop offset="0.979167" stop-color="#CEE0FB"/>
</linearGradient>
<linearGradient id="paint6_linear_22_411" x1="204.932" y1="315.579" x2="193.293" y2="307.585" gradientUnits="userSpaceOnUse">
<stop stop-color="#8CB6F3"/>
<stop offset="0.979167" stop-color="#CEE0FB"/>
</linearGradient>
<linearGradient id="paint7_linear_22_411" x1="204.932" y1="324.908" x2="193.293" y2="316.914" gradientUnits="userSpaceOnUse">
<stop stop-color="#8CB6F3"/>
<stop offset="0.979167" stop-color="#CEE0FB"/>
</linearGradient>
<linearGradient id="paint8_linear_22_411" x1="204.932" y1="334.236" x2="193.293" y2="326.241" gradientUnits="userSpaceOnUse">
<stop stop-color="#8CB6F3"/>
<stop offset="0.979167" stop-color="#CEE0FB"/>
</linearGradient>
<linearGradient id="paint9_linear_22_411" x1="204.932" y1="343.573" x2="193.284" y2="335.582" gradientUnits="userSpaceOnUse">
<stop stop-color="#8CB6F3"/>
<stop offset="0.979167" stop-color="#CEE0FB"/>
</linearGradient>
<linearGradient id="paint10_linear_22_411" x1="204.932" y1="352.892" x2="193.293" y2="344.897" gradientUnits="userSpaceOnUse">
<stop stop-color="#8CB6F3"/>
<stop offset="0.979167" stop-color="#CEE0FB"/>
</linearGradient>
<linearGradient id="paint11_linear_22_411" x1="204.932" y1="362.22" x2="193.293" y2="354.226" gradientUnits="userSpaceOnUse">
<stop stop-color="#8CB6F3"/>
<stop offset="0.979167" stop-color="#CEE0FB"/>
</linearGradient>
<linearGradient id="paint12_linear_22_411" x1="204.932" y1="371.548" x2="193.301" y2="363.551" gradientUnits="userSpaceOnUse">
<stop stop-color="#8CB6F3"/>
<stop offset="0.979167" stop-color="#CEE0FB"/>
</linearGradient>
<linearGradient id="paint13_linear_22_411" x1="204.932" y1="380.886" x2="193.293" y2="372.891" gradientUnits="userSpaceOnUse">
<stop stop-color="#8CB6F3"/>
<stop offset="0.979167" stop-color="#CEE0FB"/>
</linearGradient>
<linearGradient id="paint14_linear_22_411" x1="204.932" y1="390.214" x2="193.293" y2="382.22" gradientUnits="userSpaceOnUse">
<stop stop-color="#8CB6F3"/>
<stop offset="0.979167" stop-color="#CEE0FB"/>
</linearGradient>
<linearGradient id="paint15_linear_22_411" x1="308.476" y1="268.929" x2="296.837" y2="260.935" gradientUnits="userSpaceOnUse">
<stop stop-color="#8CB6F3"/>
<stop offset="0.979167" stop-color="#CEE0FB"/>
</linearGradient>
<linearGradient id="paint16_linear_22_411" x1="308.476" y1="278.257" x2="296.837" y2="270.262" gradientUnits="userSpaceOnUse">
<stop stop-color="#8CB6F3"/>
<stop offset="0.979167" stop-color="#CEE0FB"/>
</linearGradient>
<linearGradient id="paint17_linear_22_411" x1="308.476" y1="287.585" x2="296.845" y2="279.587" gradientUnits="userSpaceOnUse">
<stop stop-color="#8CB6F3"/>
<stop offset="0.979167" stop-color="#CEE0FB"/>
</linearGradient>
<linearGradient id="paint18_linear_22_411" x1="308.476" y1="296.924" x2="296.837" y2="288.929" gradientUnits="userSpaceOnUse">
<stop stop-color="#8CB6F3"/>
<stop offset="0.979167" stop-color="#CEE0FB"/>
</linearGradient>
<linearGradient id="paint19_linear_22_411" x1="308.476" y1="306.251" x2="296.837" y2="298.257" gradientUnits="userSpaceOnUse">
<stop stop-color="#8CB6F3"/>
<stop offset="0.979167" stop-color="#CEE0FB"/>
</linearGradient>
<linearGradient id="paint20_linear_22_411" x1="308.476" y1="315.579" x2="296.837" y2="307.585" gradientUnits="userSpaceOnUse">
<stop stop-color="#8CB6F3"/>
<stop offset="0.979167" stop-color="#CEE0FB"/>
</linearGradient>
<linearGradient id="paint21_linear_22_411" x1="308.476" y1="324.908" x2="296.837" y2="316.914" gradientUnits="userSpaceOnUse">
<stop stop-color="#8CB6F3"/>
<stop offset="0.979167" stop-color="#CEE0FB"/>
</linearGradient>
<linearGradient id="paint22_linear_22_411" x1="308.476" y1="334.236" x2="296.837" y2="326.241" gradientUnits="userSpaceOnUse">
<stop stop-color="#8CB6F3"/>
<stop offset="0.979167" stop-color="#CEE0FB"/>
</linearGradient>
<linearGradient id="paint23_linear_22_411" x1="308.476" y1="343.573" x2="296.828" y2="335.582" gradientUnits="userSpaceOnUse">
<stop stop-color="#8CB6F3"/>
<stop offset="0.979167" stop-color="#CEE0FB"/>
</linearGradient>
<linearGradient id="paint24_linear_22_411" x1="308.476" y1="352.892" x2="296.837" y2="344.897" gradientUnits="userSpaceOnUse">
<stop stop-color="#8CB6F3"/>
<stop offset="0.979167" stop-color="#CEE0FB"/>
</linearGradient>
<linearGradient id="paint25_linear_22_411" x1="308.476" y1="362.22" x2="296.837" y2="354.226" gradientUnits="userSpaceOnUse">
<stop stop-color="#8CB6F3"/>
<stop offset="0.979167" stop-color="#CEE0FB"/>
</linearGradient>
<linearGradient id="paint26_linear_22_411" x1="308.476" y1="371.548" x2="296.845" y2="363.551" gradientUnits="userSpaceOnUse">
<stop stop-color="#8CB6F3"/>
<stop offset="0.979167" stop-color="#CEE0FB"/>
</linearGradient>
<linearGradient id="paint27_linear_22_411" x1="308.476" y1="380.886" x2="296.837" y2="372.891" gradientUnits="userSpaceOnUse">
<stop stop-color="#8CB6F3"/>
<stop offset="0.979167" stop-color="#CEE0FB"/>
</linearGradient>
<linearGradient id="paint28_linear_22_411" x1="308.476" y1="390.214" x2="296.837" y2="382.22" gradientUnits="userSpaceOnUse">
<stop stop-color="#8CB6F3"/>
<stop offset="0.979167" stop-color="#CEE0FB"/>
</linearGradient>
<linearGradient id="paint29_linear_22_411" x1="407.143" y1="268.929" x2="395.503" y2="260.935" gradientUnits="userSpaceOnUse">
<stop stop-color="#8CB6F3"/>
<stop offset="0.979167" stop-color="#CEE0FB"/>
</linearGradient>
<linearGradient id="paint30_linear_22_411" x1="407.143" y1="278.257" x2="395.503" y2="270.262" gradientUnits="userSpaceOnUse">
<stop stop-color="#8CB6F3"/>
<stop offset="0.979167" stop-color="#CEE0FB"/>
</linearGradient>
<linearGradient id="paint31_linear_22_411" x1="407.143" y1="287.585" x2="395.512" y2="279.587" gradientUnits="userSpaceOnUse">
<stop stop-color="#8CB6F3"/>
<stop offset="0.979167" stop-color="#CEE0FB"/>
</linearGradient>
<linearGradient id="paint32_linear_22_411" x1="407.143" y1="296.924" x2="395.503" y2="288.929" gradientUnits="userSpaceOnUse">
<stop stop-color="#8CB6F3"/>
<stop offset="0.979167" stop-color="#CEE0FB"/>
</linearGradient>
<linearGradient id="paint33_linear_22_411" x1="407.143" y1="306.251" x2="395.503" y2="298.257" gradientUnits="userSpaceOnUse">
<stop stop-color="#8CB6F3"/>
<stop offset="0.979167" stop-color="#CEE0FB"/>
</linearGradient>
<linearGradient id="paint34_linear_22_411" x1="407.143" y1="315.579" x2="395.503" y2="307.585" gradientUnits="userSpaceOnUse">
<stop stop-color="#8CB6F3"/>
<stop offset="0.979167" stop-color="#CEE0FB"/>
</linearGradient>
<linearGradient id="paint35_linear_22_411" x1="407.143" y1="324.908" x2="395.503" y2="316.914" gradientUnits="userSpaceOnUse">
<stop stop-color="#8CB6F3"/>
<stop offset="0.979167" stop-color="#CEE0FB"/>
</linearGradient>
<linearGradient id="paint36_linear_22_411" x1="407.143" y1="334.236" x2="395.503" y2="326.241" gradientUnits="userSpaceOnUse">
<stop stop-color="#8CB6F3"/>
<stop offset="0.979167" stop-color="#CEE0FB"/>
</linearGradient>
<linearGradient id="paint37_linear_22_411" x1="407.143" y1="343.573" x2="395.494" y2="335.582" gradientUnits="userSpaceOnUse">
<stop stop-color="#8CB6F3"/>
<stop offset="0.979167" stop-color="#CEE0FB"/>
</linearGradient>
<linearGradient id="paint38_linear_22_411" x1="407.143" y1="352.892" x2="395.503" y2="344.897" gradientUnits="userSpaceOnUse">
<stop stop-color="#8CB6F3"/>
<stop offset="0.979167" stop-color="#CEE0FB"/>
</linearGradient>
<linearGradient id="paint39_linear_22_411" x1="407.143" y1="362.22" x2="395.503" y2="354.226" gradientUnits="userSpaceOnUse">
<stop stop-color="#8CB6F3"/>
<stop offset="0.979167" stop-color="#CEE0FB"/>
</linearGradient>
<linearGradient id="paint40_linear_22_411" x1="407.143" y1="371.548" x2="395.512" y2="363.551" gradientUnits="userSpaceOnUse">
<stop stop-color="#8CB6F3"/>
<stop offset="0.979167" stop-color="#CEE0FB"/>
</linearGradient>
<linearGradient id="paint41_linear_22_411" x1="407.143" y1="380.886" x2="395.503" y2="372.891" gradientUnits="userSpaceOnUse">
<stop stop-color="#8CB6F3"/>
<stop offset="0.979167" stop-color="#CEE0FB"/>
</linearGradient>
<linearGradient id="paint42_linear_22_411" x1="407.143" y1="390.214" x2="395.503" y2="382.22" gradientUnits="userSpaceOnUse">
<stop stop-color="#8CB6F3"/>
<stop offset="0.979167" stop-color="#CEE0FB"/>
</linearGradient>
<linearGradient id="paint43_linear_22_411" x1="455.952" y1="256.79" x2="221.042" y2="56.5782" gradientUnits="userSpaceOnUse">
<stop stop-color="#8CB6F3"/>
<stop offset="0.419064" stop-color="#8CB6F3"/>
<stop offset="0.979167" stop-color="#CEE0FB"/>
</linearGradient>
<linearGradient id="paint44_linear_22_411" x1="320.249" y1="97.1156" x2="308.843" y2="134.825" gradientUnits="userSpaceOnUse">
<stop stop-color="#FF48CA"/>
<stop offset="0.491167" stop-color="#E07CC3"/>
<stop offset="1" stop-color="#E07CC3"/>
</linearGradient>
<linearGradient id="paint45_linear_22_411" x1="291.086" y1="85.909" x2="297.688" y2="100.101" gradientUnits="userSpaceOnUse">
<stop stop-color="#E7B12D"/>
<stop offset="0.476697" stop-color="#F7C651"/>
<stop offset="0.904587" stop-color="#FFDE8C"/>
</linearGradient>
<linearGradient id="paint46_linear_22_411" x1="184.882" y1="209.058" x2="160.837" y2="238.741" gradientUnits="userSpaceOnUse">
<stop stop-color="#FF48CA"/>
<stop offset="0.491167" stop-color="#E07CC3"/>
<stop offset="1" stop-color="#E07CC3"/>
</linearGradient>
<linearGradient id="paint47_linear_22_411" x1="429.794" y1="209.153" x2="403.941" y2="240.683" gradientUnits="userSpaceOnUse">
<stop stop-color="#FF48CA"/>
<stop offset="0.491167" stop-color="#E07CC3"/>
<stop offset="1" stop-color="#E07CC3"/>
</linearGradient>
<linearGradient id="paint48_linear_22_411" x1="202.937" y1="235.295" x2="204.179" y2="266.827" gradientUnits="userSpaceOnUse">
<stop stop-color="#FFB2D8"/>
<stop offset="0.458333" stop-color="#FFB2D8"/>
<stop offset="1" stop-color="#FFD9EC"/>
</linearGradient>
<linearGradient id="paint49_linear_22_411" x1="180.231" y1="240.571" x2="186.062" y2="253.107" gradientUnits="userSpaceOnUse">
<stop stop-color="#E7B12D"/>
<stop offset="0.476697" stop-color="#F7C651"/>
<stop offset="0.904587" stop-color="#FFDE8C"/>
</linearGradient>
<linearGradient id="paint50_linear_22_411" x1="209.407" y1="241.988" x2="215.239" y2="254.524" gradientUnits="userSpaceOnUse">
<stop stop-color="#E7B12D"/>
<stop offset="0.476697" stop-color="#F7C651"/>
<stop offset="0.904587" stop-color="#FFDE8C"/>
</linearGradient>
<linearGradient id="paint51_linear_22_411" x1="238.363" y1="243.061" x2="244.195" y2="255.597" gradientUnits="userSpaceOnUse">
<stop stop-color="#E7B12D"/>
<stop offset="0.476697" stop-color="#F7C651"/>
<stop offset="0.904587" stop-color="#FFDE8C"/>
</linearGradient>
<linearGradient id="paint52_linear_22_411" x1="268.671" y1="243.356" x2="274.503" y2="255.892" gradientUnits="userSpaceOnUse">
<stop stop-color="#E7B12D"/>
<stop offset="0.476697" stop-color="#F7C651"/>
<stop offset="0.904587" stop-color="#FFDE8C"/>
</linearGradient>
<linearGradient id="paint53_linear_22_411" x1="297.146" y1="242.903" x2="302.977" y2="255.439" gradientUnits="userSpaceOnUse">
<stop stop-color="#E7B12D"/>
<stop offset="0.476697" stop-color="#F7C651"/>
<stop offset="0.904587" stop-color="#FFDE8C"/>
</linearGradient>
<linearGradient id="paint54_linear_22_411" x1="327.454" y1="243.209" x2="333.285" y2="255.744" gradientUnits="userSpaceOnUse">
<stop stop-color="#E7B12D"/>
<stop offset="0.476697" stop-color="#F7C651"/>
<stop offset="0.904587" stop-color="#FFDE8C"/>
</linearGradient>
<linearGradient id="paint55_linear_22_411" x1="383.466" y1="241.312" x2="389.301" y2="253.849" gradientUnits="userSpaceOnUse">
<stop stop-color="#E7B12D"/>
<stop offset="0.476697" stop-color="#F7C651"/>
<stop offset="0.904587" stop-color="#FFDE8C"/>
</linearGradient>
<linearGradient id="paint56_linear_22_411" x1="355.963" y1="242.907" x2="361.798" y2="255.443" gradientUnits="userSpaceOnUse">
<stop stop-color="#E7B12D"/>
<stop offset="0.476697" stop-color="#F7C651"/>
<stop offset="0.904587" stop-color="#FFDE8C"/>
</linearGradient>
<linearGradient id="paint57_linear_22_411" x1="412.718" y1="239.472" x2="418.553" y2="252.009" gradientUnits="userSpaceOnUse">
<stop stop-color="#E7B12D"/>
<stop offset="0.476697" stop-color="#F7C651"/>
<stop offset="0.904587" stop-color="#FFDE8C"/>
</linearGradient>
<linearGradient id="paint58_linear_22_411" x1="272.225" y1="200.041" x2="279.82" y2="239.279" gradientUnits="userSpaceOnUse">
<stop stop-color="#FFB2D8"/>
<stop offset="0.458333" stop-color="#FFB2D8"/>
<stop offset="1" stop-color="#FFD9EC"/>
</linearGradient>
<linearGradient id="paint59_linear_22_411" x1="296.708" y1="203.784" x2="290.031" y2="254.011" gradientUnits="userSpaceOnUse">
<stop stop-color="#FF48CA"/>
<stop offset="0.491167" stop-color="#E07CC3"/>
<stop offset="1" stop-color="#E07CC3"/>
</linearGradient>
<linearGradient id="paint60_linear_22_411" x1="428.503" y1="203.783" x2="421.826" y2="254.011" gradientUnits="userSpaceOnUse">
<stop stop-color="#FF48CA"/>
<stop offset="0.491167" stop-color="#E07CC3"/>
<stop offset="1" stop-color="#E07CC3"/>
</linearGradient>
<linearGradient id="paint61_linear_22_411" x1="202.933" y1="395.583" x2="203.628" y2="419.191" gradientUnits="userSpaceOnUse">
<stop stop-color="#FFB2D8"/>
<stop offset="0.458333" stop-color="#FFB2D8"/>
<stop offset="1" stop-color="#FFD9EC"/>
</linearGradient>
<linearGradient id="paint62_linear_22_411" x1="193.805" y1="434.283" x2="194.44" y2="457.901" gradientUnits="userSpaceOnUse">
<stop stop-color="#FFB2D8"/>
<stop offset="0.458333" stop-color="#FFB2D8"/>
<stop offset="1" stop-color="#FFD9EC"/>
</linearGradient>
<linearGradient id="paint63_linear_22_411" x1="193.208" y1="414.338" x2="183.408" y2="433.746" gradientUnits="userSpaceOnUse">
<stop stop-color="#FF48CA"/>
<stop offset="0.491167" stop-color="#E07CC3"/>
<stop offset="1" stop-color="#E07CC3"/>
</linearGradient>
<linearGradient id="paint64_linear_22_411" x1="224.577" y1="414.338" x2="214.777" y2="433.746" gradientUnits="userSpaceOnUse">
<stop stop-color="#FF48CA"/>
<stop offset="0.491167" stop-color="#E07CC3"/>
<stop offset="1" stop-color="#E07CC3"/>
</linearGradient>
<linearGradient id="paint65_linear_22_411" x1="255.937" y1="414.338" x2="246.137" y2="433.746" gradientUnits="userSpaceOnUse">
<stop stop-color="#FF48CA"/>
<stop offset="0.491167" stop-color="#E07CC3"/>
<stop offset="1" stop-color="#E07CC3"/>
</linearGradient>
<linearGradient id="paint66_linear_22_411" x1="287.307" y1="414.338" x2="277.506" y2="433.746" gradientUnits="userSpaceOnUse">
<stop stop-color="#FF48CA"/>
<stop offset="0.491167" stop-color="#E07CC3"/>
<stop offset="1" stop-color="#E07CC3"/>
</linearGradient>
<linearGradient id="paint67_linear_22_411" x1="318.676" y1="414.338" x2="308.876" y2="433.746" gradientUnits="userSpaceOnUse">
<stop stop-color="#FF48CA"/>
<stop offset="0.491167" stop-color="#E07CC3"/>
<stop offset="1" stop-color="#E07CC3"/>
</linearGradient>
<linearGradient id="paint68_linear_22_411" x1="350.046" y1="414.338" x2="340.246" y2="433.746" gradientUnits="userSpaceOnUse">
<stop stop-color="#FF48CA"/>
<stop offset="0.491167" stop-color="#E07CC3"/>
<stop offset="1" stop-color="#E07CC3"/>
</linearGradient>
<linearGradient id="paint69_linear_22_411" x1="381.415" y1="414.338" x2="371.614" y2="433.746" gradientUnits="userSpaceOnUse">
<stop stop-color="#FF48CA"/>
<stop offset="0.491167" stop-color="#E07CC3"/>
<stop offset="1" stop-color="#E07CC3"/>
</linearGradient>
<linearGradient id="paint70_linear_22_411" x1="412.785" y1="414.338" x2="402.984" y2="433.746" gradientUnits="userSpaceOnUse">
<stop stop-color="#FF48CA"/>
<stop offset="0.491167" stop-color="#E07CC3"/>
<stop offset="1" stop-color="#E07CC3"/>
</linearGradient>
<linearGradient id="paint71_linear_22_411" x1="80.8217" y1="40.9502" x2="104.46" y2="91.7657" gradientUnits="userSpaceOnUse">
<stop stop-color="#E7B12D"/>
<stop offset="0.476697" stop-color="#F7C651"/>
<stop offset="0.904587" stop-color="#FFDE8C"/>
</linearGradient>
<linearGradient id="paint72_linear_22_411" x1="4.86957" y1="421" x2="20.4504" y2="472.593" gradientUnits="userSpaceOnUse">
<stop stop-color="#FF7372"/>
<stop offset="0.484375" stop-color="#FF7372"/>
<stop offset="1" stop-color="#FF8C8B"/>
</linearGradient>
<linearGradient id="paint73_linear_22_411" x1="8.88587" y1="339.383" x2="43.4416" y2="412.543" gradientUnits="userSpaceOnUse">
<stop stop-color="#E7B12D"/>
<stop offset="0.458333" stop-color="#F7C651"/>
<stop offset="1" stop-color="#FFDE8C"/>
</linearGradient>
</defs>
</svg>
