<?xml version="1.0" encoding="UTF-8" standalone="no"?>
<svg
   width="132"
   height="132"
   viewBox="0 0 132 132"
   fill="none"
   version="1.1"
   id="svg3"
   sodipodi:docname="favicon.svg"
   inkscape:version="1.3.2 (091e20e, 2023-11-25, custom)"
   xmlns:inkscape="http://www.inkscape.org/namespaces/inkscape"
   xmlns:sodipodi="http://sodipodi.sourceforge.net/DTD/sodipodi-0.dtd"
   xmlns="http://www.w3.org/2000/svg"
   xmlns:svg="http://www.w3.org/2000/svg">
  <defs
     id="defs3" />
  <sodipodi:namedview
     id="namedview3"
     pagecolor="#ffffff"
     bordercolor="#000000"
     borderopacity="0.25"
     inkscape:showpageshadow="2"
     inkscape:pageopacity="0.0"
     inkscape:pagecheckerboard="0"
     inkscape:deskcolor="#d1d1d1"
     inkscape:zoom="5.5984848"
     inkscape:cx="65.91069"
     inkscape:cy="65.91069"
     inkscape:window-width="1920"
     inkscape:window-height="974"
     inkscape:window-x="-11"
     inkscape:window-y="-11"
     inkscape:window-maximized="1"
     inkscape:current-layer="svg3" />
  <path
     d="M66 130C101.346 130 130 101.346 130 66C130 30.6538 101.346 2 66 2C30.6538 2 2 30.6538 2 66C2 101.346 30.6538 130 66 130Z"
     stroke="#FFF8EC"
     stroke-width="3"
     stroke-miterlimit="10"
     id="path1" />
  <path
     d="M66.499 21.567C63.1108 21.567 59.7225 21.8588 56.3814 22.4329C47.4214 24.0141 45.7931 27.327 45.7931 33.4353V41.5011H66.9696V44.1929H37.8402C31.6849 44.1929 26.3014 47.8917 24.6166 54.9223C22.6684 62.9882 22.5837 68.0235 24.6166 76.4376C26.1225 82.7058 29.7178 87.167 35.8637 87.167H43.1484V77.5011C43.3084 70.2729 49.1531 64.4753 56.3719 64.3529H77.5202C83.4119 64.3058 88.146 59.4964 88.1084 53.6047C88.1084 53.6047 88.1084 53.6047 88.1084 53.5952V33.4353C88.1084 27.6941 83.2708 23.3835 77.5202 22.4329C73.8778 21.84 70.1884 21.5482 66.4896 21.567H66.499ZM55.0449 28.0611C57.2755 28.0235 59.1108 29.8023 59.139 32.0329C59.1766 34.2635 57.3978 36.0988 55.1672 36.127C52.9366 36.1647 51.1014 34.3858 51.0731 32.1553C51.0731 32.1364 51.0731 32.127 51.0731 32.1082C51.0543 29.8964 52.8331 28.0894 55.0449 28.0611Z"
     fill="#FFF8EC"
     id="path2" />
  <path
     d="M90.753 44.2023V53.6047C90.6683 60.9082 84.8236 66.8376 77.5294 67.0259H56.3812C50.5177 67.1388 45.8118 71.92 45.793 77.7929V97.9529C45.793 103.694 50.7812 107.064 56.3812 108.711C63.2612 110.866 70.64 110.866 77.5294 108.711C82.8565 107.167 88.1177 104.061 88.1177 97.9529V89.887H66.9694V87.1953H98.7059C104.861 87.1953 107.148 82.9035 109.294 76.4659C111.506 69.8306 111.412 63.4588 109.294 54.9506C107.769 48.8235 104.871 44.2212 98.7059 44.2212H90.7624L90.753 44.2023ZM78.8565 95.2611C81.0871 95.2235 82.9224 97.0023 82.9506 99.2329C82.9883 101.463 81.2094 103.299 78.9789 103.327C76.7483 103.365 74.913 101.586 74.8847 99.3553C74.8847 99.327 74.8847 99.3082 74.8847 99.28C74.8659 97.0776 76.6447 95.2706 78.8565 95.2611Z"
     fill="#FFF8EC"
     id="path3" />
  <path
     style="fill:#2f2f2f;stroke:#2b0000;stroke-width:0.17862;fill-opacity:1"
     d="m 63.410014,128.40935 c -4.625763,-0.267 -9.121079,-0.93644 -12.984339,-1.93361 -14.34703,-3.70322 -26.724996,-12.2523 -35.46152,-24.49218 C 8.8268307,93.38517 4.9368838,82.906901 3.8270425,71.983762 c -0.2800363,-2.756137 -0.2800363,-9.211387 0,-11.967524 C 5.685424,41.725909 15.019941,25.668284 30.016436,14.964155 44.212611,4.8312722 62.577122,1.2072756 79.932341,5.1139015 c 2.997704,0.6747772 8.530344,2.5045549 11.253045,3.7216534 17.598104,7.8666871 30.522884,23.0852621 35.274884,41.5352161 2.21631,8.604955 2.55741,18.072285 0.96854,26.882274 -2.22408,12.332106 -8.18789,23.717485 -17.12942,32.701385 -2.88025,2.8939 -4.60045,4.37356 -7.76211,6.67669 -8.632646,6.28851 -19.010236,10.27455 -29.749729,11.42688 -2.515375,0.2699 -7.532231,0.45787 -9.377537,0.35135 z m 9.577578,-18.54073 c 0.846829,-0.15915 2.534786,-0.56311 3.751015,-0.89769 5.962505,-1.6403 9.405534,-4.12973 10.887641,-7.87215 0.405886,-1.02489 0.427113,-1.296102 0.485779,-6.207034 l 0.06135,-5.135318 H 77.622546 67.071719 v -1.250339 -1.250338 h 16.319327 c 10.353259,0 16.670784,-0.06665 17.280684,-0.182319 3.21476,-0.609665 5.65449,-2.992195 7.40398,-7.230401 3.3046,-8.005484 3.71015,-14.845313 1.43061,-24.127628 -1.11105,-4.524195 -2.18452,-6.802471 -4.11957,-8.743133 -2.47311,-2.480291 -3.49424,-2.76388 -9.952018,-2.76388 h -4.785206 v 5.50864 c 0,4.91184 -0.03859,5.661709 -0.356196,6.921516 -0.975501,3.8694 -3.433357,6.981389 -6.95386,8.804559 -2.730844,1.414227 -1.841927,1.332841 -15.910512,1.456703 -13.823879,0.121708 -13.290776,0.07909 -15.676009,1.253332 -2.371436,1.167453 -4.464588,3.518679 -5.420424,6.088727 l -0.422371,1.13567 -0.05302,12.089541 c -0.0523,11.926043 -0.04788,12.1048 0.326663,13.217862 0.693761,2.0617 2.237968,3.98885 4.375839,5.46101 2.353174,1.62043 7.057236,3.22986 11.332106,3.87713 2.282428,0.34559 8.927186,0.25309 11.095846,-0.15446 z M 43.185074,81.495264 c 0.08878,-6.25523 0.174113,-6.916075 1.179211,-9.132775 1.284162,-2.832157 3.494039,-5.14521 6.169229,-6.457259 2.992497,-1.467674 2.2119,-1.395681 16.359585,-1.508807 12.374141,-0.09894 12.612843,-0.10752 13.753721,-0.494166 1.715587,-0.581418 3.295313,-1.594878 4.530465,-2.906482 1.321609,-1.403414 2.145336,-2.896823 2.618712,-4.747701 0.333237,-1.302947 0.352706,-2.006109 0.350213,-12.648771 -0.0029,-12.545313 -0.0015,-12.527001 -1.196695,-14.80154 -1.586758,-3.019608 -4.736714,-5.317364 -8.498064,-6.198966 -3.67259,-0.860801 -11.586521,-1.304693 -16.291776,-0.913807 -8.955734,0.743995 -13.507703,2.450042 -15.247784,5.71477 -0.957243,1.795971 -1.089347,2.861604 -1.092823,8.815396 l -0.0031,5.313937 h 10.538565 10.538566 v 1.339649 1.339648 H 51.381752 c -17.557409,0 -16.770307,-0.05774 -19.850349,1.456208 -1.223992,0.601636 -1.823606,1.054235 -3.136847,2.367757 -2.426217,2.426733 -3.360374,4.436021 -4.360875,9.379873 -0.778566,3.847186 -0.962503,5.896254 -0.85033,9.472753 0.120958,3.856541 0.820951,7.986148 1.939112,11.439782 1.277189,3.944821 3.859927,7.011915 6.911415,8.20756 1.476478,0.578519 2.47854,0.680057 6.933204,0.702547 l 4.136228,0.02088 z"
     id="path7" />
  <path
     style="fill:#2f2f2f;fill-opacity:1;stroke:#2b0000;stroke-width:0.17862"
     d="m 53.407307,35.695578 c -1.428506,-0.751762 -2.222439,-2.041815 -2.228824,-3.621592 -0.01354,-3.349698 3.888341,-5.167415 6.48961,-3.02323 2.147698,1.770315 1.711666,5.300465 -0.81524,6.600244 -0.831363,0.427633 -2.672399,0.451452 -3.445546,0.04458 z"
     id="path8" />
  <path
     style="fill:#2f2f2f;fill-opacity:1;stroke:#2b0000;stroke-width:0.17862"
     d="m 78.056834,103.17116 c -2.516983,-0.64399 -3.853154,-3.464094 -2.698877,-5.696219 1.459379,-2.822128 5.650918,-2.844582 7.068294,-0.03786 0.695039,1.376331 0.601989,2.801609 -0.270479,4.143029 -0.783529,1.20468 -2.700608,1.94882 -4.098938,1.59105 z"
     id="path9" />
</svg>
