<svg width="1019" height="136" viewBox="0 0 1019 136" fill="none" xmlns="http://www.w3.org/2000/svg">
<mask id="path-1-outside-1_114_30007" maskUnits="userSpaceOnUse" x="736.441" y="9.99643" width="107" height="124" fill="black">
<rect fill="white" x="736.441" y="9.99643" width="107" height="124"/>
<path fill-rule="evenodd" clip-rule="evenodd" d="M838.166 10.9964H806.133C807.36 15.9684 811.02 21.3542 815.106 27.3647C821.859 37.2995 829.772 48.9413 829.772 63.243V88.5942L772.171 10.9964L768.447 10.9964H737.441V11.5103L748.576 26.0709V78.4887C748.576 101.443 746.52 117.545 743.437 130.735L747.161 130.735L774.442 130.735L778.166 130.735C777.002 125.755 773.493 120.359 769.576 114.336C763.119 104.408 755.554 92.7754 755.554 78.4887V35.0101L830.971 132.791H832.401H833.027H836.751V63.243C836.751 40.2888 838.806 24.1865 841.89 10.9964L838.166 10.9964Z"/>
</mask>
<path fill-rule="evenodd" clip-rule="evenodd" d="M838.166 10.9964H806.133C807.36 15.9684 811.02 21.3542 815.106 27.3647C821.859 37.2995 829.772 48.9413 829.772 63.243V88.5942L772.171 10.9964L768.447 10.9964H737.441V11.5103L748.576 26.0709V78.4887C748.576 101.443 746.52 117.545 743.437 130.735L747.161 130.735L774.442 130.735L778.166 130.735C777.002 125.755 773.493 120.359 769.576 114.336C763.119 104.408 755.554 92.7754 755.554 78.4887V35.0101L830.971 132.791H832.401H833.027H836.751V63.243C836.751 40.2888 838.806 24.1865 841.89 10.9964L838.166 10.9964Z" fill="#808CE2"/>
<path d="M806.133 10.9964V9.99643H804.856L805.162 11.236L806.133 10.9964ZM838.166 10.9964V9.99643V10.9964ZM815.106 27.3647L815.933 26.8026L815.106 27.3647ZM829.772 88.5942L828.969 89.1902L830.772 91.619V88.5942H829.772ZM772.171 10.9964L772.974 10.4004L772.674 9.99643L772.171 9.99643V10.9964ZM768.447 10.9964L768.447 9.99643H768.447V10.9964ZM737.441 10.9964V9.99643H736.441V10.9964H737.441ZM737.441 11.5103H736.441V11.8489L736.647 12.1178L737.441 11.5103ZM748.576 26.0709H749.576V25.7323L749.37 25.4634L748.576 26.0709ZM743.437 130.735L742.463 130.508L742.176 131.735H743.437L743.437 130.735ZM747.161 130.735L747.161 131.735H747.161V130.735ZM774.442 130.735L774.442 129.735H774.442V130.735ZM778.166 130.735L778.166 131.735H779.427L779.14 130.508L778.166 130.735ZM769.576 114.336L768.737 114.881L769.576 114.336ZM755.554 35.0101L756.346 34.3994L754.554 32.0762V35.0101H755.554ZM830.971 132.791L830.179 133.402L830.48 133.791H830.971V132.791ZM836.751 132.791V133.791H837.751V132.791H836.751ZM841.89 10.9964L842.863 11.2241L843.15 9.99644L841.89 9.99643V10.9964ZM806.133 11.9964H838.166V9.99643H806.133V11.9964ZM815.933 26.8026C811.809 20.7353 808.278 15.5153 807.104 10.7569L805.162 11.236C806.441 16.4216 810.232 21.973 814.279 27.9269L815.933 26.8026ZM830.772 63.243C830.772 48.5868 822.659 36.697 815.933 26.8026L814.279 27.9269C821.059 37.9021 828.772 49.2958 828.772 63.243H830.772ZM830.772 88.5942V63.243H828.772V88.5942H830.772ZM771.368 11.5925L828.969 89.1902L830.575 87.9981L772.974 10.4004L771.368 11.5925ZM768.447 11.9964L772.171 11.9964V9.99643L768.447 9.99643L768.447 11.9964ZM737.441 11.9964H768.447V9.99643H737.441V11.9964ZM738.441 11.5103V10.9964H736.441V11.5103H738.441ZM749.37 25.4634L738.236 10.9029L736.647 12.1178L747.782 26.6783L749.37 25.4634ZM749.576 78.4887V26.0709H747.576V78.4887H749.576ZM744.411 130.963C747.514 117.686 749.576 101.506 749.576 78.4887H747.576C747.576 101.38 745.526 117.405 742.463 130.508L744.411 130.963ZM747.161 129.735L743.437 129.735L743.437 131.735L747.161 131.735L747.161 129.735ZM774.442 129.735L747.161 129.735V131.735L774.442 131.735V129.735ZM778.166 129.735L774.442 129.735L774.442 131.735L778.166 131.735L778.166 129.735ZM768.737 114.881C772.69 120.959 776.077 126.191 777.192 130.963L779.14 130.508C777.927 125.318 774.295 119.759 770.414 113.79L768.737 114.881ZM754.554 78.4887C754.554 93.1159 762.304 104.989 768.737 114.881L770.414 113.79C763.934 103.826 756.554 92.4348 756.554 78.4887H754.554ZM754.554 35.0101V78.4887H756.554V35.0101H754.554ZM831.763 132.18L756.346 34.3994L754.763 35.6209L830.179 133.402L831.763 132.18ZM832.401 131.791H830.971V133.791H832.401V131.791ZM833.027 131.791H832.401V133.791H833.027V131.791ZM836.751 131.791H833.027V133.791H836.751V131.791ZM835.751 63.243V132.791H837.751V63.243H835.751ZM840.916 10.7688C837.812 24.046 835.751 40.2261 835.751 63.243H837.751C837.751 40.3515 839.8 24.3271 842.863 11.2241L840.916 10.7688ZM838.166 11.9964L841.89 11.9964V9.99643L838.166 9.99643V11.9964Z" fill="black" mask="url(#path-1-outside-1_114_30007)"/>
<mask id="path-3-outside-2_114_30007" maskUnits="userSpaceOnUse" x="743.145" y="9.99643" width="107" height="124" fill="black">
<rect fill="white" x="743.145" y="9.99643" width="107" height="124"/>
<path fill-rule="evenodd" clip-rule="evenodd" d="M844.869 10.9964H812.836C814.063 15.9684 817.724 21.3542 821.809 27.3647C828.562 37.2995 836.475 48.9413 836.475 63.243V88.5943L778.874 10.9964L775.15 10.9964H744.145V11.5103L755.279 26.0709V78.4887C755.279 101.443 753.223 117.545 750.14 130.735L753.864 130.735L781.145 130.735L784.869 130.735C783.705 125.755 780.196 120.359 776.279 114.336C769.822 104.408 762.257 92.7754 762.257 78.4887V35.01L837.674 132.791H839.104H839.73H843.454V63.243C843.454 40.2888 845.509 24.1865 848.593 10.9964L844.869 10.9964Z"/>
</mask>
<path fill-rule="evenodd" clip-rule="evenodd" d="M844.869 10.9964H812.836C814.063 15.9684 817.724 21.3542 821.809 27.3647C828.562 37.2995 836.475 48.9413 836.475 63.243V88.5943L778.874 10.9964L775.15 10.9964H744.145V11.5103L755.279 26.0709V78.4887C755.279 101.443 753.223 117.545 750.14 130.735L753.864 130.735L781.145 130.735L784.869 130.735C783.705 125.755 780.196 120.359 776.279 114.336C769.822 104.408 762.257 92.7754 762.257 78.4887V35.01L837.674 132.791H839.104H839.73H843.454V63.243C843.454 40.2888 845.509 24.1865 848.593 10.9964L844.869 10.9964Z" fill="#FF7372"/>
<path d="M812.836 10.9964V9.99643H811.559L811.865 11.236L812.836 10.9964ZM844.869 10.9964V9.99643V10.9964ZM821.809 27.3647L822.636 26.8026L821.809 27.3647ZM836.475 88.5943L835.672 89.1903L837.475 91.6191V88.5943H836.475ZM778.874 10.9964L779.677 10.4004L779.377 9.99643L778.874 9.99643V10.9964ZM775.15 10.9964L775.15 9.99643H775.15V10.9964ZM744.145 10.9964V9.99643H743.145V10.9964H744.145ZM744.145 11.5103H743.145V11.8489L743.35 12.1178L744.145 11.5103ZM755.279 26.0709H756.279V25.7323L756.073 25.4634L755.279 26.0709ZM750.14 130.735L749.166 130.508L748.879 131.735H750.14L750.14 130.735ZM753.864 130.735L753.864 131.735H753.864V130.735ZM781.145 130.735L781.145 129.735H781.145V130.735ZM784.869 130.735L784.869 131.735H786.13L785.843 130.508L784.869 130.735ZM776.279 114.336L775.44 114.881L776.279 114.336ZM762.257 35.01L763.049 34.3993L761.257 32.0761V35.01H762.257ZM837.674 132.791L836.883 133.402L837.183 133.791H837.674V132.791ZM843.454 132.791V133.791H844.454V132.791H843.454ZM848.593 10.9964L849.566 11.2241L849.853 9.99644L848.593 9.99643V10.9964ZM812.836 11.9964H844.869V9.99643H812.836V11.9964ZM822.636 26.8026C818.512 20.7353 814.981 15.5153 813.807 10.7569L811.865 11.236C813.145 16.4216 816.935 21.973 820.982 27.9269L822.636 26.8026ZM837.475 63.243C837.475 48.5868 829.362 36.697 822.636 26.8026L820.982 27.9269C827.762 37.9021 835.475 49.2958 835.475 63.243H837.475ZM837.475 88.5943V63.243H835.475V88.5943H837.475ZM778.071 11.5925L835.672 89.1903L837.278 87.9982L779.677 10.4004L778.071 11.5925ZM775.15 11.9964L778.874 11.9964V9.99643L775.15 9.99643L775.15 11.9964ZM744.145 11.9964H775.15V9.99643H744.145V11.9964ZM745.145 11.5103V10.9964H743.145V11.5103H745.145ZM756.073 25.4634L744.939 10.9029L743.35 12.1178L754.485 26.6783L756.073 25.4634ZM756.279 78.4887V26.0709H754.279V78.4887H756.279ZM751.114 130.963C754.218 117.686 756.279 101.506 756.279 78.4887H754.279C754.279 101.38 752.229 117.405 749.166 130.508L751.114 130.963ZM753.864 129.735L750.14 129.735L750.14 131.735L753.864 131.735L753.864 129.735ZM781.145 129.735L753.864 129.735V131.735L781.145 131.735V129.735ZM784.869 129.735L781.145 129.735L781.145 131.735L784.869 131.735L784.869 129.735ZM775.44 114.881C779.393 120.959 782.78 126.191 783.895 130.963L785.843 130.508C784.63 125.318 780.998 119.759 777.117 113.79L775.44 114.881ZM761.257 78.4887C761.257 93.1159 769.008 104.989 775.44 114.881L777.117 113.79C770.637 103.826 763.257 92.4348 763.257 78.4887H761.257ZM761.257 35.01V78.4887H763.257V35.01H761.257ZM838.466 132.18L763.049 34.3993L761.466 35.6208L836.883 133.402L838.466 132.18ZM839.104 131.791H837.674V133.791H839.104V131.791ZM839.73 131.791H839.104V133.791H839.73V131.791ZM843.454 131.791H839.73V133.791H843.454V131.791ZM842.454 63.243V132.791H844.454V63.243H842.454ZM847.619 10.7688C844.515 24.046 842.454 40.2261 842.454 63.243H844.454C844.454 40.3515 846.503 24.3271 849.566 11.2241L847.619 10.7688ZM844.869 11.9964L848.593 11.9964V9.99643L844.869 9.99643V11.9964Z" fill="black" mask="url(#path-3-outside-2_114_30007)"/>
<mask id="path-5-outside-3_114_30007" maskUnits="userSpaceOnUse" x="750.592" y="9.99643" width="107" height="124" fill="black">
<rect fill="white" x="750.592" y="9.99643" width="107" height="124"/>
<path fill-rule="evenodd" clip-rule="evenodd" d="M852.317 10.9964H820.284C821.51 15.9684 825.171 21.3542 829.257 27.3647C836.01 37.2995 843.923 48.9413 843.923 63.243V88.5942L786.321 10.9964L782.598 10.9964H751.592V11.5103L762.727 26.0709V78.4887C762.727 101.443 760.671 117.545 757.588 130.735L761.312 130.735L788.593 130.735L792.317 130.735C791.153 125.755 787.644 120.359 783.727 114.336C777.27 104.408 769.705 92.7753 769.705 78.4887V35.0101L845.122 132.791H846.552H847.178H850.902V63.243C850.902 40.2888 852.957 24.1865 856.041 10.9964L852.317 10.9964Z"/>
</mask>
<path fill-rule="evenodd" clip-rule="evenodd" d="M852.317 10.9964H820.284C821.51 15.9684 825.171 21.3542 829.257 27.3647C836.01 37.2995 843.923 48.9413 843.923 63.243V88.5942L786.321 10.9964L782.598 10.9964H751.592V11.5103L762.727 26.0709V78.4887C762.727 101.443 760.671 117.545 757.588 130.735L761.312 130.735L788.593 130.735L792.317 130.735C791.153 125.755 787.644 120.359 783.727 114.336C777.27 104.408 769.705 92.7753 769.705 78.4887V35.0101L845.122 132.791H846.552H847.178H850.902V63.243C850.902 40.2888 852.957 24.1865 856.041 10.9964L852.317 10.9964Z" fill="#FEC753"/>
<path d="M820.284 10.9964V9.99643H819.007L819.313 11.236L820.284 10.9964ZM852.317 10.9964V9.99643V10.9964ZM829.257 27.3647L830.084 26.8026L829.257 27.3647ZM843.923 88.5942L843.12 89.1902L844.923 91.619V88.5942H843.923ZM786.321 10.9964L787.124 10.4004L786.825 9.99643L786.321 9.99643V10.9964ZM782.598 10.9964L782.598 9.99643H782.598V10.9964ZM751.592 10.9964V9.99643H750.592V10.9964H751.592ZM751.592 11.5103H750.592V11.8489L750.798 12.1178L751.592 11.5103ZM762.727 26.0709H763.727V25.7323L763.521 25.4634L762.727 26.0709ZM757.588 130.735L756.614 130.508L756.327 131.735H757.588L757.588 130.735ZM761.312 130.735L761.312 131.735H761.312V130.735ZM788.593 130.735L788.593 129.735H788.593V130.735ZM792.317 130.735L792.317 131.735H793.578L793.291 130.508L792.317 130.735ZM783.727 114.336L784.565 113.79L783.727 114.336ZM769.705 35.0101L770.497 34.3994L768.705 32.0762V35.0101H769.705ZM845.122 132.791L844.33 133.402L844.631 133.791H845.122V132.791ZM850.902 132.791V133.791H851.902V132.791H850.902ZM856.041 10.9964L857.014 11.2241L857.301 9.99644L856.041 9.99643V10.9964ZM820.284 11.9964H852.317V9.99643H820.284V11.9964ZM830.084 26.8026C825.96 20.7353 822.429 15.5153 821.255 10.7569L819.313 11.236C820.592 16.4216 824.383 21.973 828.43 27.9269L830.084 26.8026ZM844.923 63.243C844.923 48.5868 836.809 36.697 830.084 26.8026L828.43 27.9269C835.21 37.9021 842.923 49.2958 842.923 63.243H844.923ZM844.923 88.5942V63.243H842.923V88.5942H844.923ZM785.518 11.5925L843.12 89.1902L844.726 87.9981L787.124 10.4004L785.518 11.5925ZM782.598 11.9964L786.321 11.9964V9.99643L782.598 9.99643L782.598 11.9964ZM751.592 11.9964H782.598V9.99643H751.592V11.9964ZM752.592 11.5103V10.9964H750.592V11.5103H752.592ZM763.521 25.4634L752.387 10.9029L750.798 12.1178L761.932 26.6783L763.521 25.4634ZM763.727 78.4887V26.0709H761.727V78.4887H763.727ZM758.562 130.963C761.665 117.686 763.727 101.506 763.727 78.4887H761.727C761.727 101.38 759.677 117.405 756.614 130.508L758.562 130.963ZM761.312 129.735L757.588 129.735L757.588 131.735L761.312 131.735L761.312 129.735ZM788.593 129.735L761.312 129.735V131.735L788.593 131.735V129.735ZM792.317 129.735L788.593 129.735L788.593 131.735L792.317 131.735L792.317 129.735ZM782.888 114.881C786.841 120.959 790.228 126.191 791.343 130.963L793.291 130.508C792.078 125.318 788.446 119.759 784.565 113.79L782.888 114.881ZM768.705 78.4887C768.705 93.1159 776.455 104.989 782.888 114.881L784.565 113.79C778.085 103.826 770.705 92.4348 770.705 78.4887H768.705ZM768.705 35.0101V78.4887H770.705V35.0101H768.705ZM845.914 132.18L770.497 34.3994L768.913 35.6209L844.33 133.402L845.914 132.18ZM846.552 131.791H845.122V133.791H846.552V131.791ZM847.178 131.791H846.552V133.791H847.178V131.791ZM850.902 131.791H847.178V133.791H850.902V131.791ZM849.902 63.243V132.791H851.902V63.243H849.902ZM855.067 10.7688C851.963 24.046 849.902 40.2261 849.902 63.243H851.902C851.902 40.3515 853.951 24.3271 857.014 11.2241L855.067 10.7688ZM852.317 11.9964L856.041 11.9964V9.99643L852.317 9.99643V11.9964Z" fill="black" mask="url(#path-5-outside-3_114_30007)"/>
<path d="M827.731 10.3251H827.093L827.246 10.9449C828.08 14.326 830.003 17.8631 832.376 21.5937C833.565 23.4628 834.875 25.3915 836.228 27.3814L836.29 27.4726C837.624 29.436 839 31.4603 840.351 33.5576C845.842 42.0823 850.871 51.7443 850.871 63.0717V90.5298L790.444 10.5238L790.294 10.3251H790.045H759.04H758.54V10.8251V11.339V11.5083L758.643 11.6428L769.675 26.0688V78.3174C769.675 101.24 767.622 117.304 764.549 130.45L764.405 131.064H765.036H796.041H796.671L796.528 130.45C795.738 127.071 793.903 123.535 791.634 119.804C790.497 117.935 789.245 116.006 787.951 114.016L787.871 113.894C786.6 111.94 785.291 109.926 784.004 107.84C778.749 99.316 773.929 89.6509 773.929 78.3174V31.4777L852.174 132.925L852.324 133.12H852.57H854.626H855.126V132.62V63.0717C855.126 40.1488 857.178 24.0855 860.251 10.9389L860.395 10.3251H859.765H827.731Z" fill="#FFF8EC" stroke="black"/>
<path d="M523.219 100.474H522.954L522.805 100.693C512.471 115.941 497.572 120.345 485.876 120.345C474.288 120.345 464.376 115.742 457.346 106.474C450.304 97.1903 446.12 83.1783 446.12 64.3155C446.12 49.3737 448.726 35.8043 454.047 25.9898C459.357 16.1938 467.346 10.1707 478.167 10.1707C481.8 10.1707 485.224 12.4624 488.45 16.2861C491.668 20.0996 494.615 25.3507 497.299 31.074C499.981 36.7924 502.387 42.9529 504.533 48.5718C504.829 49.3466 505.12 50.1114 505.407 50.8635C507.192 55.5551 508.791 59.7538 510.201 62.7978L510.495 63.4308L511 62.9496L534.46 40.6061L534.825 40.2592L534.475 39.897C529.831 35.081 520.787 26.7724 510.472 19.6637C500.181 12.5714 488.525 6.60123 478.681 6.60123C460.751 6.60123 445.244 12.6804 434.218 23.6846C423.192 34.6898 416.685 50.583 416.685 70.1397C416.685 88.237 422.632 103.526 432.86 114.294C443.089 125.064 457.57 131.28 474.57 131.28C496.985 131.28 521.583 118.878 532.308 101.233L532.77 100.474H531.881H523.219Z" fill="#808CE2" stroke="black"/>
<path d="M531.375 100.474H531.11L530.961 100.693C520.626 115.941 505.728 120.345 494.032 120.345C482.444 120.345 472.532 115.742 465.502 106.474C458.459 97.1903 454.276 83.1783 454.276 64.3155C454.276 49.3737 456.882 35.8043 462.203 25.9898C467.513 16.1938 475.502 10.1707 486.323 10.1707C489.984 10.1707 493.298 12.122 496.338 15.3741C499.377 18.6263 502.092 23.1284 504.546 28.1037C506.999 33.0747 509.176 38.4881 511.151 43.5479C511.485 44.4043 511.814 45.251 512.137 46.0839C513.72 50.1615 515.174 53.9083 516.532 56.8395L516.816 57.4513L517.319 57.0024L541.524 35.4037L541.912 35.0576L541.551 34.6835C536.888 29.8482 528.1 22.8382 518.054 17.0356C508.019 11.2394 496.649 6.60123 486.837 6.60123C468.907 6.60123 453.4 12.6804 442.374 23.6846C431.347 34.6898 424.84 50.583 424.84 70.1397C424.84 88.237 430.788 103.526 441.016 114.294C451.245 125.064 465.726 131.28 482.726 131.28C493.948 131.28 505.8 128.174 516.182 122.874C526.561 117.576 535.504 110.068 540.874 101.233L541.335 100.474H540.446H531.375Z" fill="#FF7372" stroke="black"/>
<path d="M540.312 100.474H540.047L539.898 100.693C529.563 115.941 514.665 120.345 502.969 120.345C491.381 120.345 481.469 115.742 474.439 106.474C467.396 97.1903 463.213 83.1783 463.213 64.3155C463.213 49.3737 465.819 35.8043 471.14 25.9898C476.45 16.1938 484.439 10.1707 495.26 10.1707C498.948 10.1707 502.055 11.7992 504.762 14.513C507.478 17.2354 509.771 21.0311 511.805 25.3045C513.837 29.5743 515.595 34.2863 517.256 38.8249C517.39 39.19 517.523 39.554 517.655 39.9167C519.167 44.0513 520.611 48.0035 522.118 51.2537L522.398 51.8585L522.9 51.4201L546.361 30.9386L546.757 30.593L546.392 30.2148C541.724 25.3741 533.953 19.478 524.923 14.7905C515.896 10.1043 505.563 6.60123 495.774 6.60123C477.844 6.60123 462.337 12.6804 451.311 23.6846C440.284 34.6898 433.777 50.583 433.777 70.1397C433.777 88.237 439.725 103.526 449.953 114.294C460.182 125.064 474.663 131.28 491.663 131.28C502.883 131.28 515.106 128.175 525.857 122.878C536.605 117.582 545.926 110.075 551.3 101.233L551.762 100.474H550.873H540.312Z" fill="#FEC753" stroke="black"/>
<path d="M551.008 100.552L550.598 100.291L550.325 100.693C539.991 115.941 525.092 120.345 513.396 120.345C501.809 120.345 491.896 115.742 484.866 106.474C477.824 97.1903 473.64 83.1783 473.64 64.3155C473.64 49.3737 476.246 35.8043 481.567 25.9898C486.877 16.1938 494.867 10.1707 505.687 10.1707C513.101 10.1707 517.555 15.167 520.999 22.0984C522.719 25.5597 524.167 29.4632 525.597 33.4006C525.698 33.6782 525.798 33.956 525.899 34.2338C527.224 37.8856 528.55 41.5406 530.072 44.8262L530.356 45.4377L530.859 44.9891L551.415 26.66L551.803 26.314L551.442 25.9398C542.117 16.27 525.72 6.60123 506.201 6.60123C488.271 6.60123 472.764 12.6804 461.738 23.6846C450.712 34.6898 444.205 50.583 444.205 70.1397C444.205 88.237 450.152 103.526 460.38 114.294C470.609 125.064 485.09 131.28 502.09 131.28C524.545 131.28 542.346 120.044 553.051 102.433L553.305 102.014L552.892 101.751L551.008 100.552Z" fill="#FFF8EC" stroke="black"/>
<path d="M184.038 131.235H184.538V130.735V80.9433C188.371 81.4337 194.369 81.9008 199.283 81.9008C213.75 81.9008 225.435 78.2844 233.514 71.7909C241.605 65.2877 246.034 55.9333 246.034 44.5713C246.034 33.9004 242.122 25.3488 234.271 19.4821C226.442 13.6323 214.757 10.4964 199.283 10.4964H158H157.5V10.9964V130.735V131.235H158H184.038ZM217.798 46.6269C217.798 56.5948 215.836 64.5238 211.856 69.9491C207.895 75.3488 201.888 78.3313 193.63 78.3313C189.91 78.3313 186.98 77.868 184.538 77.0974V14.2372H193.802C202.383 14.2372 208.347 17.6326 212.187 23.3311C216.049 29.06 217.798 37.168 217.798 46.6269Z" fill="#808CE2" stroke="black"/>
<path d="M192.975 131.235H193.475V130.735V80.9433C197.309 81.4337 203.307 81.9008 208.221 81.9008C222.688 81.9008 234.373 78.2844 242.451 71.7909C250.542 65.2877 254.972 55.9333 254.972 44.5713C254.972 33.9004 251.06 25.3488 243.208 19.4821C235.38 13.6323 223.694 10.4964 208.221 10.4964H166.938H166.438V10.9964V130.735V131.235H166.938H192.975ZM226.735 46.6269C226.735 56.5948 224.774 64.5238 220.794 69.9491C216.833 75.3488 210.826 78.3313 202.568 78.3313C198.848 78.3313 195.918 77.868 193.475 77.0974V14.2372H202.739C211.321 14.2372 217.284 17.6326 221.125 23.3311C224.986 29.06 226.735 37.168 226.735 46.6269Z" fill="#FF7372" stroke="black"/>
<path d="M203.402 131.235H203.902V130.735V80.9433C207.736 81.4337 213.734 81.9008 218.648 81.9008C233.115 81.9008 244.799 78.2844 252.878 71.7909C260.969 65.2877 265.399 55.9333 265.399 44.5713C265.399 33.9004 261.486 25.3488 253.635 19.4821C245.806 13.6323 234.121 10.4964 218.648 10.4964H177.364H176.864V10.9964V130.735V131.235H177.364H203.402ZM237.162 46.6269C237.162 56.5948 235.2 64.5238 231.22 69.9491C227.259 75.3488 221.253 78.3313 212.995 78.3313C209.274 78.3313 206.345 77.868 203.902 77.0974V14.2372H213.166C221.747 14.2372 227.711 17.6326 231.552 23.3311C235.413 29.06 237.162 37.168 237.162 46.6269Z" fill="#FEC753" stroke="black"/>
<path d="M215.318 131.235H215.818V130.735V80.9433C219.652 81.4337 225.65 81.9008 230.564 81.9008C245.031 81.9008 256.716 78.2844 264.795 71.7909C272.886 65.2877 277.315 55.9333 277.315 44.5713C277.315 33.9004 273.403 25.3488 265.552 19.4821C257.723 13.6323 246.037 10.4964 230.564 10.4964H189.281H188.781V10.9964V130.735V131.235H189.281H215.318ZM249.078 46.6269C249.078 56.5948 247.117 64.5238 243.137 69.9491C239.176 75.3488 233.169 78.3313 224.911 78.3313C221.191 78.3313 218.261 77.868 215.818 77.0974V14.2372H225.082C233.664 14.2372 239.627 17.6326 243.468 23.3311C247.329 29.06 249.078 37.168 249.078 46.6269Z" fill="#FFF8EC" stroke="black"/>
<path d="M349.625 10.4964H349.179L349.128 10.9394C348.816 13.6586 349.465 16.6334 350.378 19.848C350.659 20.837 350.965 21.8488 351.279 22.8873C351.996 25.2563 352.755 27.7649 353.355 30.462C355.071 38.1718 355.452 47.2914 349.529 58.2066C349.529 58.2071 349.528 58.2076 349.528 58.2081L341.743 72.3189L307.408 10.7529L307.265 10.4964H306.971H277.336H276.484L276.9 11.2406L316.235 81.5312V130.735V131.235H316.735H342.944H343.444V130.735V78.1007L353.148 60.0561C364.62 38.9942 371.297 27.6944 381.06 11.2517L381.509 10.4964H380.63H349.625Z" fill="#808CE2" stroke="black"/>
<path d="M354.995 47.3195L364.677 32.4239L368.774 48.8091L363.56 59.2361L354.995 47.3195Z" fill="#808CE2"/>
<path d="M360.052 10.4964H359.606L359.555 10.9394C359.243 13.6586 359.891 16.6334 360.805 19.848C361.086 20.837 361.392 21.8488 361.706 22.8873C362.423 25.2563 363.182 27.7649 363.782 30.462C365.498 38.1718 365.878 47.2914 359.956 58.2066C359.956 58.2071 359.955 58.2076 359.955 58.2081L352.17 72.3189L317.835 10.7529L317.692 10.4964H317.398H287.763H286.91L287.327 11.2406L326.662 81.5312V130.735V131.235H327.162H353.371H353.871V130.735V78.1007L363.574 60.0561C375.047 38.9942 381.724 27.6944 391.487 11.2517L391.936 10.4964H391.057H360.052Z" fill="#FF7372" stroke="black"/>
<path d="M363.188 57.0017L375.476 35.403L381.807 43.5956L375.849 55.1397L365.794 67.0563L363.188 57.0017Z" fill="#FF7372"/>
<path fill-rule="evenodd" clip-rule="evenodd" d="M369.815 10.2516H402.793L402.125 11.3767C392.362 27.8181 385.687 39.1148 374.217 60.1724C374.217 60.1727 374.216 60.173 374.216 60.1732L364.543 78.1623V131.48H336.844V81.595L296.92 10.2516H328.263L362.596 71.8143L370.167 58.0914C370.167 58.0906 370.168 58.0899 370.168 58.0891C376.055 47.2394 375.677 38.1838 373.97 30.5151C373.372 27.8272 372.617 25.3335 371.902 22.9684C371.587 21.9275 371.28 20.9116 370.996 19.9149C370.082 16.699 369.421 13.6831 369.739 10.9115L369.815 10.2516ZM370.821 58.4466L362.599 73.3497L327.825 10.9964H298.19L337.589 81.4008V130.735H363.798V77.9748L373.562 59.817C384.865 39.0666 391.516 27.7865 401.042 11.7412C401.189 11.4941 401.336 11.2459 401.484 10.9964H370.479C370.088 14.4006 371.261 18.2774 372.606 22.7216C375.388 31.9195 378.906 43.5478 370.821 58.4466Z" fill="black"/>
<path fill-rule="evenodd" clip-rule="evenodd" d="M401.484 10.9964H370.479C370.088 14.4006 371.261 18.2774 372.606 22.7216C375.388 31.9195 378.906 43.5478 370.822 58.4466L362.599 73.3497L327.825 10.9964H298.19L337.589 81.4008V130.735H363.798V77.9748L369.32 67.7062L373.242 75.2489L392.607 36.8926H386.32C391.347 28.0882 395.914 20.3787 401.484 10.9964Z" fill="#FEC753"/>
<path d="M380.906 10.4964H380.46L380.409 10.9394C380.097 13.6586 380.745 16.6334 381.659 19.848C381.94 20.837 382.246 21.8488 382.56 22.8873C383.277 25.2563 384.036 27.7649 384.636 30.462C386.352 38.1718 386.732 47.2914 380.81 58.2066C380.81 58.2071 380.809 58.2076 380.809 58.2081L373.024 72.3189L338.689 10.7529L338.546 10.4964H338.252H308.617H307.764L308.181 11.2406L347.516 81.5312V130.735V131.235H348.016H374.225H374.725V130.735V78.1007L384.428 60.0561C395.901 38.9942 402.578 27.6944 412.341 11.2517L412.79 10.4964H411.911H380.906Z" fill="#FFF8EC" stroke="black"/>
<mask id="path-23-outside-4_114_30007" maskUnits="userSpaceOnUse" x="562.652" y="0" width="137" height="131" fill="black">
<rect fill="white" x="562.652" width="137" height="131"/>
<path fill-rule="evenodd" clip-rule="evenodd" d="M610.561 126.509C595.468 122.505 581.982 112.582 573.157 96.1698C554.657 62.0811 567.504 27.8211 600.394 10.0059C613.558 2.88422 627.236 -0.0988271 640.032 1.36119C659.781 2.26069 678.027 13.1125 689.544 34.5331C708.045 68.6218 695.368 103.053 662.307 120.868C644.954 130.212 626.593 132.339 610.561 126.509ZM660.178 48.7197C676.965 79.8963 678.335 105.42 657.437 116.726C652.303 119.51 647.004 120.615 641.676 120.198C627.753 116.56 613.943 102.889 602.695 81.9832C586.079 50.9779 584.537 25.1116 605.607 13.8058C610.65 11.0901 615.867 10.0124 621.121 10.4224C635.036 14.0612 648.896 27.7516 660.178 48.7197Z"/>
</mask>
<path fill-rule="evenodd" clip-rule="evenodd" d="M610.561 126.509C595.468 122.505 581.982 112.582 573.157 96.1698C554.657 62.0811 567.504 27.8211 600.394 10.0059C613.558 2.88422 627.236 -0.0988271 640.032 1.36119C659.781 2.26069 678.027 13.1125 689.544 34.5331C708.045 68.6218 695.368 103.053 662.307 120.868C644.954 130.212 626.593 132.339 610.561 126.509ZM660.178 48.7197C676.965 79.8963 678.335 105.42 657.437 116.726C652.303 119.51 647.004 120.615 641.676 120.198C627.753 116.56 613.943 102.889 602.695 81.9832C586.079 50.9779 584.537 25.1116 605.607 13.8058C610.65 11.0901 615.867 10.0124 621.121 10.4224C635.036 14.0612 648.896 27.7516 660.178 48.7197Z" fill="#808CE2"/>
<path d="M610.561 126.509L610.903 125.569L610.861 125.554L610.818 125.543L610.561 126.509ZM573.157 96.1698L574.038 95.6963L574.036 95.6928L573.157 96.1698ZM600.394 10.0059L599.918 9.12633L599.917 9.12658L600.394 10.0059ZM640.032 1.36119L639.918 2.35474L639.952 2.3586L639.986 2.36015L640.032 1.36119ZM689.544 34.5331L688.663 35.0067L688.665 35.0101L689.544 34.5331ZM662.307 120.868L662.782 121.749L662.782 121.749L662.307 120.868ZM657.437 116.726L656.961 115.846L656.96 115.847L657.437 116.726ZM660.178 48.7197L659.297 49.1935L659.297 49.1938L660.178 48.7197ZM641.676 120.198L641.424 121.165L641.51 121.188L641.598 121.195L641.676 120.198ZM602.695 81.9832L601.814 82.4556L601.814 82.457L602.695 81.9832ZM605.607 13.8058L606.08 14.6869L606.081 14.6862L605.607 13.8058ZM621.121 10.4224L621.374 9.4549L621.288 9.43233L621.199 9.4254L621.121 10.4224ZM610.818 125.543C595.993 121.61 582.732 111.866 574.038 95.6963L572.276 96.6434C581.232 113.298 594.943 123.4 610.305 127.476L610.818 125.543ZM574.036 95.6928C564.905 78.8679 563.538 62.0669 568.453 47.3011C573.371 32.5252 584.613 19.6912 600.87 10.8852L599.917 9.12658C583.285 18.1358 571.658 31.3394 566.555 46.6695C561.449 62.0097 562.909 79.3831 572.278 96.6468L574.036 95.6928ZM600.87 10.8854C613.884 3.84492 627.357 0.921535 639.918 2.35474L640.145 0.367636C627.114 -1.11919 613.232 1.92352 599.918 9.12633L600.87 10.8854ZM639.986 2.36015C659.361 3.24264 677.302 13.8758 688.663 35.0066L690.425 34.0595C678.752 12.3491 660.2 1.27875 640.077 0.362225L639.986 2.36015ZM688.665 35.0101C697.797 51.8361 699.206 68.6808 694.312 83.4895C689.415 98.3073 678.174 111.183 661.833 119.988L662.782 121.749C679.502 112.739 691.13 99.4909 696.211 84.1171C701.295 68.7341 699.792 51.3188 690.423 34.0561L688.665 35.0101ZM661.833 119.988C644.681 129.224 626.617 131.283 610.903 125.569L610.22 127.449C626.569 133.394 645.228 131.201 662.782 121.749L661.833 119.988ZM657.913 117.605C668.716 111.761 673.763 102.2 673.939 90.189C674.114 78.2523 669.487 63.9001 661.058 48.2456L659.297 49.1938C667.655 64.716 672.107 78.7139 671.939 90.1597C671.773 101.531 667.056 110.385 656.961 115.846L657.913 117.605ZM641.598 121.195C647.125 121.628 652.616 120.478 657.913 117.605L656.96 115.847C651.99 118.542 646.883 119.603 641.755 119.201L641.598 121.195ZM601.814 82.457C613.109 103.448 627.096 117.422 641.424 121.165L641.929 119.23C628.41 115.698 614.778 102.329 603.576 81.5094L601.814 82.457ZM605.134 12.9246C594.24 18.7702 589.195 28.4205 589.019 40.4926C588.844 52.492 593.47 66.8862 601.814 82.4556L603.576 81.5109C595.304 66.075 590.851 52.0333 591.019 40.5217C591.185 29.0829 595.904 20.1472 606.08 14.6869L605.134 12.9246ZM621.199 9.4254C615.748 9.00004 610.34 10.1213 605.133 12.9253L606.081 14.6862C610.96 12.059 615.986 11.0247 621.043 11.4193L621.199 9.4254ZM661.058 48.2459C649.73 27.1917 635.693 13.1993 621.374 9.4549L620.868 11.3898C634.38 14.9231 648.061 28.3115 659.297 49.1935L661.058 48.2459Z" fill="black" mask="url(#path-23-outside-4_114_30007)"/>
<path d="M666.269 120.421L666.269 120.421C682.894 111.462 694.425 98.3072 699.46 83.0724C704.497 67.8333 703.017 50.5609 693.708 33.4076C684.485 16.2552 671.231 6.00534 656.305 2.1983C641.387 -1.60693 624.856 1.03853 609.093 9.5661L609.093 9.56623C592.555 18.5246 581.024 31.6358 575.967 46.8274C570.909 62.0237 572.345 79.2536 581.655 96.4073C590.878 113.561 604.176 123.81 619.121 127.638C634.06 131.465 650.59 128.863 666.269 120.421ZM666.136 116.286L666.136 116.286C656.214 121.668 645.657 120.678 635.437 114.415C625.198 108.14 615.315 96.5746 606.86 80.8587C598.57 65.3896 594.073 51.2601 594.243 39.6267C594.412 28.0295 599.212 18.9151 609.568 13.3585L609.568 13.3582C619.403 8.06265 629.918 9.09303 640.117 15.3778C650.336 21.6746 660.219 33.2407 668.675 48.9566L668.675 48.9567C677.051 64.512 681.546 78.5985 681.377 90.167C681.208 101.698 676.409 110.729 666.136 116.286Z" fill="#FF7372" stroke="black"/>
<mask id="path-26-outside-5_114_30007" maskUnits="userSpaceOnUse" x="571.589" y="0" width="137" height="131" fill="black">
<rect fill="white" x="571.589" width="137" height="131"/>
<path fill-rule="evenodd" clip-rule="evenodd" d="M619.5 126.509C604.406 122.505 590.92 112.583 582.095 96.1698C563.594 62.0811 576.442 27.8211 609.331 10.0059C622.495 2.88426 636.173 -0.0987926 648.969 1.36116C668.718 2.26055 686.964 13.1124 698.482 34.5331C716.982 68.6218 704.306 103.053 671.245 120.868C653.892 130.212 635.531 132.339 619.5 126.509ZM669.115 48.7197C685.902 79.8963 687.273 105.42 666.374 116.726C661.241 119.51 655.942 120.615 650.614 120.198C636.691 116.56 622.881 102.889 611.633 81.9832C595.017 50.9779 593.475 25.1116 614.545 13.8057C619.588 11.0902 624.805 10.0124 630.059 10.4223C643.974 14.0612 657.833 27.7515 669.115 48.7197Z"/>
</mask>
<path fill-rule="evenodd" clip-rule="evenodd" d="M619.5 126.509C604.406 122.505 590.92 112.583 582.095 96.1698C563.594 62.0811 576.442 27.8211 609.331 10.0059C622.495 2.88426 636.173 -0.0987926 648.969 1.36116C668.718 2.26055 686.964 13.1124 698.482 34.5331C716.982 68.6218 704.306 103.053 671.245 120.868C653.892 130.212 635.531 132.339 619.5 126.509ZM669.115 48.7197C685.902 79.8963 687.273 105.42 666.374 116.726C661.241 119.51 655.942 120.615 650.614 120.198C636.691 116.56 622.881 102.889 611.633 81.9832C595.017 50.9779 593.475 25.1116 614.545 13.8057C619.588 11.0902 624.805 10.0124 630.059 10.4223C643.974 14.0612 657.833 27.7515 669.115 48.7197Z" fill="#FF7372"/>
<path d="M619.5 126.509L619.841 125.569L619.799 125.554L619.756 125.543L619.5 126.509ZM582.095 96.1698L582.975 95.6963L582.973 95.6928L582.095 96.1698ZM609.331 10.0059L608.855 9.12633L608.855 9.12658L609.331 10.0059ZM648.969 1.36116L648.856 2.35472L648.89 2.35858L648.924 2.36013L648.969 1.36116ZM698.482 34.5331L697.601 35.0066L697.603 35.0101L698.482 34.5331ZM671.245 120.868L671.719 121.749L671.719 121.749L671.245 120.868ZM666.374 116.726L665.898 115.846L665.897 115.847L666.374 116.726ZM669.115 48.7197L668.234 49.1935L668.235 49.1938L669.115 48.7197ZM650.614 120.198L650.361 121.165L650.447 121.188L650.536 121.195L650.614 120.198ZM611.633 81.9832L610.751 82.4556L610.752 82.457L611.633 81.9832ZM614.545 13.8057L615.018 14.6869L615.019 14.6862L614.545 13.8057ZM630.059 10.4223L630.312 9.45487L630.225 9.43231L630.136 9.42537L630.059 10.4223ZM619.756 125.543C604.931 121.61 591.67 111.867 582.975 95.6963L581.214 96.6434C590.169 113.299 603.881 123.401 619.243 127.476L619.756 125.543ZM582.973 95.6928C573.842 78.8679 572.476 62.0669 577.39 47.3011C582.309 32.5252 593.55 19.6912 609.808 10.8852L608.855 9.12658C592.223 18.1358 580.596 31.3394 575.493 46.6695C570.387 62.0097 571.846 79.3831 581.216 96.6468L582.973 95.6928ZM609.807 10.8854C622.821 3.84496 636.295 0.921569 648.856 2.35472L649.082 0.36761C636.052 -1.11915 622.17 1.92357 608.855 9.12633L609.807 10.8854ZM648.924 2.36013C668.299 3.2425 686.239 13.8757 697.601 35.0066L699.363 34.0595C687.689 12.349 669.137 1.2786 649.015 0.362199L648.924 2.36013ZM697.603 35.0101C706.735 51.8361 708.144 68.6808 703.249 83.4895C698.352 98.3073 687.111 111.183 670.771 119.988L671.719 121.749C688.44 112.739 700.067 99.4909 705.148 84.1171C710.232 68.7341 708.729 51.3188 699.361 34.0561L697.603 35.0101ZM670.771 119.988C653.619 129.224 635.555 131.283 619.841 125.569L619.158 127.449C635.507 133.394 654.166 131.201 671.719 121.749L670.771 119.988ZM666.85 117.605C677.653 111.761 682.701 102.2 682.877 90.189C683.052 78.2523 678.425 63.9 669.996 48.2456L668.235 49.1938C676.593 64.716 681.045 78.7139 680.877 90.1597C680.71 101.531 675.994 110.385 665.898 115.846L666.85 117.605ZM650.536 121.195C656.062 121.628 661.554 120.478 666.851 117.605L665.897 115.847C660.928 118.542 655.821 119.602 650.692 119.201L650.536 121.195ZM610.752 82.457C622.046 103.448 636.034 117.422 650.361 121.165L650.867 119.23C637.348 115.698 623.715 102.329 612.513 81.5094L610.752 82.457ZM614.072 12.9246C603.178 18.7701 598.132 28.4205 597.957 40.4926C597.782 52.492 602.407 66.8862 610.751 82.4556L612.514 81.5109C604.242 66.0749 599.789 52.0333 599.956 40.5217C600.123 29.0829 604.842 20.1472 615.018 14.6869L614.072 12.9246ZM630.136 9.42537C624.686 9.00007 619.278 10.1213 614.071 12.9253L615.019 14.6862C619.898 12.059 624.924 11.0247 629.981 11.4193L630.136 9.42537ZM669.996 48.2459C658.668 27.1917 644.631 13.1992 630.312 9.45487L629.806 11.3898C643.317 14.9231 656.999 28.3114 668.234 49.1935L669.996 48.2459Z" fill="black" mask="url(#path-26-outside-5_114_30007)"/>
<mask id="path-28-outside-6_114_30007" maskUnits="userSpaceOnUse" x="580.527" y="0" width="137" height="131" fill="black">
<rect fill="white" x="580.527" width="137" height="131"/>
<path fill-rule="evenodd" clip-rule="evenodd" d="M628.437 126.509C613.343 122.505 599.857 112.583 591.032 96.1698C572.532 62.0811 585.379 27.8211 618.269 10.0059C631.433 2.88425 645.111 -0.0988033 657.907 1.36117C677.655 2.26061 695.902 13.1124 707.419 34.5331C725.92 68.6218 713.243 103.053 680.182 120.868C662.83 130.212 644.468 132.339 628.437 126.509ZM678.053 48.7197C694.84 79.8963 696.21 105.42 675.312 116.726C670.178 119.51 664.879 120.615 659.552 120.198C645.628 116.56 631.818 102.889 620.57 81.9832C603.954 50.9779 602.412 25.1116 623.482 13.8057C628.525 11.0901 633.742 10.0124 638.996 10.4223C652.911 14.0612 666.771 27.7516 678.053 48.7197Z"/>
</mask>
<path fill-rule="evenodd" clip-rule="evenodd" d="M628.437 126.509C613.343 122.505 599.857 112.583 591.032 96.1698C572.532 62.0811 585.379 27.8211 618.269 10.0059C631.433 2.88425 645.111 -0.0988033 657.907 1.36117C677.655 2.26061 695.902 13.1124 707.419 34.5331C725.92 68.6218 713.243 103.053 680.182 120.868C662.83 130.212 644.468 132.339 628.437 126.509ZM678.053 48.7197C694.84 79.8963 696.21 105.42 675.312 116.726C670.178 119.51 664.879 120.615 659.552 120.198C645.628 116.56 631.818 102.889 620.57 81.9832C603.954 50.9779 602.412 25.1116 623.482 13.8057C628.525 11.0901 633.742 10.0124 638.996 10.4223C652.911 14.0612 666.771 27.7516 678.053 48.7197Z" fill="#FEC753"/>
<path d="M628.437 126.509L628.778 125.569L628.736 125.554L628.693 125.543L628.437 126.509ZM591.032 96.1698L591.913 95.6963L591.911 95.6928L591.032 96.1698ZM618.269 10.0059L617.793 9.12633L617.792 9.12658L618.269 10.0059ZM657.907 1.36117L657.793 2.35473L657.827 2.35859L657.861 2.36014L657.907 1.36117ZM707.419 34.5331L706.538 35.0066L706.54 35.0101L707.419 34.5331ZM680.182 120.868L680.657 121.749L680.657 121.749L680.182 120.868ZM675.312 116.726L674.836 115.846L674.835 115.847L675.312 116.726ZM678.053 48.7197L677.172 49.1935L677.172 49.1938L678.053 48.7197ZM659.552 120.198L659.299 121.165L659.385 121.188L659.473 121.195L659.552 120.198ZM620.57 81.9832L619.689 82.4556L619.689 82.457L620.57 81.9832ZM623.482 13.8057L623.955 14.6869L623.956 14.6862L623.482 13.8057ZM638.996 10.4223L639.249 9.45488L639.163 9.43232L639.074 9.42538L638.996 10.4223ZM628.693 125.543C613.869 121.61 600.607 111.867 591.913 95.6963L590.151 96.6434C599.107 113.298 612.818 123.401 628.18 127.476L628.693 125.543ZM591.911 95.6928C582.78 78.8679 581.413 62.0669 586.328 47.3011C591.246 32.5252 602.488 19.6912 618.745 10.8852L617.792 9.12658C601.16 18.1358 589.533 31.3394 584.43 46.6695C579.324 62.0097 580.784 79.3831 590.153 96.6468L591.911 95.6928ZM618.745 10.8854C631.759 3.84494 645.232 0.921559 657.793 2.35473L658.02 0.367618C644.989 -1.11917 631.107 1.92355 617.793 9.12633L618.745 10.8854ZM657.861 2.36014C677.236 3.24256 695.177 13.8758 706.538 35.0066L708.3 34.0595C696.627 12.3491 678.075 1.27867 657.952 0.362207L657.861 2.36014ZM706.54 35.0101C715.672 51.8361 717.081 68.6808 712.187 83.4895C707.29 98.3073 696.049 111.183 679.708 119.988L680.657 121.749C697.377 112.739 709.005 99.4909 714.086 84.1171C719.17 68.7341 717.667 51.3188 708.298 34.0561L706.54 35.0101ZM679.708 119.988C662.556 129.224 644.492 131.283 628.778 125.569L628.095 127.449C644.444 133.394 663.103 131.201 680.657 121.749L679.708 119.988ZM675.788 117.605C686.591 111.761 691.638 102.2 691.814 90.189C691.989 78.2523 687.362 63.9 678.933 48.2456L677.172 49.1938C685.53 64.716 689.982 78.7139 689.814 90.1597C689.648 101.531 684.931 110.385 674.836 115.846L675.788 117.605ZM659.473 121.195C665 121.628 670.491 120.478 675.788 117.605L674.835 115.847C669.865 118.542 664.758 119.603 659.63 119.201L659.473 121.195ZM619.689 82.457C630.984 103.448 644.971 117.422 659.299 121.165L659.804 119.23C646.285 115.698 632.653 102.329 621.451 81.5094L619.689 82.457ZM623.009 12.9246C612.115 18.7701 607.07 28.4205 606.894 40.4926C606.719 52.492 611.345 66.8862 619.689 82.4556L621.451 81.5109C613.179 66.0749 608.726 52.0333 608.894 40.5217C609.06 29.0829 613.779 20.1472 623.955 14.6869L623.009 12.9246ZM639.074 9.42538C633.623 9.00005 628.215 10.1213 623.008 12.9253L623.956 14.6862C628.835 12.059 633.861 11.0247 638.918 11.4193L639.074 9.42538ZM678.933 48.2459C667.605 27.1917 653.568 13.1993 639.249 9.45488L638.743 11.3898C652.255 14.9231 665.936 28.3115 677.172 49.1935L678.933 48.2459Z" fill="black" mask="url(#path-28-outside-6_114_30007)"/>
<path d="M687.123 120.421L687.123 120.421C703.748 111.462 715.279 98.3072 720.314 83.0724C725.351 67.8333 723.871 50.5609 714.562 33.4076C705.339 16.2552 692.085 6.00534 677.159 2.1983C662.241 -1.60693 645.71 1.03853 629.947 9.5661L629.947 9.56623C613.409 18.5246 601.878 31.6358 596.821 46.8274C591.763 62.0237 593.199 79.2536 602.509 96.4073C611.732 113.561 625.03 123.81 639.975 127.638C654.914 131.465 671.444 128.863 687.123 120.421ZM686.99 116.286L686.99 116.286C677.068 121.668 666.511 120.678 656.291 114.415C646.052 108.14 636.169 96.5746 627.714 80.8587C619.424 65.3896 614.927 51.2601 615.097 39.6267C615.266 28.0295 620.066 18.9151 630.422 13.3585L630.422 13.3582C640.257 8.06265 650.772 9.09303 660.971 15.3778C671.19 21.6746 681.073 33.2407 689.529 48.9566L689.529 48.9567C697.905 64.512 702.4 78.5985 702.231 90.167C702.062 101.698 697.263 110.729 686.99 116.286Z" fill="#FFF8EC" stroke="black"/>
<path d="M951.203 83.8099L951.409 83.0775L950.655 83.1791C938.81 84.7754 928.075 85.5125 912.638 85.5125H906.338C920.163 75.0447 930.922 66.5706 938.275 58.6526C945.846 50.4999 949.862 42.878 949.862 34.2112C949.862 26.1873 946.642 20.1662 941.589 16.1625C936.55 12.17 929.724 10.2099 922.53 10.2099C904.208 10.2099 894.8 22.708 891.176 29.5475L890.929 30.0151L891.41 30.236L893.017 30.9742L893.4 31.1502L893.638 30.8023C899.368 22.4317 906.269 19.2077 913.133 19.2077C917.855 19.2077 922.048 20.6524 925.058 23.5585C928.064 26.4607 929.944 30.8731 929.944 36.9181C929.944 45.6965 926.14 54.6105 920.152 63.5558C914.166 72.4976 906.033 81.4218 897.443 90.2157L897.439 90.2202L890.638 97.3567L890.5 97.5015V97.7016V98.1938V98.6938H891H946.642H947.021L947.123 98.3291L951.203 83.8099ZM1018.36 66.8177V66.3177H1017.86H1006.74V11.9403V11.4403H1006.24H1001.42H1001.18L1001.03 11.6214L952.932 69.6979L952.742 69.9264L952.852 70.2019L955.696 77.3385L955.822 77.6534H956.161H988.922V98.1938V98.6938H989.422H1006.24H1006.74V98.1938V77.6534H1017.86H1018.36V77.1534V66.8177ZM988.922 31.1738V66.3177H959.941L988.922 31.1738Z" fill="#FFF8EC" stroke="black"/>
<path d="M66 134C101.346 134 130 105.346 130 70C130 34.6538 101.346 6 66 6C30.6538 6 2 34.6538 2 70C2 105.346 30.6538 134 66 134Z" stroke="#FFF8EC" stroke-width="3" stroke-miterlimit="10"/>
<path d="M66.499 25.567C63.1108 25.567 59.7225 25.8588 56.3814 26.4329C47.4214 28.0141 45.7931 31.327 45.7931 37.4353V45.5011H66.9696V48.1929H37.8402C31.6849 48.1929 26.3014 51.8917 24.6166 58.9223C22.6684 66.9882 22.5837 72.0235 24.6166 80.4376C26.1225 86.7058 29.7178 91.167 35.8637 91.167H43.1484V81.5011C43.3084 74.2729 49.1531 68.4753 56.3719 68.3529H77.5202C83.4119 68.3058 88.146 63.4964 88.1084 57.6047C88.1084 57.6047 88.1084 57.6047 88.1084 57.5952V37.4353C88.1084 31.6941 83.2708 27.3835 77.5202 26.4329C73.8778 25.84 70.1884 25.5482 66.4896 25.567H66.499ZM55.0449 32.0611C57.2755 32.0235 59.1108 33.8023 59.139 36.0329C59.1766 38.2635 57.3978 40.0988 55.1672 40.127C52.9366 40.1647 51.1014 38.3858 51.0731 36.1553C51.0731 36.1364 51.0731 36.127 51.0731 36.1082C51.0543 33.8964 52.8331 32.0894 55.0449 32.0611Z" fill="#FFF8EC"/>
<path d="M90.753 48.2023V57.6047C90.6683 64.9082 84.8236 70.8376 77.5294 71.0259H56.3812C50.5177 71.1388 45.8118 75.92 45.793 81.7929V101.953C45.793 107.694 50.7812 111.064 56.3812 112.711C63.2612 114.866 70.64 114.866 77.5294 112.711C82.8565 111.167 88.1177 108.061 88.1177 101.953V93.887H66.9694V91.1953H98.7059C104.861 91.1953 107.148 86.9035 109.294 80.4659C111.506 73.8306 111.412 67.4588 109.294 58.9506C107.769 52.8235 104.871 48.2212 98.7059 48.2212H90.7624L90.753 48.2023ZM78.8565 99.2611C81.0871 99.2235 82.9224 101.002 82.9506 103.233C82.9883 105.463 81.2094 107.299 78.9789 107.327C76.7483 107.365 74.913 105.586 74.8847 103.355C74.8847 103.327 74.8847 103.308 74.8847 103.28C74.8659 101.078 76.6447 99.2706 78.8565 99.2611Z" fill="#FFF8EC"/>
</svg>
