<svg width="1611" height="669" viewBox="0 0 1611 669" fill="none" xmlns="http://www.w3.org/2000/svg">
<path d="M1536.15 3.84099L1535.68 2.42781L1535.21 3.84099L1519.54 50.5408L1472.84 66.206L1471.43 66.68L1472.84 67.154L1519.54 82.8192L1535.21 129.519L1535.68 130.932L1536.15 129.519L1551.82 82.8192L1598.52 67.154L1599.93 66.68L1598.52 66.206L1551.82 50.5408L1536.15 3.84099Z" fill="#FFF8EC" stroke="black"/>
<path d="M1492.48 22.4787L1535.46 43.8479L1535.68 43.9586L1535.9 43.8479L1578.88 22.4787L1557.51 65.4572L1557.4 65.6798L1557.51 65.9024L1578.88 108.881L1535.9 87.5117L1535.68 87.401L1535.46 87.5117L1492.48 108.881L1513.85 65.9024L1513.96 65.6798L1513.85 65.4572L1492.48 22.4787Z" fill="url(#paint0_linear_22_411)" stroke="black"/>
<path d="M-7.43992 197.746L-7.1461 198.15L-6.85213 198.555C-22.3267 209.802 -30.4262 220.706 -33.5512 229.56C-36.6806 238.425 -34.8079 245.131 -30.5317 248.24C-26.2556 251.348 -19.302 251.059 -11.8403 245.344C-4.38873 239.637 3.47606 228.563 9.38894 210.367L9.86446 210.521L10.34 210.676C4.42712 228.872 4.281 242.454 6.95493 251.453C9.63254 260.464 15.0886 264.786 20.3753 264.786C25.662 264.786 31.1181 260.464 33.7957 251.453C36.4696 242.454 36.3235 228.872 30.4106 210.676L30.8861 210.521L31.3617 210.367C37.2745 228.563 45.1393 239.637 52.5909 245.344C60.0527 251.059 67.0062 251.348 71.2823 248.24C75.5586 245.131 77.4313 238.425 74.3019 229.56C71.1769 220.706 63.0775 209.802 47.6029 198.555L47.8968 198.15L48.1908 197.746C63.6654 208.993 76.5351 213.329 85.9183 213.566C95.3143 213.803 101.112 209.948 102.748 204.918C104.384 199.888 101.962 193.361 94.2253 188.028C86.4992 182.703 73.5441 178.643 54.4207 178.643V178.143V177.643C73.5441 177.643 86.5022 173.584 94.2322 168.258C101.973 162.925 104.399 156.398 102.766 151.368C101.133 146.338 95.3371 142.483 85.9387 142.72C76.5542 142.957 63.6804 147.292 48.1961 158.537C48.1943 158.538 48.1926 158.54 48.1908 158.541C48.1908 158.541 48.1907 158.541 48.1907 158.541L47.8968 158.136L47.6029 157.732C63.0775 146.484 71.1769 135.58 74.3019 126.727C77.4313 117.861 75.5586 111.155 71.2823 108.047C67.0062 104.938 60.0527 105.227 52.5909 110.942C45.1393 116.65 37.2745 127.723 31.3617 145.92L30.8861 145.765L30.4106 145.61C36.3235 127.414 36.4696 113.832 33.7957 104.834C31.1181 95.8228 25.662 91.5 20.3753 91.5C15.0886 91.5 9.63254 95.8228 6.95493 104.834C4.281 113.832 4.42712 127.414 10.34 145.61L9.86446 145.765L9.38894 145.92C3.47606 127.723 -4.38873 116.65 -11.8403 110.942C-19.302 105.227 -26.2556 104.938 -30.5317 108.047C-34.8079 111.155 -36.6806 117.861 -33.5512 126.727C-30.4262 135.58 -22.3267 146.484 -6.85213 157.732L-7.1461 158.136L-7.44007 158.541C-22.9147 147.293 -35.7844 142.957 -45.1676 142.72C-54.5636 142.483 -60.3616 146.338 -61.9974 151.368C-63.6332 156.399 -61.2114 162.925 -53.4747 168.258C-45.7486 173.584 -32.7935 177.643 -13.6701 177.643V178.143V178.643C-32.7935 178.643 -45.7516 182.703 -53.4816 188.028C-61.2222 193.361 -63.6484 199.888 -62.0155 204.918C-60.3826 209.948 -54.5864 213.803 -45.1879 213.566C-35.8028 213.329 -22.9277 208.994 -7.44175 197.747L-7.43992 197.746ZM-7.43992 197.746C-7.43997 197.746 -7.44002 197.746 -7.44007 197.746L-7.43992 197.746Z" fill="url(#paint1_linear_22_411)" stroke="black"/>
<path d="M52.472 178.144C52.472 195.884 38.0915 210.264 20.3522 210.264C2.61294 210.264 -11.7676 195.884 -11.7676 178.144C-11.7676 160.405 2.61294 146.025 20.3522 146.025C38.0915 146.025 52.472 160.405 52.472 178.144Z" fill="url(#paint2_linear_22_411)" stroke="black"/>
<path d="M158.807 156.914C158.092 156.916 157.449 157.226 156.981 157.718H156.945L156.795 157.908L137.705 182.09L137.183 182.751L138.014 182.892C140.889 183.381 143.832 183.565 146.752 183.429C142.026 191.165 136.669 198.495 130.719 205.325L130.007 206.142L131.091 206.153C134.66 206.19 138.246 205.885 141.764 205.222C135.507 213.009 129.268 220.91 124.559 229.765L125.291 230.406C140.795 219.282 155.618 207.168 169.596 194.187L170.604 193.25L169.23 193.321C164.216 193.579 159.235 194.346 154.375 195.592C160.072 189.839 165.428 183.735 170.392 177.346L171.097 176.438L169.952 176.541C166.724 176.832 163.463 176.832 160.24 176.556C165.841 171.934 170.82 166.561 175.018 160.63C176.268 158.868 174.941 156.427 172.782 156.502C172.781 156.502 172.781 156.502 172.78 156.502L158.807 156.914Z" fill="#FFF8EC" stroke="black"/>
<path d="M1592.99 250.333C1594.86 250.627 1596.97 250.837 1599.36 251C1596.97 251.164 1594.85 251.375 1592.98 251.67C1588.53 252.373 1585.39 253.562 1583.2 255.787C1581.01 258.011 1579.84 261.197 1579.15 265.717C1578.86 267.582 1578.66 269.688 1578.5 272.066C1578.34 269.684 1578.13 267.575 1577.85 265.709C1577.16 261.187 1575.99 258.002 1573.8 255.779C1571.6 253.555 1568.46 252.368 1564.01 251.667C1562.14 251.373 1560.03 251.163 1557.64 251C1560.03 250.836 1562.15 250.625 1564.02 250.33C1568.47 249.627 1571.61 248.438 1573.8 246.213C1575.99 243.989 1577.16 240.803 1577.85 236.283C1578.14 234.418 1578.34 232.312 1578.5 229.934C1578.66 232.316 1578.87 234.425 1579.15 236.291C1579.84 240.813 1581.01 243.998 1583.2 246.221C1585.4 248.445 1588.54 249.632 1592.99 250.333Z" fill="url(#paint3_linear_22_411)" stroke="black"/>
<path d="M278.991 104.333C280.857 104.627 282.969 104.837 285.358 105C282.965 105.164 280.85 105.375 278.982 105.67C274.526 106.373 271.387 107.562 269.196 109.787C267.007 112.011 265.839 115.197 265.149 119.717C264.865 121.582 264.659 123.688 264.5 126.066C264.34 123.684 264.134 121.575 263.848 119.709C263.156 115.187 261.987 112.002 259.796 109.779C257.604 107.555 254.464 106.368 250.009 105.667C248.143 105.373 246.031 105.163 243.642 105C246.035 104.836 248.149 104.625 250.018 104.33C254.474 103.627 257.613 102.438 259.804 100.213C261.993 97.9887 263.161 94.8033 263.851 90.2826C264.135 88.4184 264.341 86.3124 264.5 83.9336C264.66 86.3161 264.866 88.425 265.152 90.2913C265.844 94.813 267.013 97.9978 269.204 100.221C271.396 102.445 274.536 103.632 278.991 104.333Z" fill="url(#paint4_linear_22_411)" stroke="black"/>
<path d="M1167.96 380.649C1168.84 380.79 1169.81 380.905 1170.86 381C1169.81 381.096 1168.84 381.211 1167.95 381.353C1164.72 381.866 1162.41 382.737 1160.8 384.387C1159.18 386.035 1158.33 388.386 1157.83 391.683C1157.7 392.556 1157.59 393.502 1157.5 394.525C1157.41 393.499 1157.3 392.552 1157.17 391.677C1156.66 388.379 1155.81 386.028 1154.2 384.381C1152.58 382.732 1150.28 381.862 1147.04 381.351C1146.16 381.21 1145.19 381.095 1144.14 381C1145.19 380.904 1146.16 380.789 1147.05 380.647C1150.28 380.134 1152.59 379.263 1154.2 377.613C1155.82 375.965 1156.67 373.614 1157.17 370.317C1157.3 369.444 1157.41 368.498 1157.5 367.475C1157.59 368.501 1157.7 369.448 1157.83 370.323C1158.34 373.621 1159.19 375.972 1160.8 377.619C1162.42 379.268 1164.72 380.138 1167.96 380.649Z" fill="url(#paint5_linear_22_411)" stroke="black"/>
<path d="M1608 279.5C1608 281.985 1605.76 284 1603 284C1600.24 284 1598 281.985 1598 279.5C1598 277.015 1600.24 275 1603 275C1605.76 275 1608 277.015 1608 279.5Z" fill="#130000"/>
<path d="M1139 330.5C1139 332.985 1136.76 335 1134 335C1131.24 335 1129 332.985 1129 330.5C1129 328.015 1131.24 326 1134 326C1136.76 326 1139 328.015 1139 330.5Z" fill="#130000"/>
<path d="M123.768 326.659L124.119 327.015L124.469 326.659L144.593 306.2C153.58 297.063 153.58 282.239 144.593 273.102L140.397 268.836C131.409 259.699 116.828 259.699 107.841 268.836L103.644 273.102C94.6568 282.239 94.6568 297.063 103.644 306.2L123.768 326.659Z" fill="#FFF8EC" stroke="black"/>
<path d="M124.453 326.677L124.803 326.32L124.453 325.964L104.329 305.505C95.3414 296.368 80.7606 296.368 71.7729 305.505L67.5768 309.771C58.5891 318.908 58.5891 333.732 67.5768 342.869L71.7729 347.135C80.7606 356.272 95.3414 356.272 104.329 347.135L124.453 326.677Z" fill="#FFF8EC" stroke="black"/>
<path d="M132.135 275.611C132.135 280.128 128.535 283.775 124.112 283.775C119.689 283.775 116.09 280.128 116.09 275.611C116.09 271.094 119.689 267.447 124.112 267.447C128.535 267.447 132.135 271.094 132.135 275.611Z" fill="url(#paint6_linear_22_411)" stroke="black"/>
<path d="M124.465 325.951L124.114 325.594L123.763 325.951L103.64 346.409C94.6521 355.546 94.6522 370.37 103.64 379.507L107.836 383.773C116.824 392.91 131.404 392.91 140.392 383.773L144.588 379.507C153.576 370.37 153.576 355.546 144.588 346.409L124.465 325.951Z" fill="#FFF8EC" stroke="black"/>
<path d="M132.135 377.016C132.135 381.533 128.535 385.18 124.112 385.18C119.689 385.18 116.09 381.533 116.09 377.016C116.09 372.499 119.689 368.851 124.112 368.851C128.535 368.851 132.135 372.499 132.135 377.016Z" fill="url(#paint7_linear_22_411)" stroke="black"/>
<path d="M123.761 325.954L123.411 326.311L123.761 326.667L143.885 347.126C152.873 356.263 167.453 356.263 176.441 347.126L180.637 342.86C189.625 333.723 189.625 318.899 180.637 309.762L176.441 305.496C167.453 296.359 152.873 296.359 143.885 305.496L123.761 325.954Z" fill="#FFF8EC" stroke="black"/>
<path d="M114.118 307.788L113.248 308.282C113.248 308.282 113.248 308.282 113.248 308.282C112.01 306.104 110.643 304.795 109.265 304.125C107.893 303.458 106.466 303.4 105.053 303.803C102.195 304.619 99.403 307.327 97.51 310.661C95.6176 313.994 94.7047 317.81 95.4415 320.742C95.8061 322.192 96.5723 323.423 97.8273 324.297C99.0879 325.176 100.884 325.724 103.355 325.724V326.224V326.724C100.884 326.724 99.0879 327.272 97.8273 328.15C96.5723 329.024 95.8061 330.255 95.4415 331.706C94.7047 334.637 95.6176 338.453 97.51 341.786C99.403 345.12 102.195 347.828 105.053 348.644C106.466 349.047 107.893 348.989 109.265 348.322C110.643 347.652 112.01 346.344 113.248 344.165L113.683 344.413L114.118 344.66C112.88 346.837 112.447 348.697 112.564 350.25C112.682 351.796 113.348 353.086 114.399 354.13C116.523 356.24 120.224 357.342 124.006 357.342C127.789 357.342 131.491 356.24 133.616 354.13C134.668 353.086 135.336 351.796 135.454 350.25C135.573 348.697 135.141 346.839 133.906 344.662L114.118 307.788ZM114.118 307.788C114.118 307.788 114.118 307.788 114.118 307.788M114.118 307.788L114.118 307.788M114.118 307.788C112.882 305.61 112.45 303.751 112.568 302.197C112.687 300.651 113.354 299.361 114.406 298.317C116.532 296.208 120.233 295.105 124.016 295.105C127.798 295.105 131.499 296.208 133.623 298.317C134.674 299.361 135.341 300.651 135.458 302.197C135.576 303.751 135.142 305.61 133.905 307.788L134.339 308.035L134.774 308.282C136.012 306.104 137.379 304.795 138.758 304.125C140.129 303.458 141.556 303.4 142.969 303.803C145.827 304.619 148.619 307.327 150.512 310.661C152.405 313.994 153.318 317.81 152.581 320.742C152.216 322.192 151.45 323.423 150.195 324.297C148.934 325.176 147.138 325.724 144.667 325.724V326.224V326.724C147.138 326.724 148.934 327.272 150.195 328.15C151.45 329.024 152.216 330.255 152.581 331.706C153.318 334.637 152.405 338.453 150.512 341.786C148.619 345.12 145.827 347.828 142.969 348.644C141.556 349.047 140.129 348.989 138.758 348.322C137.379 347.652 136.012 346.344 134.774 344.165L133.904 344.659C133.904 344.659 133.904 344.659 133.905 344.66L114.118 307.788Z" fill="url(#paint8_linear_22_411)" stroke="black"/>
<path d="M119.367 316.997C119.369 316.999 119.37 317.001 119.371 317.003L118.936 317.251L118.502 317.497C117.909 316.454 117.269 315.852 116.648 315.55C116.035 315.251 115.396 315.222 114.752 315.406C113.432 315.781 112.1 317.052 111.183 318.666C110.267 320.278 109.847 322.089 110.189 323.446C110.356 324.11 110.702 324.661 111.265 325.053C111.833 325.448 112.665 325.71 113.848 325.71C113.149 325.71 112.527 325.792 111.981 325.949C105.772 323.953 112.962 311.293 117.769 315.726C117.907 316.288 118.149 316.879 118.502 317.498L119.371 317.004C119.37 317.002 119.369 316.999 119.367 316.997ZM119.367 316.997C118.776 315.957 118.583 315.092 118.635 314.39C118.687 313.695 118.985 313.114 119.464 312.638C120.444 311.663 122.191 311.127 124.02 311.127C125.848 311.127 127.596 311.663 128.579 312.638C129.059 313.115 129.357 313.695 129.41 314.391C129.464 315.094 129.27 315.961 128.678 317.004L129.113 317.251M119.367 316.997L129.113 317.251M129.113 317.251L129.548 317.497C130.14 316.454 130.78 315.852 131.401 315.55C132.014 315.251 132.652 315.222 133.295 315.406C134.614 315.781 135.945 317.052 136.861 318.666C137.777 320.278 138.197 322.089 137.855 323.446C137.689 324.11 137.343 324.661 136.781 325.053C136.213 325.448 135.383 325.71 134.201 325.71V326.21V326.71M129.113 317.251L134.201 326.71M134.201 326.71C135.383 326.71 136.213 326.972 136.781 327.368C137.343 327.759 137.689 328.31 137.855 328.974C138.197 330.331 137.777 332.143 136.861 333.755C135.945 335.368 134.614 336.639 133.295 337.015C132.652 337.198 132.014 337.17 131.401 336.871C130.78 336.569 130.14 335.967 129.548 334.923L129.113 335.17L128.678 335.417C128.678 335.417 128.678 335.417 128.678 335.417L129.548 334.923C129.9 335.542 130.142 336.133 130.281 336.694C135.086 341.127 142.266 328.469 136.067 326.472C135.521 326.628 134.9 326.71 134.201 326.71ZM128.679 335.417C129.031 336.039 129.416 336.549 129.828 336.953M128.679 335.417L129.828 336.953M128.679 335.417C129.272 336.461 129.467 337.328 129.414 338.03C129.362 338.726 129.065 339.306 128.585 339.783C127.605 340.758 125.858 341.293 124.029 341.293C122.201 341.293 120.453 340.758 119.471 339.783C118.991 339.306 118.692 338.725 118.639 338.03C118.586 337.327 118.779 336.46 119.371 335.417C119.019 336.037 118.636 336.546 118.225 336.95C116.838 343.407 131.219 343.408 129.828 336.953M128.679 335.417L129.828 336.953M118.936 335.17L118.502 334.923C117.909 335.967 117.269 336.569 116.648 336.871C116.035 337.17 115.397 337.198 114.754 337.015C113.435 336.639 112.104 335.368 111.188 333.755C110.273 332.143 109.853 330.331 110.194 328.974C110.361 328.31 110.707 327.759 111.269 327.368C111.836 326.972 112.667 326.71 113.848 326.71V326.21L118.936 335.17Z" fill="url(#paint9_linear_22_411)" stroke="black"/>
<path d="M182.008 326.314C182.008 330.831 178.408 334.479 173.985 334.479C169.562 334.479 165.963 330.831 165.963 326.314C165.963 321.797 169.562 318.15 173.985 318.15C178.408 318.15 182.008 321.797 182.008 326.314Z" fill="url(#paint10_linear_22_411)" stroke="black"/>
<path d="M82.2624 326.314C82.2624 330.831 78.6628 334.479 74.2398 334.479C69.8169 334.479 66.2173 330.831 66.2173 326.314C66.2173 321.797 69.8169 318.15 74.2398 318.15C78.6628 318.15 82.2624 321.797 82.2624 326.314Z" fill="url(#paint11_linear_22_411)" stroke="black"/>
<path d="M132.135 326.314C132.135 330.831 128.535 334.479 124.112 334.479C119.689 334.479 116.09 330.831 116.09 326.314C116.09 321.797 119.689 318.15 124.112 318.15C128.535 318.15 132.135 321.797 132.135 326.314Z" fill="url(#paint12_linear_22_411)" stroke="black"/>
<path d="M72.9561 644.649C73.8446 644.79 74.8097 644.905 75.8575 645C74.8072 645.096 73.8401 645.211 72.9499 645.353C69.7165 645.866 67.4106 646.737 65.796 648.387C64.183 650.035 63.333 652.386 62.8325 655.683C62.6999 656.556 62.5911 657.502 62.4996 658.525C62.4078 657.499 62.2986 656.552 62.1655 655.677C61.6638 652.379 60.8123 650.028 59.1984 648.381C57.5828 646.732 55.2765 645.862 52.0439 645.351C51.1554 645.21 50.1903 645.095 49.1425 645C50.1928 644.904 51.1599 644.789 52.0501 644.647C55.2835 644.134 57.5894 643.263 59.204 641.613C60.817 639.965 61.667 637.614 62.1675 634.317C62.3001 633.444 62.4089 632.498 62.5004 631.475C62.5922 632.501 62.7014 633.448 62.8345 634.323C63.3362 637.621 64.1877 639.972 65.8016 641.619C67.4172 643.268 69.7235 644.138 72.9561 644.649Z" fill="url(#paint13_linear_22_411)" stroke="black"/>
<defs>
<linearGradient id="paint0_linear_22_411" x1="1512.72" y1="25.6993" x2="1540.92" y2="113.243" gradientUnits="userSpaceOnUse">
<stop stop-color="#7383F7"/>
<stop offset="0.71875" stop-color="#9EAAFF"/>
</linearGradient>
<linearGradient id="paint1_linear_22_411" x1="-38.5312" y1="97.3288" x2="29.8988" y2="269.787" gradientUnits="userSpaceOnUse">
<stop stop-color="#FFB2D8"/>
<stop offset="0.458333" stop-color="#FFB2D8"/>
<stop offset="1" stop-color="#FFD9EC"/>
</linearGradient>
<linearGradient id="paint2_linear_22_411" x1="52.972" y1="148.318" x2="14.5919" y2="224.327" gradientUnits="userSpaceOnUse">
<stop stop-color="#FF48CA"/>
<stop offset="0.491167" stop-color="#E07CC3"/>
<stop offset="1" stop-color="#E07CC3"/>
</linearGradient>
<linearGradient id="paint3_linear_22_411" x1="1544.12" y1="219.65" x2="1582.64" y2="293.496" gradientUnits="userSpaceOnUse">
<stop stop-color="#D3C3ED"/>
<stop offset="0.489583" stop-color="#D3C3ED"/>
<stop offset="1" stop-color="#EEE3FF"/>
</linearGradient>
<linearGradient id="paint4_linear_22_411" x1="297" y1="74.8262" x2="257.822" y2="151.239" gradientUnits="userSpaceOnUse">
<stop stop-color="#FF48CA"/>
<stop offset="0.491167" stop-color="#E07CC3"/>
<stop offset="1" stop-color="#E07CC3"/>
</linearGradient>
<linearGradient id="paint5_linear_22_411" x1="1186.11" y1="405" x2="1128.41" y2="375.36" gradientUnits="userSpaceOnUse">
<stop stop-color="#8CB6F3"/>
<stop offset="0.419064" stop-color="#8CB6F3"/>
<stop offset="0.979167" stop-color="#CEE0FB"/>
</linearGradient>
<linearGradient id="paint6_linear_22_411" x1="118.091" y1="267.576" x2="124.758" y2="284.85" gradientUnits="userSpaceOnUse">
<stop stop-color="#FFB2D8"/>
<stop offset="0.458333" stop-color="#FFB2D8"/>
<stop offset="1" stop-color="#FFD9EC"/>
</linearGradient>
<linearGradient id="paint7_linear_22_411" x1="118.091" y1="368.981" x2="124.758" y2="386.254" gradientUnits="userSpaceOnUse">
<stop stop-color="#FFB2D8"/>
<stop offset="0.458333" stop-color="#FFB2D8"/>
<stop offset="1" stop-color="#FFD9EC"/>
</linearGradient>
<linearGradient id="paint8_linear_22_411" x1="108.818" y1="297.696" x2="130.19" y2="359.222" gradientUnits="userSpaceOnUse">
<stop stop-color="#7383F7"/>
<stop offset="0.484375" stop-color="#9EAAFF"/>
<stop offset="1" stop-color="#C1C8F7"/>
</linearGradient>
<linearGradient id="paint9_linear_22_411" x1="112.503" y1="310.627" x2="123.265" y2="343.677" gradientUnits="userSpaceOnUse">
<stop stop-color="#FF7372"/>
<stop offset="0.484375" stop-color="#FF7372"/>
<stop offset="1" stop-color="#FF8C8B"/>
</linearGradient>
<linearGradient id="paint10_linear_22_411" x1="167.964" y1="318.279" x2="174.631" y2="335.553" gradientUnits="userSpaceOnUse">
<stop stop-color="#FFB2D8"/>
<stop offset="0.458333" stop-color="#FFB2D8"/>
<stop offset="1" stop-color="#FFD9EC"/>
</linearGradient>
<linearGradient id="paint11_linear_22_411" x1="68.2185" y1="318.279" x2="74.8853" y2="335.553" gradientUnits="userSpaceOnUse">
<stop stop-color="#FFB2D8"/>
<stop offset="0.458333" stop-color="#FFB2D8"/>
<stop offset="1" stop-color="#FFD9EC"/>
</linearGradient>
<linearGradient id="paint12_linear_22_411" x1="118.091" y1="318.279" x2="124.758" y2="335.553" gradientUnits="userSpaceOnUse">
<stop stop-color="#FFB2D8"/>
<stop offset="0.458333" stop-color="#FFB2D8"/>
<stop offset="1" stop-color="#FFD9EC"/>
</linearGradient>
<linearGradient id="paint13_linear_22_411" x1="43.7681" y1="621" x2="59.6234" y2="672.408" gradientUnits="userSpaceOnUse">
<stop stop-color="#FF7372"/>
<stop offset="0.484375" stop-color="#FF7372"/>
<stop offset="1" stop-color="#FF8C8B"/>
</linearGradient>
</defs>
</svg>
