<svg xmlns="http://www.w3.org/2000/svg" width="200" height="46" fill="none" viewBox="0 0 200 46"><path fill="url(#prefix__a)" stroke="#000" d="m26.138 19.385.067.41.41.067L45.92 23l-19.305 3.138-.41.066-.067.41L23 45.92l-3.138-19.305-.066-.41-.41-.067L.08 23l19.305-3.138.41-.066.067-.41L23 .08z"/><path fill="url(#prefix__b)" stroke="#000" d="m6.8 6.8 15.863 11.432.337.243.337-.243L39.2 6.8 27.768 22.663l-.243.337.243.338L39.2 39.2 23.337 27.768 23 27.525l-.337.243L6.8 39.2l11.432-15.862.243-.338-.243-.337Z"/><defs><linearGradient id="prefix__a" x1="4.713" x2="19.628" y1=".052" y2="49.439" gradientTransform="matrix(1.15422 0 0 1.15421 -3.577 -3.577)" gradientUnits="userSpaceOnUse"><stop stop-color="#FF7372"/><stop offset=".484" stop-color="#FF7372"/><stop offset="1" stop-color="#FF8C8B"/></linearGradient><linearGradient id="prefix__b" x1="8.726" x2="25.568" y1="8.942" y2="45.147" gradientTransform="matrix(1.15422 0 0 1.15421 -3.577 -3.577)" gradientUnits="userSpaceOnUse"><stop stop-color="#E7B12D"/><stop offset=".477" stop-color="#F7C651"/><stop offset=".905" stop-color="#FFDE8C"/></linearGradient></defs></svg>