<svg xmlns="http://www.w3.org/2000/svg" width="81" height="42" fill="none" viewBox="0 0 81 42"><path fill="url(#prefix__a)" stroke="#000" d="M40.31.504c.14.002.264.005.37.008a48.746 48.746 0 0 1-.021 2.796 59.539 59.539 0 0 1-.84 8.053C38.738 17.537 36.37 25 31.26 30.638l-.542.563c-5.47 5.688-12.96 8.06-19.13 9.001-3.08.47-5.815.581-7.78.574a42.457 42.457 0 0 1-2.706-.093 45.276 45.276 0 0 1 .038-2.674 56 56 0 0 1 .883-7.746c1.146-6.166 3.67-13.718 9.15-19.419C16.65 5.15 24.12 2.563 30.265 1.405a53.225 53.225 0 0 1 7.745-.87 43.59 43.59 0 0 1 2.3-.03Z"/><path fill="url(#prefix__b)" stroke="#000" d="m51.45 31.205-.53-.563c-5-5.636-7.316-13.101-8.373-19.28a60.851 60.851 0 0 1-.822-8.053 50.053 50.053 0 0 1-.021-2.797 41.695 41.695 0 0 1 2.602.022 50.96 50.96 0 0 1 7.572.87c6.008 1.158 13.313 3.744 18.668 9.437 5.362 5.7 7.83 13.253 8.952 19.42.56 3.079.782 5.798.864 7.747a46.41 46.41 0 0 1 .038 2.676l-.377.025c-.53.031-1.3.064-2.26.067a48.855 48.855 0 0 1-7.608-.573c-6.033-.941-13.357-3.312-18.706-8.998Z"/><defs><linearGradient id="prefix__a" x1="3.023" x2="24.653" y1="2.742" y2="48.473" gradientUnits="userSpaceOnUse"><stop stop-color="#E7B12D"/><stop offset=".477" stop-color="#F7C651"/><stop offset=".905" stop-color="#FFDE8C"/></linearGradient><linearGradient id="prefix__b" x1="43.567" x2="65.497" y1="2.742" y2="48.101" gradientUnits="userSpaceOnUse"><stop stop-color="#E7B12D"/><stop offset=".477" stop-color="#F7C651"/><stop offset=".905" stop-color="#FFDE8C"/></linearGradient></defs></svg>