<svg width="63" height="63" viewBox="0 0 63 63" fill="none" xmlns="http://www.w3.org/2000/svg">
<path d="M62.5 31.7001C62.5 48.7104 48.7103 62.5001 31.7 62.5001C14.6896 62.5001 0.899902 48.7104 0.899902 31.7001C0.899902 14.6897 14.6896 0.900024 31.7 0.900024C48.7103 0.900024 62.5 14.6897 62.5 31.7001Z" fill="url(#paint0_linear_114_30332)" stroke="black"/>
<mask id="mask0_114_30332" style="mask-type:luminance" maskUnits="userSpaceOnUse" x="0" y="0" width="63" height="63">
<path d="M62.5 31.7001C62.5 48.7104 48.7103 62.5001 31.7 62.5001C14.6896 62.5001 0.899902 48.7104 0.899902 31.7001C0.899902 14.6897 14.6896 0.900024 31.7 0.900024C48.7103 0.900024 62.5 14.6897 62.5 31.7001Z" fill="white" stroke="white"/>
</mask>
<g mask="url(#mask0_114_30332)">
<path d="M10.7423 -1.06104L10.7614 -1.06736L10.78 -1.07519C17.0493 -3.71951 24.847 -1.79566 29.5654 3.13394C34.2835 8.06338 35.9718 15.6077 34.3083 22.2795L34.3082 22.28C33.6436 24.9559 32.4992 27.4833 31.3328 30.0593L31.2803 30.1753C30.1026 32.7767 28.9099 35.4298 28.2457 38.262L28.2456 38.2621C26.1722 47.1113 30.0168 57.0168 37.476 62.1809L37.4765 62.1812C44.301 66.8941 53.7321 67.3678 61.0687 63.5601L39.1057 94.5063L-15.0843 40.6382L-4.2068 3.8686L10.7423 -1.06104Z" fill="#FFF8EC" stroke="black"/>
</g>
<path d="M22.6748 15.5413C22.6748 17.6194 20.9902 19.304 18.9121 19.304C16.834 19.304 15.1494 17.6194 15.1494 15.5413C15.1494 13.4632 16.834 11.7786 18.9121 11.7786C20.9902 11.7786 22.6748 13.4632 22.6748 15.5413Z" fill="url(#paint1_linear_114_30332)" stroke="black"/>
<path d="M51.463 44.3296C51.463 46.4077 49.7784 48.0923 47.7003 48.0923C45.6222 48.0923 43.9375 46.4077 43.9375 44.3296C43.9375 42.2515 45.6222 40.5669 47.7003 40.5669C49.7784 40.5669 51.463 42.2515 51.463 44.3296Z" fill="#FFF8EC" stroke="black"/>
<circle cx="31.5" cy="31.5" r="31" stroke="black"/>
<defs>
<linearGradient id="paint0_linear_114_30332" x1="6.75063" y1="0.400024" x2="27.0706" y2="67.6859" gradientUnits="userSpaceOnUse">
<stop stop-color="#FF7372"/>
<stop offset="0.484375" stop-color="#FF7372"/>
<stop offset="1" stop-color="#FF8C8B"/>
</linearGradient>
<linearGradient id="paint1_linear_114_30332" x1="15.5143" y1="11.2786" x2="18.2817" y2="20.4422" gradientUnits="userSpaceOnUse">
<stop stop-color="#FF7372"/>
<stop offset="0.484375" stop-color="#FF7372"/>
<stop offset="1" stop-color="#FF8C8B"/>
</linearGradient>
</defs>
</svg>
