<svg width="54" height="80" viewBox="0 0 54 80" fill="none" xmlns="http://www.w3.org/2000/svg">
<path d="M15.3571 45.1527C12.8271 28.426 21.7698 10.6213 36.4639 2.36354C27.9877 11.9257 26.9235 27.5434 34.5071 37.9509L35.186 38.8826L35.4023 37.7503C36.7931 30.4713 42.3034 24.1282 49.2638 21.6347C46.1674 27.3915 47.4096 34.6373 49.3654 40.7691C49.6994 41.8162 50.05 42.8584 50.4001 43.8991C51.1548 46.1423 51.9072 48.3787 52.4855 50.6419C53.3284 53.9401 53.782 57.2311 53.3086 60.5384L53.3085 60.5387C52.5012 66.2038 48.9987 70.8495 44.2137 74.1024C39.4272 77.3563 33.3884 79.1924 27.5916 79.2413L27.5798 79.2412L27.5736 79.2413C22.0612 79.3104 16.6421 77.4726 12.4982 73.8656C7.24232 69.2911 3.35198 63.1332 1.65793 56.3711C-0.657311 47.1101 1.18765 36.9111 6.50727 28.9965C5.42366 35.4771 8.74295 42.6175 14.6326 45.6714L15.5039 46.1232L15.3571 45.1527Z" fill="url(#paint0_linear_114_30184)" stroke="black"/>
<defs>
<linearGradient id="paint0_linear_114_30184" x1="3.39399" y1="5.74251" x2="53.4997" y2="78.8836" gradientUnits="userSpaceOnUse">
<stop stop-color="#E7B12D"/>
<stop offset="0.476697" stop-color="#F7C651"/>
<stop offset="0.904587" stop-color="#FFDE8C"/>
</linearGradient>
</defs>
</svg>
